G04 #@! TF.GenerationSoftware,KiCad,Pcbnew,10.0.1*
G04 #@! TF.CreationDate,2026-04-18T12:17:17+02:00*
G04 #@! TF.ProjectId,FP7SEG_DRIVER,46503753-4547-45f4-9452-495645522e6b,rev?*
G04 #@! TF.SameCoordinates,Original*
G04 #@! TF.FileFunction,Soldermask,Bot*
G04 #@! TF.FilePolarity,Negative*
%FSLAX46Y46*%
G04 Gerber Fmt 4.6, Leading zero omitted, Abs format (unit mm)*
G04 Created by KiCad (PCBNEW 10.0.1) date 2026-04-18 12:17:17*
%MOMM*%
%LPD*%
G01*
G04 APERTURE LIST*
G04 APERTURE END LIST*
G36*
X43857785Y-55612994D02*
G01*
X43906773Y-55645727D01*
X43939506Y-55694715D01*
X43951000Y-55752500D01*
X43951000Y-55952500D01*
X43939506Y-56010285D01*
X43906773Y-56059273D01*
X43857785Y-56092006D01*
X43851628Y-56093230D01*
X43825504Y-56110686D01*
X43825504Y-56244314D01*
X43851628Y-56261769D01*
X43857785Y-56262994D01*
X43906773Y-56295727D01*
X43939506Y-56344715D01*
X43951000Y-56402500D01*
X43951000Y-56602500D01*
X43939506Y-56660285D01*
X43906773Y-56709273D01*
X43857785Y-56742006D01*
X43851628Y-56743230D01*
X43825504Y-56760686D01*
X43825504Y-56894314D01*
X43851628Y-56911769D01*
X43857785Y-56912994D01*
X43906773Y-56945727D01*
X43939506Y-56994715D01*
X43951000Y-57052500D01*
X43951000Y-57252500D01*
X43939506Y-57310285D01*
X43906773Y-57359273D01*
X43857785Y-57392006D01*
X43851628Y-57393230D01*
X43825504Y-57410686D01*
X43825504Y-57544314D01*
X43851628Y-57561769D01*
X43857785Y-57562994D01*
X43906773Y-57595727D01*
X43939506Y-57644715D01*
X43951000Y-57702500D01*
X43951000Y-57902500D01*
X43939506Y-57960285D01*
X43906773Y-58009273D01*
X43857785Y-58042006D01*
X43851628Y-58043230D01*
X43825504Y-58060686D01*
X43825504Y-58194314D01*
X43851628Y-58211769D01*
X43857785Y-58212994D01*
X43906773Y-58245727D01*
X43939506Y-58294715D01*
X43951000Y-58352500D01*
X43951000Y-58552500D01*
X43939506Y-58610285D01*
X43906773Y-58659273D01*
X43857785Y-58692006D01*
X43851628Y-58693230D01*
X43825504Y-58710686D01*
X43825504Y-58844314D01*
X43851628Y-58861769D01*
X43857785Y-58862994D01*
X43906773Y-58895727D01*
X43939506Y-58944715D01*
X43951000Y-59002500D01*
X43951000Y-59202500D01*
X43939506Y-59260285D01*
X43906773Y-59309273D01*
X43857785Y-59342006D01*
X43851628Y-59343230D01*
X43825504Y-59360686D01*
X43825504Y-59494314D01*
X43851628Y-59511769D01*
X43857785Y-59512994D01*
X43906773Y-59545727D01*
X43939506Y-59594715D01*
X43951000Y-59652500D01*
X43951000Y-59852500D01*
X43939506Y-59910285D01*
X43906773Y-59959273D01*
X43857785Y-59992006D01*
X43851628Y-59993230D01*
X43825504Y-60010686D01*
X43825504Y-60144314D01*
X43851628Y-60161769D01*
X43857785Y-60162994D01*
X43906773Y-60195727D01*
X43939506Y-60244715D01*
X43951000Y-60302500D01*
X43951000Y-60502500D01*
X43939506Y-60560285D01*
X43906773Y-60609273D01*
X43857785Y-60642006D01*
X43851628Y-60643230D01*
X43825504Y-60660686D01*
X43825504Y-60794314D01*
X43851628Y-60811769D01*
X43857785Y-60812994D01*
X43906773Y-60845727D01*
X43939506Y-60894715D01*
X43951000Y-60952500D01*
X43951000Y-61152500D01*
X43939506Y-61210285D01*
X43906773Y-61259273D01*
X43857785Y-61292006D01*
X43851628Y-61293230D01*
X43825504Y-61310686D01*
X43825504Y-61444314D01*
X43851628Y-61461769D01*
X43857785Y-61462994D01*
X43906773Y-61495727D01*
X43939506Y-61544715D01*
X43951000Y-61602500D01*
X43951000Y-61802500D01*
X43939506Y-61860285D01*
X43906773Y-61909273D01*
X43857785Y-61942006D01*
X43851628Y-61943230D01*
X43825504Y-61960686D01*
X43825504Y-62094314D01*
X43851628Y-62111769D01*
X43857785Y-62112994D01*
X43906773Y-62145727D01*
X43939506Y-62194715D01*
X43951000Y-62252500D01*
X43951000Y-62452500D01*
X43939506Y-62510285D01*
X43906773Y-62559273D01*
X43857785Y-62592006D01*
X43851628Y-62593230D01*
X43825504Y-62610686D01*
X43825504Y-62744314D01*
X43851628Y-62761769D01*
X43857785Y-62762994D01*
X43906773Y-62795727D01*
X43939506Y-62844715D01*
X43951000Y-62902500D01*
X43951000Y-63102500D01*
X43939506Y-63160285D01*
X43906773Y-63209273D01*
X43857785Y-63242006D01*
X43800000Y-63253500D01*
X42100000Y-63253500D01*
X42042215Y-63242006D01*
X41993227Y-63209273D01*
X41960494Y-63160285D01*
X41949000Y-63102500D01*
X41949000Y-62902500D01*
X41960494Y-62844715D01*
X41993227Y-62795727D01*
X42042215Y-62762994D01*
X42048368Y-62761770D01*
X42074495Y-62744313D01*
X42074495Y-62610687D01*
X42048369Y-62593230D01*
X42042215Y-62592006D01*
X41993227Y-62559273D01*
X41960494Y-62510285D01*
X41949000Y-62452500D01*
X41949000Y-62252500D01*
X41960494Y-62194715D01*
X41993227Y-62145727D01*
X42042215Y-62112994D01*
X42048368Y-62111770D01*
X42074495Y-62094313D01*
X42074495Y-61960687D01*
X42048369Y-61943230D01*
X42042215Y-61942006D01*
X41993227Y-61909273D01*
X41960494Y-61860285D01*
X41949000Y-61802500D01*
X41949000Y-61602500D01*
X41960494Y-61544715D01*
X41993227Y-61495727D01*
X42042215Y-61462994D01*
X42048368Y-61461770D01*
X42074495Y-61444313D01*
X42074495Y-61310687D01*
X42048369Y-61293230D01*
X42042215Y-61292006D01*
X41993227Y-61259273D01*
X41960494Y-61210285D01*
X41949000Y-61152500D01*
X41949000Y-60952500D01*
X41960494Y-60894715D01*
X41993227Y-60845727D01*
X42042215Y-60812994D01*
X42048368Y-60811770D01*
X42074495Y-60794313D01*
X42074495Y-60660687D01*
X42048369Y-60643230D01*
X42042215Y-60642006D01*
X41993227Y-60609273D01*
X41960494Y-60560285D01*
X41949000Y-60502500D01*
X41949000Y-60302500D01*
X41960494Y-60244715D01*
X41993227Y-60195727D01*
X42042215Y-60162994D01*
X42048368Y-60161770D01*
X42074495Y-60144313D01*
X42074495Y-60010687D01*
X42048369Y-59993230D01*
X42042215Y-59992006D01*
X41993227Y-59959273D01*
X41960494Y-59910285D01*
X41949000Y-59852500D01*
X41949000Y-59652500D01*
X41960494Y-59594715D01*
X41993227Y-59545727D01*
X42042215Y-59512994D01*
X42048368Y-59511770D01*
X42074495Y-59494313D01*
X42074495Y-59360687D01*
X42048369Y-59343230D01*
X42042215Y-59342006D01*
X41993227Y-59309273D01*
X41960494Y-59260285D01*
X41949000Y-59202500D01*
X41949000Y-59002500D01*
X41960494Y-58944715D01*
X41993227Y-58895727D01*
X42042215Y-58862994D01*
X42048368Y-58861770D01*
X42074495Y-58844313D01*
X42074495Y-58710687D01*
X42048369Y-58693230D01*
X42042215Y-58692006D01*
X41993227Y-58659273D01*
X41960494Y-58610285D01*
X41949000Y-58552500D01*
X41949000Y-58352500D01*
X41960494Y-58294715D01*
X41993227Y-58245727D01*
X42042215Y-58212994D01*
X42048368Y-58211770D01*
X42074495Y-58194313D01*
X42074495Y-58060687D01*
X42048369Y-58043230D01*
X42042215Y-58042006D01*
X41993227Y-58009273D01*
X41960494Y-57960285D01*
X41949000Y-57902500D01*
X41949000Y-57702500D01*
X41960494Y-57644715D01*
X41993227Y-57595727D01*
X42042215Y-57562994D01*
X42048368Y-57561770D01*
X42074495Y-57544313D01*
X42074495Y-57410687D01*
X42048369Y-57393230D01*
X42042215Y-57392006D01*
X41993227Y-57359273D01*
X41960494Y-57310285D01*
X41949000Y-57252500D01*
X41949000Y-57052500D01*
X41960494Y-56994715D01*
X41993227Y-56945727D01*
X42042215Y-56912994D01*
X42048368Y-56911770D01*
X42074495Y-56894313D01*
X42074495Y-56760687D01*
X42048369Y-56743230D01*
X42042215Y-56742006D01*
X41993227Y-56709273D01*
X41960494Y-56660285D01*
X41949000Y-56602500D01*
X41949000Y-56402500D01*
X41960494Y-56344715D01*
X41993227Y-56295727D01*
X42042215Y-56262994D01*
X42048368Y-56261770D01*
X42074495Y-56244313D01*
X42074495Y-56110687D01*
X42048369Y-56093230D01*
X42042215Y-56092006D01*
X41993227Y-56059273D01*
X41960494Y-56010285D01*
X41949000Y-55952500D01*
X41949000Y-55752500D01*
X41960494Y-55694715D01*
X41993227Y-55645727D01*
X42042215Y-55612994D01*
X42100000Y-55601500D01*
X43800000Y-55601500D01*
X43857785Y-55612994D01*
G37*
G36*
X50857785Y-55612994D02*
G01*
X50906773Y-55645727D01*
X50939506Y-55694715D01*
X50951000Y-55752500D01*
X50951000Y-55952500D01*
X50939506Y-56010285D01*
X50906773Y-56059273D01*
X50857785Y-56092006D01*
X50851628Y-56093230D01*
X50825504Y-56110686D01*
X50825504Y-56244314D01*
X50851628Y-56261769D01*
X50857785Y-56262994D01*
X50906773Y-56295727D01*
X50939506Y-56344715D01*
X50951000Y-56402500D01*
X50951000Y-56602500D01*
X50939506Y-56660285D01*
X50906773Y-56709273D01*
X50857785Y-56742006D01*
X50851628Y-56743230D01*
X50825504Y-56760686D01*
X50825504Y-56894314D01*
X50851628Y-56911769D01*
X50857785Y-56912994D01*
X50906773Y-56945727D01*
X50939506Y-56994715D01*
X50951000Y-57052500D01*
X50951000Y-57252500D01*
X50939506Y-57310285D01*
X50906773Y-57359273D01*
X50857785Y-57392006D01*
X50851628Y-57393230D01*
X50825504Y-57410686D01*
X50825504Y-57544314D01*
X50851628Y-57561769D01*
X50857785Y-57562994D01*
X50906773Y-57595727D01*
X50939506Y-57644715D01*
X50951000Y-57702500D01*
X50951000Y-57902500D01*
X50939506Y-57960285D01*
X50906773Y-58009273D01*
X50857785Y-58042006D01*
X50851628Y-58043230D01*
X50825504Y-58060686D01*
X50825504Y-58194314D01*
X50851628Y-58211769D01*
X50857785Y-58212994D01*
X50906773Y-58245727D01*
X50939506Y-58294715D01*
X50951000Y-58352500D01*
X50951000Y-58552500D01*
X50939506Y-58610285D01*
X50906773Y-58659273D01*
X50857785Y-58692006D01*
X50851628Y-58693230D01*
X50825504Y-58710686D01*
X50825504Y-58844314D01*
X50851628Y-58861769D01*
X50857785Y-58862994D01*
X50906773Y-58895727D01*
X50939506Y-58944715D01*
X50951000Y-59002500D01*
X50951000Y-59202500D01*
X50939506Y-59260285D01*
X50906773Y-59309273D01*
X50857785Y-59342006D01*
X50851628Y-59343230D01*
X50825504Y-59360686D01*
X50825504Y-59494314D01*
X50851628Y-59511769D01*
X50857785Y-59512994D01*
X50906773Y-59545727D01*
X50939506Y-59594715D01*
X50951000Y-59652500D01*
X50951000Y-59852500D01*
X50939506Y-59910285D01*
X50906773Y-59959273D01*
X50857785Y-59992006D01*
X50851628Y-59993230D01*
X50825504Y-60010686D01*
X50825504Y-60144314D01*
X50851628Y-60161769D01*
X50857785Y-60162994D01*
X50906773Y-60195727D01*
X50939506Y-60244715D01*
X50951000Y-60302500D01*
X50951000Y-60502500D01*
X50939506Y-60560285D01*
X50906773Y-60609273D01*
X50857785Y-60642006D01*
X50851628Y-60643230D01*
X50825504Y-60660686D01*
X50825504Y-60794314D01*
X50851628Y-60811769D01*
X50857785Y-60812994D01*
X50906773Y-60845727D01*
X50939506Y-60894715D01*
X50951000Y-60952500D01*
X50951000Y-61152500D01*
X50939506Y-61210285D01*
X50906773Y-61259273D01*
X50857785Y-61292006D01*
X50851628Y-61293230D01*
X50825504Y-61310686D01*
X50825504Y-61444314D01*
X50851628Y-61461769D01*
X50857785Y-61462994D01*
X50906773Y-61495727D01*
X50939506Y-61544715D01*
X50951000Y-61602500D01*
X50951000Y-61802500D01*
X50939506Y-61860285D01*
X50906773Y-61909273D01*
X50857785Y-61942006D01*
X50851628Y-61943230D01*
X50825504Y-61960686D01*
X50825504Y-62094314D01*
X50851628Y-62111769D01*
X50857785Y-62112994D01*
X50906773Y-62145727D01*
X50939506Y-62194715D01*
X50951000Y-62252500D01*
X50951000Y-62452500D01*
X50939506Y-62510285D01*
X50906773Y-62559273D01*
X50857785Y-62592006D01*
X50851628Y-62593230D01*
X50825504Y-62610686D01*
X50825504Y-62744314D01*
X50851628Y-62761769D01*
X50857785Y-62762994D01*
X50906773Y-62795727D01*
X50939506Y-62844715D01*
X50951000Y-62902500D01*
X50951000Y-63102500D01*
X50939506Y-63160285D01*
X50906773Y-63209273D01*
X50857785Y-63242006D01*
X50800000Y-63253500D01*
X49100000Y-63253500D01*
X49042215Y-63242006D01*
X48993227Y-63209273D01*
X48960494Y-63160285D01*
X48949000Y-63102500D01*
X48949000Y-62902500D01*
X48960494Y-62844715D01*
X48993227Y-62795727D01*
X49042215Y-62762994D01*
X49048368Y-62761770D01*
X49074495Y-62744313D01*
X49074495Y-62610687D01*
X49048369Y-62593230D01*
X49042215Y-62592006D01*
X48993227Y-62559273D01*
X48960494Y-62510285D01*
X48949000Y-62452500D01*
X48949000Y-62252500D01*
X48960494Y-62194715D01*
X48993227Y-62145727D01*
X49042215Y-62112994D01*
X49048368Y-62111770D01*
X49074495Y-62094313D01*
X49074495Y-61960687D01*
X49048369Y-61943230D01*
X49042215Y-61942006D01*
X48993227Y-61909273D01*
X48960494Y-61860285D01*
X48949000Y-61802500D01*
X48949000Y-61602500D01*
X48960494Y-61544715D01*
X48993227Y-61495727D01*
X49042215Y-61462994D01*
X49048368Y-61461770D01*
X49074495Y-61444313D01*
X49074495Y-61310687D01*
X49048369Y-61293230D01*
X49042215Y-61292006D01*
X48993227Y-61259273D01*
X48960494Y-61210285D01*
X48949000Y-61152500D01*
X48949000Y-60952500D01*
X48960494Y-60894715D01*
X48993227Y-60845727D01*
X49042215Y-60812994D01*
X49048368Y-60811770D01*
X49074495Y-60794313D01*
X49074495Y-60660687D01*
X49048369Y-60643230D01*
X49042215Y-60642006D01*
X48993227Y-60609273D01*
X48960494Y-60560285D01*
X48949000Y-60502500D01*
X48949000Y-60302500D01*
X48960494Y-60244715D01*
X48993227Y-60195727D01*
X49042215Y-60162994D01*
X49048368Y-60161770D01*
X49074495Y-60144313D01*
X49074495Y-60010687D01*
X49048369Y-59993230D01*
X49042215Y-59992006D01*
X48993227Y-59959273D01*
X48960494Y-59910285D01*
X48949000Y-59852500D01*
X48949000Y-59652500D01*
X48960494Y-59594715D01*
X48993227Y-59545727D01*
X49042215Y-59512994D01*
X49048368Y-59511770D01*
X49074495Y-59494313D01*
X49074495Y-59360687D01*
X49048369Y-59343230D01*
X49042215Y-59342006D01*
X48993227Y-59309273D01*
X48960494Y-59260285D01*
X48949000Y-59202500D01*
X48949000Y-59002500D01*
X48960494Y-58944715D01*
X48993227Y-58895727D01*
X49042215Y-58862994D01*
X49048368Y-58861770D01*
X49074495Y-58844313D01*
X49074495Y-58710687D01*
X49048369Y-58693230D01*
X49042215Y-58692006D01*
X48993227Y-58659273D01*
X48960494Y-58610285D01*
X48949000Y-58552500D01*
X48949000Y-58352500D01*
X48960494Y-58294715D01*
X48993227Y-58245727D01*
X49042215Y-58212994D01*
X49048368Y-58211770D01*
X49074495Y-58194313D01*
X49074495Y-58060687D01*
X49048369Y-58043230D01*
X49042215Y-58042006D01*
X48993227Y-58009273D01*
X48960494Y-57960285D01*
X48949000Y-57902500D01*
X48949000Y-57702500D01*
X48960494Y-57644715D01*
X48993227Y-57595727D01*
X49042215Y-57562994D01*
X49048368Y-57561770D01*
X49074495Y-57544313D01*
X49074495Y-57410687D01*
X49048369Y-57393230D01*
X49042215Y-57392006D01*
X48993227Y-57359273D01*
X48960494Y-57310285D01*
X48949000Y-57252500D01*
X48949000Y-57052500D01*
X48960494Y-56994715D01*
X48993227Y-56945727D01*
X49042215Y-56912994D01*
X49048368Y-56911770D01*
X49074495Y-56894313D01*
X49074495Y-56760687D01*
X49048369Y-56743230D01*
X49042215Y-56742006D01*
X48993227Y-56709273D01*
X48960494Y-56660285D01*
X48949000Y-56602500D01*
X48949000Y-56402500D01*
X48960494Y-56344715D01*
X48993227Y-56295727D01*
X49042215Y-56262994D01*
X49048368Y-56261770D01*
X49074495Y-56244313D01*
X49074495Y-56110687D01*
X49048369Y-56093230D01*
X49042215Y-56092006D01*
X48993227Y-56059273D01*
X48960494Y-56010285D01*
X48949000Y-55952500D01*
X48949000Y-55752500D01*
X48960494Y-55694715D01*
X48993227Y-55645727D01*
X49042215Y-55612994D01*
X49100000Y-55601500D01*
X50800000Y-55601500D01*
X50857785Y-55612994D01*
G37*
G36*
X31968914Y-61231995D02*
G01*
X31984726Y-61238976D01*
X31992531Y-61240213D01*
X32025039Y-61256776D01*
X32070106Y-61276676D01*
X32148324Y-61354894D01*
X32168226Y-61399967D01*
X32184786Y-61432468D01*
X32186021Y-61440270D01*
X32193005Y-61456086D01*
X32201000Y-61525000D01*
X32201000Y-62425000D01*
X32193005Y-62493914D01*
X32186021Y-62509729D01*
X32184786Y-62517531D01*
X32168229Y-62550024D01*
X32148324Y-62595106D01*
X32070106Y-62673324D01*
X32025024Y-62693229D01*
X31992531Y-62709786D01*
X31984729Y-62711021D01*
X31968914Y-62718005D01*
X31900000Y-62726000D01*
X31375000Y-62726000D01*
X31306086Y-62718005D01*
X31290270Y-62711021D01*
X31282468Y-62709786D01*
X31249967Y-62693226D01*
X31204894Y-62673324D01*
X31126676Y-62595106D01*
X31106776Y-62550039D01*
X31090213Y-62517531D01*
X31088976Y-62509726D01*
X31081995Y-62493914D01*
X31074000Y-62425000D01*
X31074000Y-61525000D01*
X31081995Y-61456086D01*
X31088976Y-61440274D01*
X31090213Y-61432468D01*
X31106780Y-61399953D01*
X31126676Y-61354894D01*
X31204894Y-61276676D01*
X31249953Y-61256780D01*
X31282468Y-61240213D01*
X31290274Y-61238976D01*
X31306086Y-61231995D01*
X31375000Y-61224000D01*
X31900000Y-61224000D01*
X31968914Y-61231995D01*
G37*
G36*
X33793914Y-61231995D02*
G01*
X33809726Y-61238976D01*
X33817531Y-61240213D01*
X33850039Y-61256776D01*
X33895106Y-61276676D01*
X33973324Y-61354894D01*
X33993226Y-61399967D01*
X34009786Y-61432468D01*
X34011021Y-61440270D01*
X34018005Y-61456086D01*
X34026000Y-61525000D01*
X34026000Y-62425000D01*
X34018005Y-62493914D01*
X34011021Y-62509729D01*
X34009786Y-62517531D01*
X33993229Y-62550024D01*
X33973324Y-62595106D01*
X33895106Y-62673324D01*
X33850024Y-62693229D01*
X33817531Y-62709786D01*
X33809729Y-62711021D01*
X33793914Y-62718005D01*
X33725000Y-62726000D01*
X33200000Y-62726000D01*
X33131086Y-62718005D01*
X33115270Y-62711021D01*
X33107468Y-62709786D01*
X33074967Y-62693226D01*
X33029894Y-62673324D01*
X32951676Y-62595106D01*
X32931776Y-62550039D01*
X32915213Y-62517531D01*
X32913976Y-62509726D01*
X32906995Y-62493914D01*
X32899000Y-62425000D01*
X32899000Y-61525000D01*
X32906995Y-61456086D01*
X32913976Y-61440274D01*
X32915213Y-61432468D01*
X32931780Y-61399953D01*
X32951676Y-61354894D01*
X33029894Y-61276676D01*
X33074953Y-61256780D01*
X33107468Y-61240213D01*
X33115274Y-61238976D01*
X33131086Y-61231995D01*
X33200000Y-61224000D01*
X33725000Y-61224000D01*
X33793914Y-61231995D01*
G37*
G36*
X27722299Y-61103236D02*
G01*
X27724285Y-61103726D01*
X27724991Y-61104351D01*
X27739598Y-61110402D01*
X27756000Y-61150000D01*
X27756000Y-61154586D01*
X27759275Y-61163224D01*
X27897969Y-61188648D01*
X27954353Y-61125005D01*
X27960402Y-61110402D01*
X28000000Y-61094000D01*
X28500000Y-61094000D01*
X28510328Y-61098278D01*
X28557068Y-61098278D01*
X28565263Y-61098278D01*
X28579757Y-61100186D01*
X28617884Y-61110402D01*
X28697921Y-61131847D01*
X28697922Y-61131847D01*
X28705836Y-61133968D01*
X28719342Y-61139563D01*
X28726433Y-61143657D01*
X28726440Y-61143660D01*
X28825285Y-61200728D01*
X28825290Y-61200732D01*
X28832381Y-61204826D01*
X28843979Y-61213725D01*
X28936275Y-61306021D01*
X28945174Y-61317619D01*
X28949268Y-61324710D01*
X28949271Y-61324714D01*
X29006339Y-61423559D01*
X29006340Y-61423562D01*
X29010437Y-61430658D01*
X29016032Y-61444164D01*
X29049814Y-61570243D01*
X29051722Y-61584737D01*
X29051722Y-61592931D01*
X29051722Y-61631741D01*
X29054328Y-61645964D01*
X29056000Y-61650000D01*
X29056000Y-62150000D01*
X29051722Y-62160328D01*
X29051722Y-62215263D01*
X29049814Y-62229757D01*
X29016032Y-62355836D01*
X29010437Y-62369342D01*
X28945174Y-62482381D01*
X28936275Y-62493979D01*
X28843979Y-62586275D01*
X28832381Y-62595174D01*
X28825285Y-62599270D01*
X28825285Y-62599271D01*
X28726440Y-62656339D01*
X28719342Y-62660437D01*
X28705836Y-62666032D01*
X28579757Y-62699814D01*
X28565263Y-62701722D01*
X28557068Y-62701722D01*
X28518259Y-62701722D01*
X28504034Y-62704328D01*
X28500000Y-62706000D01*
X28495431Y-62706000D01*
X28015178Y-62706000D01*
X28000000Y-62706000D01*
X27977696Y-62696761D01*
X27975714Y-62696273D01*
X27975009Y-62695648D01*
X27960402Y-62689598D01*
X27944000Y-62650000D01*
X27944000Y-62645432D01*
X27940714Y-62636769D01*
X27802025Y-62611354D01*
X27745649Y-62674987D01*
X27739598Y-62689598D01*
X27700000Y-62706000D01*
X27695430Y-62706000D01*
X27215176Y-62706000D01*
X27200000Y-62706000D01*
X27189672Y-62701722D01*
X27142932Y-62701722D01*
X27134737Y-62701722D01*
X27120243Y-62699814D01*
X26994164Y-62666032D01*
X26980658Y-62660437D01*
X26973562Y-62656340D01*
X26973559Y-62656339D01*
X26874714Y-62599271D01*
X26874710Y-62599268D01*
X26867619Y-62595174D01*
X26856021Y-62586275D01*
X26763725Y-62493979D01*
X26754826Y-62482381D01*
X26750732Y-62475290D01*
X26750728Y-62475285D01*
X26693660Y-62376440D01*
X26693657Y-62376433D01*
X26689563Y-62369342D01*
X26683968Y-62355836D01*
X26650186Y-62229757D01*
X26648278Y-62215263D01*
X26648278Y-62168256D01*
X26645671Y-62154035D01*
X26644000Y-62150000D01*
X26644000Y-61650000D01*
X26648278Y-61639671D01*
X26648278Y-61584737D01*
X26650186Y-61570243D01*
X26659673Y-61534836D01*
X26681847Y-61452078D01*
X26681848Y-61452074D01*
X26683968Y-61444164D01*
X26689563Y-61430658D01*
X26693655Y-61423568D01*
X26693660Y-61423559D01*
X26750728Y-61324714D01*
X26750734Y-61324705D01*
X26754826Y-61317619D01*
X26763725Y-61306021D01*
X26769509Y-61300236D01*
X26769513Y-61300232D01*
X26850232Y-61219513D01*
X26850236Y-61219509D01*
X26856021Y-61213725D01*
X26867619Y-61204826D01*
X26874705Y-61200734D01*
X26874714Y-61200728D01*
X26973559Y-61143660D01*
X26973568Y-61143655D01*
X26980658Y-61139563D01*
X26994164Y-61133968D01*
X27002074Y-61131848D01*
X27002078Y-61131847D01*
X27112327Y-61102307D01*
X27112327Y-61102306D01*
X27120243Y-61100186D01*
X27134737Y-61098278D01*
X27181741Y-61098278D01*
X27195965Y-61095671D01*
X27200000Y-61094000D01*
X27700000Y-61094000D01*
X27722299Y-61103236D01*
G37*
G36*
X36818914Y-61206995D02*
G01*
X36834726Y-61213976D01*
X36842531Y-61215213D01*
X36875039Y-61231776D01*
X36920106Y-61251676D01*
X36998324Y-61329894D01*
X37018226Y-61374967D01*
X37034786Y-61407468D01*
X37036021Y-61415270D01*
X37043005Y-61431086D01*
X37051000Y-61500000D01*
X37051000Y-62400000D01*
X37043005Y-62468914D01*
X37036021Y-62484729D01*
X37034786Y-62492531D01*
X37018229Y-62525024D01*
X36998324Y-62570106D01*
X36920106Y-62648324D01*
X36875024Y-62668229D01*
X36842531Y-62684786D01*
X36834729Y-62686021D01*
X36818914Y-62693005D01*
X36750000Y-62701000D01*
X36225000Y-62701000D01*
X36156086Y-62693005D01*
X36140270Y-62686021D01*
X36132468Y-62684786D01*
X36099967Y-62668226D01*
X36054894Y-62648324D01*
X35976676Y-62570106D01*
X35956776Y-62525039D01*
X35940213Y-62492531D01*
X35938976Y-62484726D01*
X35931995Y-62468914D01*
X35924000Y-62400000D01*
X35924000Y-61500000D01*
X35931995Y-61431086D01*
X35938976Y-61415274D01*
X35940213Y-61407468D01*
X35956780Y-61374953D01*
X35976676Y-61329894D01*
X36054894Y-61251676D01*
X36099953Y-61231780D01*
X36132468Y-61215213D01*
X36140274Y-61213976D01*
X36156086Y-61206995D01*
X36225000Y-61199000D01*
X36750000Y-61199000D01*
X36818914Y-61206995D01*
G37*
G36*
X38643914Y-61206995D02*
G01*
X38659726Y-61213976D01*
X38667531Y-61215213D01*
X38700039Y-61231776D01*
X38745106Y-61251676D01*
X38823324Y-61329894D01*
X38843226Y-61374967D01*
X38859786Y-61407468D01*
X38861021Y-61415270D01*
X38868005Y-61431086D01*
X38876000Y-61500000D01*
X38876000Y-62400000D01*
X38868005Y-62468914D01*
X38861021Y-62484729D01*
X38859786Y-62492531D01*
X38843229Y-62525024D01*
X38823324Y-62570106D01*
X38745106Y-62648324D01*
X38700024Y-62668229D01*
X38667531Y-62684786D01*
X38659729Y-62686021D01*
X38643914Y-62693005D01*
X38575000Y-62701000D01*
X38050000Y-62701000D01*
X37981086Y-62693005D01*
X37965270Y-62686021D01*
X37957468Y-62684786D01*
X37924967Y-62668226D01*
X37879894Y-62648324D01*
X37801676Y-62570106D01*
X37781776Y-62525039D01*
X37765213Y-62492531D01*
X37763976Y-62484726D01*
X37756995Y-62468914D01*
X37749000Y-62400000D01*
X37749000Y-61500000D01*
X37756995Y-61431086D01*
X37763976Y-61415274D01*
X37765213Y-61407468D01*
X37781780Y-61374953D01*
X37801676Y-61329894D01*
X37879894Y-61251676D01*
X37924953Y-61231780D01*
X37957468Y-61215213D01*
X37965274Y-61213976D01*
X37981086Y-61206995D01*
X38050000Y-61199000D01*
X38575000Y-61199000D01*
X38643914Y-61206995D01*
G37*
G36*
X35053205Y-57910194D02*
G01*
X35232440Y-57968431D01*
X35400358Y-58053989D01*
X35552824Y-58164762D01*
X35686085Y-58298023D01*
X35796858Y-58450489D01*
X35882416Y-58618407D01*
X35940653Y-58797642D01*
X35970135Y-58983781D01*
X35970135Y-59172239D01*
X35940653Y-59358378D01*
X35882416Y-59537613D01*
X35796858Y-59705531D01*
X35686085Y-59857997D01*
X35552824Y-59991258D01*
X35400358Y-60102031D01*
X35232440Y-60187589D01*
X35053205Y-60245826D01*
X34867066Y-60275308D01*
X34678608Y-60275308D01*
X34492469Y-60245826D01*
X34313234Y-60187589D01*
X34145316Y-60102031D01*
X33992850Y-59991258D01*
X33859589Y-59857997D01*
X33748816Y-59705531D01*
X33663258Y-59537613D01*
X33605021Y-59358378D01*
X33575539Y-59172239D01*
X33575539Y-58983781D01*
X33605021Y-58797642D01*
X33663258Y-58618407D01*
X33748816Y-58450489D01*
X33859589Y-58298023D01*
X33992850Y-58164762D01*
X34145316Y-58053989D01*
X34313234Y-57968431D01*
X34492469Y-57910194D01*
X34678608Y-57880712D01*
X34867066Y-57880712D01*
X35053205Y-57910194D01*
G37*
G36*
X38610782Y-57887716D02*
G01*
X38790017Y-57945953D01*
X38957935Y-58031511D01*
X39110401Y-58142284D01*
X39243662Y-58275545D01*
X39354435Y-58428011D01*
X39439993Y-58595929D01*
X39498230Y-58775164D01*
X39527712Y-58961303D01*
X39527712Y-59149761D01*
X39498230Y-59335900D01*
X39439993Y-59515135D01*
X39354435Y-59683053D01*
X39243662Y-59835519D01*
X39110401Y-59968780D01*
X38957935Y-60079553D01*
X38790017Y-60165111D01*
X38610782Y-60223348D01*
X38424643Y-60252830D01*
X38236185Y-60252830D01*
X38050046Y-60223348D01*
X37870811Y-60165111D01*
X37702893Y-60079553D01*
X37550427Y-59968780D01*
X37417166Y-59835519D01*
X37306393Y-59683053D01*
X37220835Y-59515135D01*
X37162598Y-59335900D01*
X37133116Y-59149761D01*
X37133116Y-58961303D01*
X37162598Y-58775164D01*
X37220835Y-58595929D01*
X37306393Y-58428011D01*
X37417166Y-58275545D01*
X37550427Y-58142284D01*
X37702893Y-58031511D01*
X37870811Y-57945953D01*
X38050046Y-57887716D01*
X38236185Y-57858234D01*
X38424643Y-57858234D01*
X38610782Y-57887716D01*
G37*
G36*
X27722299Y-58499736D02*
G01*
X27724285Y-58500226D01*
X27724991Y-58500851D01*
X27739598Y-58506902D01*
X27756000Y-58546500D01*
X27756000Y-58551086D01*
X27759275Y-58559724D01*
X27897969Y-58585148D01*
X27954353Y-58521505D01*
X27960402Y-58506902D01*
X28000000Y-58490500D01*
X28500000Y-58490500D01*
X28510328Y-58494778D01*
X28557068Y-58494778D01*
X28565263Y-58494778D01*
X28579757Y-58496686D01*
X28617884Y-58506902D01*
X28697921Y-58528347D01*
X28697922Y-58528347D01*
X28705836Y-58530468D01*
X28719342Y-58536063D01*
X28726433Y-58540157D01*
X28726440Y-58540160D01*
X28825285Y-58597228D01*
X28825290Y-58597232D01*
X28832381Y-58601326D01*
X28843979Y-58610225D01*
X28936275Y-58702521D01*
X28945174Y-58714119D01*
X28949268Y-58721210D01*
X28949271Y-58721214D01*
X29006339Y-58820059D01*
X29006340Y-58820062D01*
X29010437Y-58827158D01*
X29016032Y-58840664D01*
X29049814Y-58966743D01*
X29051722Y-58981237D01*
X29051722Y-58989431D01*
X29051722Y-59028241D01*
X29054328Y-59042464D01*
X29056000Y-59046500D01*
X29056000Y-59546500D01*
X29051722Y-59556828D01*
X29051722Y-59611763D01*
X29049814Y-59626257D01*
X29016032Y-59752336D01*
X29010437Y-59765842D01*
X28945174Y-59878881D01*
X28936275Y-59890479D01*
X28843979Y-59982775D01*
X28832381Y-59991674D01*
X28825285Y-59995770D01*
X28825285Y-59995771D01*
X28726440Y-60052839D01*
X28719342Y-60056937D01*
X28705836Y-60062532D01*
X28579757Y-60096314D01*
X28565263Y-60098222D01*
X28557068Y-60098222D01*
X28518259Y-60098222D01*
X28504034Y-60100828D01*
X28500000Y-60102500D01*
X28495431Y-60102500D01*
X28015178Y-60102500D01*
X28000000Y-60102500D01*
X27977696Y-60093261D01*
X27975714Y-60092773D01*
X27975009Y-60092148D01*
X27960402Y-60086098D01*
X27944000Y-60046500D01*
X27944000Y-60041932D01*
X27940714Y-60033269D01*
X27802025Y-60007854D01*
X27745649Y-60071487D01*
X27739598Y-60086098D01*
X27700000Y-60102500D01*
X27695430Y-60102500D01*
X27215176Y-60102500D01*
X27200000Y-60102500D01*
X27189672Y-60098222D01*
X27142932Y-60098222D01*
X27134737Y-60098222D01*
X27120243Y-60096314D01*
X26994164Y-60062532D01*
X26980658Y-60056937D01*
X26973562Y-60052840D01*
X26973559Y-60052839D01*
X26874714Y-59995771D01*
X26874710Y-59995768D01*
X26867619Y-59991674D01*
X26856021Y-59982775D01*
X26763725Y-59890479D01*
X26754826Y-59878881D01*
X26750732Y-59871790D01*
X26750728Y-59871785D01*
X26693660Y-59772940D01*
X26693657Y-59772933D01*
X26689563Y-59765842D01*
X26683968Y-59752336D01*
X26671372Y-59705328D01*
X26652307Y-59634172D01*
X26650186Y-59626257D01*
X26648278Y-59611763D01*
X26648278Y-59564756D01*
X26645671Y-59550535D01*
X26644000Y-59546500D01*
X26644000Y-59046500D01*
X26648278Y-59036171D01*
X26648278Y-58981237D01*
X26650186Y-58966743D01*
X26669214Y-58895727D01*
X26681847Y-58848578D01*
X26681848Y-58848574D01*
X26683968Y-58840664D01*
X26689563Y-58827158D01*
X26693655Y-58820068D01*
X26693660Y-58820059D01*
X26750728Y-58721214D01*
X26750734Y-58721205D01*
X26754826Y-58714119D01*
X26763725Y-58702521D01*
X26769509Y-58696736D01*
X26769513Y-58696732D01*
X26850232Y-58616013D01*
X26850236Y-58616009D01*
X26856021Y-58610225D01*
X26867619Y-58601326D01*
X26874705Y-58597234D01*
X26874714Y-58597228D01*
X26973559Y-58540160D01*
X26973568Y-58540155D01*
X26980658Y-58536063D01*
X26994164Y-58530468D01*
X27002074Y-58528348D01*
X27002078Y-58528347D01*
X27112327Y-58498807D01*
X27112327Y-58498806D01*
X27120243Y-58496686D01*
X27134737Y-58494778D01*
X27181741Y-58494778D01*
X27195965Y-58492171D01*
X27200000Y-58490500D01*
X27700000Y-58490500D01*
X27722299Y-58499736D01*
G37*
G36*
X27722299Y-55896236D02*
G01*
X27724285Y-55896726D01*
X27724991Y-55897351D01*
X27739598Y-55903402D01*
X27756000Y-55943000D01*
X27756000Y-55947586D01*
X27759275Y-55956224D01*
X27897969Y-55981648D01*
X27954353Y-55918005D01*
X27960402Y-55903402D01*
X28000000Y-55887000D01*
X28500000Y-55887000D01*
X28510328Y-55891278D01*
X28557068Y-55891278D01*
X28565263Y-55891278D01*
X28579757Y-55893186D01*
X28617884Y-55903402D01*
X28697921Y-55924847D01*
X28697922Y-55924847D01*
X28705836Y-55926968D01*
X28719342Y-55932563D01*
X28726433Y-55936657D01*
X28726440Y-55936660D01*
X28825285Y-55993728D01*
X28825290Y-55993732D01*
X28832381Y-55997826D01*
X28843979Y-56006725D01*
X28936275Y-56099021D01*
X28945174Y-56110619D01*
X28949268Y-56117710D01*
X28949271Y-56117714D01*
X29006339Y-56216559D01*
X29006340Y-56216562D01*
X29010437Y-56223658D01*
X29016032Y-56237164D01*
X29049814Y-56363243D01*
X29051722Y-56377737D01*
X29051722Y-56385931D01*
X29051722Y-56424741D01*
X29054328Y-56438964D01*
X29056000Y-56443000D01*
X29056000Y-56943000D01*
X29051722Y-56953328D01*
X29051722Y-57008263D01*
X29049814Y-57022757D01*
X29016032Y-57148836D01*
X29010437Y-57162342D01*
X28945174Y-57275381D01*
X28936275Y-57286979D01*
X28843979Y-57379275D01*
X28832381Y-57388174D01*
X28825285Y-57392270D01*
X28825285Y-57392271D01*
X28726440Y-57449339D01*
X28719342Y-57453437D01*
X28705836Y-57459032D01*
X28579757Y-57492814D01*
X28565263Y-57494722D01*
X28557068Y-57494722D01*
X28518259Y-57494722D01*
X28504034Y-57497328D01*
X28500000Y-57499000D01*
X28495431Y-57499000D01*
X28015178Y-57499000D01*
X28000000Y-57499000D01*
X27977696Y-57489761D01*
X27975714Y-57489273D01*
X27975009Y-57488648D01*
X27960402Y-57482598D01*
X27944000Y-57443000D01*
X27944000Y-57438432D01*
X27940714Y-57429769D01*
X27802025Y-57404354D01*
X27745649Y-57467987D01*
X27739598Y-57482598D01*
X27700000Y-57499000D01*
X27695430Y-57499000D01*
X27215176Y-57499000D01*
X27200000Y-57499000D01*
X27189672Y-57494722D01*
X27142932Y-57494722D01*
X27134737Y-57494722D01*
X27120243Y-57492814D01*
X26994164Y-57459032D01*
X26980658Y-57453437D01*
X26973562Y-57449340D01*
X26973559Y-57449339D01*
X26874714Y-57392271D01*
X26874710Y-57392268D01*
X26867619Y-57388174D01*
X26856021Y-57379275D01*
X26763725Y-57286979D01*
X26754826Y-57275381D01*
X26750732Y-57268290D01*
X26750728Y-57268285D01*
X26693660Y-57169440D01*
X26693657Y-57169433D01*
X26689563Y-57162342D01*
X26683968Y-57148836D01*
X26650186Y-57022757D01*
X26648278Y-57008263D01*
X26648278Y-56961256D01*
X26645671Y-56947035D01*
X26644000Y-56943000D01*
X26644000Y-56443000D01*
X26648278Y-56432671D01*
X26648278Y-56377737D01*
X26650186Y-56363243D01*
X26655150Y-56344715D01*
X26681847Y-56245078D01*
X26681848Y-56245074D01*
X26683968Y-56237164D01*
X26689563Y-56223658D01*
X26693655Y-56216568D01*
X26693660Y-56216559D01*
X26750728Y-56117714D01*
X26750734Y-56117705D01*
X26754826Y-56110619D01*
X26763725Y-56099021D01*
X26769509Y-56093236D01*
X26769513Y-56093232D01*
X26850232Y-56012513D01*
X26850236Y-56012509D01*
X26856021Y-56006725D01*
X26867619Y-55997826D01*
X26874705Y-55993734D01*
X26874714Y-55993728D01*
X26973559Y-55936660D01*
X26973568Y-55936655D01*
X26980658Y-55932563D01*
X26994164Y-55926968D01*
X27002074Y-55924848D01*
X27002078Y-55924847D01*
X27112327Y-55895307D01*
X27112327Y-55895306D01*
X27120243Y-55893186D01*
X27134737Y-55891278D01*
X27181741Y-55891278D01*
X27195965Y-55888671D01*
X27200000Y-55887000D01*
X27700000Y-55887000D01*
X27722299Y-55896236D01*
G37*
G36*
X32018914Y-55106995D02*
G01*
X32034726Y-55113976D01*
X32042531Y-55115213D01*
X32075039Y-55131776D01*
X32120106Y-55151676D01*
X32198324Y-55229894D01*
X32218226Y-55274967D01*
X32234786Y-55307468D01*
X32236021Y-55315270D01*
X32243005Y-55331086D01*
X32251000Y-55400000D01*
X32251000Y-56300000D01*
X32243005Y-56368914D01*
X32236021Y-56384729D01*
X32234786Y-56392531D01*
X32218229Y-56425024D01*
X32198324Y-56470106D01*
X32120106Y-56548324D01*
X32075024Y-56568229D01*
X32042531Y-56584786D01*
X32034729Y-56586021D01*
X32018914Y-56593005D01*
X31950000Y-56601000D01*
X31425000Y-56601000D01*
X31356086Y-56593005D01*
X31340270Y-56586021D01*
X31332468Y-56584786D01*
X31299967Y-56568226D01*
X31254894Y-56548324D01*
X31176676Y-56470106D01*
X31156776Y-56425039D01*
X31140213Y-56392531D01*
X31138976Y-56384726D01*
X31131995Y-56368914D01*
X31124000Y-56300000D01*
X31124000Y-55400000D01*
X31131995Y-55331086D01*
X31138976Y-55315274D01*
X31140213Y-55307468D01*
X31156780Y-55274953D01*
X31176676Y-55229894D01*
X31254894Y-55151676D01*
X31299953Y-55131780D01*
X31332468Y-55115213D01*
X31340274Y-55113976D01*
X31356086Y-55106995D01*
X31425000Y-55099000D01*
X31950000Y-55099000D01*
X32018914Y-55106995D01*
G37*
G36*
X33843914Y-55106995D02*
G01*
X33859726Y-55113976D01*
X33867531Y-55115213D01*
X33900039Y-55131776D01*
X33945106Y-55151676D01*
X34023324Y-55229894D01*
X34043226Y-55274967D01*
X34059786Y-55307468D01*
X34061021Y-55315270D01*
X34068005Y-55331086D01*
X34076000Y-55400000D01*
X34076000Y-56300000D01*
X34068005Y-56368914D01*
X34061021Y-56384729D01*
X34059786Y-56392531D01*
X34043229Y-56425024D01*
X34023324Y-56470106D01*
X33945106Y-56548324D01*
X33900024Y-56568229D01*
X33867531Y-56584786D01*
X33859729Y-56586021D01*
X33843914Y-56593005D01*
X33775000Y-56601000D01*
X33250000Y-56601000D01*
X33181086Y-56593005D01*
X33165270Y-56586021D01*
X33157468Y-56584786D01*
X33124967Y-56568226D01*
X33079894Y-56548324D01*
X33001676Y-56470106D01*
X32981776Y-56425039D01*
X32965213Y-56392531D01*
X32963976Y-56384726D01*
X32956995Y-56368914D01*
X32949000Y-56300000D01*
X32949000Y-55400000D01*
X32956995Y-55331086D01*
X32963976Y-55315274D01*
X32965213Y-55307468D01*
X32981780Y-55274953D01*
X33001676Y-55229894D01*
X33079894Y-55151676D01*
X33124953Y-55131780D01*
X33157468Y-55115213D01*
X33165274Y-55113976D01*
X33181086Y-55106995D01*
X33250000Y-55099000D01*
X33775000Y-55099000D01*
X33843914Y-55106995D01*
G37*
G36*
X36344517Y-48952882D02*
G01*
X36361062Y-48963938D01*
X36372118Y-48980483D01*
X36376000Y-49000000D01*
X36376000Y-49450000D01*
X36372118Y-49469517D01*
X36361062Y-49486062D01*
X36355844Y-49489548D01*
X36340788Y-49512082D01*
X36340788Y-49587918D01*
X36355845Y-49610451D01*
X36361062Y-49613938D01*
X36372118Y-49630483D01*
X36376000Y-49650000D01*
X36376000Y-50100000D01*
X36372118Y-50119517D01*
X36361062Y-50136062D01*
X36355844Y-50139548D01*
X36340788Y-50162082D01*
X36340788Y-50237918D01*
X36355845Y-50260451D01*
X36361062Y-50263938D01*
X36372118Y-50280483D01*
X36376000Y-50300000D01*
X36376000Y-50750000D01*
X36372118Y-50769517D01*
X36361062Y-50786062D01*
X36355844Y-50789548D01*
X36340788Y-50812082D01*
X36340788Y-50887918D01*
X36355845Y-50910451D01*
X36361062Y-50913938D01*
X36372118Y-50930483D01*
X36376000Y-50950000D01*
X36376000Y-51400000D01*
X36372118Y-51419517D01*
X36361062Y-51436062D01*
X36355844Y-51439548D01*
X36340788Y-51462082D01*
X36340788Y-51537918D01*
X36355845Y-51560451D01*
X36361062Y-51563938D01*
X36372118Y-51580483D01*
X36376000Y-51600000D01*
X36376000Y-52050000D01*
X36372118Y-52069517D01*
X36361062Y-52086062D01*
X36355844Y-52089548D01*
X36340788Y-52112082D01*
X36340788Y-52187918D01*
X36355845Y-52210451D01*
X36361062Y-52213938D01*
X36372118Y-52230483D01*
X36376000Y-52250000D01*
X36376000Y-52700000D01*
X36372118Y-52719517D01*
X36361062Y-52736062D01*
X36355844Y-52739548D01*
X36340788Y-52762082D01*
X36340788Y-52837918D01*
X36355845Y-52860451D01*
X36361062Y-52863938D01*
X36372118Y-52880483D01*
X36376000Y-52900000D01*
X36376000Y-53350000D01*
X36372118Y-53369517D01*
X36361062Y-53386062D01*
X36355844Y-53389548D01*
X36340788Y-53412082D01*
X36340788Y-53487918D01*
X36355845Y-53510451D01*
X36361062Y-53513938D01*
X36372118Y-53530483D01*
X36376000Y-53550000D01*
X36376000Y-54000000D01*
X36372118Y-54019517D01*
X36361062Y-54036062D01*
X36344517Y-54047118D01*
X36325000Y-54051000D01*
X35275000Y-54051000D01*
X35255483Y-54047118D01*
X35238938Y-54036062D01*
X35227882Y-54019517D01*
X35224000Y-54000000D01*
X35224000Y-53550000D01*
X35227882Y-53530483D01*
X35238938Y-53513938D01*
X35244152Y-53510453D01*
X35259211Y-53487917D01*
X35259211Y-53412083D01*
X35244153Y-53389546D01*
X35238938Y-53386062D01*
X35227882Y-53369517D01*
X35224000Y-53350000D01*
X35224000Y-52900000D01*
X35227882Y-52880483D01*
X35238938Y-52863938D01*
X35244152Y-52860453D01*
X35259211Y-52837917D01*
X35259211Y-52762083D01*
X35244153Y-52739546D01*
X35238938Y-52736062D01*
X35227882Y-52719517D01*
X35224000Y-52700000D01*
X35224000Y-52250000D01*
X35227882Y-52230483D01*
X35238938Y-52213938D01*
X35244152Y-52210453D01*
X35259211Y-52187917D01*
X35259211Y-52112083D01*
X35244153Y-52089546D01*
X35238938Y-52086062D01*
X35227882Y-52069517D01*
X35224000Y-52050000D01*
X35224000Y-51600000D01*
X35227882Y-51580483D01*
X35238938Y-51563938D01*
X35244152Y-51560453D01*
X35259211Y-51537917D01*
X35259211Y-51462083D01*
X35244153Y-51439546D01*
X35238938Y-51436062D01*
X35227882Y-51419517D01*
X35224000Y-51400000D01*
X35224000Y-50950000D01*
X35227882Y-50930483D01*
X35238938Y-50913938D01*
X35244152Y-50910453D01*
X35259211Y-50887917D01*
X35259211Y-50812083D01*
X35244153Y-50789546D01*
X35238938Y-50786062D01*
X35227882Y-50769517D01*
X35224000Y-50750000D01*
X35224000Y-50300000D01*
X35227882Y-50280483D01*
X35238938Y-50263938D01*
X35244152Y-50260453D01*
X35259211Y-50237917D01*
X35259211Y-50162083D01*
X35244153Y-50139546D01*
X35238938Y-50136062D01*
X35227882Y-50119517D01*
X35224000Y-50100000D01*
X35224000Y-49650000D01*
X35227882Y-49630483D01*
X35238938Y-49613938D01*
X35244152Y-49610453D01*
X35259211Y-49587917D01*
X35259211Y-49512083D01*
X35244153Y-49489546D01*
X35238938Y-49486062D01*
X35227882Y-49469517D01*
X35224000Y-49450000D01*
X35224000Y-49000000D01*
X35227882Y-48980483D01*
X35238938Y-48963938D01*
X35255483Y-48952882D01*
X35275000Y-48949000D01*
X36325000Y-48949000D01*
X36344517Y-48952882D01*
G37*
G36*
X41894517Y-48952882D02*
G01*
X41911062Y-48963938D01*
X41922118Y-48980483D01*
X41926000Y-49000000D01*
X41926000Y-49450000D01*
X41922118Y-49469517D01*
X41911062Y-49486062D01*
X41905844Y-49489548D01*
X41890788Y-49512082D01*
X41890788Y-49587918D01*
X41905845Y-49610451D01*
X41911062Y-49613938D01*
X41922118Y-49630483D01*
X41926000Y-49650000D01*
X41926000Y-50100000D01*
X41922118Y-50119517D01*
X41911062Y-50136062D01*
X41905844Y-50139548D01*
X41890788Y-50162082D01*
X41890788Y-50237918D01*
X41905845Y-50260451D01*
X41911062Y-50263938D01*
X41922118Y-50280483D01*
X41926000Y-50300000D01*
X41926000Y-50750000D01*
X41922118Y-50769517D01*
X41911062Y-50786062D01*
X41905844Y-50789548D01*
X41890788Y-50812082D01*
X41890788Y-50887918D01*
X41905845Y-50910451D01*
X41911062Y-50913938D01*
X41922118Y-50930483D01*
X41926000Y-50950000D01*
X41926000Y-51400000D01*
X41922118Y-51419517D01*
X41911062Y-51436062D01*
X41905844Y-51439548D01*
X41890788Y-51462082D01*
X41890788Y-51537918D01*
X41905845Y-51560451D01*
X41911062Y-51563938D01*
X41922118Y-51580483D01*
X41926000Y-51600000D01*
X41926000Y-52050000D01*
X41922118Y-52069517D01*
X41911062Y-52086062D01*
X41905844Y-52089548D01*
X41890788Y-52112082D01*
X41890788Y-52187918D01*
X41905845Y-52210451D01*
X41911062Y-52213938D01*
X41922118Y-52230483D01*
X41926000Y-52250000D01*
X41926000Y-52700000D01*
X41922118Y-52719517D01*
X41911062Y-52736062D01*
X41905844Y-52739548D01*
X41890788Y-52762082D01*
X41890788Y-52837918D01*
X41905845Y-52860451D01*
X41911062Y-52863938D01*
X41922118Y-52880483D01*
X41926000Y-52900000D01*
X41926000Y-53350000D01*
X41922118Y-53369517D01*
X41911062Y-53386062D01*
X41905844Y-53389548D01*
X41890788Y-53412082D01*
X41890788Y-53487918D01*
X41905845Y-53510451D01*
X41911062Y-53513938D01*
X41922118Y-53530483D01*
X41926000Y-53550000D01*
X41926000Y-54000000D01*
X41922118Y-54019517D01*
X41911062Y-54036062D01*
X41894517Y-54047118D01*
X41875000Y-54051000D01*
X40825000Y-54051000D01*
X40805483Y-54047118D01*
X40788938Y-54036062D01*
X40777882Y-54019517D01*
X40774000Y-54000000D01*
X40774000Y-53550000D01*
X40777882Y-53530483D01*
X40788938Y-53513938D01*
X40794152Y-53510453D01*
X40809211Y-53487917D01*
X40809211Y-53412083D01*
X40794153Y-53389546D01*
X40788938Y-53386062D01*
X40777882Y-53369517D01*
X40774000Y-53350000D01*
X40774000Y-52900000D01*
X40777882Y-52880483D01*
X40788938Y-52863938D01*
X40794152Y-52860453D01*
X40809211Y-52837917D01*
X40809211Y-52762083D01*
X40794153Y-52739546D01*
X40788938Y-52736062D01*
X40777882Y-52719517D01*
X40774000Y-52700000D01*
X40774000Y-52250000D01*
X40777882Y-52230483D01*
X40788938Y-52213938D01*
X40794152Y-52210453D01*
X40809211Y-52187917D01*
X40809211Y-52112083D01*
X40794153Y-52089546D01*
X40788938Y-52086062D01*
X40777882Y-52069517D01*
X40774000Y-52050000D01*
X40774000Y-51600000D01*
X40777882Y-51580483D01*
X40788938Y-51563938D01*
X40794152Y-51560453D01*
X40809211Y-51537917D01*
X40809211Y-51462083D01*
X40794153Y-51439546D01*
X40788938Y-51436062D01*
X40777882Y-51419517D01*
X40774000Y-51400000D01*
X40774000Y-50950000D01*
X40777882Y-50930483D01*
X40788938Y-50913938D01*
X40794152Y-50910453D01*
X40809211Y-50887917D01*
X40809211Y-50812083D01*
X40794153Y-50789546D01*
X40788938Y-50786062D01*
X40777882Y-50769517D01*
X40774000Y-50750000D01*
X40774000Y-50300000D01*
X40777882Y-50280483D01*
X40788938Y-50263938D01*
X40794152Y-50260453D01*
X40809211Y-50237917D01*
X40809211Y-50162083D01*
X40794153Y-50139546D01*
X40788938Y-50136062D01*
X40777882Y-50119517D01*
X40774000Y-50100000D01*
X40774000Y-49650000D01*
X40777882Y-49630483D01*
X40788938Y-49613938D01*
X40794152Y-49610453D01*
X40809211Y-49587917D01*
X40809211Y-49512083D01*
X40794153Y-49489546D01*
X40788938Y-49486062D01*
X40777882Y-49469517D01*
X40774000Y-49450000D01*
X40774000Y-49000000D01*
X40777882Y-48980483D01*
X40788938Y-48963938D01*
X40805483Y-48952882D01*
X40825000Y-48949000D01*
X41875000Y-48949000D01*
X41894517Y-48952882D01*
G37*
G36*
X51768914Y-52369495D02*
G01*
X51784726Y-52376476D01*
X51792531Y-52377713D01*
X51825039Y-52394276D01*
X51870106Y-52414176D01*
X51948324Y-52492394D01*
X51968226Y-52537467D01*
X51984786Y-52569968D01*
X51986021Y-52577770D01*
X51993005Y-52593586D01*
X52001000Y-52662500D01*
X52001000Y-53162500D01*
X51993005Y-53231414D01*
X51986021Y-53247229D01*
X51984786Y-53255031D01*
X51968229Y-53287524D01*
X51948324Y-53332606D01*
X51870106Y-53410824D01*
X51825024Y-53430729D01*
X51792531Y-53447286D01*
X51784729Y-53448521D01*
X51768914Y-53455505D01*
X51700000Y-53463500D01*
X50750000Y-53463500D01*
X50681086Y-53455505D01*
X50665270Y-53448521D01*
X50657468Y-53447286D01*
X50624967Y-53430726D01*
X50579894Y-53410824D01*
X50501676Y-53332606D01*
X50481776Y-53287539D01*
X50465213Y-53255031D01*
X50463976Y-53247226D01*
X50456995Y-53231414D01*
X50449000Y-53162500D01*
X50449000Y-52662500D01*
X50456995Y-52593586D01*
X50463976Y-52577774D01*
X50465213Y-52569968D01*
X50481780Y-52537453D01*
X50501676Y-52492394D01*
X50579894Y-52414176D01*
X50624953Y-52394280D01*
X50657468Y-52377713D01*
X50665274Y-52376476D01*
X50681086Y-52369495D01*
X50750000Y-52361500D01*
X51700000Y-52361500D01*
X51768914Y-52369495D01*
G37*
G36*
X40064517Y-49662882D02*
G01*
X40081062Y-49673938D01*
X40092118Y-49690483D01*
X40096000Y-49710000D01*
X40096000Y-50605000D01*
X40096000Y-51500000D01*
X40096000Y-52395000D01*
X40096000Y-53290000D01*
X40092118Y-53309517D01*
X40081062Y-53326062D01*
X40064517Y-53337118D01*
X40045000Y-53341000D01*
X38575000Y-53341000D01*
X37105000Y-53341000D01*
X37085483Y-53337118D01*
X37068938Y-53326062D01*
X37057882Y-53309517D01*
X37054000Y-53290000D01*
X37054000Y-52395000D01*
X37054000Y-49722310D01*
X37054000Y-49710000D01*
X37057882Y-49690483D01*
X37068938Y-49673938D01*
X37085483Y-49662882D01*
X37105000Y-49659000D01*
X38575000Y-49659000D01*
X40032690Y-49659000D01*
X40045000Y-49659000D01*
X40064517Y-49662882D01*
G37*
G36*
X32814929Y-50609344D02*
G01*
X32994164Y-50667581D01*
X33162082Y-50753139D01*
X33314548Y-50863912D01*
X33447809Y-50997173D01*
X33558582Y-51149639D01*
X33644140Y-51317557D01*
X33702377Y-51496792D01*
X33731859Y-51682931D01*
X33731859Y-51871389D01*
X33702377Y-52057528D01*
X33644140Y-52236763D01*
X33558582Y-52404681D01*
X33447809Y-52557147D01*
X33314548Y-52690408D01*
X33162082Y-52801181D01*
X32994164Y-52886739D01*
X32814929Y-52944976D01*
X32628790Y-52974458D01*
X32440332Y-52974458D01*
X32254193Y-52944976D01*
X32074958Y-52886739D01*
X31907040Y-52801181D01*
X31754574Y-52690408D01*
X31621313Y-52557147D01*
X31510540Y-52404681D01*
X31424982Y-52236763D01*
X31366745Y-52057528D01*
X31337263Y-51871389D01*
X31337263Y-51682931D01*
X31366745Y-51496792D01*
X31424982Y-51317557D01*
X31510540Y-51149639D01*
X31621313Y-50997173D01*
X31754574Y-50863912D01*
X31907040Y-50753139D01*
X32074958Y-50667581D01*
X32254193Y-50609344D01*
X32440332Y-50579862D01*
X32628790Y-50579862D01*
X32814929Y-50609344D01*
G37*
G36*
X48018938Y-50607660D02*
G01*
X48198173Y-50665897D01*
X48366091Y-50751455D01*
X48518557Y-50862228D01*
X48651818Y-50995489D01*
X48762591Y-51147955D01*
X48848149Y-51315873D01*
X48906386Y-51495108D01*
X48935868Y-51681247D01*
X48935868Y-51869705D01*
X48906386Y-52055844D01*
X48848149Y-52235079D01*
X48762591Y-52402997D01*
X48651818Y-52555463D01*
X48518557Y-52688724D01*
X48366091Y-52799497D01*
X48198173Y-52885055D01*
X48018938Y-52943292D01*
X47832799Y-52972774D01*
X47644341Y-52972774D01*
X47458202Y-52943292D01*
X47278967Y-52885055D01*
X47111049Y-52799497D01*
X46958583Y-52688724D01*
X46825322Y-52555463D01*
X46714549Y-52402997D01*
X46628991Y-52235079D01*
X46570754Y-52055844D01*
X46541272Y-51869705D01*
X46541272Y-51681247D01*
X46570754Y-51495108D01*
X46628991Y-51315873D01*
X46714549Y-51147955D01*
X46825322Y-50995489D01*
X46958583Y-50862228D01*
X47111049Y-50751455D01*
X47278967Y-50665897D01*
X47458202Y-50607660D01*
X47644341Y-50578178D01*
X47832799Y-50578178D01*
X48018938Y-50607660D01*
G37*
G36*
X44449778Y-50597740D02*
G01*
X44629013Y-50655977D01*
X44796931Y-50741535D01*
X44949397Y-50852308D01*
X45082658Y-50985569D01*
X45193431Y-51138035D01*
X45278989Y-51305953D01*
X45337226Y-51485188D01*
X45366708Y-51671327D01*
X45366708Y-51859785D01*
X45337226Y-52045924D01*
X45278989Y-52225159D01*
X45193431Y-52393077D01*
X45082658Y-52545543D01*
X44949397Y-52678804D01*
X44796931Y-52789577D01*
X44629013Y-52875135D01*
X44449778Y-52933372D01*
X44263639Y-52962854D01*
X44075181Y-52962854D01*
X43889042Y-52933372D01*
X43709807Y-52875135D01*
X43541889Y-52789577D01*
X43389423Y-52678804D01*
X43256162Y-52545543D01*
X43145389Y-52393077D01*
X43059831Y-52225159D01*
X43001594Y-52045924D01*
X42972112Y-51859785D01*
X42972112Y-51671327D01*
X43001594Y-51485188D01*
X43059831Y-51305953D01*
X43145389Y-51138035D01*
X43256162Y-50985569D01*
X43389423Y-50852308D01*
X43541889Y-50741535D01*
X43709807Y-50655977D01*
X43889042Y-50597740D01*
X44075181Y-50568258D01*
X44263639Y-50568258D01*
X44449778Y-50597740D01*
G37*
G36*
X29242742Y-50586229D02*
G01*
X29421977Y-50644466D01*
X29589895Y-50730024D01*
X29742361Y-50840797D01*
X29875622Y-50974058D01*
X29986395Y-51126524D01*
X30071953Y-51294442D01*
X30130190Y-51473677D01*
X30159672Y-51659816D01*
X30159672Y-51848274D01*
X30130190Y-52034413D01*
X30071953Y-52213648D01*
X29986395Y-52381566D01*
X29875622Y-52534032D01*
X29742361Y-52667293D01*
X29589895Y-52778066D01*
X29421977Y-52863624D01*
X29242742Y-52921861D01*
X29056603Y-52951343D01*
X28868145Y-52951343D01*
X28682006Y-52921861D01*
X28502771Y-52863624D01*
X28334853Y-52778066D01*
X28182387Y-52667293D01*
X28049126Y-52534032D01*
X27938353Y-52381566D01*
X27852795Y-52213648D01*
X27794558Y-52034413D01*
X27765076Y-51848274D01*
X27765076Y-51659816D01*
X27794558Y-51473677D01*
X27852795Y-51294442D01*
X27938353Y-51126524D01*
X28049126Y-50974058D01*
X28182387Y-50840797D01*
X28334853Y-50730024D01*
X28502771Y-50644466D01*
X28682006Y-50586229D01*
X28868145Y-50556747D01*
X29056603Y-50556747D01*
X29242742Y-50586229D01*
G37*
G36*
X51768914Y-50469495D02*
G01*
X51784726Y-50476476D01*
X51792531Y-50477713D01*
X51825039Y-50494276D01*
X51870106Y-50514176D01*
X51948324Y-50592394D01*
X51968226Y-50637467D01*
X51984786Y-50669968D01*
X51986021Y-50677770D01*
X51993005Y-50693586D01*
X52001000Y-50762500D01*
X52001000Y-51262500D01*
X51993005Y-51331414D01*
X51986021Y-51347229D01*
X51984786Y-51355031D01*
X51968229Y-51387524D01*
X51948324Y-51432606D01*
X51870106Y-51510824D01*
X51825024Y-51530729D01*
X51792531Y-51547286D01*
X51784729Y-51548521D01*
X51768914Y-51555505D01*
X51700000Y-51563500D01*
X50750000Y-51563500D01*
X50681086Y-51555505D01*
X50665270Y-51548521D01*
X50657468Y-51547286D01*
X50624967Y-51530726D01*
X50579894Y-51510824D01*
X50501676Y-51432606D01*
X50481776Y-51387539D01*
X50465213Y-51355031D01*
X50463976Y-51347226D01*
X50456995Y-51331414D01*
X50449000Y-51262500D01*
X50449000Y-50762500D01*
X50456995Y-50693586D01*
X50463976Y-50677774D01*
X50465213Y-50669968D01*
X50481780Y-50637453D01*
X50501676Y-50592394D01*
X50579894Y-50514176D01*
X50624953Y-50494280D01*
X50657468Y-50477713D01*
X50665274Y-50476476D01*
X50681086Y-50469495D01*
X50750000Y-50461500D01*
X51700000Y-50461500D01*
X51768914Y-50469495D01*
G37*
G36*
X45394517Y-43302882D02*
G01*
X45411062Y-43313938D01*
X45422118Y-43330483D01*
X45426000Y-43350000D01*
X45426000Y-43800000D01*
X45422118Y-43819517D01*
X45411062Y-43836062D01*
X45405844Y-43839548D01*
X45390788Y-43862082D01*
X45390788Y-43937918D01*
X45405845Y-43960451D01*
X45411062Y-43963938D01*
X45422118Y-43980483D01*
X45426000Y-44000000D01*
X45426000Y-44450000D01*
X45422118Y-44469517D01*
X45411062Y-44486062D01*
X45405844Y-44489548D01*
X45390788Y-44512082D01*
X45390788Y-44587918D01*
X45405845Y-44610451D01*
X45411062Y-44613938D01*
X45422118Y-44630483D01*
X45426000Y-44650000D01*
X45426000Y-45100000D01*
X45422118Y-45119517D01*
X45411062Y-45136062D01*
X45405844Y-45139548D01*
X45390788Y-45162082D01*
X45390788Y-45237918D01*
X45405845Y-45260451D01*
X45411062Y-45263938D01*
X45422118Y-45280483D01*
X45426000Y-45300000D01*
X45426000Y-45750000D01*
X45422118Y-45769517D01*
X45411062Y-45786062D01*
X45405844Y-45789548D01*
X45390788Y-45812082D01*
X45390788Y-45887918D01*
X45405845Y-45910451D01*
X45411062Y-45913938D01*
X45422118Y-45930483D01*
X45426000Y-45950000D01*
X45426000Y-46400000D01*
X45422118Y-46419517D01*
X45411062Y-46436062D01*
X45405844Y-46439548D01*
X45390788Y-46462082D01*
X45390788Y-46537918D01*
X45405845Y-46560451D01*
X45411062Y-46563938D01*
X45422118Y-46580483D01*
X45426000Y-46600000D01*
X45426000Y-47050000D01*
X45422118Y-47069517D01*
X45411062Y-47086062D01*
X45405844Y-47089548D01*
X45390788Y-47112082D01*
X45390788Y-47187918D01*
X45405845Y-47210451D01*
X45411062Y-47213938D01*
X45422118Y-47230483D01*
X45426000Y-47250000D01*
X45426000Y-47700000D01*
X45422118Y-47719517D01*
X45411062Y-47736062D01*
X45405844Y-47739548D01*
X45390788Y-47762082D01*
X45390788Y-47837918D01*
X45405845Y-47860451D01*
X45411062Y-47863938D01*
X45422118Y-47880483D01*
X45426000Y-47900000D01*
X45426000Y-48350000D01*
X45422118Y-48369517D01*
X45411062Y-48386062D01*
X45394517Y-48397118D01*
X45375000Y-48401000D01*
X44325000Y-48401000D01*
X44305483Y-48397118D01*
X44288938Y-48386062D01*
X44277882Y-48369517D01*
X44274000Y-48350000D01*
X44274000Y-47900000D01*
X44277882Y-47880483D01*
X44288938Y-47863938D01*
X44294152Y-47860453D01*
X44309211Y-47837917D01*
X44309211Y-47762083D01*
X44294153Y-47739546D01*
X44288938Y-47736062D01*
X44277882Y-47719517D01*
X44274000Y-47700000D01*
X44274000Y-47250000D01*
X44277882Y-47230483D01*
X44288938Y-47213938D01*
X44294152Y-47210453D01*
X44309211Y-47187917D01*
X44309211Y-47112083D01*
X44294153Y-47089546D01*
X44288938Y-47086062D01*
X44277882Y-47069517D01*
X44274000Y-47050000D01*
X44274000Y-46600000D01*
X44277882Y-46580483D01*
X44288938Y-46563938D01*
X44294152Y-46560453D01*
X44309211Y-46537917D01*
X44309211Y-46462083D01*
X44294153Y-46439546D01*
X44288938Y-46436062D01*
X44277882Y-46419517D01*
X44274000Y-46400000D01*
X44274000Y-45950000D01*
X44277882Y-45930483D01*
X44288938Y-45913938D01*
X44294152Y-45910453D01*
X44309211Y-45887917D01*
X44309211Y-45812083D01*
X44294153Y-45789546D01*
X44288938Y-45786062D01*
X44277882Y-45769517D01*
X44274000Y-45750000D01*
X44274000Y-45300000D01*
X44277882Y-45280483D01*
X44288938Y-45263938D01*
X44294152Y-45260453D01*
X44309211Y-45237917D01*
X44309211Y-45162083D01*
X44294153Y-45139546D01*
X44288938Y-45136062D01*
X44277882Y-45119517D01*
X44274000Y-45100000D01*
X44274000Y-44650000D01*
X44277882Y-44630483D01*
X44288938Y-44613938D01*
X44294152Y-44610453D01*
X44309211Y-44587917D01*
X44309211Y-44512083D01*
X44294153Y-44489546D01*
X44288938Y-44486062D01*
X44277882Y-44469517D01*
X44274000Y-44450000D01*
X44274000Y-44000000D01*
X44277882Y-43980483D01*
X44288938Y-43963938D01*
X44294152Y-43960453D01*
X44309211Y-43937917D01*
X44309211Y-43862083D01*
X44294153Y-43839546D01*
X44288938Y-43836062D01*
X44277882Y-43819517D01*
X44274000Y-43800000D01*
X44274000Y-43350000D01*
X44277882Y-43330483D01*
X44288938Y-43313938D01*
X44305483Y-43302882D01*
X44325000Y-43299000D01*
X45375000Y-43299000D01*
X45394517Y-43302882D01*
G37*
G36*
X50944517Y-43302882D02*
G01*
X50961062Y-43313938D01*
X50972118Y-43330483D01*
X50976000Y-43350000D01*
X50976000Y-43800000D01*
X50972118Y-43819517D01*
X50961062Y-43836062D01*
X50955844Y-43839548D01*
X50940788Y-43862082D01*
X50940788Y-43937918D01*
X50955845Y-43960451D01*
X50961062Y-43963938D01*
X50972118Y-43980483D01*
X50976000Y-44000000D01*
X50976000Y-44450000D01*
X50972118Y-44469517D01*
X50961062Y-44486062D01*
X50955844Y-44489548D01*
X50940788Y-44512082D01*
X50940788Y-44587918D01*
X50955845Y-44610451D01*
X50961062Y-44613938D01*
X50972118Y-44630483D01*
X50976000Y-44650000D01*
X50976000Y-45100000D01*
X50972118Y-45119517D01*
X50961062Y-45136062D01*
X50955844Y-45139548D01*
X50940788Y-45162082D01*
X50940788Y-45237918D01*
X50955845Y-45260451D01*
X50961062Y-45263938D01*
X50972118Y-45280483D01*
X50976000Y-45300000D01*
X50976000Y-45750000D01*
X50972118Y-45769517D01*
X50961062Y-45786062D01*
X50955844Y-45789548D01*
X50940788Y-45812082D01*
X50940788Y-45887918D01*
X50955845Y-45910451D01*
X50961062Y-45913938D01*
X50972118Y-45930483D01*
X50976000Y-45950000D01*
X50976000Y-46400000D01*
X50972118Y-46419517D01*
X50961062Y-46436062D01*
X50955844Y-46439548D01*
X50940788Y-46462082D01*
X50940788Y-46537918D01*
X50955845Y-46560451D01*
X50961062Y-46563938D01*
X50972118Y-46580483D01*
X50976000Y-46600000D01*
X50976000Y-47050000D01*
X50972118Y-47069517D01*
X50961062Y-47086062D01*
X50955844Y-47089548D01*
X50940788Y-47112082D01*
X50940788Y-47187918D01*
X50955845Y-47210451D01*
X50961062Y-47213938D01*
X50972118Y-47230483D01*
X50976000Y-47250000D01*
X50976000Y-47700000D01*
X50972118Y-47719517D01*
X50961062Y-47736062D01*
X50955844Y-47739548D01*
X50940788Y-47762082D01*
X50940788Y-47837918D01*
X50955845Y-47860451D01*
X50961062Y-47863938D01*
X50972118Y-47880483D01*
X50976000Y-47900000D01*
X50976000Y-48350000D01*
X50972118Y-48369517D01*
X50961062Y-48386062D01*
X50944517Y-48397118D01*
X50925000Y-48401000D01*
X49875000Y-48401000D01*
X49855483Y-48397118D01*
X49838938Y-48386062D01*
X49827882Y-48369517D01*
X49824000Y-48350000D01*
X49824000Y-47900000D01*
X49827882Y-47880483D01*
X49838938Y-47863938D01*
X49844152Y-47860453D01*
X49859211Y-47837917D01*
X49859211Y-47762083D01*
X49844153Y-47739546D01*
X49838938Y-47736062D01*
X49827882Y-47719517D01*
X49824000Y-47700000D01*
X49824000Y-47250000D01*
X49827882Y-47230483D01*
X49838938Y-47213938D01*
X49844152Y-47210453D01*
X49859211Y-47187917D01*
X49859211Y-47112083D01*
X49844153Y-47089546D01*
X49838938Y-47086062D01*
X49827882Y-47069517D01*
X49824000Y-47050000D01*
X49824000Y-46600000D01*
X49827882Y-46580483D01*
X49838938Y-46563938D01*
X49844152Y-46560453D01*
X49859211Y-46537917D01*
X49859211Y-46462083D01*
X49844153Y-46439546D01*
X49838938Y-46436062D01*
X49827882Y-46419517D01*
X49824000Y-46400000D01*
X49824000Y-45950000D01*
X49827882Y-45930483D01*
X49838938Y-45913938D01*
X49844152Y-45910453D01*
X49859211Y-45887917D01*
X49859211Y-45812083D01*
X49844153Y-45789546D01*
X49838938Y-45786062D01*
X49827882Y-45769517D01*
X49824000Y-45750000D01*
X49824000Y-45300000D01*
X49827882Y-45280483D01*
X49838938Y-45263938D01*
X49844152Y-45260453D01*
X49859211Y-45237917D01*
X49859211Y-45162083D01*
X49844153Y-45139546D01*
X49838938Y-45136062D01*
X49827882Y-45119517D01*
X49824000Y-45100000D01*
X49824000Y-44650000D01*
X49827882Y-44630483D01*
X49838938Y-44613938D01*
X49844152Y-44610453D01*
X49859211Y-44587917D01*
X49859211Y-44512083D01*
X49844153Y-44489546D01*
X49838938Y-44486062D01*
X49827882Y-44469517D01*
X49824000Y-44450000D01*
X49824000Y-44000000D01*
X49827882Y-43980483D01*
X49838938Y-43963938D01*
X49844152Y-43960453D01*
X49859211Y-43937917D01*
X49859211Y-43862083D01*
X49844153Y-43839546D01*
X49838938Y-43836062D01*
X49827882Y-43819517D01*
X49824000Y-43800000D01*
X49824000Y-43350000D01*
X49827882Y-43330483D01*
X49838938Y-43313938D01*
X49855483Y-43302882D01*
X49875000Y-43299000D01*
X50925000Y-43299000D01*
X50944517Y-43302882D01*
G37*
G36*
X28094517Y-43052882D02*
G01*
X28111062Y-43063938D01*
X28122118Y-43080483D01*
X28126000Y-43100000D01*
X28126000Y-43550000D01*
X28122118Y-43569517D01*
X28111062Y-43586062D01*
X28105844Y-43589548D01*
X28090788Y-43612082D01*
X28090788Y-43687918D01*
X28105845Y-43710451D01*
X28111062Y-43713938D01*
X28122118Y-43730483D01*
X28126000Y-43750000D01*
X28126000Y-44200000D01*
X28122118Y-44219517D01*
X28111062Y-44236062D01*
X28105844Y-44239548D01*
X28090788Y-44262082D01*
X28090788Y-44337918D01*
X28105845Y-44360451D01*
X28111062Y-44363938D01*
X28122118Y-44380483D01*
X28126000Y-44400000D01*
X28126000Y-44850000D01*
X28122118Y-44869517D01*
X28111062Y-44886062D01*
X28105844Y-44889548D01*
X28090788Y-44912082D01*
X28090788Y-44987918D01*
X28105845Y-45010451D01*
X28111062Y-45013938D01*
X28122118Y-45030483D01*
X28126000Y-45050000D01*
X28126000Y-45500000D01*
X28122118Y-45519517D01*
X28111062Y-45536062D01*
X28105844Y-45539548D01*
X28090788Y-45562082D01*
X28090788Y-45637918D01*
X28105845Y-45660451D01*
X28111062Y-45663938D01*
X28122118Y-45680483D01*
X28126000Y-45700000D01*
X28126000Y-46150000D01*
X28122118Y-46169517D01*
X28111062Y-46186062D01*
X28105844Y-46189548D01*
X28090788Y-46212082D01*
X28090788Y-46287918D01*
X28105845Y-46310451D01*
X28111062Y-46313938D01*
X28122118Y-46330483D01*
X28126000Y-46350000D01*
X28126000Y-46800000D01*
X28122118Y-46819517D01*
X28111062Y-46836062D01*
X28105844Y-46839548D01*
X28090788Y-46862082D01*
X28090788Y-46937918D01*
X28105845Y-46960451D01*
X28111062Y-46963938D01*
X28122118Y-46980483D01*
X28126000Y-47000000D01*
X28126000Y-47450000D01*
X28122118Y-47469517D01*
X28111062Y-47486062D01*
X28105844Y-47489548D01*
X28090788Y-47512082D01*
X28090788Y-47587918D01*
X28105845Y-47610451D01*
X28111062Y-47613938D01*
X28122118Y-47630483D01*
X28126000Y-47650000D01*
X28126000Y-48100000D01*
X28122118Y-48119517D01*
X28111062Y-48136062D01*
X28094517Y-48147118D01*
X28075000Y-48151000D01*
X27025000Y-48151000D01*
X27005483Y-48147118D01*
X26988938Y-48136062D01*
X26977882Y-48119517D01*
X26974000Y-48100000D01*
X26974000Y-47650000D01*
X26977882Y-47630483D01*
X26988938Y-47613938D01*
X26994152Y-47610453D01*
X27009211Y-47587917D01*
X27009211Y-47512083D01*
X26994153Y-47489546D01*
X26988938Y-47486062D01*
X26977882Y-47469517D01*
X26974000Y-47450000D01*
X26974000Y-47000000D01*
X26977882Y-46980483D01*
X26988938Y-46963938D01*
X26994152Y-46960453D01*
X27009211Y-46937917D01*
X27009211Y-46862083D01*
X26994153Y-46839546D01*
X26988938Y-46836062D01*
X26977882Y-46819517D01*
X26974000Y-46800000D01*
X26974000Y-46350000D01*
X26977882Y-46330483D01*
X26988938Y-46313938D01*
X26994152Y-46310453D01*
X27009211Y-46287917D01*
X27009211Y-46212083D01*
X26994153Y-46189546D01*
X26988938Y-46186062D01*
X26977882Y-46169517D01*
X26974000Y-46150000D01*
X26974000Y-45700000D01*
X26977882Y-45680483D01*
X26988938Y-45663938D01*
X26994152Y-45660453D01*
X27009211Y-45637917D01*
X27009211Y-45562083D01*
X26994153Y-45539546D01*
X26988938Y-45536062D01*
X26977882Y-45519517D01*
X26974000Y-45500000D01*
X26974000Y-45050000D01*
X26977882Y-45030483D01*
X26988938Y-45013938D01*
X26994152Y-45010453D01*
X27009211Y-44987917D01*
X27009211Y-44912083D01*
X26994153Y-44889546D01*
X26988938Y-44886062D01*
X26977882Y-44869517D01*
X26974000Y-44850000D01*
X26974000Y-44400000D01*
X26977882Y-44380483D01*
X26988938Y-44363938D01*
X26994152Y-44360453D01*
X27009211Y-44337917D01*
X27009211Y-44262083D01*
X26994153Y-44239546D01*
X26988938Y-44236062D01*
X26977882Y-44219517D01*
X26974000Y-44200000D01*
X26974000Y-43750000D01*
X26977882Y-43730483D01*
X26988938Y-43713938D01*
X26994152Y-43710453D01*
X27009211Y-43687917D01*
X27009211Y-43612083D01*
X26994153Y-43589546D01*
X26988938Y-43586062D01*
X26977882Y-43569517D01*
X26974000Y-43550000D01*
X26974000Y-43100000D01*
X26977882Y-43080483D01*
X26988938Y-43063938D01*
X27005483Y-43052882D01*
X27025000Y-43049000D01*
X28075000Y-43049000D01*
X28094517Y-43052882D01*
G37*
G36*
X33644517Y-43052882D02*
G01*
X33661062Y-43063938D01*
X33672118Y-43080483D01*
X33676000Y-43100000D01*
X33676000Y-43550000D01*
X33672118Y-43569517D01*
X33661062Y-43586062D01*
X33655844Y-43589548D01*
X33640788Y-43612082D01*
X33640788Y-43687918D01*
X33655845Y-43710451D01*
X33661062Y-43713938D01*
X33672118Y-43730483D01*
X33676000Y-43750000D01*
X33676000Y-44200000D01*
X33672118Y-44219517D01*
X33661062Y-44236062D01*
X33655844Y-44239548D01*
X33640788Y-44262082D01*
X33640788Y-44337918D01*
X33655845Y-44360451D01*
X33661062Y-44363938D01*
X33672118Y-44380483D01*
X33676000Y-44400000D01*
X33676000Y-44850000D01*
X33672118Y-44869517D01*
X33661062Y-44886062D01*
X33655844Y-44889548D01*
X33640788Y-44912082D01*
X33640788Y-44987918D01*
X33655845Y-45010451D01*
X33661062Y-45013938D01*
X33672118Y-45030483D01*
X33676000Y-45050000D01*
X33676000Y-45500000D01*
X33672118Y-45519517D01*
X33661062Y-45536062D01*
X33655844Y-45539548D01*
X33640788Y-45562082D01*
X33640788Y-45637918D01*
X33655845Y-45660451D01*
X33661062Y-45663938D01*
X33672118Y-45680483D01*
X33676000Y-45700000D01*
X33676000Y-46150000D01*
X33672118Y-46169517D01*
X33661062Y-46186062D01*
X33655844Y-46189548D01*
X33640788Y-46212082D01*
X33640788Y-46287918D01*
X33655845Y-46310451D01*
X33661062Y-46313938D01*
X33672118Y-46330483D01*
X33676000Y-46350000D01*
X33676000Y-46800000D01*
X33672118Y-46819517D01*
X33661062Y-46836062D01*
X33655844Y-46839548D01*
X33640788Y-46862082D01*
X33640788Y-46937918D01*
X33655845Y-46960451D01*
X33661062Y-46963938D01*
X33672118Y-46980483D01*
X33676000Y-47000000D01*
X33676000Y-47450000D01*
X33672118Y-47469517D01*
X33661062Y-47486062D01*
X33655844Y-47489548D01*
X33640788Y-47512082D01*
X33640788Y-47587918D01*
X33655845Y-47610451D01*
X33661062Y-47613938D01*
X33672118Y-47630483D01*
X33676000Y-47650000D01*
X33676000Y-48100000D01*
X33672118Y-48119517D01*
X33661062Y-48136062D01*
X33644517Y-48147118D01*
X33625000Y-48151000D01*
X32575000Y-48151000D01*
X32555483Y-48147118D01*
X32538938Y-48136062D01*
X32527882Y-48119517D01*
X32524000Y-48100000D01*
X32524000Y-47650000D01*
X32527882Y-47630483D01*
X32538938Y-47613938D01*
X32544152Y-47610453D01*
X32559211Y-47587917D01*
X32559211Y-47512083D01*
X32544153Y-47489546D01*
X32538938Y-47486062D01*
X32527882Y-47469517D01*
X32524000Y-47450000D01*
X32524000Y-47000000D01*
X32527882Y-46980483D01*
X32538938Y-46963938D01*
X32544152Y-46960453D01*
X32559211Y-46937917D01*
X32559211Y-46862083D01*
X32544153Y-46839546D01*
X32538938Y-46836062D01*
X32527882Y-46819517D01*
X32524000Y-46800000D01*
X32524000Y-46350000D01*
X32527882Y-46330483D01*
X32538938Y-46313938D01*
X32544152Y-46310453D01*
X32559211Y-46287917D01*
X32559211Y-46212083D01*
X32544153Y-46189546D01*
X32538938Y-46186062D01*
X32527882Y-46169517D01*
X32524000Y-46150000D01*
X32524000Y-45700000D01*
X32527882Y-45680483D01*
X32538938Y-45663938D01*
X32544152Y-45660453D01*
X32559211Y-45637917D01*
X32559211Y-45562083D01*
X32544153Y-45539546D01*
X32538938Y-45536062D01*
X32527882Y-45519517D01*
X32524000Y-45500000D01*
X32524000Y-45050000D01*
X32527882Y-45030483D01*
X32538938Y-45013938D01*
X32544152Y-45010453D01*
X32559211Y-44987917D01*
X32559211Y-44912083D01*
X32544153Y-44889546D01*
X32538938Y-44886062D01*
X32527882Y-44869517D01*
X32524000Y-44850000D01*
X32524000Y-44400000D01*
X32527882Y-44380483D01*
X32538938Y-44363938D01*
X32544152Y-44360453D01*
X32559211Y-44337917D01*
X32559211Y-44262083D01*
X32544153Y-44239546D01*
X32538938Y-44236062D01*
X32527882Y-44219517D01*
X32524000Y-44200000D01*
X32524000Y-43750000D01*
X32527882Y-43730483D01*
X32538938Y-43713938D01*
X32544152Y-43710453D01*
X32559211Y-43687917D01*
X32559211Y-43612083D01*
X32544153Y-43589546D01*
X32538938Y-43586062D01*
X32527882Y-43569517D01*
X32524000Y-43550000D01*
X32524000Y-43100000D01*
X32527882Y-43080483D01*
X32538938Y-43063938D01*
X32555483Y-43052882D01*
X32575000Y-43049000D01*
X33625000Y-43049000D01*
X33644517Y-43052882D01*
G37*
G36*
X49114517Y-44012882D02*
G01*
X49131062Y-44023938D01*
X49142118Y-44040483D01*
X49146000Y-44060000D01*
X49146000Y-44955000D01*
X49146000Y-45850000D01*
X49146000Y-46745000D01*
X49146000Y-47640000D01*
X49142118Y-47659517D01*
X49131062Y-47676062D01*
X49114517Y-47687118D01*
X49095000Y-47691000D01*
X47625000Y-47691000D01*
X46155000Y-47691000D01*
X46135483Y-47687118D01*
X46118938Y-47676062D01*
X46107882Y-47659517D01*
X46104000Y-47640000D01*
X46104000Y-46745000D01*
X46104000Y-44072310D01*
X46104000Y-44060000D01*
X46107882Y-44040483D01*
X46118938Y-44023938D01*
X46135483Y-44012882D01*
X46155000Y-44009000D01*
X47625000Y-44009000D01*
X49082690Y-44009000D01*
X49095000Y-44009000D01*
X49114517Y-44012882D01*
G37*
G36*
X31814517Y-43762882D02*
G01*
X31831062Y-43773938D01*
X31842118Y-43790483D01*
X31846000Y-43810000D01*
X31846000Y-44705000D01*
X31846000Y-45600000D01*
X31846000Y-46495000D01*
X31846000Y-47390000D01*
X31842118Y-47409517D01*
X31831062Y-47426062D01*
X31814517Y-47437118D01*
X31795000Y-47441000D01*
X30325000Y-47441000D01*
X28855000Y-47441000D01*
X28835483Y-47437118D01*
X28818938Y-47426062D01*
X28807882Y-47409517D01*
X28804000Y-47390000D01*
X28804000Y-46495000D01*
X28804000Y-43822310D01*
X28804000Y-43810000D01*
X28807882Y-43790483D01*
X28818938Y-43773938D01*
X28835483Y-43762882D01*
X28855000Y-43759000D01*
X30325000Y-43759000D01*
X31782690Y-43759000D01*
X31795000Y-43759000D01*
X31814517Y-43762882D01*
G37*
G36*
X40967635Y-44681207D02*
G01*
X41146870Y-44739444D01*
X41314788Y-44825002D01*
X41467254Y-44935775D01*
X41600515Y-45069036D01*
X41711288Y-45221502D01*
X41796846Y-45389420D01*
X41855083Y-45568655D01*
X41884565Y-45754794D01*
X41884565Y-45943252D01*
X41855083Y-46129391D01*
X41796846Y-46308626D01*
X41711288Y-46476544D01*
X41600515Y-46629010D01*
X41467254Y-46762271D01*
X41314788Y-46873044D01*
X41146870Y-46958602D01*
X40967635Y-47016839D01*
X40781496Y-47046321D01*
X40593038Y-47046321D01*
X40406899Y-47016839D01*
X40227664Y-46958602D01*
X40059746Y-46873044D01*
X39907280Y-46762271D01*
X39774019Y-46629010D01*
X39663246Y-46476544D01*
X39577688Y-46308626D01*
X39519451Y-46129391D01*
X39489969Y-45943252D01*
X39489969Y-45754794D01*
X39519451Y-45568655D01*
X39577688Y-45389420D01*
X39663246Y-45221502D01*
X39774019Y-45069036D01*
X39907280Y-44935775D01*
X40059746Y-44825002D01*
X40227664Y-44739444D01*
X40406899Y-44681207D01*
X40593038Y-44651725D01*
X40781496Y-44651725D01*
X40967635Y-44681207D01*
G37*
G36*
X37388028Y-44660096D02*
G01*
X37567263Y-44718333D01*
X37735181Y-44803891D01*
X37887647Y-44914664D01*
X38020908Y-45047925D01*
X38131681Y-45200391D01*
X38217239Y-45368309D01*
X38275476Y-45547544D01*
X38304958Y-45733683D01*
X38304958Y-45922141D01*
X38275476Y-46108280D01*
X38217239Y-46287515D01*
X38131681Y-46455433D01*
X38020908Y-46607899D01*
X37887647Y-46741160D01*
X37735181Y-46851933D01*
X37567263Y-46937491D01*
X37388028Y-46995728D01*
X37201889Y-47025210D01*
X37013431Y-47025210D01*
X36827292Y-46995728D01*
X36648057Y-46937491D01*
X36480139Y-46851933D01*
X36327673Y-46741160D01*
X36194412Y-46607899D01*
X36083639Y-46455433D01*
X35998081Y-46287515D01*
X35939844Y-46108280D01*
X35910362Y-45922141D01*
X35910362Y-45733683D01*
X35939844Y-45547544D01*
X35998081Y-45368309D01*
X36083639Y-45200391D01*
X36194412Y-45047925D01*
X36327673Y-44914664D01*
X36480139Y-44803891D01*
X36648057Y-44718333D01*
X36827292Y-44660096D01*
X37013431Y-44630614D01*
X37201889Y-44630614D01*
X37388028Y-44660096D01*
G37*
G36*
X34454654Y-38826990D02*
G01*
X34633889Y-38885227D01*
X34801807Y-38970785D01*
X34954273Y-39081558D01*
X35087534Y-39214819D01*
X35198307Y-39367285D01*
X35283865Y-39535203D01*
X35342102Y-39714438D01*
X35371584Y-39900577D01*
X35371584Y-40089035D01*
X35342102Y-40275174D01*
X35283865Y-40454409D01*
X35198307Y-40622327D01*
X35087534Y-40774793D01*
X34954273Y-40908054D01*
X34801807Y-41018827D01*
X34633889Y-41104385D01*
X34454654Y-41162622D01*
X34268515Y-41192104D01*
X34080057Y-41192104D01*
X33893918Y-41162622D01*
X33714683Y-41104385D01*
X33546765Y-41018827D01*
X33394299Y-40908054D01*
X33261038Y-40774793D01*
X33150265Y-40622327D01*
X33064707Y-40454409D01*
X33006470Y-40275174D01*
X32976988Y-40089035D01*
X32976988Y-39900577D01*
X33006470Y-39714438D01*
X33064707Y-39535203D01*
X33150265Y-39367285D01*
X33261038Y-39214819D01*
X33394299Y-39081558D01*
X33546765Y-38970785D01*
X33714683Y-38885227D01*
X33893918Y-38826990D01*
X34080057Y-38797508D01*
X34268515Y-38797508D01*
X34454654Y-38826990D01*
G37*
G36*
X30894708Y-38794568D02*
G01*
X31073943Y-38852805D01*
X31241861Y-38938363D01*
X31394327Y-39049136D01*
X31527588Y-39182397D01*
X31638361Y-39334863D01*
X31723919Y-39502781D01*
X31782156Y-39682016D01*
X31811638Y-39868155D01*
X31811638Y-40056613D01*
X31782156Y-40242752D01*
X31723919Y-40421987D01*
X31638361Y-40589905D01*
X31527588Y-40742371D01*
X31394327Y-40875632D01*
X31241861Y-40986405D01*
X31073943Y-41071963D01*
X30894708Y-41130200D01*
X30708569Y-41159682D01*
X30520111Y-41159682D01*
X30333972Y-41130200D01*
X30154737Y-41071963D01*
X29986819Y-40986405D01*
X29834353Y-40875632D01*
X29701092Y-40742371D01*
X29590319Y-40589905D01*
X29504761Y-40421987D01*
X29446524Y-40242752D01*
X29417042Y-40056613D01*
X29417042Y-39868155D01*
X29446524Y-39682016D01*
X29504761Y-39502781D01*
X29590319Y-39334863D01*
X29701092Y-39182397D01*
X29834353Y-39049136D01*
X29986819Y-38938363D01*
X30154737Y-38852805D01*
X30333972Y-38794568D01*
X30520111Y-38765086D01*
X30708569Y-38765086D01*
X30894708Y-38794568D01*
G37*
G36*
X46509327Y-38789231D02*
G01*
X46688562Y-38847468D01*
X46856480Y-38933026D01*
X47008946Y-39043799D01*
X47142207Y-39177060D01*
X47252980Y-39329526D01*
X47338538Y-39497444D01*
X47396775Y-39676679D01*
X47426257Y-39862818D01*
X47426257Y-40051276D01*
X47396775Y-40237415D01*
X47338538Y-40416650D01*
X47252980Y-40584568D01*
X47142207Y-40737034D01*
X47008946Y-40870295D01*
X46856480Y-40981068D01*
X46688562Y-41066626D01*
X46509327Y-41124863D01*
X46323188Y-41154345D01*
X46134730Y-41154345D01*
X45948591Y-41124863D01*
X45769356Y-41066626D01*
X45601438Y-40981068D01*
X45448972Y-40870295D01*
X45315711Y-40737034D01*
X45204938Y-40584568D01*
X45119380Y-40416650D01*
X45061143Y-40237415D01*
X45031661Y-40051276D01*
X45031661Y-39862818D01*
X45061143Y-39676679D01*
X45119380Y-39497444D01*
X45204938Y-39329526D01*
X45315711Y-39177060D01*
X45448972Y-39043799D01*
X45601438Y-38933026D01*
X45769356Y-38847468D01*
X45948591Y-38789231D01*
X46134730Y-38759749D01*
X46323188Y-38759749D01*
X46509327Y-38789231D01*
G37*
G36*
X50086967Y-38780354D02*
G01*
X50266202Y-38838591D01*
X50434120Y-38924149D01*
X50586586Y-39034922D01*
X50719847Y-39168183D01*
X50830620Y-39320649D01*
X50916178Y-39488567D01*
X50974415Y-39667802D01*
X51003897Y-39853941D01*
X51003897Y-40042399D01*
X50974415Y-40228538D01*
X50916178Y-40407773D01*
X50830620Y-40575691D01*
X50719847Y-40728157D01*
X50586586Y-40861418D01*
X50434120Y-40972191D01*
X50266202Y-41057749D01*
X50086967Y-41115986D01*
X49900828Y-41145468D01*
X49712370Y-41145468D01*
X49526231Y-41115986D01*
X49346996Y-41057749D01*
X49179078Y-40972191D01*
X49026612Y-40861418D01*
X48893351Y-40728157D01*
X48782578Y-40575691D01*
X48697020Y-40407773D01*
X48638783Y-40228538D01*
X48609301Y-40042399D01*
X48609301Y-39853941D01*
X48638783Y-39667802D01*
X48697020Y-39488567D01*
X48782578Y-39320649D01*
X48893351Y-39168183D01*
X49026612Y-39034922D01*
X49179078Y-38924149D01*
X49346996Y-38838591D01*
X49526231Y-38780354D01*
X49712370Y-38750872D01*
X49900828Y-38750872D01*
X50086967Y-38780354D01*
G37*
G36*
X37894517Y-35927882D02*
G01*
X37911062Y-35938938D01*
X37922118Y-35955483D01*
X37926000Y-35975000D01*
X37926000Y-36425000D01*
X37922118Y-36444517D01*
X37911062Y-36461062D01*
X37905844Y-36464548D01*
X37890788Y-36487082D01*
X37890788Y-36562918D01*
X37905845Y-36585451D01*
X37911062Y-36588938D01*
X37922118Y-36605483D01*
X37926000Y-36625000D01*
X37926000Y-37075000D01*
X37922118Y-37094517D01*
X37911062Y-37111062D01*
X37905844Y-37114548D01*
X37890788Y-37137082D01*
X37890788Y-37212918D01*
X37905845Y-37235451D01*
X37911062Y-37238938D01*
X37922118Y-37255483D01*
X37926000Y-37275000D01*
X37926000Y-37725000D01*
X37922118Y-37744517D01*
X37911062Y-37761062D01*
X37905844Y-37764548D01*
X37890788Y-37787082D01*
X37890788Y-37862918D01*
X37905845Y-37885451D01*
X37911062Y-37888938D01*
X37922118Y-37905483D01*
X37926000Y-37925000D01*
X37926000Y-38375000D01*
X37922118Y-38394517D01*
X37911062Y-38411062D01*
X37905844Y-38414548D01*
X37890788Y-38437082D01*
X37890788Y-38512918D01*
X37905845Y-38535451D01*
X37911062Y-38538938D01*
X37922118Y-38555483D01*
X37926000Y-38575000D01*
X37926000Y-39025000D01*
X37922118Y-39044517D01*
X37911062Y-39061062D01*
X37905844Y-39064548D01*
X37890788Y-39087082D01*
X37890788Y-39162918D01*
X37905845Y-39185451D01*
X37911062Y-39188938D01*
X37922118Y-39205483D01*
X37926000Y-39225000D01*
X37926000Y-39675000D01*
X37922118Y-39694517D01*
X37911062Y-39711062D01*
X37905844Y-39714548D01*
X37890788Y-39737082D01*
X37890788Y-39812918D01*
X37905845Y-39835451D01*
X37911062Y-39838938D01*
X37922118Y-39855483D01*
X37926000Y-39875000D01*
X37926000Y-40325000D01*
X37922118Y-40344517D01*
X37911062Y-40361062D01*
X37905844Y-40364548D01*
X37890788Y-40387082D01*
X37890788Y-40462918D01*
X37905845Y-40485451D01*
X37911062Y-40488938D01*
X37922118Y-40505483D01*
X37926000Y-40525000D01*
X37926000Y-40975000D01*
X37922118Y-40994517D01*
X37911062Y-41011062D01*
X37894517Y-41022118D01*
X37875000Y-41026000D01*
X36825000Y-41026000D01*
X36805483Y-41022118D01*
X36788938Y-41011062D01*
X36777882Y-40994517D01*
X36774000Y-40975000D01*
X36774000Y-40525000D01*
X36777882Y-40505483D01*
X36788938Y-40488938D01*
X36794152Y-40485453D01*
X36809211Y-40462917D01*
X36809211Y-40387083D01*
X36794153Y-40364546D01*
X36788938Y-40361062D01*
X36777882Y-40344517D01*
X36774000Y-40325000D01*
X36774000Y-39875000D01*
X36777882Y-39855483D01*
X36788938Y-39838938D01*
X36794152Y-39835453D01*
X36809211Y-39812917D01*
X36809211Y-39737083D01*
X36794153Y-39714546D01*
X36788938Y-39711062D01*
X36777882Y-39694517D01*
X36774000Y-39675000D01*
X36774000Y-39225000D01*
X36777882Y-39205483D01*
X36788938Y-39188938D01*
X36794152Y-39185453D01*
X36809211Y-39162917D01*
X36809211Y-39087083D01*
X36794153Y-39064546D01*
X36788938Y-39061062D01*
X36777882Y-39044517D01*
X36774000Y-39025000D01*
X36774000Y-38575000D01*
X36777882Y-38555483D01*
X36788938Y-38538938D01*
X36794152Y-38535453D01*
X36809211Y-38512917D01*
X36809211Y-38437083D01*
X36794153Y-38414546D01*
X36788938Y-38411062D01*
X36777882Y-38394517D01*
X36774000Y-38375000D01*
X36774000Y-37925000D01*
X36777882Y-37905483D01*
X36788938Y-37888938D01*
X36794152Y-37885453D01*
X36809211Y-37862917D01*
X36809211Y-37787083D01*
X36794153Y-37764546D01*
X36788938Y-37761062D01*
X36777882Y-37744517D01*
X36774000Y-37725000D01*
X36774000Y-37275000D01*
X36777882Y-37255483D01*
X36788938Y-37238938D01*
X36794152Y-37235453D01*
X36809211Y-37212917D01*
X36809211Y-37137083D01*
X36794153Y-37114546D01*
X36788938Y-37111062D01*
X36777882Y-37094517D01*
X36774000Y-37075000D01*
X36774000Y-36625000D01*
X36777882Y-36605483D01*
X36788938Y-36588938D01*
X36794152Y-36585453D01*
X36809211Y-36562917D01*
X36809211Y-36487083D01*
X36794153Y-36464546D01*
X36788938Y-36461062D01*
X36777882Y-36444517D01*
X36774000Y-36425000D01*
X36774000Y-35975000D01*
X36777882Y-35955483D01*
X36788938Y-35938938D01*
X36805483Y-35927882D01*
X36825000Y-35924000D01*
X37875000Y-35924000D01*
X37894517Y-35927882D01*
G37*
G36*
X43444517Y-35927882D02*
G01*
X43461062Y-35938938D01*
X43472118Y-35955483D01*
X43476000Y-35975000D01*
X43476000Y-36425000D01*
X43472118Y-36444517D01*
X43461062Y-36461062D01*
X43455844Y-36464548D01*
X43440788Y-36487082D01*
X43440788Y-36562918D01*
X43455845Y-36585451D01*
X43461062Y-36588938D01*
X43472118Y-36605483D01*
X43476000Y-36625000D01*
X43476000Y-37075000D01*
X43472118Y-37094517D01*
X43461062Y-37111062D01*
X43455844Y-37114548D01*
X43440788Y-37137082D01*
X43440788Y-37212918D01*
X43455845Y-37235451D01*
X43461062Y-37238938D01*
X43472118Y-37255483D01*
X43476000Y-37275000D01*
X43476000Y-37725000D01*
X43472118Y-37744517D01*
X43461062Y-37761062D01*
X43455844Y-37764548D01*
X43440788Y-37787082D01*
X43440788Y-37862918D01*
X43455845Y-37885451D01*
X43461062Y-37888938D01*
X43472118Y-37905483D01*
X43476000Y-37925000D01*
X43476000Y-38375000D01*
X43472118Y-38394517D01*
X43461062Y-38411062D01*
X43455844Y-38414548D01*
X43440788Y-38437082D01*
X43440788Y-38512918D01*
X43455845Y-38535451D01*
X43461062Y-38538938D01*
X43472118Y-38555483D01*
X43476000Y-38575000D01*
X43476000Y-39025000D01*
X43472118Y-39044517D01*
X43461062Y-39061062D01*
X43455844Y-39064548D01*
X43440788Y-39087082D01*
X43440788Y-39162918D01*
X43455845Y-39185451D01*
X43461062Y-39188938D01*
X43472118Y-39205483D01*
X43476000Y-39225000D01*
X43476000Y-39675000D01*
X43472118Y-39694517D01*
X43461062Y-39711062D01*
X43455844Y-39714548D01*
X43440788Y-39737082D01*
X43440788Y-39812918D01*
X43455845Y-39835451D01*
X43461062Y-39838938D01*
X43472118Y-39855483D01*
X43476000Y-39875000D01*
X43476000Y-40325000D01*
X43472118Y-40344517D01*
X43461062Y-40361062D01*
X43455844Y-40364548D01*
X43440788Y-40387082D01*
X43440788Y-40462918D01*
X43455845Y-40485451D01*
X43461062Y-40488938D01*
X43472118Y-40505483D01*
X43476000Y-40525000D01*
X43476000Y-40975000D01*
X43472118Y-40994517D01*
X43461062Y-41011062D01*
X43444517Y-41022118D01*
X43425000Y-41026000D01*
X42375000Y-41026000D01*
X42355483Y-41022118D01*
X42338938Y-41011062D01*
X42327882Y-40994517D01*
X42324000Y-40975000D01*
X42324000Y-40525000D01*
X42327882Y-40505483D01*
X42338938Y-40488938D01*
X42344152Y-40485453D01*
X42359211Y-40462917D01*
X42359211Y-40387083D01*
X42344153Y-40364546D01*
X42338938Y-40361062D01*
X42327882Y-40344517D01*
X42324000Y-40325000D01*
X42324000Y-39875000D01*
X42327882Y-39855483D01*
X42338938Y-39838938D01*
X42344152Y-39835453D01*
X42359211Y-39812917D01*
X42359211Y-39737083D01*
X42344153Y-39714546D01*
X42338938Y-39711062D01*
X42327882Y-39694517D01*
X42324000Y-39675000D01*
X42324000Y-39225000D01*
X42327882Y-39205483D01*
X42338938Y-39188938D01*
X42344152Y-39185453D01*
X42359211Y-39162917D01*
X42359211Y-39087083D01*
X42344153Y-39064546D01*
X42338938Y-39061062D01*
X42327882Y-39044517D01*
X42324000Y-39025000D01*
X42324000Y-38575000D01*
X42327882Y-38555483D01*
X42338938Y-38538938D01*
X42344152Y-38535453D01*
X42359211Y-38512917D01*
X42359211Y-38437083D01*
X42344153Y-38414546D01*
X42338938Y-38411062D01*
X42327882Y-38394517D01*
X42324000Y-38375000D01*
X42324000Y-37925000D01*
X42327882Y-37905483D01*
X42338938Y-37888938D01*
X42344152Y-37885453D01*
X42359211Y-37862917D01*
X42359211Y-37787083D01*
X42344153Y-37764546D01*
X42338938Y-37761062D01*
X42327882Y-37744517D01*
X42324000Y-37725000D01*
X42324000Y-37275000D01*
X42327882Y-37255483D01*
X42338938Y-37238938D01*
X42344152Y-37235453D01*
X42359211Y-37212917D01*
X42359211Y-37137083D01*
X42344153Y-37114546D01*
X42338938Y-37111062D01*
X42327882Y-37094517D01*
X42324000Y-37075000D01*
X42324000Y-36625000D01*
X42327882Y-36605483D01*
X42338938Y-36588938D01*
X42344152Y-36585453D01*
X42359211Y-36562917D01*
X42359211Y-36487083D01*
X42344153Y-36464546D01*
X42338938Y-36461062D01*
X42327882Y-36444517D01*
X42324000Y-36425000D01*
X42324000Y-35975000D01*
X42327882Y-35955483D01*
X42338938Y-35938938D01*
X42355483Y-35927882D01*
X42375000Y-35924000D01*
X43425000Y-35924000D01*
X43444517Y-35927882D01*
G37*
G36*
X41614517Y-36637882D02*
G01*
X41631062Y-36648938D01*
X41642118Y-36665483D01*
X41646000Y-36685000D01*
X41646000Y-37580000D01*
X41646000Y-38475000D01*
X41646000Y-39370000D01*
X41646000Y-40265000D01*
X41642118Y-40284517D01*
X41631062Y-40301062D01*
X41614517Y-40312118D01*
X41595000Y-40316000D01*
X40125000Y-40316000D01*
X38655000Y-40316000D01*
X38635483Y-40312118D01*
X38618938Y-40301062D01*
X38607882Y-40284517D01*
X38604000Y-40265000D01*
X38604000Y-39370000D01*
X38604000Y-36697310D01*
X38604000Y-36685000D01*
X38607882Y-36665483D01*
X38618938Y-36648938D01*
X38635483Y-36637882D01*
X38655000Y-36634000D01*
X40125000Y-36634000D01*
X41582690Y-36634000D01*
X41595000Y-36634000D01*
X41614517Y-36637882D01*
G37*
G36*
X47331414Y-34931995D02*
G01*
X47347226Y-34938976D01*
X47355031Y-34940213D01*
X47387539Y-34956776D01*
X47432606Y-34976676D01*
X47510824Y-35054894D01*
X47530726Y-35099967D01*
X47547286Y-35132468D01*
X47548521Y-35140270D01*
X47555505Y-35156086D01*
X47563500Y-35225000D01*
X47563500Y-36175000D01*
X47555505Y-36243914D01*
X47548521Y-36259729D01*
X47547286Y-36267531D01*
X47530729Y-36300024D01*
X47510824Y-36345106D01*
X47432606Y-36423324D01*
X47387524Y-36443229D01*
X47355031Y-36459786D01*
X47347229Y-36461021D01*
X47331414Y-36468005D01*
X47262500Y-36476000D01*
X46762500Y-36476000D01*
X46693586Y-36468005D01*
X46677770Y-36461021D01*
X46669968Y-36459786D01*
X46637467Y-36443226D01*
X46592394Y-36423324D01*
X46514176Y-36345106D01*
X46494276Y-36300039D01*
X46477713Y-36267531D01*
X46476476Y-36259726D01*
X46469495Y-36243914D01*
X46461500Y-36175000D01*
X46461500Y-35225000D01*
X46469495Y-35156086D01*
X46476476Y-35140274D01*
X46477713Y-35132468D01*
X46494280Y-35099953D01*
X46514176Y-35054894D01*
X46592394Y-34976676D01*
X46637453Y-34956780D01*
X46669968Y-34940213D01*
X46677774Y-34938976D01*
X46693586Y-34931995D01*
X46762500Y-34924000D01*
X47262500Y-34924000D01*
X47331414Y-34931995D01*
G37*
G36*
X49231414Y-34931995D02*
G01*
X49247226Y-34938976D01*
X49255031Y-34940213D01*
X49287539Y-34956776D01*
X49332606Y-34976676D01*
X49410824Y-35054894D01*
X49430726Y-35099967D01*
X49447286Y-35132468D01*
X49448521Y-35140270D01*
X49455505Y-35156086D01*
X49463500Y-35225000D01*
X49463500Y-36175000D01*
X49455505Y-36243914D01*
X49448521Y-36259729D01*
X49447286Y-36267531D01*
X49430729Y-36300024D01*
X49410824Y-36345106D01*
X49332606Y-36423324D01*
X49287524Y-36443229D01*
X49255031Y-36459786D01*
X49247229Y-36461021D01*
X49231414Y-36468005D01*
X49162500Y-36476000D01*
X48662500Y-36476000D01*
X48593586Y-36468005D01*
X48577770Y-36461021D01*
X48569968Y-36459786D01*
X48537467Y-36443226D01*
X48492394Y-36423324D01*
X48414176Y-36345106D01*
X48394276Y-36300039D01*
X48377713Y-36267531D01*
X48376476Y-36259726D01*
X48369495Y-36243914D01*
X48361500Y-36175000D01*
X48361500Y-35225000D01*
X48369495Y-35156086D01*
X48376476Y-35140274D01*
X48377713Y-35132468D01*
X48394280Y-35099953D01*
X48414176Y-35054894D01*
X48492394Y-34976676D01*
X48537453Y-34956780D01*
X48569968Y-34940213D01*
X48577774Y-34938976D01*
X48593586Y-34931995D01*
X48662500Y-34924000D01*
X49162500Y-34924000D01*
X49231414Y-34931995D01*
G37*
G36*
X28843914Y-35229495D02*
G01*
X28859726Y-35236476D01*
X28867531Y-35237713D01*
X28900039Y-35254276D01*
X28945106Y-35274176D01*
X29023324Y-35352394D01*
X29043226Y-35397467D01*
X29059786Y-35429968D01*
X29061021Y-35437770D01*
X29068005Y-35453586D01*
X29076000Y-35522500D01*
X29076000Y-36022500D01*
X29068005Y-36091414D01*
X29061021Y-36107229D01*
X29059786Y-36115031D01*
X29043229Y-36147524D01*
X29023324Y-36192606D01*
X28945106Y-36270824D01*
X28900024Y-36290729D01*
X28867531Y-36307286D01*
X28859729Y-36308521D01*
X28843914Y-36315505D01*
X28775000Y-36323500D01*
X27825000Y-36323500D01*
X27756086Y-36315505D01*
X27740270Y-36308521D01*
X27732468Y-36307286D01*
X27699967Y-36290726D01*
X27654894Y-36270824D01*
X27576676Y-36192606D01*
X27556776Y-36147539D01*
X27540213Y-36115031D01*
X27538976Y-36107226D01*
X27531995Y-36091414D01*
X27524000Y-36022500D01*
X27524000Y-35522500D01*
X27531995Y-35453586D01*
X27538976Y-35437774D01*
X27540213Y-35429968D01*
X27556780Y-35397453D01*
X27576676Y-35352394D01*
X27654894Y-35274176D01*
X27699953Y-35254280D01*
X27732468Y-35237713D01*
X27740274Y-35236476D01*
X27756086Y-35229495D01*
X27825000Y-35221500D01*
X28775000Y-35221500D01*
X28843914Y-35229495D01*
G37*
G36*
X31668914Y-35219495D02*
G01*
X31684726Y-35226476D01*
X31692531Y-35227713D01*
X31725039Y-35244276D01*
X31770106Y-35264176D01*
X31848324Y-35342394D01*
X31868226Y-35387467D01*
X31884786Y-35419968D01*
X31886021Y-35427770D01*
X31893005Y-35443586D01*
X31901000Y-35512500D01*
X31901000Y-36012500D01*
X31893005Y-36081414D01*
X31886021Y-36097229D01*
X31884786Y-36105031D01*
X31868229Y-36137524D01*
X31848324Y-36182606D01*
X31770106Y-36260824D01*
X31725024Y-36280729D01*
X31692531Y-36297286D01*
X31684729Y-36298521D01*
X31668914Y-36305505D01*
X31600000Y-36313500D01*
X30650000Y-36313500D01*
X30581086Y-36305505D01*
X30565270Y-36298521D01*
X30557468Y-36297286D01*
X30524967Y-36280726D01*
X30479894Y-36260824D01*
X30401676Y-36182606D01*
X30381776Y-36137539D01*
X30365213Y-36105031D01*
X30363976Y-36097226D01*
X30356995Y-36081414D01*
X30349000Y-36012500D01*
X30349000Y-35512500D01*
X30356995Y-35443586D01*
X30363976Y-35427774D01*
X30365213Y-35419968D01*
X30381780Y-35387453D01*
X30401676Y-35342394D01*
X30479894Y-35264176D01*
X30524953Y-35244280D01*
X30557468Y-35227713D01*
X30565274Y-35226476D01*
X30581086Y-35219495D01*
X30650000Y-35211500D01*
X31600000Y-35211500D01*
X31668914Y-35219495D01*
G37*
G36*
X34443914Y-35144495D02*
G01*
X34459726Y-35151476D01*
X34467531Y-35152713D01*
X34500039Y-35169276D01*
X34545106Y-35189176D01*
X34623324Y-35267394D01*
X34643226Y-35312467D01*
X34659786Y-35344968D01*
X34661021Y-35352770D01*
X34668005Y-35368586D01*
X34676000Y-35437500D01*
X34676000Y-35937500D01*
X34668005Y-36006414D01*
X34661021Y-36022229D01*
X34659786Y-36030031D01*
X34643229Y-36062524D01*
X34623324Y-36107606D01*
X34545106Y-36185824D01*
X34500024Y-36205729D01*
X34467531Y-36222286D01*
X34459729Y-36223521D01*
X34443914Y-36230505D01*
X34375000Y-36238500D01*
X33425000Y-36238500D01*
X33356086Y-36230505D01*
X33340270Y-36223521D01*
X33332468Y-36222286D01*
X33299967Y-36205726D01*
X33254894Y-36185824D01*
X33176676Y-36107606D01*
X33156776Y-36062539D01*
X33140213Y-36030031D01*
X33138976Y-36022226D01*
X33131995Y-36006414D01*
X33124000Y-35937500D01*
X33124000Y-35437500D01*
X33131995Y-35368586D01*
X33138976Y-35352774D01*
X33140213Y-35344968D01*
X33156780Y-35312453D01*
X33176676Y-35267394D01*
X33254894Y-35189176D01*
X33299953Y-35169280D01*
X33332468Y-35152713D01*
X33340274Y-35151476D01*
X33356086Y-35144495D01*
X33425000Y-35136500D01*
X34375000Y-35136500D01*
X34443914Y-35144495D01*
G37*
G36*
X28843914Y-33329495D02*
G01*
X28859726Y-33336476D01*
X28867531Y-33337713D01*
X28900039Y-33354276D01*
X28945106Y-33374176D01*
X29023324Y-33452394D01*
X29043226Y-33497467D01*
X29059786Y-33529968D01*
X29061021Y-33537770D01*
X29068005Y-33553586D01*
X29076000Y-33622500D01*
X29076000Y-34122500D01*
X29068005Y-34191414D01*
X29061021Y-34207229D01*
X29059786Y-34215031D01*
X29043229Y-34247524D01*
X29023324Y-34292606D01*
X28945106Y-34370824D01*
X28900024Y-34390729D01*
X28867531Y-34407286D01*
X28859729Y-34408521D01*
X28843914Y-34415505D01*
X28775000Y-34423500D01*
X27825000Y-34423500D01*
X27756086Y-34415505D01*
X27740270Y-34408521D01*
X27732468Y-34407286D01*
X27699967Y-34390726D01*
X27654894Y-34370824D01*
X27576676Y-34292606D01*
X27556776Y-34247539D01*
X27540213Y-34215031D01*
X27538976Y-34207226D01*
X27531995Y-34191414D01*
X27524000Y-34122500D01*
X27524000Y-33622500D01*
X27531995Y-33553586D01*
X27538976Y-33537774D01*
X27540213Y-33529968D01*
X27556780Y-33497453D01*
X27576676Y-33452394D01*
X27654894Y-33374176D01*
X27699953Y-33354280D01*
X27732468Y-33337713D01*
X27740274Y-33336476D01*
X27756086Y-33329495D01*
X27825000Y-33321500D01*
X28775000Y-33321500D01*
X28843914Y-33329495D01*
G37*
G36*
X31668914Y-33319495D02*
G01*
X31684726Y-33326476D01*
X31692531Y-33327713D01*
X31725039Y-33344276D01*
X31770106Y-33364176D01*
X31848324Y-33442394D01*
X31868226Y-33487467D01*
X31884786Y-33519968D01*
X31886021Y-33527770D01*
X31893005Y-33543586D01*
X31901000Y-33612500D01*
X31901000Y-34112500D01*
X31893005Y-34181414D01*
X31886021Y-34197229D01*
X31884786Y-34205031D01*
X31868229Y-34237524D01*
X31848324Y-34282606D01*
X31770106Y-34360824D01*
X31725024Y-34380729D01*
X31692531Y-34397286D01*
X31684729Y-34398521D01*
X31668914Y-34405505D01*
X31600000Y-34413500D01*
X30650000Y-34413500D01*
X30581086Y-34405505D01*
X30565270Y-34398521D01*
X30557468Y-34397286D01*
X30524967Y-34380726D01*
X30479894Y-34360824D01*
X30401676Y-34282606D01*
X30381776Y-34237539D01*
X30365213Y-34205031D01*
X30363976Y-34197226D01*
X30356995Y-34181414D01*
X30349000Y-34112500D01*
X30349000Y-33612500D01*
X30356995Y-33543586D01*
X30363976Y-33527774D01*
X30365213Y-33519968D01*
X30381780Y-33487453D01*
X30401676Y-33442394D01*
X30479894Y-33364176D01*
X30524953Y-33344280D01*
X30557468Y-33327713D01*
X30565274Y-33326476D01*
X30581086Y-33319495D01*
X30650000Y-33311500D01*
X31600000Y-33311500D01*
X31668914Y-33319495D01*
G37*
G36*
X34443914Y-33244495D02*
G01*
X34459726Y-33251476D01*
X34467531Y-33252713D01*
X34500039Y-33269276D01*
X34545106Y-33289176D01*
X34623324Y-33367394D01*
X34643226Y-33412467D01*
X34659786Y-33444968D01*
X34661021Y-33452770D01*
X34668005Y-33468586D01*
X34676000Y-33537500D01*
X34676000Y-34037500D01*
X34668005Y-34106414D01*
X34661021Y-34122229D01*
X34659786Y-34130031D01*
X34643229Y-34162524D01*
X34623324Y-34207606D01*
X34545106Y-34285824D01*
X34500024Y-34305729D01*
X34467531Y-34322286D01*
X34459729Y-34323521D01*
X34443914Y-34330505D01*
X34375000Y-34338500D01*
X33425000Y-34338500D01*
X33356086Y-34330505D01*
X33340270Y-34323521D01*
X33332468Y-34322286D01*
X33299967Y-34305726D01*
X33254894Y-34285824D01*
X33176676Y-34207606D01*
X33156776Y-34162539D01*
X33140213Y-34130031D01*
X33138976Y-34122226D01*
X33131995Y-34106414D01*
X33124000Y-34037500D01*
X33124000Y-33537500D01*
X33131995Y-33468586D01*
X33138976Y-33452774D01*
X33140213Y-33444968D01*
X33156780Y-33412453D01*
X33176676Y-33367394D01*
X33254894Y-33289176D01*
X33299953Y-33269280D01*
X33332468Y-33252713D01*
X33340274Y-33251476D01*
X33356086Y-33244495D01*
X33425000Y-33236500D01*
X34375000Y-33236500D01*
X34443914Y-33244495D01*
G37*
G36*
X40080343Y-31357164D02*
G01*
X40259578Y-31415401D01*
X40427496Y-31500959D01*
X40579962Y-31611732D01*
X40713223Y-31744993D01*
X40823996Y-31897459D01*
X40909554Y-32065377D01*
X40967791Y-32244612D01*
X40997273Y-32430751D01*
X40997273Y-32619209D01*
X40967791Y-32805348D01*
X40909554Y-32984583D01*
X40823996Y-33152501D01*
X40713223Y-33304967D01*
X40579962Y-33438228D01*
X40427496Y-33549001D01*
X40259578Y-33634559D01*
X40080343Y-33692796D01*
X39894204Y-33722278D01*
X39705746Y-33722278D01*
X39519607Y-33692796D01*
X39340372Y-33634559D01*
X39172454Y-33549001D01*
X39019988Y-33438228D01*
X38886727Y-33304967D01*
X38775954Y-33152501D01*
X38690396Y-32984583D01*
X38632159Y-32805348D01*
X38602677Y-32619209D01*
X38602677Y-32430751D01*
X38632159Y-32244612D01*
X38690396Y-32065377D01*
X38775954Y-31897459D01*
X38886727Y-31744993D01*
X39019988Y-31611732D01*
X39172454Y-31500959D01*
X39340372Y-31415401D01*
X39519607Y-31357164D01*
X39705746Y-31327682D01*
X39894204Y-31327682D01*
X40080343Y-31357164D01*
G37*
G36*
X43646056Y-31338128D02*
G01*
X43825291Y-31396365D01*
X43993209Y-31481923D01*
X44145675Y-31592696D01*
X44278936Y-31725957D01*
X44389709Y-31878423D01*
X44475267Y-32046341D01*
X44533504Y-32225576D01*
X44562986Y-32411715D01*
X44562986Y-32600173D01*
X44533504Y-32786312D01*
X44475267Y-32965547D01*
X44389709Y-33133465D01*
X44278936Y-33285931D01*
X44145675Y-33419192D01*
X43993209Y-33529965D01*
X43825291Y-33615523D01*
X43646056Y-33673760D01*
X43459917Y-33703242D01*
X43271459Y-33703242D01*
X43085320Y-33673760D01*
X42906085Y-33615523D01*
X42738167Y-33529965D01*
X42585701Y-33419192D01*
X42452440Y-33285931D01*
X42341667Y-33133465D01*
X42256109Y-32965547D01*
X42197872Y-32786312D01*
X42168390Y-32600173D01*
X42168390Y-32411715D01*
X42197872Y-32225576D01*
X42256109Y-32046341D01*
X42341667Y-31878423D01*
X42452440Y-31725957D01*
X42585701Y-31592696D01*
X42738167Y-31481923D01*
X42906085Y-31396365D01*
X43085320Y-31338128D01*
X43271459Y-31308646D01*
X43459917Y-31308646D01*
X43646056Y-31338128D01*
G37*
G36*
X51414517Y-28407882D02*
G01*
X51431062Y-28418938D01*
X51442118Y-28435483D01*
X51446000Y-28455000D01*
X51446000Y-30155000D01*
X51442118Y-30174517D01*
X51431062Y-30191062D01*
X51414517Y-30202118D01*
X51395000Y-30206000D01*
X49695000Y-30206000D01*
X49675483Y-30202118D01*
X49658938Y-30191062D01*
X49647882Y-30174517D01*
X49644000Y-30155000D01*
X49644000Y-28455000D01*
X49647882Y-28435483D01*
X49658938Y-28418938D01*
X49675483Y-28407882D01*
X49695000Y-28404000D01*
X51395000Y-28404000D01*
X51414517Y-28407882D01*
G37*
G36*
X27946546Y-28442797D02*
G01*
X28109728Y-28510389D01*
X28256588Y-28608518D01*
X28381482Y-28733412D01*
X28479611Y-28880272D01*
X28547203Y-29043454D01*
X28581661Y-29216687D01*
X28581661Y-29393313D01*
X28547203Y-29566546D01*
X28479611Y-29729728D01*
X28381482Y-29876588D01*
X28256588Y-30001482D01*
X28109728Y-30099611D01*
X27946546Y-30167203D01*
X27773313Y-30201661D01*
X27596687Y-30201661D01*
X27423454Y-30167203D01*
X27260272Y-30099611D01*
X27113412Y-30001482D01*
X26988518Y-29876588D01*
X26890389Y-29729728D01*
X26822797Y-29566546D01*
X26788339Y-29393313D01*
X26788339Y-29216687D01*
X26822797Y-29043454D01*
X26890389Y-28880272D01*
X26988518Y-28733412D01*
X27113412Y-28608518D01*
X27260272Y-28510389D01*
X27423454Y-28442797D01*
X27596687Y-28408339D01*
X27773313Y-28408339D01*
X27946546Y-28442797D01*
G37*
G36*
X30486546Y-28442797D02*
G01*
X30649728Y-28510389D01*
X30796588Y-28608518D01*
X30921482Y-28733412D01*
X31019611Y-28880272D01*
X31087203Y-29043454D01*
X31121661Y-29216687D01*
X31121661Y-29393313D01*
X31087203Y-29566546D01*
X31019611Y-29729728D01*
X30921482Y-29876588D01*
X30796588Y-30001482D01*
X30649728Y-30099611D01*
X30486546Y-30167203D01*
X30313313Y-30201661D01*
X30136687Y-30201661D01*
X29963454Y-30167203D01*
X29800272Y-30099611D01*
X29653412Y-30001482D01*
X29528518Y-29876588D01*
X29430389Y-29729728D01*
X29362797Y-29566546D01*
X29328339Y-29393313D01*
X29328339Y-29216687D01*
X29362797Y-29043454D01*
X29430389Y-28880272D01*
X29528518Y-28733412D01*
X29653412Y-28608518D01*
X29800272Y-28510389D01*
X29963454Y-28442797D01*
X30136687Y-28408339D01*
X30313313Y-28408339D01*
X30486546Y-28442797D01*
G37*
G36*
X33026546Y-28442797D02*
G01*
X33189728Y-28510389D01*
X33336588Y-28608518D01*
X33461482Y-28733412D01*
X33559611Y-28880272D01*
X33627203Y-29043454D01*
X33661661Y-29216687D01*
X33661661Y-29393313D01*
X33627203Y-29566546D01*
X33559611Y-29729728D01*
X33461482Y-29876588D01*
X33336588Y-30001482D01*
X33189728Y-30099611D01*
X33026546Y-30167203D01*
X32853313Y-30201661D01*
X32676687Y-30201661D01*
X32503454Y-30167203D01*
X32340272Y-30099611D01*
X32193412Y-30001482D01*
X32068518Y-29876588D01*
X31970389Y-29729728D01*
X31902797Y-29566546D01*
X31868339Y-29393313D01*
X31868339Y-29216687D01*
X31902797Y-29043454D01*
X31970389Y-28880272D01*
X32068518Y-28733412D01*
X32193412Y-28608518D01*
X32340272Y-28510389D01*
X32503454Y-28442797D01*
X32676687Y-28408339D01*
X32853313Y-28408339D01*
X33026546Y-28442797D01*
G37*
G36*
X35566546Y-28442797D02*
G01*
X35729728Y-28510389D01*
X35876588Y-28608518D01*
X36001482Y-28733412D01*
X36099611Y-28880272D01*
X36167203Y-29043454D01*
X36201661Y-29216687D01*
X36201661Y-29393313D01*
X36167203Y-29566546D01*
X36099611Y-29729728D01*
X36001482Y-29876588D01*
X35876588Y-30001482D01*
X35729728Y-30099611D01*
X35566546Y-30167203D01*
X35393313Y-30201661D01*
X35216687Y-30201661D01*
X35043454Y-30167203D01*
X34880272Y-30099611D01*
X34733412Y-30001482D01*
X34608518Y-29876588D01*
X34510389Y-29729728D01*
X34442797Y-29566546D01*
X34408339Y-29393313D01*
X34408339Y-29216687D01*
X34442797Y-29043454D01*
X34510389Y-28880272D01*
X34608518Y-28733412D01*
X34733412Y-28608518D01*
X34880272Y-28510389D01*
X35043454Y-28442797D01*
X35216687Y-28408339D01*
X35393313Y-28408339D01*
X35566546Y-28442797D01*
G37*
G36*
X38106546Y-28442797D02*
G01*
X38269728Y-28510389D01*
X38416588Y-28608518D01*
X38541482Y-28733412D01*
X38639611Y-28880272D01*
X38707203Y-29043454D01*
X38741661Y-29216687D01*
X38741661Y-29393313D01*
X38707203Y-29566546D01*
X38639611Y-29729728D01*
X38541482Y-29876588D01*
X38416588Y-30001482D01*
X38269728Y-30099611D01*
X38106546Y-30167203D01*
X37933313Y-30201661D01*
X37756687Y-30201661D01*
X37583454Y-30167203D01*
X37420272Y-30099611D01*
X37273412Y-30001482D01*
X37148518Y-29876588D01*
X37050389Y-29729728D01*
X36982797Y-29566546D01*
X36948339Y-29393313D01*
X36948339Y-29216687D01*
X36982797Y-29043454D01*
X37050389Y-28880272D01*
X37148518Y-28733412D01*
X37273412Y-28608518D01*
X37420272Y-28510389D01*
X37583454Y-28442797D01*
X37756687Y-28408339D01*
X37933313Y-28408339D01*
X38106546Y-28442797D01*
G37*
G36*
X40646546Y-28442797D02*
G01*
X40809728Y-28510389D01*
X40956588Y-28608518D01*
X41081482Y-28733412D01*
X41179611Y-28880272D01*
X41247203Y-29043454D01*
X41281661Y-29216687D01*
X41281661Y-29393313D01*
X41247203Y-29566546D01*
X41179611Y-29729728D01*
X41081482Y-29876588D01*
X40956588Y-30001482D01*
X40809728Y-30099611D01*
X40646546Y-30167203D01*
X40473313Y-30201661D01*
X40296687Y-30201661D01*
X40123454Y-30167203D01*
X39960272Y-30099611D01*
X39813412Y-30001482D01*
X39688518Y-29876588D01*
X39590389Y-29729728D01*
X39522797Y-29566546D01*
X39488339Y-29393313D01*
X39488339Y-29216687D01*
X39522797Y-29043454D01*
X39590389Y-28880272D01*
X39688518Y-28733412D01*
X39813412Y-28608518D01*
X39960272Y-28510389D01*
X40123454Y-28442797D01*
X40296687Y-28408339D01*
X40473313Y-28408339D01*
X40646546Y-28442797D01*
G37*
G36*
X43186546Y-28442797D02*
G01*
X43349728Y-28510389D01*
X43496588Y-28608518D01*
X43621482Y-28733412D01*
X43719611Y-28880272D01*
X43787203Y-29043454D01*
X43821661Y-29216687D01*
X43821661Y-29393313D01*
X43787203Y-29566546D01*
X43719611Y-29729728D01*
X43621482Y-29876588D01*
X43496588Y-30001482D01*
X43349728Y-30099611D01*
X43186546Y-30167203D01*
X43013313Y-30201661D01*
X42836687Y-30201661D01*
X42663454Y-30167203D01*
X42500272Y-30099611D01*
X42353412Y-30001482D01*
X42228518Y-29876588D01*
X42130389Y-29729728D01*
X42062797Y-29566546D01*
X42028339Y-29393313D01*
X42028339Y-29216687D01*
X42062797Y-29043454D01*
X42130389Y-28880272D01*
X42228518Y-28733412D01*
X42353412Y-28608518D01*
X42500272Y-28510389D01*
X42663454Y-28442797D01*
X42836687Y-28408339D01*
X43013313Y-28408339D01*
X43186546Y-28442797D01*
G37*
G36*
X45726546Y-28442797D02*
G01*
X45889728Y-28510389D01*
X46036588Y-28608518D01*
X46161482Y-28733412D01*
X46259611Y-28880272D01*
X46327203Y-29043454D01*
X46361661Y-29216687D01*
X46361661Y-29393313D01*
X46327203Y-29566546D01*
X46259611Y-29729728D01*
X46161482Y-29876588D01*
X46036588Y-30001482D01*
X45889728Y-30099611D01*
X45726546Y-30167203D01*
X45553313Y-30201661D01*
X45376687Y-30201661D01*
X45203454Y-30167203D01*
X45040272Y-30099611D01*
X44893412Y-30001482D01*
X44768518Y-29876588D01*
X44670389Y-29729728D01*
X44602797Y-29566546D01*
X44568339Y-29393313D01*
X44568339Y-29216687D01*
X44602797Y-29043454D01*
X44670389Y-28880272D01*
X44768518Y-28733412D01*
X44893412Y-28608518D01*
X45040272Y-28510389D01*
X45203454Y-28442797D01*
X45376687Y-28408339D01*
X45553313Y-28408339D01*
X45726546Y-28442797D01*
G37*
G36*
X48266546Y-28442797D02*
G01*
X48429728Y-28510389D01*
X48576588Y-28608518D01*
X48701482Y-28733412D01*
X48799611Y-28880272D01*
X48867203Y-29043454D01*
X48901661Y-29216687D01*
X48901661Y-29393313D01*
X48867203Y-29566546D01*
X48799611Y-29729728D01*
X48701482Y-29876588D01*
X48576588Y-30001482D01*
X48429728Y-30099611D01*
X48266546Y-30167203D01*
X48093313Y-30201661D01*
X47916687Y-30201661D01*
X47743454Y-30167203D01*
X47580272Y-30099611D01*
X47433412Y-30001482D01*
X47308518Y-29876588D01*
X47210389Y-29729728D01*
X47142797Y-29566546D01*
X47108339Y-29393313D01*
X47108339Y-29216687D01*
X47142797Y-29043454D01*
X47210389Y-28880272D01*
X47308518Y-28733412D01*
X47433412Y-28608518D01*
X47580272Y-28510389D01*
X47743454Y-28442797D01*
X47916687Y-28408339D01*
X48093313Y-28408339D01*
X48266546Y-28442797D01*
G37*
M02*
