G04 #@! TF.GenerationSoftware,KiCad,Pcbnew,10.0.1*
G04 #@! TF.CreationDate,2026-04-18T12:17:17+02:00*
G04 #@! TF.ProjectId,FP7SEG_DRIVER,46503753-4547-45f4-9452-495645522e6b,rev?*
G04 #@! TF.SameCoordinates,Original*
G04 #@! TF.FileFunction,Copper,L1,Top*
G04 #@! TF.FilePolarity,Positive*
%FSLAX46Y46*%
G04 Gerber Fmt 4.6, Leading zero omitted, Abs format (unit mm)*
G04 Created by KiCad (PCBNEW 10.0.1) date 2026-04-18 12:17:17*
%MOMM*%
%LPD*%
G01*
G04 APERTURE LIST*
G04 #@! TA.AperFunction,ComponentPad*
%ADD10C,2.300000*%
G04 #@! TD*
G04 #@! TA.AperFunction,ComponentPad*
%ADD11R,1.700000X1.700000*%
G04 #@! TD*
G04 #@! TA.AperFunction,ComponentPad*
%ADD12C,1.700000*%
G04 #@! TD*
G04 #@! TA.AperFunction,ViaPad*
%ADD13C,0.800000*%
G04 #@! TD*
G04 #@! TA.AperFunction,Conductor*
%ADD14C,0.250000*%
G04 #@! TD*
G04 APERTURE END LIST*
D10*
X43365688Y-32505944D03*
X39799975Y-32524980D03*
X49806599Y-39948170D03*
X46228959Y-39957047D03*
X47738570Y-51775476D03*
X44169410Y-51765556D03*
X38330414Y-59055532D03*
X34772837Y-59078010D03*
X32534561Y-51777160D03*
X28962374Y-51754045D03*
X34174286Y-39994806D03*
X30614340Y-39962384D03*
X40687267Y-45849023D03*
X37107660Y-45827912D03*
D11*
X50545000Y-29305000D03*
D12*
X48005000Y-29305000D03*
X45465000Y-29305000D03*
X42925000Y-29305000D03*
X40385000Y-29305000D03*
X37845000Y-29305000D03*
X35305000Y-29305000D03*
X32765000Y-29305000D03*
X30225000Y-29305000D03*
X27685000Y-29305000D03*
D13*
X44204400Y-38070600D03*
X39573200Y-54677500D03*
X38298900Y-54683500D03*
X31946300Y-43204700D03*
X34230300Y-45299600D03*
X38694100Y-47562000D03*
X32165300Y-42123500D03*
X32605700Y-56898700D03*
X40389600Y-56548800D03*
X39641400Y-62427400D03*
X31081700Y-58928900D03*
X44996700Y-42728400D03*
X48091800Y-55034300D03*
X45789700Y-54219000D03*
X43723700Y-45130500D03*
X29006200Y-48003600D03*
X31890500Y-32384500D03*
X36213600Y-36773900D03*
X45064400Y-50156100D03*
X47841400Y-54000500D03*
X36544700Y-35386100D03*
X27562500Y-48735000D03*
X44545300Y-60209700D03*
X26306400Y-43042500D03*
X44513500Y-61686100D03*
X29282000Y-36754500D03*
X31001100Y-50645700D03*
X30898900Y-48934400D03*
X52020900Y-48155100D03*
X46499600Y-59730000D03*
X44761400Y-59020700D03*
X50540600Y-49273700D03*
X45968600Y-57178800D03*
X38933100Y-53903200D03*
X42918800Y-54474100D03*
X35951200Y-48387200D03*
X42935000Y-53039500D03*
X37664800Y-49091200D03*
X49796000Y-53126200D03*
X46749700Y-62464100D03*
D14*
X39800000Y-32525000D02*
X39800000Y-33666200D01*
X39800000Y-33666200D02*
X44204400Y-38070600D01*
X39573200Y-57812700D02*
X39573200Y-54677500D01*
X38330400Y-59055500D02*
X39573200Y-57812700D01*
X38298900Y-55551900D02*
X38298900Y-54683500D01*
X34772800Y-59078000D02*
X38298900Y-55551900D01*
X32534600Y-51777200D02*
X32534600Y-43793000D01*
X32534600Y-43793000D02*
X31946300Y-43204700D01*
X30494500Y-53286100D02*
X33154800Y-53286100D01*
X34230300Y-52210600D02*
X34230300Y-45299600D01*
X33154800Y-53286100D02*
X34230300Y-52210600D01*
X28962400Y-51754000D02*
X30494500Y-53286100D01*
X38694100Y-47562000D02*
X36723700Y-47562000D01*
X32308100Y-28081600D02*
X30654900Y-29734800D01*
X42925000Y-29305000D02*
X41701600Y-28081600D01*
X32165300Y-42123500D02*
X32615600Y-41673200D01*
X32615600Y-31695600D02*
X30654900Y-29734800D01*
X41701600Y-28081600D02*
X32308100Y-28081600D01*
X30654900Y-29734800D02*
X30225000Y-29305000D01*
X35632500Y-46470800D02*
X35632500Y-45590700D01*
X35632500Y-45590700D02*
X32165300Y-42123500D01*
X32615600Y-41673200D02*
X32615600Y-31695600D01*
X36723700Y-47562000D02*
X35632500Y-46470800D01*
X27487200Y-52398900D02*
X27487200Y-49835800D01*
X34196300Y-60587700D02*
X38940000Y-60587700D01*
X31987000Y-56898700D02*
X27487200Y-52398900D01*
X40389600Y-59138100D02*
X40389600Y-56548800D01*
X32605700Y-56898700D02*
X31987000Y-56898700D01*
X33165100Y-57458100D02*
X33165100Y-59556500D01*
X38940000Y-60587700D02*
X40389600Y-59138100D01*
X27685000Y-47832100D02*
X27685000Y-29305000D01*
X33165100Y-59556500D02*
X34196300Y-60587700D01*
X28287600Y-49035400D02*
X28287600Y-48434700D01*
X28287600Y-48434700D02*
X27685000Y-47832100D01*
X32605700Y-56898700D02*
X33165100Y-57458100D01*
X27487200Y-49835800D02*
X28287600Y-49035400D01*
X34126200Y-62427400D02*
X39641400Y-62427400D01*
X31081700Y-58928900D02*
X31081700Y-59382900D01*
X31081700Y-59382900D02*
X34126200Y-62427400D01*
X49249800Y-46981500D02*
X49249800Y-52541400D01*
X49249800Y-52541400D02*
X48814200Y-52977000D01*
X48814200Y-54311900D02*
X48091800Y-55034300D01*
X48814200Y-52977000D02*
X48814200Y-54311900D01*
X44996700Y-42728400D02*
X49249800Y-46981500D01*
X45789700Y-47196500D02*
X45789700Y-54219000D01*
X43723700Y-45130500D02*
X45789700Y-47196500D01*
X28550100Y-35724900D02*
X28550100Y-47547500D01*
X31890500Y-32384500D02*
X28550100Y-35724900D01*
X28550100Y-47547500D02*
X29006200Y-48003600D01*
X36213600Y-36773900D02*
X36213600Y-39193500D01*
X45064400Y-48044300D02*
X45064400Y-50156100D01*
X36213600Y-39193500D02*
X45064400Y-48044300D01*
X46239900Y-45081300D02*
X46239900Y-52399000D01*
X36544700Y-35386100D02*
X46239900Y-45081300D01*
X46239900Y-52399000D02*
X47841400Y-54000500D01*
X27037000Y-52585400D02*
X27037000Y-49260500D01*
X44545300Y-60209700D02*
X43689900Y-61065100D01*
X34037200Y-61065100D02*
X32582800Y-59610700D01*
X27037000Y-49260500D02*
X27562500Y-48735000D01*
X43689900Y-61065100D02*
X34037200Y-61065100D01*
X32582800Y-59610700D02*
X32582800Y-58131200D01*
X32582800Y-58131200D02*
X27037000Y-52585400D01*
X26306400Y-53128000D02*
X32132600Y-58954200D01*
X26306400Y-43042500D02*
X26306400Y-53128000D01*
X34021500Y-61686100D02*
X44513500Y-61686100D01*
X32132600Y-58954200D02*
X32132600Y-59797200D01*
X32132600Y-59797200D02*
X34021500Y-61686100D01*
X30898900Y-48712000D02*
X29089100Y-46902200D01*
X30898900Y-48934400D02*
X31001100Y-49036600D01*
X30898900Y-48934400D02*
X30898900Y-48712000D01*
X29089100Y-46902200D02*
X29089100Y-36947400D01*
X31001100Y-49036600D02*
X31001100Y-50645700D01*
X29089100Y-36947400D02*
X29282000Y-36754500D01*
X46499600Y-59730000D02*
X52020900Y-54208700D01*
X52020900Y-54208700D02*
X52020900Y-48155100D01*
X45191000Y-59020700D02*
X50540600Y-53671100D01*
X44761400Y-59020700D02*
X45191000Y-59020700D01*
X50540600Y-53671100D02*
X50540600Y-49273700D01*
X39824500Y-53903200D02*
X38933100Y-53903200D01*
X45968600Y-57178800D02*
X43100100Y-57178800D01*
X43100100Y-57178800D02*
X39824500Y-53903200D01*
X35951200Y-48403000D02*
X42022300Y-54474100D01*
X42022300Y-54474100D02*
X42918800Y-54474100D01*
X35951200Y-48387200D02*
X35951200Y-48403000D01*
X42935000Y-53039500D02*
X41613100Y-53039500D01*
X41613100Y-53039500D02*
X37664800Y-49091200D01*
X48013500Y-42057800D02*
X49718500Y-43762800D01*
X48013500Y-35067400D02*
X48013500Y-42057800D01*
X43858100Y-30911900D02*
X45465000Y-29305000D01*
X34459900Y-30999900D02*
X43770100Y-30999900D01*
X43858100Y-30911900D02*
X48013500Y-35067400D01*
X32765000Y-29305000D02*
X34459900Y-30999900D01*
X49718500Y-49477000D02*
X49796000Y-49554500D01*
X49718500Y-43762800D02*
X49718500Y-49477000D01*
X43770100Y-30999900D02*
X43858100Y-30911900D01*
X49796000Y-49554500D02*
X49796000Y-53126200D01*
X51281900Y-32581900D02*
X48005000Y-29305000D01*
X44911000Y-28116000D02*
X44195000Y-28832000D01*
X51281900Y-53851400D02*
X51281900Y-32581900D01*
X45733800Y-59399500D02*
X51281900Y-53851400D01*
X46749700Y-62464100D02*
X45733800Y-61448200D01*
X43377700Y-30518900D02*
X36518900Y-30518900D01*
X36518900Y-30518900D02*
X35305000Y-29305000D01*
X44195000Y-29701600D02*
X43377700Y-30518900D01*
X45733800Y-61448200D02*
X45733800Y-59399500D01*
X48005000Y-29305000D02*
X46816000Y-28116000D01*
X44195000Y-28832000D02*
X44195000Y-29701600D01*
X46816000Y-28116000D02*
X44911000Y-28116000D01*
M02*
