G04 #@! TF.GenerationSoftware,KiCad,Pcbnew,10.0.1*
G04 #@! TF.CreationDate,2026-04-18T12:17:17+02:00*
G04 #@! TF.ProjectId,FP7SEG_DRIVER,46503753-4547-45f4-9452-495645522e6b,rev?*
G04 #@! TF.SameCoordinates,Original*
G04 #@! TF.FileFunction,Copper,L2,Bot*
G04 #@! TF.FilePolarity,Positive*
%FSLAX46Y46*%
G04 Gerber Fmt 4.6, Leading zero omitted, Abs format (unit mm)*
G04 Created by KiCad (PCBNEW 10.0.1) date 2026-04-18 12:17:17*
%MOMM*%
%LPD*%
G01*
G04 APERTURE LIST*
G04 Aperture macros list*
%AMRoundRect*
0 Rectangle with rounded corners*
0 $1 Rounding radius*
0 $2 $3 $4 $5 $6 $7 $8 $9 X,Y pos of 4 corners*
0 Add a 4 corners polygon primitive as box body*
4,1,4,$2,$3,$4,$5,$6,$7,$8,$9,$2,$3,0*
0 Add four circle primitives for the rounded corners*
1,1,$1+$1,$2,$3*
1,1,$1+$1,$4,$5*
1,1,$1+$1,$6,$7*
1,1,$1+$1,$8,$9*
0 Add four rect primitives between the rounded corners*
20,1,$1+$1,$2,$3,$4,$5,0*
20,1,$1+$1,$4,$5,$6,$7,0*
20,1,$1+$1,$6,$7,$8,$9,0*
20,1,$1+$1,$8,$9,$2,$3,0*%
%AMFreePoly0*
4,1,23,0.500000,-0.750000,0.000000,-0.750000,0.000000,-0.745722,-0.065263,-0.745722,-0.191342,-0.711940,-0.304381,-0.646677,-0.396677,-0.554381,-0.461940,-0.441342,-0.495722,-0.315263,-0.495722,-0.250000,-0.500000,-0.250000,-0.500000,0.250000,-0.495722,0.250000,-0.495722,0.315263,-0.461940,0.441342,-0.396677,0.554381,-0.304381,0.646677,-0.191342,0.711940,-0.065263,0.745722,0.000000,0.745722,
0.000000,0.750000,0.500000,0.750000,0.500000,-0.750000,0.500000,-0.750000,$1*%
%AMFreePoly1*
4,1,23,0.000000,0.745722,0.065263,0.745722,0.191342,0.711940,0.304381,0.646677,0.396677,0.554381,0.461940,0.441342,0.495722,0.315263,0.495722,0.250000,0.500000,0.250000,0.500000,-0.250000,0.495722,-0.250000,0.495722,-0.315263,0.461940,-0.441342,0.396677,-0.554381,0.304381,-0.646677,0.191342,-0.711940,0.065263,-0.745722,0.000000,-0.745722,0.000000,-0.750000,-0.500000,-0.750000,
-0.500000,0.750000,0.000000,0.750000,0.000000,0.745722,0.000000,0.745722,$1*%
G04 Aperture macros list end*
G04 #@! TA.AperFunction,ComponentPad*
%ADD10C,2.300000*%
G04 #@! TD*
G04 #@! TA.AperFunction,SMDPad,CuDef*
%ADD11RoundRect,0.250000X0.475000X-0.250000X0.475000X0.250000X-0.475000X0.250000X-0.475000X-0.250000X0*%
G04 #@! TD*
G04 #@! TA.AperFunction,SMDPad,CuDef*
%ADD12FreePoly0,180.000000*%
G04 #@! TD*
G04 #@! TA.AperFunction,SMDPad,CuDef*
%ADD13FreePoly1,180.000000*%
G04 #@! TD*
G04 #@! TA.AperFunction,SMDPad,CuDef*
%ADD14R,1.050000X0.450000*%
G04 #@! TD*
G04 #@! TA.AperFunction,SMDPad,CuDef*
%ADD15R,1.470000X0.895000*%
G04 #@! TD*
G04 #@! TA.AperFunction,ComponentPad*
%ADD16R,1.700000X1.700000*%
G04 #@! TD*
G04 #@! TA.AperFunction,ComponentPad*
%ADD17C,1.700000*%
G04 #@! TD*
G04 #@! TA.AperFunction,SMDPad,CuDef*
%ADD18RoundRect,0.250000X0.262500X0.450000X-0.262500X0.450000X-0.262500X-0.450000X0.262500X-0.450000X0*%
G04 #@! TD*
G04 #@! TA.AperFunction,SMDPad,CuDef*
%ADD19RoundRect,0.250000X0.250000X0.475000X-0.250000X0.475000X-0.250000X-0.475000X0.250000X-0.475000X0*%
G04 #@! TD*
G04 #@! TA.AperFunction,SMDPad,CuDef*
%ADD20RoundRect,0.100000X-0.850000X-0.100000X0.850000X-0.100000X0.850000X0.100000X-0.850000X0.100000X0*%
G04 #@! TD*
G04 #@! TA.AperFunction,SMDPad,CuDef*
%ADD21RoundRect,0.250000X-0.262500X-0.450000X0.262500X-0.450000X0.262500X0.450000X-0.262500X0.450000X0*%
G04 #@! TD*
G04 #@! TA.AperFunction,ViaPad*
%ADD22C,0.800000*%
G04 #@! TD*
G04 #@! TA.AperFunction,Conductor*
%ADD23C,0.250000*%
G04 #@! TD*
G04 APERTURE END LIST*
D10*
X43365688Y-32505944D03*
X39799975Y-32524980D03*
X49806599Y-39948170D03*
X46228959Y-39957047D03*
X47738570Y-51775476D03*
X44169410Y-51765556D03*
X38330414Y-59055532D03*
X34772837Y-59078010D03*
X32534561Y-51777160D03*
X28962374Y-51754045D03*
X34174286Y-39994806D03*
X30614340Y-39962384D03*
X40687267Y-45849023D03*
X37107660Y-45827912D03*
D11*
X51225000Y-52912500D03*
X51225000Y-51012500D03*
D12*
X28500000Y-59296500D03*
D13*
X27200000Y-59296500D03*
D12*
X28500000Y-56693000D03*
D13*
X27200000Y-56693000D03*
D12*
X28500000Y-61900000D03*
D13*
X27200000Y-61900000D03*
D14*
X42900000Y-36200000D03*
X42900000Y-36850000D03*
X42900000Y-37500000D03*
X42900000Y-38150000D03*
X42900000Y-38800000D03*
X42900000Y-39450000D03*
X42900000Y-40100000D03*
X42900000Y-40750000D03*
X37350000Y-40750000D03*
X37350000Y-40100000D03*
X37350000Y-39450000D03*
X37350000Y-38800000D03*
X37350000Y-38150000D03*
X37350000Y-37500000D03*
X37350000Y-36850000D03*
X37350000Y-36200000D03*
D15*
X40860000Y-39817500D03*
X40860000Y-38922500D03*
X40860000Y-38027500D03*
X40860000Y-37132500D03*
X39390000Y-39817500D03*
X39390000Y-38922500D03*
X39390000Y-38027500D03*
X39390000Y-37132500D03*
D14*
X33100000Y-43325000D03*
X33100000Y-43975000D03*
X33100000Y-44625000D03*
X33100000Y-45275000D03*
X33100000Y-45925000D03*
X33100000Y-46575000D03*
X33100000Y-47225000D03*
X33100000Y-47875000D03*
X27550000Y-47875000D03*
X27550000Y-47225000D03*
X27550000Y-46575000D03*
X27550000Y-45925000D03*
X27550000Y-45275000D03*
X27550000Y-44625000D03*
X27550000Y-43975000D03*
X27550000Y-43325000D03*
D15*
X31060000Y-46942500D03*
X31060000Y-46047500D03*
X31060000Y-45152500D03*
X31060000Y-44257500D03*
X29590000Y-46942500D03*
X29590000Y-46047500D03*
X29590000Y-45152500D03*
X29590000Y-44257500D03*
D11*
X31125000Y-35762500D03*
X31125000Y-33862500D03*
D16*
X50545000Y-29305000D03*
D17*
X48005000Y-29305000D03*
X45465000Y-29305000D03*
X42925000Y-29305000D03*
X40385000Y-29305000D03*
X37845000Y-29305000D03*
X35305000Y-29305000D03*
X32765000Y-29305000D03*
X30225000Y-29305000D03*
X27685000Y-29305000D03*
D18*
X33462500Y-61975000D03*
X31637500Y-61975000D03*
X33512500Y-55850000D03*
X31687500Y-55850000D03*
D11*
X28300000Y-35772500D03*
X28300000Y-33872500D03*
D14*
X44850000Y-48125000D03*
X44850000Y-47475000D03*
X44850000Y-46825000D03*
X44850000Y-46175000D03*
X44850000Y-45525000D03*
X44850000Y-44875000D03*
X44850000Y-44225000D03*
X44850000Y-43575000D03*
X50400000Y-43575000D03*
X50400000Y-44225000D03*
X50400000Y-44875000D03*
X50400000Y-45525000D03*
X50400000Y-46175000D03*
X50400000Y-46825000D03*
X50400000Y-47475000D03*
X50400000Y-48125000D03*
D15*
X46890000Y-44507500D03*
X46890000Y-45402500D03*
X46890000Y-46297500D03*
X46890000Y-47192500D03*
X48360000Y-44507500D03*
X48360000Y-45402500D03*
X48360000Y-46297500D03*
X48360000Y-47192500D03*
D14*
X41350000Y-49225000D03*
X41350000Y-49875000D03*
X41350000Y-50525000D03*
X41350000Y-51175000D03*
X41350000Y-51825000D03*
X41350000Y-52475000D03*
X41350000Y-53125000D03*
X41350000Y-53775000D03*
X35800000Y-53775000D03*
X35800000Y-53125000D03*
X35800000Y-52475000D03*
X35800000Y-51825000D03*
X35800000Y-51175000D03*
X35800000Y-50525000D03*
X35800000Y-49875000D03*
X35800000Y-49225000D03*
D15*
X39310000Y-52842500D03*
X39310000Y-51947500D03*
X39310000Y-51052500D03*
X39310000Y-50157500D03*
X37840000Y-52842500D03*
X37840000Y-51947500D03*
X37840000Y-51052500D03*
X37840000Y-50157500D03*
D11*
X33900000Y-35687500D03*
X33900000Y-33787500D03*
D19*
X48912500Y-35700000D03*
X47012500Y-35700000D03*
D20*
X42950000Y-63002500D03*
X42950000Y-62352500D03*
X42950000Y-61702500D03*
X42950000Y-61052500D03*
X42950000Y-60402500D03*
X42950000Y-59752500D03*
X42950000Y-59102500D03*
X42950000Y-58452500D03*
X42950000Y-57802500D03*
X42950000Y-57152500D03*
X42950000Y-56502500D03*
X42950000Y-55852500D03*
X49950000Y-55852500D03*
X49950000Y-56502500D03*
X49950000Y-57152500D03*
X49950000Y-57802500D03*
X49950000Y-58452500D03*
X49950000Y-59102500D03*
X49950000Y-59752500D03*
X49950000Y-60402500D03*
X49950000Y-61052500D03*
X49950000Y-61702500D03*
X49950000Y-62352500D03*
X49950000Y-63002500D03*
D21*
X36487500Y-61950000D03*
X38312500Y-61950000D03*
D22*
X44204400Y-38070600D03*
X39573200Y-54677500D03*
X38298900Y-54683500D03*
X31946300Y-43204700D03*
X34230300Y-45299600D03*
X38694100Y-47562000D03*
X32165300Y-42123500D03*
X32605700Y-56898700D03*
X40389600Y-56548800D03*
X39641400Y-62427400D03*
X31081700Y-58928900D03*
X44996700Y-42728400D03*
X48091800Y-55034300D03*
X45789700Y-54219000D03*
X43723700Y-45130500D03*
X29006200Y-48003600D03*
X31890500Y-32384500D03*
X36213600Y-36773900D03*
X45064400Y-50156100D03*
X47841400Y-54000500D03*
X36544700Y-35386100D03*
X27562500Y-48735000D03*
X44545300Y-60209700D03*
X26306400Y-43042500D03*
X44513500Y-61686100D03*
X29282000Y-36754500D03*
X31001100Y-50645700D03*
X30898900Y-48934400D03*
X52020900Y-48155100D03*
X46499600Y-59730000D03*
X44761400Y-59020700D03*
X50540600Y-49273700D03*
X45968600Y-57178800D03*
X38933100Y-53903200D03*
X42918800Y-54474100D03*
X35951200Y-48387200D03*
X42935000Y-53039500D03*
X37664800Y-49091200D03*
X49796000Y-53126200D03*
X46749700Y-62464100D03*
D23*
X42900000Y-36850000D02*
X43750100Y-36850000D01*
X43750100Y-36850000D02*
X43750100Y-32890300D01*
X43750100Y-32890300D02*
X43365700Y-32505900D01*
X43829500Y-38070600D02*
X43750100Y-38150000D01*
X44204400Y-38070600D02*
X43829500Y-38070600D01*
X42900000Y-38150000D02*
X43750100Y-38150000D01*
X42900000Y-40100000D02*
X43750100Y-40100000D01*
X48304400Y-41450400D02*
X45100500Y-41450400D01*
X45100500Y-41450400D02*
X43750100Y-40100000D01*
X49806600Y-39948200D02*
X48304400Y-41450400D01*
X45072000Y-38800000D02*
X46229000Y-39957000D01*
X42900000Y-38800000D02*
X45072000Y-38800000D01*
X41350000Y-49875000D02*
X42200100Y-49875000D01*
X42644100Y-49431000D02*
X42200100Y-49875000D01*
X45394100Y-49431000D02*
X42644100Y-49431000D01*
X47738600Y-51775500D02*
X45394100Y-49431000D01*
X41350000Y-51175000D02*
X43578800Y-51175000D01*
X43578800Y-51175000D02*
X44169400Y-51765600D01*
X41350000Y-53125000D02*
X40499900Y-53125000D01*
X40499900Y-53125000D02*
X40499900Y-53750800D01*
X40499900Y-53750800D02*
X39573200Y-54677500D01*
X41350000Y-51825000D02*
X42200100Y-51825000D01*
X39026700Y-55402600D02*
X38532700Y-54908600D01*
X42019200Y-54325200D02*
X40951100Y-54325200D01*
X38523900Y-54908500D02*
X38298900Y-54683500D01*
X38532700Y-54908600D02*
X38523900Y-54908600D01*
X42200100Y-54144300D02*
X42019200Y-54325200D01*
X38523900Y-54908600D02*
X38523900Y-54908500D01*
X42200100Y-51825000D02*
X42200100Y-54144300D01*
X40951100Y-54325200D02*
X39873700Y-55402600D01*
X39873700Y-55402600D02*
X39026700Y-55402600D01*
X32249900Y-43975000D02*
X32249900Y-43508300D01*
X32249900Y-43508300D02*
X31946300Y-43204700D01*
X33100000Y-43975000D02*
X32249900Y-43975000D01*
X33100000Y-45275000D02*
X33950100Y-45275000D01*
X33950100Y-45275000D02*
X33974700Y-45299600D01*
X33974700Y-45299600D02*
X34230300Y-45299600D01*
X35412700Y-41233200D02*
X34174300Y-39994800D01*
X35412700Y-45808100D02*
X35412700Y-41233200D01*
X33995800Y-47225000D02*
X35412700Y-45808100D01*
X33100000Y-47225000D02*
X33995800Y-47225000D01*
X34962500Y-43823900D02*
X31101000Y-39962400D01*
X33973800Y-46068600D02*
X34487500Y-46068600D01*
X33830200Y-45925000D02*
X33973800Y-46068600D01*
X31101000Y-39962400D02*
X30614300Y-39962400D01*
X34487500Y-46068600D02*
X34962500Y-45593600D01*
X34962500Y-45593600D02*
X34962500Y-43823900D01*
X33100000Y-45925000D02*
X33830200Y-45925000D01*
X44850000Y-47475000D02*
X42313300Y-47475000D01*
X42313300Y-47475000D02*
X40687300Y-45849000D01*
X44850000Y-46175000D02*
X43999900Y-46175000D01*
X43999900Y-46175000D02*
X43742800Y-46175000D01*
X43742800Y-46175000D02*
X41490400Y-43922600D01*
X41490400Y-43922600D02*
X39013000Y-43922600D01*
X39013000Y-43922600D02*
X37107700Y-45827900D01*
X44850000Y-48125000D02*
X43999900Y-48125000D01*
X27200000Y-62312700D02*
X28973300Y-64086000D01*
X42049900Y-36200000D02*
X41884900Y-36035000D01*
X50899600Y-63002500D02*
X52136500Y-61765600D01*
X41884900Y-30345100D02*
X42925000Y-29305000D01*
X46437500Y-48125000D02*
X44850000Y-48125000D01*
X41350000Y-49225000D02*
X40499900Y-49225000D01*
X33100000Y-43058200D02*
X32165300Y-42123500D01*
X27200000Y-61900000D02*
X27200000Y-59296500D01*
X38836900Y-47562000D02*
X38694100Y-47562000D01*
X43300100Y-48125000D02*
X42200100Y-49225000D01*
X52136500Y-53824000D02*
X51225000Y-52912500D01*
X27200000Y-61900000D02*
X27200000Y-62312700D01*
X28973300Y-64086000D02*
X48866500Y-64086000D01*
X41884900Y-36035000D02*
X41884900Y-30345100D01*
X49950000Y-63002500D02*
X50899600Y-63002500D01*
X42900000Y-36200000D02*
X42049900Y-36200000D01*
X33100000Y-43325000D02*
X33100000Y-43058200D01*
X52136500Y-61765600D02*
X52136500Y-53824000D01*
X48866500Y-64086000D02*
X49950000Y-63002500D01*
X40499900Y-49225000D02*
X38836900Y-47562000D01*
X41987600Y-49225000D02*
X41350000Y-49225000D01*
X27200000Y-59296500D02*
X27200000Y-56693000D01*
X43999900Y-48125000D02*
X43300100Y-48125000D01*
X41987600Y-49225000D02*
X42200100Y-49225000D01*
X51225000Y-52912500D02*
X46437500Y-48125000D01*
X31398200Y-44330600D02*
X31325100Y-44257500D01*
X39351800Y-52800700D02*
X39310000Y-52842500D01*
X48360000Y-45402500D02*
X47950100Y-45402500D01*
X40757500Y-38130000D02*
X40860000Y-38027500D01*
X39390000Y-38922500D02*
X39390000Y-39817500D01*
X37951000Y-47993700D02*
X37951000Y-47653100D01*
X39390000Y-38027500D02*
X38860000Y-38027500D01*
X48360000Y-44507500D02*
X47420100Y-44507500D01*
X28300000Y-33872500D02*
X28300000Y-33862500D01*
X33487500Y-60040700D02*
X32605700Y-59158900D01*
X38860000Y-37132500D02*
X38860000Y-38027500D01*
X29590000Y-45275000D02*
X29590000Y-45152500D01*
X41303900Y-44372800D02*
X43756100Y-46825000D01*
X42049900Y-39450000D02*
X42049900Y-39687700D01*
X38860000Y-38027500D02*
X38322600Y-38027500D01*
X45829900Y-44745200D02*
X45700100Y-44875000D01*
X48360000Y-45402500D02*
X48360000Y-46175000D01*
X47420100Y-44507500D02*
X47299900Y-44507500D01*
X42900000Y-39450000D02*
X42049900Y-39450000D01*
X31398200Y-44625000D02*
X31398200Y-44330600D01*
X29772400Y-46229900D02*
X29590000Y-46047500D01*
X37840000Y-51947500D02*
X38249900Y-51947500D01*
X36159300Y-33530700D02*
X40385000Y-29305000D01*
X46890000Y-44507500D02*
X47299900Y-44507500D01*
X33487500Y-61950000D02*
X33487500Y-60040700D01*
X43749600Y-37500000D02*
X42900000Y-37500000D01*
X38804200Y-50157500D02*
X39310000Y-50157500D01*
X48360000Y-46175000D02*
X48360000Y-46297500D01*
X34738000Y-48425100D02*
X32437100Y-48425100D01*
X28300000Y-33862500D02*
X28300000Y-29920000D01*
X29127700Y-43795200D02*
X29590000Y-44257500D01*
X48095000Y-46297500D02*
X48360000Y-46297500D01*
X39351800Y-52475000D02*
X39351800Y-52800700D01*
X33825000Y-33862500D02*
X33900000Y-33787500D01*
X29999900Y-46047500D02*
X29817500Y-46229900D01*
X40860000Y-39817500D02*
X39799900Y-39817500D01*
X36487500Y-61950000D02*
X33487500Y-61950000D01*
X48360000Y-47192500D02*
X49420100Y-47192500D01*
X49420100Y-47192500D02*
X49420100Y-49207600D01*
X39351800Y-52475000D02*
X40499900Y-52475000D01*
X37350000Y-38150000D02*
X38200100Y-38150000D01*
X37951000Y-47653100D02*
X35510000Y-47653100D01*
X48095000Y-47192500D02*
X48095000Y-46297500D01*
X44850000Y-46825000D02*
X45700100Y-46825000D01*
X45700100Y-47062700D02*
X45829900Y-47192500D01*
X39390000Y-39817500D02*
X39799900Y-39817500D01*
X38390000Y-49743300D02*
X38390000Y-48432700D01*
X31398200Y-44625000D02*
X32249900Y-44625000D01*
X47420100Y-45402500D02*
X47420100Y-44507500D01*
X31060000Y-44257500D02*
X29999900Y-44257500D01*
X45700100Y-46825000D02*
X45700100Y-47062700D01*
X39310000Y-50157500D02*
X40370100Y-50157500D01*
X37840000Y-52842500D02*
X37840000Y-51947500D01*
X31125000Y-33862500D02*
X32181800Y-33862500D01*
X32605700Y-59158900D02*
X32605700Y-56898700D01*
X48360000Y-47192500D02*
X48095000Y-47192500D01*
X38390000Y-48432700D02*
X37951000Y-47993700D01*
X37840000Y-50157500D02*
X37840000Y-51052500D01*
X40860000Y-37132500D02*
X39799900Y-37132500D01*
X37840000Y-51052500D02*
X37840000Y-51947500D01*
X43756100Y-46825000D02*
X44850000Y-46825000D01*
X42049900Y-37262300D02*
X42049900Y-37500000D01*
X40370100Y-50395200D02*
X40499900Y-50525000D01*
X29772400Y-46229900D02*
X29772400Y-46760100D01*
X40552600Y-38820000D02*
X40757500Y-38820000D01*
X27550000Y-45275000D02*
X28400100Y-45275000D01*
X42950000Y-55852500D02*
X41085900Y-55852500D01*
X33512500Y-55991900D02*
X33512500Y-55850000D01*
X46890000Y-44507500D02*
X45829900Y-44507500D01*
X40757500Y-38820000D02*
X40757500Y-38130000D01*
X39390000Y-38027500D02*
X39390000Y-38922500D01*
X42900000Y-37500000D02*
X42049900Y-37500000D01*
X50400000Y-46175000D02*
X49549900Y-46175000D01*
X48095000Y-47192500D02*
X46890000Y-47192500D01*
X31398200Y-44814300D02*
X31398200Y-44625000D01*
X37840000Y-51052500D02*
X36779900Y-51052500D01*
X39310000Y-51947500D02*
X38249900Y-51947500D01*
X37951000Y-47653100D02*
X37951000Y-47175300D01*
X31060000Y-45152500D02*
X31398200Y-44814300D01*
X47012500Y-35700000D02*
X45549600Y-35700000D01*
X29590000Y-45152500D02*
X29590000Y-44257500D01*
X33900000Y-33787500D02*
X36159300Y-33787500D01*
X32605700Y-56898700D02*
X33512500Y-55991900D01*
X36159300Y-33787500D02*
X38860000Y-36488200D01*
X47420100Y-45402500D02*
X47950100Y-45402500D01*
X41920100Y-37132500D02*
X42049900Y-37262300D01*
X29590000Y-44257500D02*
X29999900Y-44257500D01*
X32120100Y-48108100D02*
X32120100Y-46942500D01*
X32181800Y-36302200D02*
X29127700Y-39356300D01*
X32120100Y-46942500D02*
X32120100Y-46704800D01*
X28300000Y-29920000D02*
X27685000Y-29305000D01*
X39351800Y-51989300D02*
X39351800Y-52475000D01*
X42049900Y-39687700D02*
X41920100Y-39817500D01*
X40370100Y-50157500D02*
X40370100Y-50395200D01*
X39390000Y-37132500D02*
X39799900Y-37132500D01*
X41350000Y-52475000D02*
X40499900Y-52475000D01*
X38860000Y-36488200D02*
X38860000Y-37132500D01*
X39390000Y-38922500D02*
X40450100Y-38922500D01*
X38390000Y-49743300D02*
X38254200Y-49743300D01*
X40860000Y-39817500D02*
X41920100Y-39817500D01*
X33100000Y-44625000D02*
X32249900Y-44625000D01*
X40450100Y-38922500D02*
X40552600Y-38820000D01*
X29772400Y-46760100D02*
X29590000Y-46942500D01*
X40860000Y-37132500D02*
X41920100Y-37132500D01*
X32437100Y-48425100D02*
X32120100Y-48108100D01*
X44850000Y-44875000D02*
X45700100Y-44875000D01*
X36657400Y-51175000D02*
X36779900Y-51052500D01*
X38968900Y-45424200D02*
X40020300Y-44372800D01*
X29817500Y-46229900D02*
X29772400Y-46229900D01*
X38968900Y-46157400D02*
X38968900Y-45424200D01*
X46890000Y-45402500D02*
X47420100Y-45402500D01*
X31060000Y-44257500D02*
X31325100Y-44257500D01*
X37840000Y-51052500D02*
X38249900Y-51052500D01*
X31060000Y-46942500D02*
X29954800Y-46942500D01*
X31060000Y-46047500D02*
X29999900Y-46047500D01*
X49420100Y-49207600D02*
X51225000Y-51012500D01*
X33487500Y-61950000D02*
X33462500Y-61975000D01*
X35510000Y-47653100D02*
X34738000Y-48425100D01*
X35800000Y-51175000D02*
X36657400Y-51175000D01*
X32120100Y-46704800D02*
X32249900Y-46575000D01*
X32181800Y-33862500D02*
X32181800Y-36302200D01*
X38254200Y-49743300D02*
X37840000Y-50157500D01*
X29590000Y-46047500D02*
X29590000Y-45275000D01*
X40020300Y-44372800D02*
X41303900Y-44372800D01*
X31060000Y-46942500D02*
X32120100Y-46942500D01*
X45549600Y-35700000D02*
X43749600Y-37500000D01*
X39390000Y-37132500D02*
X38860000Y-37132500D01*
X29590000Y-45275000D02*
X28400100Y-45275000D01*
X46890000Y-47192500D02*
X45829900Y-47192500D01*
X39310000Y-51052500D02*
X38249900Y-51052500D01*
X41085900Y-55852500D02*
X40389600Y-56548800D01*
X39310000Y-51947500D02*
X39351800Y-51989300D01*
X29954800Y-46942500D02*
X29772400Y-46760100D01*
X48095000Y-46297500D02*
X47950100Y-46297500D01*
X45829900Y-44507500D02*
X45829900Y-44745200D01*
X38390000Y-49743300D02*
X38804200Y-50157500D01*
X38322600Y-38027500D02*
X38200100Y-38150000D01*
X46890000Y-46297500D02*
X47950100Y-46297500D01*
X41350000Y-50525000D02*
X40499900Y-50525000D01*
X36159300Y-33787500D02*
X36159300Y-33530700D01*
X33100000Y-46575000D02*
X32249900Y-46575000D01*
X28300000Y-33862500D02*
X31125000Y-33862500D01*
X32181800Y-33862500D02*
X33825000Y-33862500D01*
X48360000Y-46175000D02*
X49549900Y-46175000D01*
X37951000Y-47175300D02*
X38968900Y-46157400D01*
X29127700Y-39356300D02*
X29127700Y-43795200D01*
X40757500Y-38820000D02*
X40860000Y-38922500D01*
X38312500Y-62134600D02*
X37432200Y-63014900D01*
X32550000Y-61356100D02*
X31598200Y-60404300D01*
X40752400Y-62352500D02*
X42950000Y-62352500D01*
X39341100Y-63163200D02*
X39941700Y-63163200D01*
X39941700Y-63163200D02*
X40752400Y-62352500D01*
X32550000Y-62655500D02*
X32550000Y-61356100D01*
X38312500Y-61950000D02*
X38312500Y-62134600D01*
X29607800Y-60404300D02*
X28500000Y-59296500D01*
X31598200Y-60404300D02*
X29607800Y-60404300D01*
X38312500Y-62134600D02*
X39341100Y-63163200D01*
X32909400Y-63014900D02*
X32550000Y-62655500D01*
X37432200Y-63014900D02*
X32909400Y-63014900D01*
X42950000Y-61702500D02*
X40366300Y-61702500D01*
X28500000Y-56693000D02*
X31081700Y-56693000D01*
X31081700Y-56693000D02*
X31081700Y-58928900D01*
X31687500Y-56087200D02*
X31687500Y-55850000D01*
X40366300Y-61702500D02*
X39641400Y-62427400D01*
X31081700Y-56693000D02*
X31687500Y-56087200D01*
X49950000Y-61052500D02*
X47111500Y-61052500D01*
X31637500Y-61975000D02*
X28575000Y-61975000D01*
X47111500Y-61052500D02*
X44528100Y-63635900D01*
X44528100Y-63635900D02*
X32881100Y-63635900D01*
X32881100Y-63635900D02*
X31637500Y-62392300D01*
X28575000Y-61975000D02*
X28500000Y-61900000D01*
X31637500Y-62392300D02*
X31637500Y-61975000D01*
X44996700Y-42728400D02*
X39328400Y-42728400D01*
X49950000Y-57152500D02*
X49014700Y-57152500D01*
X39328400Y-42728400D02*
X37350000Y-40750000D01*
X49014700Y-57152500D02*
X48091800Y-56229600D01*
X48091800Y-56229600D02*
X48091800Y-55034300D01*
X45789700Y-54564200D02*
X45789700Y-54219000D01*
X36499900Y-41133100D02*
X38804200Y-43437400D01*
X38804200Y-43437400D02*
X42030600Y-43437400D01*
X37350000Y-40100000D02*
X36499900Y-40100000D01*
X49028000Y-57802500D02*
X45789700Y-54564200D01*
X42030600Y-43437400D02*
X43723700Y-45130500D01*
X49950000Y-57802500D02*
X49028000Y-57802500D01*
X36499900Y-40100000D02*
X36499900Y-41133100D01*
X37350000Y-37500000D02*
X36499900Y-37500000D01*
X36499900Y-37500000D02*
X36499900Y-39450000D01*
X37350000Y-39450000D02*
X36499900Y-39450000D01*
X33900000Y-35687500D02*
X35712500Y-37500000D01*
X35712500Y-37500000D02*
X36499900Y-37500000D01*
X28400100Y-47397500D02*
X29006200Y-48003600D01*
X49896300Y-38234700D02*
X48082700Y-36421100D01*
X49549900Y-45525000D02*
X49549900Y-42600900D01*
X49428200Y-42479200D02*
X51348400Y-40559000D01*
X47200100Y-32713600D02*
X44100200Y-29613700D01*
X44100200Y-29613700D02*
X44100200Y-28732900D01*
X28400100Y-45925000D02*
X28400100Y-47397500D01*
X48082700Y-32713600D02*
X47200100Y-32713600D01*
X29006200Y-48003600D02*
X29006200Y-48092600D01*
X37350000Y-38800000D02*
X38200100Y-38800000D01*
X34765500Y-32384500D02*
X31890500Y-32384500D01*
X49549900Y-42600900D02*
X49428200Y-42479200D01*
X39067900Y-28082100D02*
X37845000Y-29305000D01*
X50179400Y-38234700D02*
X49896300Y-38234700D01*
X32808900Y-49684000D02*
X34949900Y-51825000D01*
X48082700Y-36421100D02*
X48082700Y-32713600D01*
X51348400Y-40559000D02*
X51348400Y-39403700D01*
X44100200Y-28732900D02*
X43449400Y-28082100D01*
X38200100Y-40285000D02*
X38200100Y-38800000D01*
X50400000Y-45525000D02*
X49549900Y-45525000D01*
X29006200Y-48092600D02*
X30597600Y-49684000D01*
X27550000Y-45925000D02*
X28400100Y-45925000D01*
X48082700Y-32713600D02*
X48311500Y-32713600D01*
X39867000Y-41951900D02*
X38200100Y-40285000D01*
X50545000Y-29305000D02*
X50545000Y-30480100D01*
X51348400Y-39403700D02*
X50179400Y-38234700D01*
X30597600Y-49684000D02*
X32808900Y-49684000D01*
X37845000Y-29305000D02*
X34765500Y-32384500D01*
X48900900Y-41951900D02*
X39867000Y-41951900D01*
X48311500Y-32713600D02*
X50545000Y-30480100D01*
X43449400Y-28082100D02*
X39067900Y-28082100D01*
X49428200Y-42479200D02*
X48900900Y-41951900D01*
X35800000Y-51825000D02*
X34949900Y-51825000D01*
X36499900Y-36850000D02*
X36289700Y-36850000D01*
X50859700Y-56502500D02*
X49950000Y-56502500D01*
X45064400Y-50156100D02*
X45794800Y-50886500D01*
X37350000Y-36850000D02*
X36499900Y-36850000D01*
X36289700Y-36850000D02*
X36213600Y-36773900D01*
X47147500Y-53275400D02*
X48351000Y-53275400D01*
X50902700Y-55203600D02*
X51225600Y-55526500D01*
X51225600Y-56136600D02*
X50859700Y-56502500D01*
X45794800Y-50886500D02*
X45794800Y-51922700D01*
X50279200Y-55203600D02*
X50902700Y-55203600D01*
X48351000Y-53275400D02*
X50279200Y-55203600D01*
X51225600Y-55526500D02*
X51225600Y-56136600D01*
X45794800Y-51922700D02*
X47147500Y-53275400D01*
X48098000Y-54000500D02*
X47841400Y-54000500D01*
X37350000Y-36191400D02*
X37350000Y-36200000D01*
X49950000Y-55852500D02*
X48098000Y-54000500D01*
X36544700Y-35386100D02*
X37350000Y-36191400D01*
X27562500Y-48735000D02*
X27550000Y-48722500D01*
X44088100Y-59752500D02*
X44545300Y-60209700D01*
X42950000Y-59752500D02*
X44088100Y-59752500D01*
X27550000Y-48722500D02*
X27550000Y-47875000D01*
X32215500Y-54192900D02*
X30550900Y-52528300D01*
X30550900Y-52528300D02*
X30550900Y-51256200D01*
X30550900Y-51256200D02*
X28760400Y-49465700D01*
X41228500Y-59102500D02*
X38209800Y-56083800D01*
X35995700Y-56083800D02*
X34104800Y-54192900D01*
X28760400Y-49465700D02*
X27267500Y-49465700D01*
X26699900Y-48898100D02*
X26699900Y-47225000D01*
X34104800Y-54192900D02*
X32215500Y-54192900D01*
X27267500Y-49465700D02*
X26699900Y-48898100D01*
X38209800Y-56083800D02*
X35995700Y-56083800D01*
X42950000Y-59102500D02*
X41228500Y-59102500D01*
X27550000Y-47225000D02*
X26699900Y-47225000D01*
X27237500Y-44625000D02*
X26812500Y-44625000D01*
X31125000Y-36722300D02*
X28400100Y-39447200D01*
X31125000Y-35762500D02*
X31125000Y-36722300D01*
X26699900Y-44737600D02*
X26699900Y-46575000D01*
X26812500Y-44625000D02*
X26699900Y-44737600D01*
X27237500Y-44625000D02*
X27550000Y-44625000D01*
X27550000Y-44625000D02*
X28400100Y-44625000D01*
X28400100Y-39447200D02*
X28400100Y-44625000D01*
X27550000Y-46575000D02*
X26699900Y-46575000D01*
X41891800Y-60402500D02*
X38394500Y-56905200D01*
X42950000Y-60402500D02*
X41891800Y-60402500D01*
X34022200Y-54823800D02*
X29936500Y-54823800D01*
X29936500Y-54823800D02*
X26209300Y-51096600D01*
X26209300Y-44465600D02*
X26699900Y-43975000D01*
X26209300Y-51096600D02*
X26209300Y-44465600D01*
X36103600Y-56905200D02*
X34022200Y-54823800D01*
X27550000Y-43975000D02*
X26699900Y-43975000D01*
X38394500Y-56905200D02*
X36103600Y-56905200D01*
X27550000Y-43325000D02*
X26699900Y-43325000D01*
X26306400Y-43042500D02*
X26417400Y-43042500D01*
X42950000Y-61052500D02*
X43879900Y-61052500D01*
X43879900Y-61052500D02*
X44513500Y-61686100D01*
X26417400Y-43042500D02*
X26699900Y-43325000D01*
X33359300Y-48934400D02*
X34949900Y-50525000D01*
X33325400Y-53267600D02*
X34118000Y-52475000D01*
X28300000Y-35772500D02*
X29282000Y-36754500D01*
X34118000Y-52475000D02*
X35800000Y-52475000D01*
X30898900Y-48934400D02*
X33359300Y-48934400D01*
X35800000Y-50525000D02*
X34949900Y-50525000D01*
X31001100Y-50645700D02*
X31001100Y-52337700D01*
X31931000Y-53267600D02*
X33325400Y-53267600D01*
X31001100Y-52337700D02*
X31931000Y-53267600D01*
X51250100Y-46825000D02*
X51250100Y-44875000D01*
X51798600Y-44326500D02*
X51250100Y-44875000D01*
X50400000Y-46825000D02*
X51250100Y-46825000D01*
X50400000Y-44875000D02*
X51250100Y-44875000D01*
X51798600Y-38586100D02*
X51798600Y-44326500D01*
X48912500Y-35700000D02*
X51798600Y-38586100D01*
X44572100Y-57802500D02*
X46499600Y-59730000D01*
X52020900Y-48155100D02*
X51340800Y-47475000D01*
X42950000Y-57802500D02*
X44572100Y-57802500D01*
X51340800Y-47475000D02*
X50400000Y-47475000D01*
X51250100Y-48564200D02*
X50540600Y-49273700D01*
X42950000Y-58452500D02*
X44193200Y-58452500D01*
X50400000Y-48125000D02*
X51250100Y-48125000D01*
X44193200Y-58452500D02*
X44761400Y-59020700D01*
X51250100Y-48125000D02*
X51250100Y-48564200D01*
X48542300Y-59752500D02*
X45968600Y-57178800D01*
X36778300Y-53903200D02*
X38933100Y-53903200D01*
X35800000Y-53775000D02*
X36650100Y-53775000D01*
X36650100Y-53775000D02*
X36778300Y-53903200D01*
X49950000Y-59752500D02*
X48542300Y-59752500D01*
X34949900Y-54156200D02*
X34949900Y-53125000D01*
X40054100Y-55858800D02*
X38846300Y-55858800D01*
X36202400Y-55408700D02*
X34949900Y-54156200D01*
X40590100Y-55322800D02*
X40054100Y-55858800D01*
X38396200Y-55408700D02*
X36202400Y-55408700D01*
X46800000Y-59004900D02*
X46769300Y-59004900D01*
X38846300Y-55858800D02*
X38396200Y-55408700D01*
X46769300Y-59004900D02*
X44409100Y-56644700D01*
X35800000Y-53125000D02*
X34949900Y-53125000D01*
X44409100Y-56644700D02*
X44409100Y-55735800D01*
X49950000Y-60402500D02*
X48197600Y-60402500D01*
X44409100Y-55735800D02*
X43996100Y-55322800D01*
X48197600Y-60402500D02*
X46800000Y-59004900D01*
X43996100Y-55322800D02*
X40590100Y-55322800D01*
X35412600Y-48387200D02*
X34949900Y-48849900D01*
X44379600Y-54474100D02*
X42918800Y-54474100D01*
X49950000Y-59102500D02*
X49008000Y-59102500D01*
X49008000Y-59102500D02*
X44379600Y-54474100D01*
X35951200Y-48387200D02*
X35412600Y-48387200D01*
X35800000Y-49875000D02*
X34949900Y-49875000D01*
X34949900Y-48849900D02*
X34949900Y-49875000D01*
X36650100Y-49225000D02*
X36783900Y-49091200D01*
X43878300Y-53336100D02*
X43231600Y-53336100D01*
X35800000Y-49225000D02*
X36650100Y-49225000D01*
X43231600Y-53336100D02*
X42935000Y-53039500D01*
X36783900Y-49091200D02*
X37664800Y-49091200D01*
X49950000Y-58452500D02*
X48994700Y-58452500D01*
X48994700Y-58452500D02*
X43878300Y-53336100D01*
X50906700Y-61702500D02*
X51675800Y-60933400D01*
X49950000Y-61702500D02*
X50906700Y-61702500D01*
X51675800Y-60933400D02*
X51675800Y-55006000D01*
X51675800Y-55006000D02*
X49796000Y-53126200D01*
X46861300Y-62352500D02*
X46749700Y-62464100D01*
X49950000Y-62352500D02*
X46861300Y-62352500D01*
M02*
