M48
; DRILL file KiCad 10.0.1 date 2026-04-18T12:17:19
; FORMAT={-:-/ absolute / metric / decimal}
; #@! TF.CreationDate,2026-04-18T12:17:19+02:00
; #@! TF.GenerationSoftware,Kicad,Pcbnew,10.0.1
; #@! TF.FileFunction,Plated,1,2,PTH
FMAT,2
METRIC
; #@! TA.AperFunction,Plated,PTH,ViaDrill
T1C0.400
; #@! TA.AperFunction,Plated,PTH,ComponentDrill
T2C1.000
; #@! TA.AperFunction,Plated,PTH,ComponentDrill
T3C1.500
%
G90
G05
T1
X26.306Y-43.042
X27.562Y-48.735
X29.006Y-48.004
X29.282Y-36.755
X30.899Y-48.934
X31.001Y-50.646
X31.082Y-58.929
X31.89Y-32.384
X31.946Y-43.205
X32.165Y-42.123
X32.606Y-56.899
X34.23Y-45.3
X35.951Y-48.387
X36.214Y-36.774
X36.545Y-35.386
X37.665Y-49.091
X38.299Y-54.683
X38.694Y-47.562
X38.933Y-53.903
X39.573Y-54.677
X39.641Y-62.427
X40.39Y-56.549
X42.919Y-54.474
X42.935Y-53.039
X43.724Y-45.13
X44.204Y-38.071
X44.514Y-61.686
X44.545Y-60.21
X44.761Y-59.021
X44.997Y-42.728
X45.064Y-50.156
X45.79Y-54.219
X45.969Y-57.179
X46.5Y-59.73
X46.75Y-62.464
X47.841Y-54.0
X48.092Y-55.034
X49.796Y-53.126
X50.541Y-49.274
X52.021Y-48.155
T2
X27.685Y-29.305
X30.225Y-29.305
X32.765Y-29.305
X35.305Y-29.305
X37.845Y-29.305
X40.385Y-29.305
X42.925Y-29.305
X45.465Y-29.305
X48.005Y-29.305
X50.545Y-29.305
T3
X28.962Y-51.754
X30.614Y-39.962
X32.535Y-51.777
X34.174Y-39.995
X34.773Y-59.078
X37.108Y-45.828
X38.33Y-59.056
X39.8Y-32.525
X40.687Y-45.849
X43.366Y-32.506
X44.169Y-51.766
X46.229Y-39.957
X47.739Y-51.775
X49.807Y-39.948
M30
