M48
; DRILL file {KiCad (5.1.5)-3} date 19.02.2020 11:06:16
; FORMAT={-:-/ absolute / metric / decimal}
; #@! TF.CreationDate,2020-02-19T11:06:16+01:00
; #@! TF.GenerationSoftware,Kicad,Pcbnew,(5.1.5)-3
FMAT,2
METRIC
T1C0.400
T2C0.800
T3C1.500
%
G90
G05
T1
X26.378Y-53.494
X27.166Y-37.205
X27.291Y-40.666
X27.612Y-62.704
X28.628Y-60.327
X28.645Y-32.108
X29.136Y-62.704
X29.151Y-46.321
X29.657Y-60.146
X29.76Y-54.237
X29.924Y-48.185
X31.105Y-63.045
X31.944Y-53.666
X32.982Y-53.54
X33.067Y-51.328
X33.682Y-50.49
X33.691Y-54.702
X33.7Y-47.655
X34.11Y-40.088
X34.297Y-49.69
X34.438Y-34.194
X34.899Y-62.572
X35.192Y-40.84
X35.529Y-60.382
X36.439Y-53.402
X36.603Y-56.422
X37.197Y-49.281
X37.576Y-53.149
X37.695Y-56.422
X37.727Y-52.148
X38.217Y-49.259
X38.218Y-35.94
X38.351Y-28.57
X38.736Y-60.235
X39.493Y-39.062
X41.413Y-37.858
X41.474Y-36.388
X42.082Y-63.813
X42.659Y-57.015
X42.758Y-43.072
X42.985Y-53.368
X43.897Y-33.084
X44.042Y-49.928
X44.042Y-60.769
X44.576Y-31.223
X44.736Y-50.677
X45.811Y-43.744
X46.073Y-30.669
X46.515Y-41.348
X46.813Y-29.679
X46.969Y-28.678
X47.142Y-32.548
X48.016Y-40.895
X48.423Y-32.604
X51.061Y-42.062
X51.176Y-27.753
T2
X50.902Y-55.881
X50.902Y-57.881
X50.902Y-59.881
X50.902Y-61.881
X50.902Y-63.881
X47.803Y-55.881
X47.803Y-57.881
X47.803Y-59.881
X47.803Y-61.881
X47.803Y-63.881
T3
X27.292Y-51.156
X28.613Y-38.252
X30.543Y-56.083
X31.483Y-43.129
X34.074Y-44.679
X35.217Y-32.258
X37.757Y-62.459
X39.002Y-41.453
X40.221Y-29.286
X42.685Y-59.233
X46.393Y-48.158
X47.46Y-35.281
X49.517Y-53.111
X50.711Y-40.284
T0
M30
