M48
; DRILL file {KiCad (5.1.5-0-10_14)} date 2020 February 14, Friday 21:43:55
; FORMAT={-:-/ absolute / inch / decimal}
; #@! TF.CreationDate,2020-02-14T21:43:55+01:00
; #@! TF.GenerationSoftware,Kicad,Pcbnew,(5.1.5-0-10_14)
FMAT,2
INCH
T1C0.0157
T2C0.0315
T3C0.0591
%
G90
G05
T1
X1.0385Y-2.106
X1.0695Y-1.4648
X1.0744Y-1.601
X1.0871Y-2.4687
X1.1271Y-2.3751
X1.1278Y-1.2641
X1.1471Y-2.4687
X1.1477Y-1.8237
X1.1676Y-2.368
X1.1716Y-2.1353
X1.1781Y-1.8971
X1.2246Y-2.4821
X1.2577Y-2.1128
X1.2985Y-2.1079
X1.3018Y-2.0208
X1.3261Y-1.9878
X1.3264Y-2.1536
X1.3268Y-1.8762
X1.3429Y-1.5783
X1.3503Y-1.9563
X1.3558Y-1.3462
X1.374Y-2.4635
X1.3855Y-1.6079
X1.3988Y-2.3772
X1.4346Y-2.1025
X1.4411Y-2.2213
X1.4645Y-1.9402
X1.4794Y-2.0925
X1.4841Y-2.2213
X1.4853Y-2.0531
X1.5046Y-1.9393
X1.5047Y-1.415
X1.5099Y-1.1248
X1.525Y-2.3715
X1.5548Y-1.5379
X1.6304Y-1.4905
X1.6328Y-1.4326
X1.6568Y-2.5123
X1.6795Y-2.2447
X1.6834Y-1.6957
X1.6923Y-2.1011
X1.7282Y-1.3025
X1.7339Y-1.9657
X1.7339Y-2.3925
X1.755Y-1.2293
X1.7613Y-1.9952
X1.8036Y-1.7222
X1.8139Y-1.2074
X1.8313Y-1.6279
X1.843Y-1.1685
X1.8492Y-1.1291
X1.856Y-1.2814
X1.8904Y-1.61
X1.9064Y-1.2836
X2.0103Y-1.656
X2.0148Y-1.0926
T2
X1.882Y-2.2
X1.882Y-2.2788
X1.882Y-2.3575
X1.882Y-2.4363
X1.882Y-2.515
X2.004Y-2.2
X2.004Y-2.2788
X2.004Y-2.3575
X2.004Y-2.4363
X2.004Y-2.515
T3
X1.0745Y-2.014
X1.1265Y-1.506
X1.2025Y-2.208
X1.2395Y-1.698
X1.3415Y-1.759
X1.3865Y-1.27
X1.4865Y-2.459
X1.5355Y-1.632
X1.5835Y-1.153
X1.6805Y-2.332
X1.8265Y-1.896
X1.8685Y-1.389
X1.9495Y-2.091
X1.9965Y-1.586
T0
M30
