G04 #@! TF.GenerationSoftware,KiCad,Pcbnew,(5.1.5)-3*
G04 #@! TF.CreationDate,2020-02-20T13:27:19+01:00*
G04 #@! TF.ProjectId,EM7SEG_DRIVER,454d3753-4547-45f4-9452-495645522e6b,rev?*
G04 #@! TF.SameCoordinates,Original*
G04 #@! TF.FileFunction,Soldermask,Bot*
G04 #@! TF.FilePolarity,Negative*
%FSLAX46Y46*%
G04 Gerber Fmt 4.6, Leading zero omitted, Abs format (unit mm)*
G04 Created by KiCad (PCBNEW (5.1.5)-3) date 2020-02-20 13:27:19*
%MOMM*%
%LPD*%
G04 APERTURE LIST*
%ADD10C,0.100000*%
G04 APERTURE END LIST*
D10*
G36*
X35997728Y-63257864D02*
G01*
X36018809Y-63264260D01*
X36038245Y-63274648D01*
X36055276Y-63288624D01*
X36069252Y-63305655D01*
X36079640Y-63325091D01*
X36086036Y-63346172D01*
X36088800Y-63374240D01*
X36088800Y-64887960D01*
X36086036Y-64916028D01*
X36079640Y-64937109D01*
X36069252Y-64956545D01*
X36055276Y-64973576D01*
X36038245Y-64987552D01*
X36018809Y-64997940D01*
X35997728Y-65004336D01*
X35969660Y-65007100D01*
X35505940Y-65007100D01*
X35477872Y-65004336D01*
X35456791Y-64997940D01*
X35437355Y-64987552D01*
X35420324Y-64973576D01*
X35406348Y-64956545D01*
X35395960Y-64937109D01*
X35389564Y-64916028D01*
X35386800Y-64887960D01*
X35386800Y-63374240D01*
X35389564Y-63346172D01*
X35395960Y-63325091D01*
X35406348Y-63305655D01*
X35420324Y-63288624D01*
X35437355Y-63274648D01*
X35456791Y-63264260D01*
X35477872Y-63257864D01*
X35505940Y-63255100D01*
X35969660Y-63255100D01*
X35997728Y-63257864D01*
G37*
G36*
X34727728Y-63257864D02*
G01*
X34748809Y-63264260D01*
X34768245Y-63274648D01*
X34785276Y-63288624D01*
X34799252Y-63305655D01*
X34809640Y-63325091D01*
X34816036Y-63346172D01*
X34818800Y-63374240D01*
X34818800Y-64887960D01*
X34816036Y-64916028D01*
X34809640Y-64937109D01*
X34799252Y-64956545D01*
X34785276Y-64973576D01*
X34768245Y-64987552D01*
X34748809Y-64997940D01*
X34727728Y-65004336D01*
X34699660Y-65007100D01*
X34235940Y-65007100D01*
X34207872Y-65004336D01*
X34186791Y-64997940D01*
X34167355Y-64987552D01*
X34150324Y-64973576D01*
X34136348Y-64956545D01*
X34125960Y-64937109D01*
X34119564Y-64916028D01*
X34116800Y-64887960D01*
X34116800Y-63374240D01*
X34119564Y-63346172D01*
X34125960Y-63325091D01*
X34136348Y-63305655D01*
X34150324Y-63288624D01*
X34167355Y-63274648D01*
X34186791Y-63264260D01*
X34207872Y-63257864D01*
X34235940Y-63255100D01*
X34699660Y-63255100D01*
X34727728Y-63257864D01*
G37*
G36*
X30562128Y-63257864D02*
G01*
X30583209Y-63264260D01*
X30602645Y-63274648D01*
X30619676Y-63288624D01*
X30633652Y-63305655D01*
X30644040Y-63325091D01*
X30650436Y-63346172D01*
X30653200Y-63374240D01*
X30653200Y-64887960D01*
X30650436Y-64916028D01*
X30644040Y-64937109D01*
X30633652Y-64956545D01*
X30619676Y-64973576D01*
X30602645Y-64987552D01*
X30583209Y-64997940D01*
X30562128Y-65004336D01*
X30534060Y-65007100D01*
X30070340Y-65007100D01*
X30042272Y-65004336D01*
X30021191Y-64997940D01*
X30001755Y-64987552D01*
X29984724Y-64973576D01*
X29970748Y-64956545D01*
X29960360Y-64937109D01*
X29953964Y-64916028D01*
X29951200Y-64887960D01*
X29951200Y-63374240D01*
X29953964Y-63346172D01*
X29960360Y-63325091D01*
X29970748Y-63305655D01*
X29984724Y-63288624D01*
X30001755Y-63274648D01*
X30021191Y-63264260D01*
X30042272Y-63257864D01*
X30070340Y-63255100D01*
X30534060Y-63255100D01*
X30562128Y-63257864D01*
G37*
G36*
X29292128Y-63257864D02*
G01*
X29313209Y-63264260D01*
X29332645Y-63274648D01*
X29349676Y-63288624D01*
X29363652Y-63305655D01*
X29374040Y-63325091D01*
X29380436Y-63346172D01*
X29383200Y-63374240D01*
X29383200Y-64887960D01*
X29380436Y-64916028D01*
X29374040Y-64937109D01*
X29363652Y-64956545D01*
X29349676Y-64973576D01*
X29332645Y-64987552D01*
X29313209Y-64997940D01*
X29292128Y-65004336D01*
X29264060Y-65007100D01*
X28800340Y-65007100D01*
X28772272Y-65004336D01*
X28751191Y-64997940D01*
X28731755Y-64987552D01*
X28714724Y-64973576D01*
X28700748Y-64956545D01*
X28690360Y-64937109D01*
X28683964Y-64916028D01*
X28681200Y-64887960D01*
X28681200Y-63374240D01*
X28683964Y-63346172D01*
X28690360Y-63325091D01*
X28700748Y-63305655D01*
X28714724Y-63288624D01*
X28731755Y-63274648D01*
X28751191Y-63264260D01*
X28772272Y-63257864D01*
X28800340Y-63255100D01*
X29264060Y-63255100D01*
X29292128Y-63257864D01*
G37*
G36*
X28022128Y-63257864D02*
G01*
X28043209Y-63264260D01*
X28062645Y-63274648D01*
X28079676Y-63288624D01*
X28093652Y-63305655D01*
X28104040Y-63325091D01*
X28110436Y-63346172D01*
X28113200Y-63374240D01*
X28113200Y-64887960D01*
X28110436Y-64916028D01*
X28104040Y-64937109D01*
X28093652Y-64956545D01*
X28079676Y-64973576D01*
X28062645Y-64987552D01*
X28043209Y-64997940D01*
X28022128Y-65004336D01*
X27994060Y-65007100D01*
X27530340Y-65007100D01*
X27502272Y-65004336D01*
X27481191Y-64997940D01*
X27461755Y-64987552D01*
X27444724Y-64973576D01*
X27430748Y-64956545D01*
X27420360Y-64937109D01*
X27413964Y-64916028D01*
X27411200Y-64887960D01*
X27411200Y-63374240D01*
X27413964Y-63346172D01*
X27420360Y-63325091D01*
X27430748Y-63305655D01*
X27444724Y-63288624D01*
X27461755Y-63274648D01*
X27481191Y-63264260D01*
X27502272Y-63257864D01*
X27530340Y-63255100D01*
X27994060Y-63255100D01*
X28022128Y-63257864D01*
G37*
G36*
X33457728Y-63257864D02*
G01*
X33478809Y-63264260D01*
X33498245Y-63274648D01*
X33515276Y-63288624D01*
X33529252Y-63305655D01*
X33539640Y-63325091D01*
X33546036Y-63346172D01*
X33548800Y-63374240D01*
X33548800Y-64887960D01*
X33546036Y-64916028D01*
X33539640Y-64937109D01*
X33529252Y-64956545D01*
X33515276Y-64973576D01*
X33498245Y-64987552D01*
X33478809Y-64997940D01*
X33457728Y-65004336D01*
X33429660Y-65007100D01*
X32965940Y-65007100D01*
X32937872Y-65004336D01*
X32916791Y-64997940D01*
X32897355Y-64987552D01*
X32880324Y-64973576D01*
X32866348Y-64956545D01*
X32855960Y-64937109D01*
X32849564Y-64916028D01*
X32846800Y-64887960D01*
X32846800Y-63374240D01*
X32849564Y-63346172D01*
X32855960Y-63325091D01*
X32866348Y-63305655D01*
X32880324Y-63288624D01*
X32897355Y-63274648D01*
X32916791Y-63264260D01*
X32937872Y-63257864D01*
X32965940Y-63255100D01*
X33429660Y-63255100D01*
X33457728Y-63257864D01*
G37*
G36*
X26752128Y-63257864D02*
G01*
X26773209Y-63264260D01*
X26792645Y-63274648D01*
X26809676Y-63288624D01*
X26823652Y-63305655D01*
X26834040Y-63325091D01*
X26840436Y-63346172D01*
X26843200Y-63374240D01*
X26843200Y-64887960D01*
X26840436Y-64916028D01*
X26834040Y-64937109D01*
X26823652Y-64956545D01*
X26809676Y-64973576D01*
X26792645Y-64987552D01*
X26773209Y-64997940D01*
X26752128Y-65004336D01*
X26724060Y-65007100D01*
X26260340Y-65007100D01*
X26232272Y-65004336D01*
X26211191Y-64997940D01*
X26191755Y-64987552D01*
X26174724Y-64973576D01*
X26160748Y-64956545D01*
X26150360Y-64937109D01*
X26143964Y-64916028D01*
X26141200Y-64887960D01*
X26141200Y-63374240D01*
X26143964Y-63346172D01*
X26150360Y-63325091D01*
X26160748Y-63305655D01*
X26174724Y-63288624D01*
X26191755Y-63274648D01*
X26211191Y-63264260D01*
X26232272Y-63257864D01*
X26260340Y-63255100D01*
X26724060Y-63255100D01*
X26752128Y-63257864D01*
G37*
G36*
X32187728Y-63257864D02*
G01*
X32208809Y-63264260D01*
X32228245Y-63274648D01*
X32245276Y-63288624D01*
X32259252Y-63305655D01*
X32269640Y-63325091D01*
X32276036Y-63346172D01*
X32278800Y-63374240D01*
X32278800Y-64887960D01*
X32276036Y-64916028D01*
X32269640Y-64937109D01*
X32259252Y-64956545D01*
X32245276Y-64973576D01*
X32228245Y-64987552D01*
X32208809Y-64997940D01*
X32187728Y-65004336D01*
X32159660Y-65007100D01*
X31695940Y-65007100D01*
X31667872Y-65004336D01*
X31646791Y-64997940D01*
X31627355Y-64987552D01*
X31610324Y-64973576D01*
X31596348Y-64956545D01*
X31585960Y-64937109D01*
X31579564Y-64916028D01*
X31576800Y-64887960D01*
X31576800Y-63374240D01*
X31579564Y-63346172D01*
X31585960Y-63325091D01*
X31596348Y-63305655D01*
X31610324Y-63288624D01*
X31627355Y-63274648D01*
X31646791Y-63264260D01*
X31667872Y-63257864D01*
X31695940Y-63255100D01*
X32159660Y-63255100D01*
X32187728Y-63257864D01*
G37*
G36*
X41302374Y-63690065D02*
G01*
X41340067Y-63701499D01*
X41374803Y-63720066D01*
X41405248Y-63745052D01*
X41430234Y-63775497D01*
X41448801Y-63810233D01*
X41460235Y-63847926D01*
X41464700Y-63893261D01*
X41464700Y-64729939D01*
X41460235Y-64775274D01*
X41448801Y-64812967D01*
X41430234Y-64847703D01*
X41405248Y-64878148D01*
X41374803Y-64903134D01*
X41340067Y-64921701D01*
X41302374Y-64933135D01*
X41257039Y-64937600D01*
X40170361Y-64937600D01*
X40125026Y-64933135D01*
X40087333Y-64921701D01*
X40052597Y-64903134D01*
X40022152Y-64878148D01*
X39997166Y-64847703D01*
X39978599Y-64812967D01*
X39967165Y-64775274D01*
X39962700Y-64729939D01*
X39962700Y-63893261D01*
X39967165Y-63847926D01*
X39978599Y-63810233D01*
X39997166Y-63775497D01*
X40022152Y-63745052D01*
X40052597Y-63720066D01*
X40087333Y-63701499D01*
X40125026Y-63690065D01*
X40170361Y-63685600D01*
X41257039Y-63685600D01*
X41302374Y-63690065D01*
G37*
G36*
X45773574Y-63406265D02*
G01*
X45811267Y-63417699D01*
X45846003Y-63436266D01*
X45876448Y-63461252D01*
X45901434Y-63491697D01*
X45920001Y-63526433D01*
X45931435Y-63564126D01*
X45935900Y-63609461D01*
X45935900Y-64696139D01*
X45931435Y-64741474D01*
X45920001Y-64779167D01*
X45901434Y-64813903D01*
X45876448Y-64844348D01*
X45846003Y-64869334D01*
X45811267Y-64887901D01*
X45773574Y-64899335D01*
X45728239Y-64903800D01*
X44891561Y-64903800D01*
X44846226Y-64899335D01*
X44808533Y-64887901D01*
X44773797Y-64869334D01*
X44743352Y-64844348D01*
X44718366Y-64813903D01*
X44699799Y-64779167D01*
X44688365Y-64741474D01*
X44683900Y-64696139D01*
X44683900Y-63609461D01*
X44688365Y-63564126D01*
X44699799Y-63526433D01*
X44718366Y-63491697D01*
X44743352Y-63461252D01*
X44773797Y-63436266D01*
X44808533Y-63417699D01*
X44846226Y-63406265D01*
X44891561Y-63401800D01*
X45728239Y-63401800D01*
X45773574Y-63406265D01*
G37*
G36*
X43723574Y-63406265D02*
G01*
X43761267Y-63417699D01*
X43796003Y-63436266D01*
X43826448Y-63461252D01*
X43851434Y-63491697D01*
X43870001Y-63526433D01*
X43881435Y-63564126D01*
X43885900Y-63609461D01*
X43885900Y-64696139D01*
X43881435Y-64741474D01*
X43870001Y-64779167D01*
X43851434Y-64813903D01*
X43826448Y-64844348D01*
X43796003Y-64869334D01*
X43761267Y-64887901D01*
X43723574Y-64899335D01*
X43678239Y-64903800D01*
X42841561Y-64903800D01*
X42796226Y-64899335D01*
X42758533Y-64887901D01*
X42723797Y-64869334D01*
X42693352Y-64844348D01*
X42668366Y-64813903D01*
X42649799Y-64779167D01*
X42638365Y-64741474D01*
X42633900Y-64696139D01*
X42633900Y-63609461D01*
X42638365Y-63564126D01*
X42649799Y-63526433D01*
X42668366Y-63491697D01*
X42693352Y-63461252D01*
X42723797Y-63436266D01*
X42758533Y-63417699D01*
X42796226Y-63406265D01*
X42841561Y-63401800D01*
X43678239Y-63401800D01*
X43723574Y-63406265D01*
G37*
G36*
X51627600Y-64607000D02*
G01*
X50175600Y-64607000D01*
X50175600Y-63155000D01*
X51627600Y-63155000D01*
X51627600Y-64607000D01*
G37*
G36*
X48528800Y-64607000D02*
G01*
X47076800Y-64607000D01*
X47076800Y-63155000D01*
X48528800Y-63155000D01*
X48528800Y-64607000D01*
G37*
G36*
X38107418Y-61303753D02*
G01*
X38325985Y-61394287D01*
X38325987Y-61394288D01*
X38522693Y-61525722D01*
X38689978Y-61693007D01*
X38767812Y-61809495D01*
X38821413Y-61889715D01*
X38911947Y-62108282D01*
X38958100Y-62340310D01*
X38958100Y-62576890D01*
X38911947Y-62808918D01*
X38821413Y-63027485D01*
X38821412Y-63027487D01*
X38689978Y-63224193D01*
X38522693Y-63391478D01*
X38325987Y-63522912D01*
X38325986Y-63522913D01*
X38325985Y-63522913D01*
X38107418Y-63613447D01*
X37875390Y-63659600D01*
X37638810Y-63659600D01*
X37406782Y-63613447D01*
X37188215Y-63522913D01*
X37188214Y-63522913D01*
X37188213Y-63522912D01*
X36991507Y-63391478D01*
X36824222Y-63224193D01*
X36692788Y-63027487D01*
X36692787Y-63027485D01*
X36602253Y-62808918D01*
X36556100Y-62576890D01*
X36556100Y-62340310D01*
X36602253Y-62108282D01*
X36692787Y-61889715D01*
X36746388Y-61809495D01*
X36824222Y-61693007D01*
X36991507Y-61525722D01*
X37188213Y-61394288D01*
X37188215Y-61394287D01*
X37406782Y-61303753D01*
X37638810Y-61257600D01*
X37875390Y-61257600D01*
X38107418Y-61303753D01*
G37*
G36*
X41302374Y-61640065D02*
G01*
X41340067Y-61651499D01*
X41374803Y-61670066D01*
X41405248Y-61695052D01*
X41430234Y-61725497D01*
X41448801Y-61760233D01*
X41460235Y-61797926D01*
X41464700Y-61843261D01*
X41464700Y-62679939D01*
X41460235Y-62725274D01*
X41448801Y-62762967D01*
X41430234Y-62797703D01*
X41405248Y-62828148D01*
X41374803Y-62853134D01*
X41340067Y-62871701D01*
X41302374Y-62883135D01*
X41257039Y-62887600D01*
X40170361Y-62887600D01*
X40125026Y-62883135D01*
X40087333Y-62871701D01*
X40052597Y-62853134D01*
X40022152Y-62828148D01*
X39997166Y-62797703D01*
X39978599Y-62762967D01*
X39967165Y-62725274D01*
X39962700Y-62679939D01*
X39962700Y-61843261D01*
X39967165Y-61797926D01*
X39978599Y-61760233D01*
X39997166Y-61725497D01*
X40022152Y-61695052D01*
X40052597Y-61670066D01*
X40087333Y-61651499D01*
X40125026Y-61640065D01*
X40170361Y-61635600D01*
X41257039Y-61635600D01*
X41302374Y-61640065D01*
G37*
G36*
X45751874Y-61305665D02*
G01*
X45789567Y-61317099D01*
X45824303Y-61335666D01*
X45854748Y-61360652D01*
X45879734Y-61391097D01*
X45898301Y-61425833D01*
X45909735Y-61463526D01*
X45914200Y-61508861D01*
X45914200Y-62595539D01*
X45909735Y-62640874D01*
X45898301Y-62678567D01*
X45879734Y-62713303D01*
X45854748Y-62743748D01*
X45824303Y-62768734D01*
X45789567Y-62787301D01*
X45751874Y-62798735D01*
X45706539Y-62803200D01*
X44869861Y-62803200D01*
X44824526Y-62798735D01*
X44786833Y-62787301D01*
X44752097Y-62768734D01*
X44721652Y-62743748D01*
X44696666Y-62713303D01*
X44678099Y-62678567D01*
X44666665Y-62640874D01*
X44662200Y-62595539D01*
X44662200Y-61508861D01*
X44666665Y-61463526D01*
X44678099Y-61425833D01*
X44696666Y-61391097D01*
X44721652Y-61360652D01*
X44752097Y-61335666D01*
X44786833Y-61317099D01*
X44824526Y-61305665D01*
X44869861Y-61301200D01*
X45706539Y-61301200D01*
X45751874Y-61305665D01*
G37*
G36*
X43701874Y-61305665D02*
G01*
X43739567Y-61317099D01*
X43774303Y-61335666D01*
X43804748Y-61360652D01*
X43829734Y-61391097D01*
X43848301Y-61425833D01*
X43859735Y-61463526D01*
X43864200Y-61508861D01*
X43864200Y-62595539D01*
X43859735Y-62640874D01*
X43848301Y-62678567D01*
X43829734Y-62713303D01*
X43804748Y-62743748D01*
X43774303Y-62768734D01*
X43739567Y-62787301D01*
X43701874Y-62798735D01*
X43656539Y-62803200D01*
X42819861Y-62803200D01*
X42774526Y-62798735D01*
X42736833Y-62787301D01*
X42702097Y-62768734D01*
X42671652Y-62743748D01*
X42646666Y-62713303D01*
X42628099Y-62678567D01*
X42616665Y-62640874D01*
X42612200Y-62595539D01*
X42612200Y-61508861D01*
X42616665Y-61463526D01*
X42628099Y-61425833D01*
X42646666Y-61391097D01*
X42671652Y-61360652D01*
X42702097Y-61335666D01*
X42736833Y-61317099D01*
X42774526Y-61305665D01*
X42819861Y-61301200D01*
X43656539Y-61301200D01*
X43701874Y-61305665D01*
G37*
G36*
X48014566Y-61182899D02*
G01*
X48146688Y-61237626D01*
X48146690Y-61237627D01*
X48265598Y-61317079D01*
X48366721Y-61418202D01*
X48446173Y-61537110D01*
X48446174Y-61537112D01*
X48500901Y-61669234D01*
X48528800Y-61809494D01*
X48528800Y-61952506D01*
X48500901Y-62092766D01*
X48446174Y-62224888D01*
X48446173Y-62224890D01*
X48366721Y-62343798D01*
X48265598Y-62444921D01*
X48146690Y-62524373D01*
X48146689Y-62524374D01*
X48146688Y-62524374D01*
X48014566Y-62579101D01*
X47874306Y-62607000D01*
X47731294Y-62607000D01*
X47591034Y-62579101D01*
X47458912Y-62524374D01*
X47458911Y-62524374D01*
X47458910Y-62524373D01*
X47340002Y-62444921D01*
X47238879Y-62343798D01*
X47159427Y-62224890D01*
X47159426Y-62224888D01*
X47104699Y-62092766D01*
X47076800Y-61952506D01*
X47076800Y-61809494D01*
X47104699Y-61669234D01*
X47159426Y-61537112D01*
X47159427Y-61537110D01*
X47238879Y-61418202D01*
X47340002Y-61317079D01*
X47458910Y-61237627D01*
X47458912Y-61237626D01*
X47591034Y-61182899D01*
X47731294Y-61155000D01*
X47874306Y-61155000D01*
X48014566Y-61182899D01*
G37*
G36*
X51113366Y-61182899D02*
G01*
X51245488Y-61237626D01*
X51245490Y-61237627D01*
X51364398Y-61317079D01*
X51465521Y-61418202D01*
X51544973Y-61537110D01*
X51544974Y-61537112D01*
X51599701Y-61669234D01*
X51627600Y-61809494D01*
X51627600Y-61952506D01*
X51599701Y-62092766D01*
X51544974Y-62224888D01*
X51544973Y-62224890D01*
X51465521Y-62343798D01*
X51364398Y-62444921D01*
X51245490Y-62524373D01*
X51245489Y-62524374D01*
X51245488Y-62524374D01*
X51113366Y-62579101D01*
X50973106Y-62607000D01*
X50830094Y-62607000D01*
X50689834Y-62579101D01*
X50557712Y-62524374D01*
X50557711Y-62524374D01*
X50557710Y-62524373D01*
X50438802Y-62444921D01*
X50337679Y-62343798D01*
X50258227Y-62224890D01*
X50258226Y-62224888D01*
X50203499Y-62092766D01*
X50175600Y-61952506D01*
X50175600Y-61809494D01*
X50203499Y-61669234D01*
X50258226Y-61537112D01*
X50258227Y-61537110D01*
X50337679Y-61418202D01*
X50438802Y-61317079D01*
X50557710Y-61237627D01*
X50557712Y-61237626D01*
X50689834Y-61182899D01*
X50830094Y-61155000D01*
X50973106Y-61155000D01*
X51113366Y-61182899D01*
G37*
G36*
X48014566Y-59182899D02*
G01*
X48146688Y-59237626D01*
X48146690Y-59237627D01*
X48265598Y-59317079D01*
X48366721Y-59418202D01*
X48366722Y-59418204D01*
X48446174Y-59537112D01*
X48500901Y-59669234D01*
X48528800Y-59809494D01*
X48528800Y-59952506D01*
X48500901Y-60092766D01*
X48446174Y-60224888D01*
X48446173Y-60224890D01*
X48366721Y-60343798D01*
X48265598Y-60444921D01*
X48146690Y-60524373D01*
X48146689Y-60524374D01*
X48146688Y-60524374D01*
X48014566Y-60579101D01*
X47874306Y-60607000D01*
X47731294Y-60607000D01*
X47591034Y-60579101D01*
X47458912Y-60524374D01*
X47458911Y-60524374D01*
X47458910Y-60524373D01*
X47340002Y-60444921D01*
X47238879Y-60343798D01*
X47159427Y-60224890D01*
X47159426Y-60224888D01*
X47104699Y-60092766D01*
X47076800Y-59952506D01*
X47076800Y-59809494D01*
X47104699Y-59669234D01*
X47159426Y-59537112D01*
X47238878Y-59418204D01*
X47238879Y-59418202D01*
X47340002Y-59317079D01*
X47458910Y-59237627D01*
X47458912Y-59237626D01*
X47591034Y-59182899D01*
X47731294Y-59155000D01*
X47874306Y-59155000D01*
X48014566Y-59182899D01*
G37*
G36*
X51113366Y-59182899D02*
G01*
X51245488Y-59237626D01*
X51245490Y-59237627D01*
X51364398Y-59317079D01*
X51465521Y-59418202D01*
X51465522Y-59418204D01*
X51544974Y-59537112D01*
X51599701Y-59669234D01*
X51627600Y-59809494D01*
X51627600Y-59952506D01*
X51599701Y-60092766D01*
X51544974Y-60224888D01*
X51544973Y-60224890D01*
X51465521Y-60343798D01*
X51364398Y-60444921D01*
X51245490Y-60524373D01*
X51245489Y-60524374D01*
X51245488Y-60524374D01*
X51113366Y-60579101D01*
X50973106Y-60607000D01*
X50830094Y-60607000D01*
X50689834Y-60579101D01*
X50557712Y-60524374D01*
X50557711Y-60524374D01*
X50557710Y-60524373D01*
X50438802Y-60444921D01*
X50337679Y-60343798D01*
X50258227Y-60224890D01*
X50258226Y-60224888D01*
X50203499Y-60092766D01*
X50175600Y-59952506D01*
X50175600Y-59809494D01*
X50203499Y-59669234D01*
X50258226Y-59537112D01*
X50337678Y-59418204D01*
X50337679Y-59418202D01*
X50438802Y-59317079D01*
X50557710Y-59237627D01*
X50557712Y-59237626D01*
X50689834Y-59182899D01*
X50830094Y-59155000D01*
X50973106Y-59155000D01*
X51113366Y-59182899D01*
G37*
G36*
X43035018Y-58077953D02*
G01*
X43253585Y-58168487D01*
X43253587Y-58168488D01*
X43450293Y-58299922D01*
X43617578Y-58467207D01*
X43710984Y-58607000D01*
X43749013Y-58663915D01*
X43839547Y-58882482D01*
X43885700Y-59114510D01*
X43885700Y-59351090D01*
X43839547Y-59583118D01*
X43767481Y-59757100D01*
X43749012Y-59801687D01*
X43617578Y-59998393D01*
X43450293Y-60165678D01*
X43253587Y-60297112D01*
X43253586Y-60297113D01*
X43253585Y-60297113D01*
X43035018Y-60387647D01*
X42802990Y-60433800D01*
X42566410Y-60433800D01*
X42334382Y-60387647D01*
X42115815Y-60297113D01*
X42115814Y-60297113D01*
X42115813Y-60297112D01*
X41919107Y-60165678D01*
X41751822Y-59998393D01*
X41620388Y-59801687D01*
X41601919Y-59757100D01*
X41529853Y-59583118D01*
X41483700Y-59351090D01*
X41483700Y-59114510D01*
X41529853Y-58882482D01*
X41620387Y-58663915D01*
X41658416Y-58607000D01*
X41751822Y-58467207D01*
X41919107Y-58299922D01*
X42115813Y-58168488D01*
X42115815Y-58168487D01*
X42334382Y-58077953D01*
X42566410Y-58031800D01*
X42802990Y-58031800D01*
X43035018Y-58077953D01*
G37*
G36*
X45572074Y-58925065D02*
G01*
X45609767Y-58936499D01*
X45644503Y-58955066D01*
X45674948Y-58980052D01*
X45699934Y-59010497D01*
X45718501Y-59045233D01*
X45729935Y-59082926D01*
X45734400Y-59128261D01*
X45734400Y-59964939D01*
X45729935Y-60010274D01*
X45718501Y-60047967D01*
X45699934Y-60082703D01*
X45674948Y-60113148D01*
X45644503Y-60138134D01*
X45609767Y-60156701D01*
X45572074Y-60168135D01*
X45526739Y-60172600D01*
X44440061Y-60172600D01*
X44394726Y-60168135D01*
X44357033Y-60156701D01*
X44322297Y-60138134D01*
X44291852Y-60113148D01*
X44266866Y-60082703D01*
X44248299Y-60047967D01*
X44236865Y-60010274D01*
X44232400Y-59964939D01*
X44232400Y-59128261D01*
X44236865Y-59082926D01*
X44248299Y-59045233D01*
X44266866Y-59010497D01*
X44291852Y-58980052D01*
X44322297Y-58955066D01*
X44357033Y-58936499D01*
X44394726Y-58925065D01*
X44440061Y-58920600D01*
X45526739Y-58920600D01*
X45572074Y-58925065D01*
G37*
G36*
X34727728Y-58007864D02*
G01*
X34748809Y-58014260D01*
X34768245Y-58024648D01*
X34785276Y-58038624D01*
X34799252Y-58055655D01*
X34809640Y-58075091D01*
X34816036Y-58096172D01*
X34818800Y-58124240D01*
X34818800Y-59637960D01*
X34816036Y-59666028D01*
X34809640Y-59687109D01*
X34799252Y-59706545D01*
X34785276Y-59723576D01*
X34768245Y-59737552D01*
X34748809Y-59747940D01*
X34727728Y-59754336D01*
X34699660Y-59757100D01*
X34235940Y-59757100D01*
X34207872Y-59754336D01*
X34186791Y-59747940D01*
X34167355Y-59737552D01*
X34150324Y-59723576D01*
X34136348Y-59706545D01*
X34125960Y-59687109D01*
X34119564Y-59666028D01*
X34116800Y-59637960D01*
X34116800Y-58124240D01*
X34119564Y-58096172D01*
X34125960Y-58075091D01*
X34136348Y-58055655D01*
X34150324Y-58038624D01*
X34167355Y-58024648D01*
X34186791Y-58014260D01*
X34207872Y-58007864D01*
X34235940Y-58005100D01*
X34699660Y-58005100D01*
X34727728Y-58007864D01*
G37*
G36*
X28022128Y-58007864D02*
G01*
X28043209Y-58014260D01*
X28062645Y-58024648D01*
X28079676Y-58038624D01*
X28093652Y-58055655D01*
X28104040Y-58075091D01*
X28110436Y-58096172D01*
X28113200Y-58124240D01*
X28113200Y-59637960D01*
X28110436Y-59666028D01*
X28104040Y-59687109D01*
X28093652Y-59706545D01*
X28079676Y-59723576D01*
X28062645Y-59737552D01*
X28043209Y-59747940D01*
X28022128Y-59754336D01*
X27994060Y-59757100D01*
X27530340Y-59757100D01*
X27502272Y-59754336D01*
X27481191Y-59747940D01*
X27461755Y-59737552D01*
X27444724Y-59723576D01*
X27430748Y-59706545D01*
X27420360Y-59687109D01*
X27413964Y-59666028D01*
X27411200Y-59637960D01*
X27411200Y-58124240D01*
X27413964Y-58096172D01*
X27420360Y-58075091D01*
X27430748Y-58055655D01*
X27444724Y-58038624D01*
X27461755Y-58024648D01*
X27481191Y-58014260D01*
X27502272Y-58007864D01*
X27530340Y-58005100D01*
X27994060Y-58005100D01*
X28022128Y-58007864D01*
G37*
G36*
X29292128Y-58007864D02*
G01*
X29313209Y-58014260D01*
X29332645Y-58024648D01*
X29349676Y-58038624D01*
X29363652Y-58055655D01*
X29374040Y-58075091D01*
X29380436Y-58096172D01*
X29383200Y-58124240D01*
X29383200Y-59637960D01*
X29380436Y-59666028D01*
X29374040Y-59687109D01*
X29363652Y-59706545D01*
X29349676Y-59723576D01*
X29332645Y-59737552D01*
X29313209Y-59747940D01*
X29292128Y-59754336D01*
X29264060Y-59757100D01*
X28800340Y-59757100D01*
X28772272Y-59754336D01*
X28751191Y-59747940D01*
X28731755Y-59737552D01*
X28714724Y-59723576D01*
X28700748Y-59706545D01*
X28690360Y-59687109D01*
X28683964Y-59666028D01*
X28681200Y-59637960D01*
X28681200Y-58124240D01*
X28683964Y-58096172D01*
X28690360Y-58075091D01*
X28700748Y-58055655D01*
X28714724Y-58038624D01*
X28731755Y-58024648D01*
X28751191Y-58014260D01*
X28772272Y-58007864D01*
X28800340Y-58005100D01*
X29264060Y-58005100D01*
X29292128Y-58007864D01*
G37*
G36*
X30562128Y-58007864D02*
G01*
X30583209Y-58014260D01*
X30602645Y-58024648D01*
X30619676Y-58038624D01*
X30633652Y-58055655D01*
X30644040Y-58075091D01*
X30650436Y-58096172D01*
X30653200Y-58124240D01*
X30653200Y-59637960D01*
X30650436Y-59666028D01*
X30644040Y-59687109D01*
X30633652Y-59706545D01*
X30619676Y-59723576D01*
X30602645Y-59737552D01*
X30583209Y-59747940D01*
X30562128Y-59754336D01*
X30534060Y-59757100D01*
X30070340Y-59757100D01*
X30042272Y-59754336D01*
X30021191Y-59747940D01*
X30001755Y-59737552D01*
X29984724Y-59723576D01*
X29970748Y-59706545D01*
X29960360Y-59687109D01*
X29953964Y-59666028D01*
X29951200Y-59637960D01*
X29951200Y-58124240D01*
X29953964Y-58096172D01*
X29960360Y-58075091D01*
X29970748Y-58055655D01*
X29984724Y-58038624D01*
X30001755Y-58024648D01*
X30021191Y-58014260D01*
X30042272Y-58007864D01*
X30070340Y-58005100D01*
X30534060Y-58005100D01*
X30562128Y-58007864D01*
G37*
G36*
X32187728Y-58007864D02*
G01*
X32208809Y-58014260D01*
X32228245Y-58024648D01*
X32245276Y-58038624D01*
X32259252Y-58055655D01*
X32269640Y-58075091D01*
X32276036Y-58096172D01*
X32278800Y-58124240D01*
X32278800Y-59637960D01*
X32276036Y-59666028D01*
X32269640Y-59687109D01*
X32259252Y-59706545D01*
X32245276Y-59723576D01*
X32228245Y-59737552D01*
X32208809Y-59747940D01*
X32187728Y-59754336D01*
X32159660Y-59757100D01*
X31695940Y-59757100D01*
X31667872Y-59754336D01*
X31646791Y-59747940D01*
X31627355Y-59737552D01*
X31610324Y-59723576D01*
X31596348Y-59706545D01*
X31585960Y-59687109D01*
X31579564Y-59666028D01*
X31576800Y-59637960D01*
X31576800Y-58124240D01*
X31579564Y-58096172D01*
X31585960Y-58075091D01*
X31596348Y-58055655D01*
X31610324Y-58038624D01*
X31627355Y-58024648D01*
X31646791Y-58014260D01*
X31667872Y-58007864D01*
X31695940Y-58005100D01*
X32159660Y-58005100D01*
X32187728Y-58007864D01*
G37*
G36*
X33457728Y-58007864D02*
G01*
X33478809Y-58014260D01*
X33498245Y-58024648D01*
X33515276Y-58038624D01*
X33529252Y-58055655D01*
X33539640Y-58075091D01*
X33546036Y-58096172D01*
X33548800Y-58124240D01*
X33548800Y-59637960D01*
X33546036Y-59666028D01*
X33539640Y-59687109D01*
X33529252Y-59706545D01*
X33515276Y-59723576D01*
X33498245Y-59737552D01*
X33478809Y-59747940D01*
X33457728Y-59754336D01*
X33429660Y-59757100D01*
X32965940Y-59757100D01*
X32937872Y-59754336D01*
X32916791Y-59747940D01*
X32897355Y-59737552D01*
X32880324Y-59723576D01*
X32866348Y-59706545D01*
X32855960Y-59687109D01*
X32849564Y-59666028D01*
X32846800Y-59637960D01*
X32846800Y-58124240D01*
X32849564Y-58096172D01*
X32855960Y-58075091D01*
X32866348Y-58055655D01*
X32880324Y-58038624D01*
X32897355Y-58024648D01*
X32916791Y-58014260D01*
X32937872Y-58007864D01*
X32965940Y-58005100D01*
X33429660Y-58005100D01*
X33457728Y-58007864D01*
G37*
G36*
X26752128Y-58007864D02*
G01*
X26773209Y-58014260D01*
X26792645Y-58024648D01*
X26809676Y-58038624D01*
X26823652Y-58055655D01*
X26834040Y-58075091D01*
X26840436Y-58096172D01*
X26843200Y-58124240D01*
X26843200Y-59637960D01*
X26840436Y-59666028D01*
X26834040Y-59687109D01*
X26823652Y-59706545D01*
X26809676Y-59723576D01*
X26792645Y-59737552D01*
X26773209Y-59747940D01*
X26752128Y-59754336D01*
X26724060Y-59757100D01*
X26260340Y-59757100D01*
X26232272Y-59754336D01*
X26211191Y-59747940D01*
X26191755Y-59737552D01*
X26174724Y-59723576D01*
X26160748Y-59706545D01*
X26150360Y-59687109D01*
X26143964Y-59666028D01*
X26141200Y-59637960D01*
X26141200Y-58124240D01*
X26143964Y-58096172D01*
X26150360Y-58075091D01*
X26160748Y-58055655D01*
X26174724Y-58038624D01*
X26191755Y-58024648D01*
X26211191Y-58014260D01*
X26232272Y-58007864D01*
X26260340Y-58005100D01*
X26724060Y-58005100D01*
X26752128Y-58007864D01*
G37*
G36*
X35997728Y-58007864D02*
G01*
X36018809Y-58014260D01*
X36038245Y-58024648D01*
X36055276Y-58038624D01*
X36069252Y-58055655D01*
X36079640Y-58075091D01*
X36086036Y-58096172D01*
X36088800Y-58124240D01*
X36088800Y-59637960D01*
X36086036Y-59666028D01*
X36079640Y-59687109D01*
X36069252Y-59706545D01*
X36055276Y-59723576D01*
X36038245Y-59737552D01*
X36018809Y-59747940D01*
X35997728Y-59754336D01*
X35969660Y-59757100D01*
X35505940Y-59757100D01*
X35477872Y-59754336D01*
X35456791Y-59747940D01*
X35437355Y-59737552D01*
X35420324Y-59723576D01*
X35406348Y-59706545D01*
X35395960Y-59687109D01*
X35389564Y-59666028D01*
X35386800Y-59637960D01*
X35386800Y-58124240D01*
X35389564Y-58096172D01*
X35395960Y-58075091D01*
X35406348Y-58055655D01*
X35420324Y-58038624D01*
X35437355Y-58024648D01*
X35456791Y-58014260D01*
X35477872Y-58007864D01*
X35505940Y-58005100D01*
X35969660Y-58005100D01*
X35997728Y-58007864D01*
G37*
G36*
X38381974Y-57912265D02*
G01*
X38419667Y-57923699D01*
X38454403Y-57942266D01*
X38484848Y-57967252D01*
X38509834Y-57997697D01*
X38528401Y-58032433D01*
X38539835Y-58070126D01*
X38544300Y-58115461D01*
X38544300Y-59202139D01*
X38539835Y-59247474D01*
X38528401Y-59285167D01*
X38509834Y-59319903D01*
X38484848Y-59350348D01*
X38454403Y-59375334D01*
X38419667Y-59393901D01*
X38381974Y-59405335D01*
X38336639Y-59409800D01*
X37499961Y-59409800D01*
X37454626Y-59405335D01*
X37416933Y-59393901D01*
X37382197Y-59375334D01*
X37351752Y-59350348D01*
X37326766Y-59319903D01*
X37308199Y-59285167D01*
X37296765Y-59247474D01*
X37292300Y-59202139D01*
X37292300Y-58115461D01*
X37296765Y-58070126D01*
X37308199Y-58032433D01*
X37326766Y-57997697D01*
X37351752Y-57967252D01*
X37382197Y-57942266D01*
X37416933Y-57923699D01*
X37454626Y-57912265D01*
X37499961Y-57907800D01*
X38336639Y-57907800D01*
X38381974Y-57912265D01*
G37*
G36*
X40431974Y-57912265D02*
G01*
X40469667Y-57923699D01*
X40504403Y-57942266D01*
X40534848Y-57967252D01*
X40559834Y-57997697D01*
X40578401Y-58032433D01*
X40589835Y-58070126D01*
X40594300Y-58115461D01*
X40594300Y-59202139D01*
X40589835Y-59247474D01*
X40578401Y-59285167D01*
X40559834Y-59319903D01*
X40534848Y-59350348D01*
X40504403Y-59375334D01*
X40469667Y-59393901D01*
X40431974Y-59405335D01*
X40386639Y-59409800D01*
X39549961Y-59409800D01*
X39504626Y-59405335D01*
X39466933Y-59393901D01*
X39432197Y-59375334D01*
X39401752Y-59350348D01*
X39376766Y-59319903D01*
X39358199Y-59285167D01*
X39346765Y-59247474D01*
X39342300Y-59202139D01*
X39342300Y-58115461D01*
X39346765Y-58070126D01*
X39358199Y-58032433D01*
X39376766Y-57997697D01*
X39401752Y-57967252D01*
X39432197Y-57942266D01*
X39466933Y-57923699D01*
X39504626Y-57912265D01*
X39549961Y-57907800D01*
X40386639Y-57907800D01*
X40431974Y-57912265D01*
G37*
G36*
X51113366Y-57182899D02*
G01*
X51245488Y-57237626D01*
X51245490Y-57237627D01*
X51364398Y-57317079D01*
X51465521Y-57418202D01*
X51465522Y-57418204D01*
X51544974Y-57537112D01*
X51599701Y-57669234D01*
X51627600Y-57809494D01*
X51627600Y-57952506D01*
X51599701Y-58092766D01*
X51544974Y-58224888D01*
X51544973Y-58224890D01*
X51465521Y-58343798D01*
X51364398Y-58444921D01*
X51245490Y-58524373D01*
X51245489Y-58524374D01*
X51245488Y-58524374D01*
X51113366Y-58579101D01*
X50973106Y-58607000D01*
X50830094Y-58607000D01*
X50689834Y-58579101D01*
X50557712Y-58524374D01*
X50557711Y-58524374D01*
X50557710Y-58524373D01*
X50438802Y-58444921D01*
X50337679Y-58343798D01*
X50258227Y-58224890D01*
X50258226Y-58224888D01*
X50203499Y-58092766D01*
X50175600Y-57952506D01*
X50175600Y-57809494D01*
X50203499Y-57669234D01*
X50258226Y-57537112D01*
X50337678Y-57418204D01*
X50337679Y-57418202D01*
X50438802Y-57317079D01*
X50557710Y-57237627D01*
X50557712Y-57237626D01*
X50689834Y-57182899D01*
X50830094Y-57155000D01*
X50973106Y-57155000D01*
X51113366Y-57182899D01*
G37*
G36*
X48014566Y-57182899D02*
G01*
X48146688Y-57237626D01*
X48146690Y-57237627D01*
X48265598Y-57317079D01*
X48366721Y-57418202D01*
X48366722Y-57418204D01*
X48446174Y-57537112D01*
X48500901Y-57669234D01*
X48528800Y-57809494D01*
X48528800Y-57952506D01*
X48500901Y-58092766D01*
X48446174Y-58224888D01*
X48446173Y-58224890D01*
X48366721Y-58343798D01*
X48265598Y-58444921D01*
X48146690Y-58524373D01*
X48146689Y-58524374D01*
X48146688Y-58524374D01*
X48014566Y-58579101D01*
X47874306Y-58607000D01*
X47731294Y-58607000D01*
X47591034Y-58579101D01*
X47458912Y-58524374D01*
X47458911Y-58524374D01*
X47458910Y-58524373D01*
X47340002Y-58444921D01*
X47238879Y-58343798D01*
X47159427Y-58224890D01*
X47159426Y-58224888D01*
X47104699Y-58092766D01*
X47076800Y-57952506D01*
X47076800Y-57809494D01*
X47104699Y-57669234D01*
X47159426Y-57537112D01*
X47238878Y-57418204D01*
X47238879Y-57418202D01*
X47340002Y-57317079D01*
X47458910Y-57237627D01*
X47458912Y-57237626D01*
X47591034Y-57182899D01*
X47731294Y-57155000D01*
X47874306Y-57155000D01*
X48014566Y-57182899D01*
G37*
G36*
X45572074Y-56875065D02*
G01*
X45609767Y-56886499D01*
X45644503Y-56905066D01*
X45674948Y-56930052D01*
X45699934Y-56960497D01*
X45718501Y-56995233D01*
X45729935Y-57032926D01*
X45734400Y-57078261D01*
X45734400Y-57914939D01*
X45729935Y-57960274D01*
X45718501Y-57997967D01*
X45699934Y-58032703D01*
X45674948Y-58063148D01*
X45644503Y-58088134D01*
X45609767Y-58106701D01*
X45572074Y-58118135D01*
X45526739Y-58122600D01*
X44440061Y-58122600D01*
X44394726Y-58118135D01*
X44357033Y-58106701D01*
X44322297Y-58088134D01*
X44291852Y-58063148D01*
X44266866Y-58032703D01*
X44248299Y-57997967D01*
X44236865Y-57960274D01*
X44232400Y-57914939D01*
X44232400Y-57078261D01*
X44236865Y-57032926D01*
X44248299Y-56995233D01*
X44266866Y-56960497D01*
X44291852Y-56930052D01*
X44322297Y-56905066D01*
X44357033Y-56886499D01*
X44394726Y-56875065D01*
X44440061Y-56870600D01*
X45526739Y-56870600D01*
X45572074Y-56875065D01*
G37*
G36*
X27817474Y-56054865D02*
G01*
X27855167Y-56066299D01*
X27889903Y-56084866D01*
X27920348Y-56109852D01*
X27945334Y-56140297D01*
X27963901Y-56175033D01*
X27975335Y-56212726D01*
X27979800Y-56258061D01*
X27979800Y-57094739D01*
X27975335Y-57140074D01*
X27963901Y-57177767D01*
X27945334Y-57212503D01*
X27920348Y-57242948D01*
X27889903Y-57267934D01*
X27855167Y-57286501D01*
X27817474Y-57297935D01*
X27772139Y-57302400D01*
X26685461Y-57302400D01*
X26640126Y-57297935D01*
X26602433Y-57286501D01*
X26567697Y-57267934D01*
X26537252Y-57242948D01*
X26512266Y-57212503D01*
X26493699Y-57177767D01*
X26482265Y-57140074D01*
X26477800Y-57094739D01*
X26477800Y-56258061D01*
X26482265Y-56212726D01*
X26493699Y-56175033D01*
X26512266Y-56140297D01*
X26537252Y-56109852D01*
X26567697Y-56084866D01*
X26602433Y-56066299D01*
X26640126Y-56054865D01*
X26685461Y-56050400D01*
X27772139Y-56050400D01*
X27817474Y-56054865D01*
G37*
G36*
X30893818Y-54928353D02*
G01*
X31112385Y-55018887D01*
X31112387Y-55018888D01*
X31309093Y-55150322D01*
X31476378Y-55317607D01*
X31543593Y-55418202D01*
X31607813Y-55514315D01*
X31698347Y-55732882D01*
X31744500Y-55964910D01*
X31744500Y-56201490D01*
X31698347Y-56433518D01*
X31638044Y-56579101D01*
X31607812Y-56652087D01*
X31476378Y-56848793D01*
X31309093Y-57016078D01*
X31112387Y-57147512D01*
X31112386Y-57147513D01*
X31112385Y-57147513D01*
X30893818Y-57238047D01*
X30661790Y-57284200D01*
X30425210Y-57284200D01*
X30193182Y-57238047D01*
X29974615Y-57147513D01*
X29974614Y-57147513D01*
X29974613Y-57147512D01*
X29777907Y-57016078D01*
X29610622Y-56848793D01*
X29479188Y-56652087D01*
X29448956Y-56579101D01*
X29388653Y-56433518D01*
X29342500Y-56201490D01*
X29342500Y-55964910D01*
X29388653Y-55732882D01*
X29479187Y-55514315D01*
X29543407Y-55418202D01*
X29610622Y-55317607D01*
X29777907Y-55150322D01*
X29974613Y-55018888D01*
X29974615Y-55018887D01*
X30193182Y-54928353D01*
X30425210Y-54882200D01*
X30661790Y-54882200D01*
X30893818Y-54928353D01*
G37*
G36*
X48014566Y-55182899D02*
G01*
X48143972Y-55236501D01*
X48146690Y-55237627D01*
X48265598Y-55317079D01*
X48366721Y-55418202D01*
X48446173Y-55537110D01*
X48446174Y-55537112D01*
X48500901Y-55669234D01*
X48528800Y-55809494D01*
X48528800Y-55952506D01*
X48500901Y-56092766D01*
X48448854Y-56218417D01*
X48446173Y-56224890D01*
X48366721Y-56343798D01*
X48265598Y-56444921D01*
X48146690Y-56524373D01*
X48146689Y-56524374D01*
X48146688Y-56524374D01*
X48014566Y-56579101D01*
X47874306Y-56607000D01*
X47731294Y-56607000D01*
X47591034Y-56579101D01*
X47458912Y-56524374D01*
X47458911Y-56524374D01*
X47458910Y-56524373D01*
X47340002Y-56444921D01*
X47238879Y-56343798D01*
X47159427Y-56224890D01*
X47156746Y-56218417D01*
X47104699Y-56092766D01*
X47076800Y-55952506D01*
X47076800Y-55809494D01*
X47104699Y-55669234D01*
X47159426Y-55537112D01*
X47159427Y-55537110D01*
X47238879Y-55418202D01*
X47340002Y-55317079D01*
X47458910Y-55237627D01*
X47461628Y-55236501D01*
X47591034Y-55182899D01*
X47731294Y-55155000D01*
X47874306Y-55155000D01*
X48014566Y-55182899D01*
G37*
G36*
X51113366Y-55182899D02*
G01*
X51242772Y-55236501D01*
X51245490Y-55237627D01*
X51364398Y-55317079D01*
X51465521Y-55418202D01*
X51544973Y-55537110D01*
X51544974Y-55537112D01*
X51599701Y-55669234D01*
X51627600Y-55809494D01*
X51627600Y-55952506D01*
X51599701Y-56092766D01*
X51547654Y-56218417D01*
X51544973Y-56224890D01*
X51465521Y-56343798D01*
X51364398Y-56444921D01*
X51245490Y-56524373D01*
X51245489Y-56524374D01*
X51245488Y-56524374D01*
X51113366Y-56579101D01*
X50973106Y-56607000D01*
X50830094Y-56607000D01*
X50689834Y-56579101D01*
X50557712Y-56524374D01*
X50557711Y-56524374D01*
X50557710Y-56524373D01*
X50438802Y-56444921D01*
X50337679Y-56343798D01*
X50258227Y-56224890D01*
X50255546Y-56218417D01*
X50203499Y-56092766D01*
X50175600Y-55952506D01*
X50175600Y-55809494D01*
X50203499Y-55669234D01*
X50258226Y-55537112D01*
X50258227Y-55537110D01*
X50337679Y-55418202D01*
X50438802Y-55317079D01*
X50557710Y-55237627D01*
X50560428Y-55236501D01*
X50689834Y-55182899D01*
X50830094Y-55155000D01*
X50973106Y-55155000D01*
X51113366Y-55182899D01*
G37*
G36*
X43261400Y-55872100D02*
G01*
X34259400Y-55872100D01*
X34259400Y-54020100D01*
X43261400Y-54020100D01*
X43261400Y-55872100D01*
G37*
G36*
X27817474Y-54004865D02*
G01*
X27855167Y-54016299D01*
X27889903Y-54034866D01*
X27920348Y-54059852D01*
X27945334Y-54090297D01*
X27963901Y-54125033D01*
X27975335Y-54162726D01*
X27979800Y-54208061D01*
X27979800Y-55044739D01*
X27975335Y-55090074D01*
X27963901Y-55127767D01*
X27945334Y-55162503D01*
X27920348Y-55192948D01*
X27889903Y-55217934D01*
X27855167Y-55236501D01*
X27817474Y-55247935D01*
X27772139Y-55252400D01*
X26685461Y-55252400D01*
X26640126Y-55247935D01*
X26602433Y-55236501D01*
X26567697Y-55217934D01*
X26537252Y-55192948D01*
X26512266Y-55162503D01*
X26493699Y-55127767D01*
X26482265Y-55090074D01*
X26477800Y-55044739D01*
X26477800Y-54208061D01*
X26482265Y-54162726D01*
X26493699Y-54125033D01*
X26512266Y-54090297D01*
X26537252Y-54059852D01*
X26567697Y-54034866D01*
X26602433Y-54016299D01*
X26640126Y-54004865D01*
X26685461Y-54000400D01*
X27772139Y-54000400D01*
X27817474Y-54004865D01*
G37*
G36*
X49867618Y-51956553D02*
G01*
X50086185Y-52047087D01*
X50086187Y-52047088D01*
X50282893Y-52178522D01*
X50450178Y-52345807D01*
X50581612Y-52542513D01*
X50581613Y-52542515D01*
X50672147Y-52761082D01*
X50718300Y-52993110D01*
X50718300Y-53229690D01*
X50672147Y-53461718D01*
X50581613Y-53680285D01*
X50581612Y-53680287D01*
X50450178Y-53876993D01*
X50282893Y-54044278D01*
X50086187Y-54175712D01*
X50086186Y-54175713D01*
X50086185Y-54175713D01*
X49867618Y-54266247D01*
X49635590Y-54312400D01*
X49399010Y-54312400D01*
X49166982Y-54266247D01*
X48948415Y-54175713D01*
X48948414Y-54175713D01*
X48948413Y-54175712D01*
X48751707Y-54044278D01*
X48584422Y-53876993D01*
X48452988Y-53680287D01*
X48452987Y-53680285D01*
X48362453Y-53461718D01*
X48316300Y-53229690D01*
X48316300Y-52993110D01*
X48362453Y-52761082D01*
X48452987Y-52542515D01*
X48452988Y-52542513D01*
X48584422Y-52345807D01*
X48751707Y-52178522D01*
X48948413Y-52047088D01*
X48948415Y-52047087D01*
X49166982Y-51956553D01*
X49399010Y-51910400D01*
X49635590Y-51910400D01*
X49867618Y-51956553D01*
G37*
G36*
X47045274Y-52092465D02*
G01*
X47082967Y-52103899D01*
X47117703Y-52122466D01*
X47148148Y-52147452D01*
X47173134Y-52177897D01*
X47191701Y-52212633D01*
X47203135Y-52250326D01*
X47207600Y-52295661D01*
X47207600Y-53132339D01*
X47203135Y-53177674D01*
X47191701Y-53215367D01*
X47173134Y-53250103D01*
X47148148Y-53280548D01*
X47117703Y-53305534D01*
X47082967Y-53324101D01*
X47045274Y-53335535D01*
X46999939Y-53340000D01*
X45913261Y-53340000D01*
X45867926Y-53335535D01*
X45830233Y-53324101D01*
X45795497Y-53305534D01*
X45765052Y-53280548D01*
X45740066Y-53250103D01*
X45721499Y-53215367D01*
X45710065Y-53177674D01*
X45705600Y-53132339D01*
X45705600Y-52295661D01*
X45710065Y-52250326D01*
X45721499Y-52212633D01*
X45740066Y-52177897D01*
X45765052Y-52147452D01*
X45795497Y-52122466D01*
X45830233Y-52103899D01*
X45867926Y-52092465D01*
X45913261Y-52088000D01*
X46999939Y-52088000D01*
X47045274Y-52092465D01*
G37*
G36*
X30288874Y-51815565D02*
G01*
X30326567Y-51826999D01*
X30361303Y-51845566D01*
X30391748Y-51870552D01*
X30416734Y-51900997D01*
X30435301Y-51935733D01*
X30446735Y-51973426D01*
X30451200Y-52018761D01*
X30451200Y-52855439D01*
X30446735Y-52900774D01*
X30435301Y-52938467D01*
X30416734Y-52973203D01*
X30391748Y-53003648D01*
X30361303Y-53028634D01*
X30326567Y-53047201D01*
X30288874Y-53058635D01*
X30243539Y-53063100D01*
X29156861Y-53063100D01*
X29111526Y-53058635D01*
X29073833Y-53047201D01*
X29039097Y-53028634D01*
X29008652Y-53003648D01*
X28983666Y-52973203D01*
X28965099Y-52938467D01*
X28953665Y-52900774D01*
X28949200Y-52855439D01*
X28949200Y-52018761D01*
X28953665Y-51973426D01*
X28965099Y-51935733D01*
X28983666Y-51900997D01*
X29008652Y-51870552D01*
X29039097Y-51845566D01*
X29073833Y-51826999D01*
X29111526Y-51815565D01*
X29156861Y-51811100D01*
X30243539Y-51811100D01*
X30288874Y-51815565D01*
G37*
G36*
X32612974Y-51802865D02*
G01*
X32650667Y-51814299D01*
X32685403Y-51832866D01*
X32715848Y-51857852D01*
X32740834Y-51888297D01*
X32759401Y-51923033D01*
X32770835Y-51960726D01*
X32775300Y-52006061D01*
X32775300Y-52842739D01*
X32770835Y-52888074D01*
X32759401Y-52925767D01*
X32740834Y-52960503D01*
X32715848Y-52990948D01*
X32685403Y-53015934D01*
X32650667Y-53034501D01*
X32612974Y-53045935D01*
X32567639Y-53050400D01*
X31480961Y-53050400D01*
X31435626Y-53045935D01*
X31397933Y-53034501D01*
X31363197Y-53015934D01*
X31332752Y-52990948D01*
X31307766Y-52960503D01*
X31289199Y-52925767D01*
X31277765Y-52888074D01*
X31273300Y-52842739D01*
X31273300Y-52006061D01*
X31277765Y-51960726D01*
X31289199Y-51923033D01*
X31307766Y-51888297D01*
X31332752Y-51857852D01*
X31363197Y-51832866D01*
X31397933Y-51814299D01*
X31435626Y-51802865D01*
X31480961Y-51798400D01*
X32567639Y-51798400D01*
X32612974Y-51802865D01*
G37*
G36*
X27642618Y-50000753D02*
G01*
X27843276Y-50083869D01*
X27861187Y-50091288D01*
X28057893Y-50222722D01*
X28225178Y-50390007D01*
X28356612Y-50586713D01*
X28356613Y-50586715D01*
X28447147Y-50805282D01*
X28493300Y-51037310D01*
X28493300Y-51273890D01*
X28447147Y-51505918D01*
X28369874Y-51692470D01*
X28356612Y-51724487D01*
X28225178Y-51921193D01*
X28057893Y-52088478D01*
X27861187Y-52219912D01*
X27861186Y-52219913D01*
X27861185Y-52219913D01*
X27642618Y-52310447D01*
X27410590Y-52356600D01*
X27174010Y-52356600D01*
X26941982Y-52310447D01*
X26723415Y-52219913D01*
X26723414Y-52219913D01*
X26723413Y-52219912D01*
X26526707Y-52088478D01*
X26359422Y-51921193D01*
X26227988Y-51724487D01*
X26214726Y-51692470D01*
X26137453Y-51505918D01*
X26091300Y-51273890D01*
X26091300Y-51037310D01*
X26137453Y-50805282D01*
X26227987Y-50586715D01*
X26227988Y-50586713D01*
X26359422Y-50390007D01*
X26526707Y-50222722D01*
X26723413Y-50091288D01*
X26741324Y-50083869D01*
X26941982Y-50000753D01*
X27174010Y-49954600D01*
X27410590Y-49954600D01*
X27642618Y-50000753D01*
G37*
G36*
X51621121Y-51108374D02*
G01*
X51721395Y-51149909D01*
X51721396Y-51149910D01*
X51811642Y-51210210D01*
X51888390Y-51286958D01*
X51918745Y-51332388D01*
X51948691Y-51377205D01*
X51990226Y-51477479D01*
X52011400Y-51583930D01*
X52011400Y-51692470D01*
X51990226Y-51798921D01*
X51948691Y-51899195D01*
X51948690Y-51899196D01*
X51888390Y-51989442D01*
X51811642Y-52066190D01*
X51805082Y-52070573D01*
X51721395Y-52126491D01*
X51621121Y-52168026D01*
X51514670Y-52189200D01*
X51406130Y-52189200D01*
X51299679Y-52168026D01*
X51199405Y-52126491D01*
X51115718Y-52070573D01*
X51109158Y-52066190D01*
X51032410Y-51989442D01*
X50972110Y-51899196D01*
X50972109Y-51899195D01*
X50930574Y-51798921D01*
X50909400Y-51692470D01*
X50909400Y-51583930D01*
X50930574Y-51477479D01*
X50972109Y-51377205D01*
X51002055Y-51332388D01*
X51032410Y-51286958D01*
X51109158Y-51210210D01*
X51199404Y-51149910D01*
X51199405Y-51149909D01*
X51299679Y-51108374D01*
X51406130Y-51087200D01*
X51514670Y-51087200D01*
X51621121Y-51108374D01*
G37*
G36*
X47045274Y-50042465D02*
G01*
X47082967Y-50053899D01*
X47117703Y-50072466D01*
X47148148Y-50097452D01*
X47173134Y-50127897D01*
X47191701Y-50162633D01*
X47203135Y-50200326D01*
X47207600Y-50245661D01*
X47207600Y-51082339D01*
X47203135Y-51127674D01*
X47191701Y-51165367D01*
X47173134Y-51200103D01*
X47148148Y-51230548D01*
X47117703Y-51255534D01*
X47082967Y-51274101D01*
X47045274Y-51285535D01*
X46999939Y-51290000D01*
X45913261Y-51290000D01*
X45867926Y-51285535D01*
X45830233Y-51274101D01*
X45795497Y-51255534D01*
X45765052Y-51230548D01*
X45740066Y-51200103D01*
X45721499Y-51165367D01*
X45710065Y-51127674D01*
X45705600Y-51082339D01*
X45705600Y-50245661D01*
X45710065Y-50200326D01*
X45721499Y-50162633D01*
X45740066Y-50127897D01*
X45765052Y-50097452D01*
X45795497Y-50072466D01*
X45830233Y-50053899D01*
X45867926Y-50042465D01*
X45913261Y-50038000D01*
X46999939Y-50038000D01*
X47045274Y-50042465D01*
G37*
G36*
X30288874Y-49765565D02*
G01*
X30326567Y-49776999D01*
X30361303Y-49795566D01*
X30391748Y-49820552D01*
X30416734Y-49850997D01*
X30435301Y-49885733D01*
X30446735Y-49923426D01*
X30451200Y-49968761D01*
X30451200Y-50805439D01*
X30446735Y-50850774D01*
X30435301Y-50888467D01*
X30416734Y-50923203D01*
X30391748Y-50953648D01*
X30361303Y-50978634D01*
X30326567Y-50997201D01*
X30288874Y-51008635D01*
X30243539Y-51013100D01*
X29156861Y-51013100D01*
X29111526Y-51008635D01*
X29073833Y-50997201D01*
X29039097Y-50978634D01*
X29008652Y-50953648D01*
X28983666Y-50923203D01*
X28965099Y-50888467D01*
X28953665Y-50850774D01*
X28949200Y-50805439D01*
X28949200Y-49968761D01*
X28953665Y-49923426D01*
X28965099Y-49885733D01*
X28983666Y-49850997D01*
X29008652Y-49820552D01*
X29039097Y-49795566D01*
X29073833Y-49776999D01*
X29111526Y-49765565D01*
X29156861Y-49761100D01*
X30243539Y-49761100D01*
X30288874Y-49765565D01*
G37*
G36*
X32612974Y-49752865D02*
G01*
X32650667Y-49764299D01*
X32685403Y-49782866D01*
X32715848Y-49807852D01*
X32740834Y-49838297D01*
X32759401Y-49873033D01*
X32770835Y-49910726D01*
X32775300Y-49956061D01*
X32775300Y-50792739D01*
X32770835Y-50838074D01*
X32759401Y-50875767D01*
X32740834Y-50910503D01*
X32715848Y-50940948D01*
X32685403Y-50965934D01*
X32650667Y-50984501D01*
X32612974Y-50995935D01*
X32567639Y-51000400D01*
X31480961Y-51000400D01*
X31435626Y-50995935D01*
X31397933Y-50984501D01*
X31363197Y-50965934D01*
X31332752Y-50940948D01*
X31307766Y-50910503D01*
X31289199Y-50875767D01*
X31277765Y-50838074D01*
X31273300Y-50792739D01*
X31273300Y-49956061D01*
X31277765Y-49910726D01*
X31289199Y-49873033D01*
X31307766Y-49838297D01*
X31332752Y-49807852D01*
X31363197Y-49782866D01*
X31397933Y-49764299D01*
X31435626Y-49752865D01*
X31480961Y-49748400D01*
X32567639Y-49748400D01*
X32612974Y-49752865D01*
G37*
G36*
X50779074Y-49107965D02*
G01*
X50816767Y-49119399D01*
X50851503Y-49137966D01*
X50881948Y-49162952D01*
X50906934Y-49193397D01*
X50925501Y-49228133D01*
X50936935Y-49265826D01*
X50941400Y-49311161D01*
X50941400Y-50147839D01*
X50936935Y-50193174D01*
X50925501Y-50230867D01*
X50906934Y-50265603D01*
X50881948Y-50296048D01*
X50851503Y-50321034D01*
X50816767Y-50339601D01*
X50779074Y-50351035D01*
X50733739Y-50355500D01*
X49647061Y-50355500D01*
X49601726Y-50351035D01*
X49564033Y-50339601D01*
X49529297Y-50321034D01*
X49498852Y-50296048D01*
X49473866Y-50265603D01*
X49455299Y-50230867D01*
X49443865Y-50193174D01*
X49439400Y-50147839D01*
X49439400Y-49311161D01*
X49443865Y-49265826D01*
X49455299Y-49228133D01*
X49473866Y-49193397D01*
X49498852Y-49162952D01*
X49529297Y-49137966D01*
X49564033Y-49119399D01*
X49601726Y-49107965D01*
X49647061Y-49103500D01*
X50733739Y-49103500D01*
X50779074Y-49107965D01*
G37*
G36*
X46743418Y-47003553D02*
G01*
X46961985Y-47094087D01*
X46961987Y-47094088D01*
X47158693Y-47225522D01*
X47325978Y-47392807D01*
X47457412Y-47589513D01*
X47457413Y-47589515D01*
X47547947Y-47808082D01*
X47594100Y-48040110D01*
X47594100Y-48276690D01*
X47547947Y-48508718D01*
X47457413Y-48727285D01*
X47457412Y-48727287D01*
X47325978Y-48923993D01*
X47158693Y-49091278D01*
X46961987Y-49222712D01*
X46961986Y-49222713D01*
X46961985Y-49222713D01*
X46743418Y-49313247D01*
X46511390Y-49359400D01*
X46274810Y-49359400D01*
X46042782Y-49313247D01*
X45824215Y-49222713D01*
X45824214Y-49222713D01*
X45824213Y-49222712D01*
X45627507Y-49091278D01*
X45460222Y-48923993D01*
X45328788Y-48727287D01*
X45328787Y-48727285D01*
X45238253Y-48508718D01*
X45192100Y-48276690D01*
X45192100Y-48040110D01*
X45238253Y-47808082D01*
X45328787Y-47589515D01*
X45328788Y-47589513D01*
X45460222Y-47392807D01*
X45627507Y-47225522D01*
X45824213Y-47094088D01*
X45824215Y-47094087D01*
X46042782Y-47003553D01*
X46274810Y-46957400D01*
X46511390Y-46957400D01*
X46743418Y-47003553D01*
G37*
G36*
X43261400Y-48672100D02*
G01*
X34259400Y-48672100D01*
X34259400Y-46820100D01*
X43261400Y-46820100D01*
X43261400Y-48672100D01*
G37*
G36*
X31823074Y-47411265D02*
G01*
X31860767Y-47422699D01*
X31895503Y-47441266D01*
X31925948Y-47466252D01*
X31950934Y-47496697D01*
X31969501Y-47531433D01*
X31980935Y-47569126D01*
X31985400Y-47614461D01*
X31985400Y-48451139D01*
X31980935Y-48496474D01*
X31969501Y-48534167D01*
X31950934Y-48568903D01*
X31925948Y-48599348D01*
X31895503Y-48624334D01*
X31860767Y-48642901D01*
X31823074Y-48654335D01*
X31777739Y-48658800D01*
X30691061Y-48658800D01*
X30645726Y-48654335D01*
X30608033Y-48642901D01*
X30573297Y-48624334D01*
X30542852Y-48599348D01*
X30517866Y-48568903D01*
X30499299Y-48534167D01*
X30487865Y-48496474D01*
X30483400Y-48451139D01*
X30483400Y-47614461D01*
X30487865Y-47569126D01*
X30499299Y-47531433D01*
X30517866Y-47496697D01*
X30542852Y-47466252D01*
X30573297Y-47441266D01*
X30608033Y-47422699D01*
X30645726Y-47411265D01*
X30691061Y-47406800D01*
X31777739Y-47406800D01*
X31823074Y-47411265D01*
G37*
G36*
X50779074Y-47057965D02*
G01*
X50816767Y-47069399D01*
X50851503Y-47087966D01*
X50881948Y-47112952D01*
X50906934Y-47143397D01*
X50925501Y-47178133D01*
X50936935Y-47215826D01*
X50941400Y-47261161D01*
X50941400Y-48097839D01*
X50936935Y-48143174D01*
X50925501Y-48180867D01*
X50906934Y-48215603D01*
X50881948Y-48246048D01*
X50851503Y-48271034D01*
X50816767Y-48289601D01*
X50779074Y-48301035D01*
X50733739Y-48305500D01*
X49647061Y-48305500D01*
X49601726Y-48301035D01*
X49564033Y-48289601D01*
X49529297Y-48271034D01*
X49498852Y-48246048D01*
X49473866Y-48215603D01*
X49455299Y-48180867D01*
X49443865Y-48143174D01*
X49439400Y-48097839D01*
X49439400Y-47261161D01*
X49443865Y-47215826D01*
X49455299Y-47178133D01*
X49473866Y-47143397D01*
X49498852Y-47112952D01*
X49529297Y-47087966D01*
X49564033Y-47069399D01*
X49601726Y-47057965D01*
X49647061Y-47053500D01*
X50733739Y-47053500D01*
X50779074Y-47057965D01*
G37*
G36*
X27241199Y-46431037D02*
G01*
X27250808Y-46433952D01*
X27259672Y-46438690D01*
X27267437Y-46445063D01*
X27277648Y-46457506D01*
X27284578Y-46467875D01*
X27301905Y-46485202D01*
X27322280Y-46498815D01*
X27344920Y-46508191D01*
X27368953Y-46512971D01*
X27393457Y-46512970D01*
X27417490Y-46508188D01*
X27440129Y-46498810D01*
X27460502Y-46485195D01*
X27477829Y-46467868D01*
X27484758Y-46457498D01*
X27494963Y-46445063D01*
X27502728Y-46438690D01*
X27511592Y-46433952D01*
X27521201Y-46431037D01*
X27537340Y-46429448D01*
X28025061Y-46429448D01*
X28043399Y-46431254D01*
X28055650Y-46431856D01*
X28074069Y-46431856D01*
X28096349Y-46434050D01*
X28180433Y-46450776D01*
X28201860Y-46457276D01*
X28281058Y-46490080D01*
X28286503Y-46492991D01*
X28286509Y-46492993D01*
X28295369Y-46497729D01*
X28295373Y-46497732D01*
X28300814Y-46500640D01*
X28372099Y-46548271D01*
X28389404Y-46562472D01*
X28450028Y-46623096D01*
X28464229Y-46640401D01*
X28511860Y-46711686D01*
X28514768Y-46717127D01*
X28514771Y-46717131D01*
X28519507Y-46725991D01*
X28519509Y-46725997D01*
X28522420Y-46731442D01*
X28555224Y-46810640D01*
X28561724Y-46832067D01*
X28578450Y-46916151D01*
X28580644Y-46938431D01*
X28580644Y-46956850D01*
X28581246Y-46969101D01*
X28583052Y-46987439D01*
X28583052Y-47475162D01*
X28581246Y-47493499D01*
X28580644Y-47505750D01*
X28580644Y-47524169D01*
X28578450Y-47546449D01*
X28561724Y-47630533D01*
X28555224Y-47651960D01*
X28522420Y-47731158D01*
X28519509Y-47736603D01*
X28519507Y-47736609D01*
X28514771Y-47745469D01*
X28514768Y-47745473D01*
X28511860Y-47750914D01*
X28464229Y-47822199D01*
X28450028Y-47839504D01*
X28389404Y-47900128D01*
X28372099Y-47914329D01*
X28300814Y-47961960D01*
X28295373Y-47964868D01*
X28295369Y-47964871D01*
X28286509Y-47969607D01*
X28286503Y-47969609D01*
X28281058Y-47972520D01*
X28201860Y-48005324D01*
X28180433Y-48011824D01*
X28096349Y-48028550D01*
X28074069Y-48030744D01*
X28055650Y-48030744D01*
X28043399Y-48031346D01*
X28025062Y-48033152D01*
X27537340Y-48033152D01*
X27521201Y-48031563D01*
X27511592Y-48028648D01*
X27502728Y-48023910D01*
X27494963Y-48017537D01*
X27484752Y-48005094D01*
X27477822Y-47994725D01*
X27460495Y-47977398D01*
X27440120Y-47963785D01*
X27417480Y-47954409D01*
X27393447Y-47949629D01*
X27368943Y-47949630D01*
X27344910Y-47954412D01*
X27322271Y-47963790D01*
X27301898Y-47977405D01*
X27284571Y-47994732D01*
X27277642Y-48005102D01*
X27267437Y-48017537D01*
X27259672Y-48023910D01*
X27250808Y-48028648D01*
X27241199Y-48031563D01*
X27225060Y-48033152D01*
X26737338Y-48033152D01*
X26719001Y-48031346D01*
X26706750Y-48030744D01*
X26688331Y-48030744D01*
X26666051Y-48028550D01*
X26581967Y-48011824D01*
X26560540Y-48005324D01*
X26481342Y-47972520D01*
X26475897Y-47969609D01*
X26475891Y-47969607D01*
X26467031Y-47964871D01*
X26467027Y-47964868D01*
X26461586Y-47961960D01*
X26390301Y-47914329D01*
X26372996Y-47900128D01*
X26312372Y-47839504D01*
X26298171Y-47822199D01*
X26250540Y-47750914D01*
X26247632Y-47745473D01*
X26247629Y-47745469D01*
X26242893Y-47736609D01*
X26242891Y-47736603D01*
X26239980Y-47731158D01*
X26207176Y-47651960D01*
X26200676Y-47630533D01*
X26183950Y-47546449D01*
X26181756Y-47524169D01*
X26181756Y-47505750D01*
X26181154Y-47493499D01*
X26179348Y-47475162D01*
X26179348Y-46987438D01*
X26181154Y-46969101D01*
X26181756Y-46956850D01*
X26181756Y-46938431D01*
X26183950Y-46916151D01*
X26200676Y-46832067D01*
X26207176Y-46810640D01*
X26239980Y-46731442D01*
X26242891Y-46725997D01*
X26242893Y-46725991D01*
X26247629Y-46717131D01*
X26247632Y-46717127D01*
X26250540Y-46711686D01*
X26298171Y-46640401D01*
X26312372Y-46623096D01*
X26372996Y-46562472D01*
X26390301Y-46548271D01*
X26461586Y-46500640D01*
X26467027Y-46497732D01*
X26467031Y-46497729D01*
X26475891Y-46492993D01*
X26475897Y-46492991D01*
X26481342Y-46490080D01*
X26560540Y-46457276D01*
X26581967Y-46450776D01*
X26666051Y-46434050D01*
X26688331Y-46431856D01*
X26706750Y-46431856D01*
X26719001Y-46431254D01*
X26737339Y-46429448D01*
X27225060Y-46429448D01*
X27241199Y-46431037D01*
G37*
G36*
X31823074Y-45361265D02*
G01*
X31860767Y-45372699D01*
X31895503Y-45391266D01*
X31925948Y-45416252D01*
X31950934Y-45446697D01*
X31969501Y-45481433D01*
X31980935Y-45519126D01*
X31985400Y-45564461D01*
X31985400Y-46401139D01*
X31980935Y-46446474D01*
X31969501Y-46484167D01*
X31950934Y-46518903D01*
X31925948Y-46549348D01*
X31895503Y-46574334D01*
X31860767Y-46592901D01*
X31823074Y-46604335D01*
X31777739Y-46608800D01*
X30691061Y-46608800D01*
X30645726Y-46604335D01*
X30608033Y-46592901D01*
X30573297Y-46574334D01*
X30542852Y-46549348D01*
X30517866Y-46518903D01*
X30499299Y-46484167D01*
X30487865Y-46446474D01*
X30483400Y-46401139D01*
X30483400Y-45564461D01*
X30487865Y-45519126D01*
X30499299Y-45481433D01*
X30517866Y-45446697D01*
X30542852Y-45416252D01*
X30573297Y-45391266D01*
X30608033Y-45372699D01*
X30645726Y-45361265D01*
X30691061Y-45356800D01*
X31777739Y-45356800D01*
X31823074Y-45361265D01*
G37*
G36*
X51871274Y-45196365D02*
G01*
X51908967Y-45207799D01*
X51943703Y-45226366D01*
X51974148Y-45251352D01*
X51999134Y-45281797D01*
X52017701Y-45316533D01*
X52029135Y-45354226D01*
X52033600Y-45399561D01*
X52033600Y-46236239D01*
X52029135Y-46281574D01*
X52017701Y-46319267D01*
X51999134Y-46354003D01*
X51974148Y-46384448D01*
X51943703Y-46409434D01*
X51908967Y-46428001D01*
X51871274Y-46439435D01*
X51825939Y-46443900D01*
X50739261Y-46443900D01*
X50693926Y-46439435D01*
X50656233Y-46428001D01*
X50621497Y-46409434D01*
X50591052Y-46384448D01*
X50566066Y-46354003D01*
X50547499Y-46319267D01*
X50536065Y-46281574D01*
X50531600Y-46236239D01*
X50531600Y-45399561D01*
X50536065Y-45354226D01*
X50547499Y-45316533D01*
X50566066Y-45281797D01*
X50591052Y-45251352D01*
X50621497Y-45226366D01*
X50656233Y-45207799D01*
X50693926Y-45196365D01*
X50739261Y-45191900D01*
X51825939Y-45191900D01*
X51871274Y-45196365D01*
G37*
G36*
X49623374Y-45183665D02*
G01*
X49661067Y-45195099D01*
X49695803Y-45213666D01*
X49726248Y-45238652D01*
X49751234Y-45269097D01*
X49769801Y-45303833D01*
X49781235Y-45341526D01*
X49785700Y-45386861D01*
X49785700Y-46223539D01*
X49781235Y-46268874D01*
X49769801Y-46306567D01*
X49751234Y-46341303D01*
X49726248Y-46371748D01*
X49695803Y-46396734D01*
X49661067Y-46415301D01*
X49623374Y-46426735D01*
X49578039Y-46431200D01*
X48491361Y-46431200D01*
X48446026Y-46426735D01*
X48408333Y-46415301D01*
X48373597Y-46396734D01*
X48343152Y-46371748D01*
X48318166Y-46341303D01*
X48299599Y-46306567D01*
X48288165Y-46268874D01*
X48283700Y-46223539D01*
X48283700Y-45386861D01*
X48288165Y-45341526D01*
X48299599Y-45303833D01*
X48318166Y-45269097D01*
X48343152Y-45238652D01*
X48373597Y-45213666D01*
X48408333Y-45195099D01*
X48446026Y-45183665D01*
X48491361Y-45179200D01*
X49578039Y-45179200D01*
X49623374Y-45183665D01*
G37*
G36*
X37284674Y-44732165D02*
G01*
X37322367Y-44743599D01*
X37357103Y-44762166D01*
X37387548Y-44787152D01*
X37412534Y-44817597D01*
X37431101Y-44852333D01*
X37442535Y-44890026D01*
X37447000Y-44935361D01*
X37447000Y-46022039D01*
X37442535Y-46067374D01*
X37431101Y-46105067D01*
X37412534Y-46139803D01*
X37387548Y-46170248D01*
X37357103Y-46195234D01*
X37322367Y-46213801D01*
X37284674Y-46225235D01*
X37239339Y-46229700D01*
X36402661Y-46229700D01*
X36357326Y-46225235D01*
X36319633Y-46213801D01*
X36284897Y-46195234D01*
X36254452Y-46170248D01*
X36229466Y-46139803D01*
X36210899Y-46105067D01*
X36199465Y-46067374D01*
X36195000Y-46022039D01*
X36195000Y-44935361D01*
X36199465Y-44890026D01*
X36210899Y-44852333D01*
X36229466Y-44817597D01*
X36254452Y-44787152D01*
X36284897Y-44762166D01*
X36319633Y-44743599D01*
X36357326Y-44732165D01*
X36402661Y-44727700D01*
X37239339Y-44727700D01*
X37284674Y-44732165D01*
G37*
G36*
X39334674Y-44732165D02*
G01*
X39372367Y-44743599D01*
X39407103Y-44762166D01*
X39437548Y-44787152D01*
X39462534Y-44817597D01*
X39481101Y-44852333D01*
X39492535Y-44890026D01*
X39497000Y-44935361D01*
X39497000Y-46022039D01*
X39492535Y-46067374D01*
X39481101Y-46105067D01*
X39462534Y-46139803D01*
X39437548Y-46170248D01*
X39407103Y-46195234D01*
X39372367Y-46213801D01*
X39334674Y-46225235D01*
X39289339Y-46229700D01*
X38452661Y-46229700D01*
X38407326Y-46225235D01*
X38369633Y-46213801D01*
X38334897Y-46195234D01*
X38304452Y-46170248D01*
X38279466Y-46139803D01*
X38260899Y-46105067D01*
X38249465Y-46067374D01*
X38245000Y-46022039D01*
X38245000Y-44935361D01*
X38249465Y-44890026D01*
X38260899Y-44852333D01*
X38279466Y-44817597D01*
X38304452Y-44787152D01*
X38334897Y-44762166D01*
X38369633Y-44743599D01*
X38407326Y-44732165D01*
X38452661Y-44727700D01*
X39289339Y-44727700D01*
X39334674Y-44732165D01*
G37*
G36*
X42016074Y-44891565D02*
G01*
X42053767Y-44902999D01*
X42088503Y-44921566D01*
X42118948Y-44946552D01*
X42143934Y-44976997D01*
X42162501Y-45011733D01*
X42173935Y-45049426D01*
X42178400Y-45094761D01*
X42178400Y-45931439D01*
X42173935Y-45976774D01*
X42162501Y-46014467D01*
X42143934Y-46049203D01*
X42118948Y-46079648D01*
X42088503Y-46104634D01*
X42053767Y-46123201D01*
X42016074Y-46134635D01*
X41970739Y-46139100D01*
X40884061Y-46139100D01*
X40838726Y-46134635D01*
X40801033Y-46123201D01*
X40766297Y-46104634D01*
X40735852Y-46079648D01*
X40710866Y-46049203D01*
X40692299Y-46014467D01*
X40680865Y-45976774D01*
X40676400Y-45931439D01*
X40676400Y-45094761D01*
X40680865Y-45049426D01*
X40692299Y-45011733D01*
X40710866Y-44976997D01*
X40735852Y-44946552D01*
X40766297Y-44921566D01*
X40801033Y-44902999D01*
X40838726Y-44891565D01*
X40884061Y-44887100D01*
X41970739Y-44887100D01*
X42016074Y-44891565D01*
G37*
G36*
X43544028Y-44334864D02*
G01*
X43565109Y-44341260D01*
X43584545Y-44351648D01*
X43601576Y-44365624D01*
X43615552Y-44382655D01*
X43625940Y-44402091D01*
X43632336Y-44423172D01*
X43635100Y-44451240D01*
X43635100Y-45964960D01*
X43632336Y-45993028D01*
X43625940Y-46014109D01*
X43615552Y-46033545D01*
X43601576Y-46050576D01*
X43584545Y-46064552D01*
X43565109Y-46074940D01*
X43544028Y-46081336D01*
X43515960Y-46084100D01*
X43052240Y-46084100D01*
X43024172Y-46081336D01*
X43003091Y-46074940D01*
X42983655Y-46064552D01*
X42966624Y-46050576D01*
X42952648Y-46033545D01*
X42942260Y-46014109D01*
X42935864Y-45993028D01*
X42933100Y-45964960D01*
X42933100Y-44451240D01*
X42935864Y-44423172D01*
X42942260Y-44402091D01*
X42952648Y-44382655D01*
X42966624Y-44365624D01*
X42983655Y-44351648D01*
X43003091Y-44341260D01*
X43024172Y-44334864D01*
X43052240Y-44332100D01*
X43515960Y-44332100D01*
X43544028Y-44334864D01*
G37*
G36*
X44814028Y-44334864D02*
G01*
X44835109Y-44341260D01*
X44854545Y-44351648D01*
X44871576Y-44365624D01*
X44885552Y-44382655D01*
X44895940Y-44402091D01*
X44902336Y-44423172D01*
X44905100Y-44451240D01*
X44905100Y-45964960D01*
X44902336Y-45993028D01*
X44895940Y-46014109D01*
X44885552Y-46033545D01*
X44871576Y-46050576D01*
X44854545Y-46064552D01*
X44835109Y-46074940D01*
X44814028Y-46081336D01*
X44785960Y-46084100D01*
X44322240Y-46084100D01*
X44294172Y-46081336D01*
X44273091Y-46074940D01*
X44253655Y-46064552D01*
X44236624Y-46050576D01*
X44222648Y-46033545D01*
X44212260Y-46014109D01*
X44205864Y-45993028D01*
X44203100Y-45964960D01*
X44203100Y-44451240D01*
X44205864Y-44423172D01*
X44212260Y-44402091D01*
X44222648Y-44382655D01*
X44236624Y-44365624D01*
X44253655Y-44351648D01*
X44273091Y-44341260D01*
X44294172Y-44334864D01*
X44322240Y-44332100D01*
X44785960Y-44332100D01*
X44814028Y-44334864D01*
G37*
G36*
X46084028Y-44334864D02*
G01*
X46105109Y-44341260D01*
X46124545Y-44351648D01*
X46141576Y-44365624D01*
X46155552Y-44382655D01*
X46165940Y-44402091D01*
X46172336Y-44423172D01*
X46175100Y-44451240D01*
X46175100Y-45964960D01*
X46172336Y-45993028D01*
X46165940Y-46014109D01*
X46155552Y-46033545D01*
X46141576Y-46050576D01*
X46124545Y-46064552D01*
X46105109Y-46074940D01*
X46084028Y-46081336D01*
X46055960Y-46084100D01*
X45592240Y-46084100D01*
X45564172Y-46081336D01*
X45543091Y-46074940D01*
X45523655Y-46064552D01*
X45506624Y-46050576D01*
X45492648Y-46033545D01*
X45482260Y-46014109D01*
X45475864Y-45993028D01*
X45473100Y-45964960D01*
X45473100Y-44451240D01*
X45475864Y-44423172D01*
X45482260Y-44402091D01*
X45492648Y-44382655D01*
X45506624Y-44365624D01*
X45523655Y-44351648D01*
X45543091Y-44341260D01*
X45564172Y-44334864D01*
X45592240Y-44332100D01*
X46055960Y-44332100D01*
X46084028Y-44334864D01*
G37*
G36*
X47354028Y-44334864D02*
G01*
X47375109Y-44341260D01*
X47394545Y-44351648D01*
X47411576Y-44365624D01*
X47425552Y-44382655D01*
X47435940Y-44402091D01*
X47442336Y-44423172D01*
X47445100Y-44451240D01*
X47445100Y-45964960D01*
X47442336Y-45993028D01*
X47435940Y-46014109D01*
X47425552Y-46033545D01*
X47411576Y-46050576D01*
X47394545Y-46064552D01*
X47375109Y-46074940D01*
X47354028Y-46081336D01*
X47325960Y-46084100D01*
X46862240Y-46084100D01*
X46834172Y-46081336D01*
X46813091Y-46074940D01*
X46793655Y-46064552D01*
X46776624Y-46050576D01*
X46762648Y-46033545D01*
X46752260Y-46014109D01*
X46745864Y-45993028D01*
X46743100Y-45964960D01*
X46743100Y-44451240D01*
X46745864Y-44423172D01*
X46752260Y-44402091D01*
X46762648Y-44382655D01*
X46776624Y-44365624D01*
X46793655Y-44351648D01*
X46813091Y-44341260D01*
X46834172Y-44334864D01*
X46862240Y-44332100D01*
X47325960Y-44332100D01*
X47354028Y-44334864D01*
G37*
G36*
X34424418Y-43523753D02*
G01*
X34642985Y-43614287D01*
X34642987Y-43614288D01*
X34839693Y-43745722D01*
X35006978Y-43913007D01*
X35138412Y-44109713D01*
X35138413Y-44109715D01*
X35228947Y-44328282D01*
X35275100Y-44560310D01*
X35275100Y-44796890D01*
X35228947Y-45028918D01*
X35142072Y-45238652D01*
X35138412Y-45247487D01*
X35006978Y-45444193D01*
X34839693Y-45611478D01*
X34642987Y-45742912D01*
X34642986Y-45742913D01*
X34642985Y-45742913D01*
X34424418Y-45833447D01*
X34192390Y-45879600D01*
X33955810Y-45879600D01*
X33723782Y-45833447D01*
X33505215Y-45742913D01*
X33505214Y-45742913D01*
X33505213Y-45742912D01*
X33308507Y-45611478D01*
X33141222Y-45444193D01*
X33009788Y-45247487D01*
X33006128Y-45238652D01*
X32919253Y-45028918D01*
X32873100Y-44796890D01*
X32873100Y-44560310D01*
X32919253Y-44328282D01*
X33009787Y-44109715D01*
X33009788Y-44109713D01*
X33141222Y-43913007D01*
X33308507Y-43745722D01*
X33505213Y-43614288D01*
X33505215Y-43614287D01*
X33723782Y-43523753D01*
X33955810Y-43477600D01*
X34192390Y-43477600D01*
X34424418Y-43523753D01*
G37*
G36*
X27241199Y-43827537D02*
G01*
X27250808Y-43830452D01*
X27259672Y-43835190D01*
X27267437Y-43841563D01*
X27277648Y-43854006D01*
X27284578Y-43864375D01*
X27301905Y-43881702D01*
X27322280Y-43895315D01*
X27344920Y-43904691D01*
X27368953Y-43909471D01*
X27393457Y-43909470D01*
X27417490Y-43904688D01*
X27440129Y-43895310D01*
X27460502Y-43881695D01*
X27477829Y-43864368D01*
X27484758Y-43853998D01*
X27494963Y-43841563D01*
X27502728Y-43835190D01*
X27511592Y-43830452D01*
X27521201Y-43827537D01*
X27537340Y-43825948D01*
X28025061Y-43825948D01*
X28043399Y-43827754D01*
X28055650Y-43828356D01*
X28074069Y-43828356D01*
X28096349Y-43830550D01*
X28180433Y-43847276D01*
X28201860Y-43853776D01*
X28281058Y-43886580D01*
X28286503Y-43889491D01*
X28286509Y-43889493D01*
X28295369Y-43894229D01*
X28295373Y-43894232D01*
X28300814Y-43897140D01*
X28372099Y-43944771D01*
X28389404Y-43958972D01*
X28450028Y-44019596D01*
X28464229Y-44036901D01*
X28511860Y-44108186D01*
X28514768Y-44113627D01*
X28514771Y-44113631D01*
X28519507Y-44122491D01*
X28519509Y-44122497D01*
X28522420Y-44127942D01*
X28555224Y-44207140D01*
X28561724Y-44228567D01*
X28578450Y-44312651D01*
X28580644Y-44334931D01*
X28580644Y-44353350D01*
X28581246Y-44365601D01*
X28583052Y-44383939D01*
X28583052Y-44871662D01*
X28581246Y-44889999D01*
X28580644Y-44902250D01*
X28580644Y-44920669D01*
X28578450Y-44942949D01*
X28561724Y-45027033D01*
X28555224Y-45048460D01*
X28522420Y-45127658D01*
X28519509Y-45133103D01*
X28519507Y-45133109D01*
X28514771Y-45141969D01*
X28514768Y-45141973D01*
X28511860Y-45147414D01*
X28464229Y-45218699D01*
X28450028Y-45236004D01*
X28389404Y-45296628D01*
X28372099Y-45310829D01*
X28300814Y-45358460D01*
X28295373Y-45361368D01*
X28295369Y-45361371D01*
X28286509Y-45366107D01*
X28286503Y-45366109D01*
X28281058Y-45369020D01*
X28201860Y-45401824D01*
X28180433Y-45408324D01*
X28096349Y-45425050D01*
X28074069Y-45427244D01*
X28055650Y-45427244D01*
X28043399Y-45427846D01*
X28025062Y-45429652D01*
X27537340Y-45429652D01*
X27521201Y-45428063D01*
X27511592Y-45425148D01*
X27502728Y-45420410D01*
X27494963Y-45414037D01*
X27484752Y-45401594D01*
X27477822Y-45391225D01*
X27460495Y-45373898D01*
X27440120Y-45360285D01*
X27417480Y-45350909D01*
X27393447Y-45346129D01*
X27368943Y-45346130D01*
X27344910Y-45350912D01*
X27322271Y-45360290D01*
X27301898Y-45373905D01*
X27284571Y-45391232D01*
X27277642Y-45401602D01*
X27267437Y-45414037D01*
X27259672Y-45420410D01*
X27250808Y-45425148D01*
X27241199Y-45428063D01*
X27225060Y-45429652D01*
X26737338Y-45429652D01*
X26719001Y-45427846D01*
X26706750Y-45427244D01*
X26688331Y-45427244D01*
X26666051Y-45425050D01*
X26581967Y-45408324D01*
X26560540Y-45401824D01*
X26481342Y-45369020D01*
X26475897Y-45366109D01*
X26475891Y-45366107D01*
X26467031Y-45361371D01*
X26467027Y-45361368D01*
X26461586Y-45358460D01*
X26390301Y-45310829D01*
X26372996Y-45296628D01*
X26312372Y-45236004D01*
X26298171Y-45218699D01*
X26250540Y-45147414D01*
X26247632Y-45141973D01*
X26247629Y-45141969D01*
X26242893Y-45133109D01*
X26242891Y-45133103D01*
X26239980Y-45127658D01*
X26207176Y-45048460D01*
X26200676Y-45027033D01*
X26183950Y-44942949D01*
X26181756Y-44920669D01*
X26181756Y-44902250D01*
X26181154Y-44889999D01*
X26179348Y-44871662D01*
X26179348Y-44383938D01*
X26181154Y-44365601D01*
X26181756Y-44353350D01*
X26181756Y-44334931D01*
X26183950Y-44312651D01*
X26200676Y-44228567D01*
X26207176Y-44207140D01*
X26239980Y-44127942D01*
X26242891Y-44122497D01*
X26242893Y-44122491D01*
X26247629Y-44113631D01*
X26247632Y-44113627D01*
X26250540Y-44108186D01*
X26298171Y-44036901D01*
X26312372Y-44019596D01*
X26372996Y-43958972D01*
X26390301Y-43944771D01*
X26461586Y-43897140D01*
X26467027Y-43894232D01*
X26467031Y-43894229D01*
X26475891Y-43889493D01*
X26475897Y-43889491D01*
X26481342Y-43886580D01*
X26560540Y-43853776D01*
X26581967Y-43847276D01*
X26666051Y-43830550D01*
X26688331Y-43828356D01*
X26706750Y-43828356D01*
X26719001Y-43827754D01*
X26737339Y-43825948D01*
X27225060Y-43825948D01*
X27241199Y-43827537D01*
G37*
G36*
X51871274Y-43146365D02*
G01*
X51908967Y-43157799D01*
X51943703Y-43176366D01*
X51974148Y-43201352D01*
X51999134Y-43231797D01*
X52017701Y-43266533D01*
X52029135Y-43304226D01*
X52033600Y-43349561D01*
X52033600Y-44186239D01*
X52029135Y-44231574D01*
X52017701Y-44269267D01*
X51999134Y-44304003D01*
X51974148Y-44334448D01*
X51943703Y-44359434D01*
X51908967Y-44378001D01*
X51871274Y-44389435D01*
X51825939Y-44393900D01*
X50739261Y-44393900D01*
X50693926Y-44389435D01*
X50656233Y-44378001D01*
X50621497Y-44359434D01*
X50591052Y-44334448D01*
X50566066Y-44304003D01*
X50547499Y-44269267D01*
X50536065Y-44231574D01*
X50531600Y-44186239D01*
X50531600Y-43349561D01*
X50536065Y-43304226D01*
X50547499Y-43266533D01*
X50566066Y-43231797D01*
X50591052Y-43201352D01*
X50621497Y-43176366D01*
X50656233Y-43157799D01*
X50693926Y-43146365D01*
X50739261Y-43141900D01*
X51825939Y-43141900D01*
X51871274Y-43146365D01*
G37*
G36*
X49623374Y-43133665D02*
G01*
X49661067Y-43145099D01*
X49695803Y-43163666D01*
X49726248Y-43188652D01*
X49751234Y-43219097D01*
X49769801Y-43253833D01*
X49781235Y-43291526D01*
X49785700Y-43336861D01*
X49785700Y-44173539D01*
X49781235Y-44218874D01*
X49769801Y-44256567D01*
X49751234Y-44291303D01*
X49726248Y-44321748D01*
X49695803Y-44346734D01*
X49661067Y-44365301D01*
X49623374Y-44376735D01*
X49578039Y-44381200D01*
X48491361Y-44381200D01*
X48446026Y-44376735D01*
X48408333Y-44365301D01*
X48373597Y-44346734D01*
X48343152Y-44321748D01*
X48318166Y-44291303D01*
X48299599Y-44256567D01*
X48288165Y-44218874D01*
X48283700Y-44173539D01*
X48283700Y-43336861D01*
X48288165Y-43291526D01*
X48299599Y-43253833D01*
X48318166Y-43219097D01*
X48343152Y-43188652D01*
X48373597Y-43163666D01*
X48408333Y-43145099D01*
X48446026Y-43133665D01*
X48491361Y-43129200D01*
X49578039Y-43129200D01*
X49623374Y-43133665D01*
G37*
G36*
X31833618Y-41974353D02*
G01*
X32026203Y-42054125D01*
X32052187Y-42064888D01*
X32248893Y-42196322D01*
X32416178Y-42363607D01*
X32538427Y-42546567D01*
X32547613Y-42560315D01*
X32638147Y-42778882D01*
X32684300Y-43010910D01*
X32684300Y-43247490D01*
X32638147Y-43479518D01*
X32582323Y-43614287D01*
X32547612Y-43698087D01*
X32416178Y-43894793D01*
X32248893Y-44062078D01*
X32052187Y-44193512D01*
X32052186Y-44193513D01*
X32052185Y-44193513D01*
X31833618Y-44284047D01*
X31601590Y-44330200D01*
X31365010Y-44330200D01*
X31132982Y-44284047D01*
X30914415Y-44193513D01*
X30914414Y-44193513D01*
X30914413Y-44193512D01*
X30717707Y-44062078D01*
X30550422Y-43894793D01*
X30418988Y-43698087D01*
X30384277Y-43614287D01*
X30328453Y-43479518D01*
X30282300Y-43247490D01*
X30282300Y-43010910D01*
X30328453Y-42778882D01*
X30418987Y-42560315D01*
X30428173Y-42546567D01*
X30550422Y-42363607D01*
X30717707Y-42196322D01*
X30914413Y-42064888D01*
X30940397Y-42054125D01*
X31132982Y-41974353D01*
X31365010Y-41928200D01*
X31601590Y-41928200D01*
X31833618Y-41974353D01*
G37*
G36*
X42016074Y-42841565D02*
G01*
X42053767Y-42852999D01*
X42088503Y-42871566D01*
X42118948Y-42896552D01*
X42143934Y-42926997D01*
X42162501Y-42961733D01*
X42173935Y-42999426D01*
X42178400Y-43044761D01*
X42178400Y-43881439D01*
X42173935Y-43926774D01*
X42162501Y-43964467D01*
X42143934Y-43999203D01*
X42118948Y-44029648D01*
X42088503Y-44054634D01*
X42053767Y-44073201D01*
X42016074Y-44084635D01*
X41970739Y-44089100D01*
X40884061Y-44089100D01*
X40838726Y-44084635D01*
X40801033Y-44073201D01*
X40766297Y-44054634D01*
X40735852Y-44029648D01*
X40710866Y-43999203D01*
X40692299Y-43964467D01*
X40680865Y-43926774D01*
X40676400Y-43881439D01*
X40676400Y-43044761D01*
X40680865Y-42999426D01*
X40692299Y-42961733D01*
X40710866Y-42926997D01*
X40735852Y-42896552D01*
X40766297Y-42871566D01*
X40801033Y-42852999D01*
X40838726Y-42841565D01*
X40884061Y-42837100D01*
X41970739Y-42837100D01*
X42016074Y-42841565D01*
G37*
G36*
X27241199Y-41224037D02*
G01*
X27250808Y-41226952D01*
X27259672Y-41231690D01*
X27267437Y-41238063D01*
X27277648Y-41250506D01*
X27284578Y-41260875D01*
X27301905Y-41278202D01*
X27322280Y-41291815D01*
X27344920Y-41301191D01*
X27368953Y-41305971D01*
X27393457Y-41305970D01*
X27417490Y-41301188D01*
X27440129Y-41291810D01*
X27460502Y-41278195D01*
X27477829Y-41260868D01*
X27484758Y-41250498D01*
X27494963Y-41238063D01*
X27502728Y-41231690D01*
X27511592Y-41226952D01*
X27521201Y-41224037D01*
X27537340Y-41222448D01*
X28025061Y-41222448D01*
X28043399Y-41224254D01*
X28055650Y-41224856D01*
X28074069Y-41224856D01*
X28096349Y-41227050D01*
X28180433Y-41243776D01*
X28201860Y-41250276D01*
X28281058Y-41283080D01*
X28286503Y-41285991D01*
X28286509Y-41285993D01*
X28295369Y-41290729D01*
X28295373Y-41290732D01*
X28300814Y-41293640D01*
X28372099Y-41341271D01*
X28389404Y-41355472D01*
X28450028Y-41416096D01*
X28464229Y-41433401D01*
X28511860Y-41504686D01*
X28514768Y-41510127D01*
X28514771Y-41510131D01*
X28519507Y-41518991D01*
X28519509Y-41518997D01*
X28522420Y-41524442D01*
X28555224Y-41603640D01*
X28561724Y-41625067D01*
X28578450Y-41709151D01*
X28580644Y-41731431D01*
X28580644Y-41749850D01*
X28581246Y-41762101D01*
X28583052Y-41780439D01*
X28583052Y-42268162D01*
X28581246Y-42286499D01*
X28580644Y-42298750D01*
X28580644Y-42317169D01*
X28578450Y-42339449D01*
X28561724Y-42423533D01*
X28555224Y-42444960D01*
X28522420Y-42524158D01*
X28519509Y-42529603D01*
X28519507Y-42529609D01*
X28514771Y-42538469D01*
X28514768Y-42538473D01*
X28511860Y-42543914D01*
X28464229Y-42615199D01*
X28450028Y-42632504D01*
X28389404Y-42693128D01*
X28372099Y-42707329D01*
X28300814Y-42754960D01*
X28295373Y-42757868D01*
X28295369Y-42757871D01*
X28286509Y-42762607D01*
X28286503Y-42762609D01*
X28281058Y-42765520D01*
X28201860Y-42798324D01*
X28180433Y-42804824D01*
X28096349Y-42821550D01*
X28074069Y-42823744D01*
X28055650Y-42823744D01*
X28043399Y-42824346D01*
X28025062Y-42826152D01*
X27537340Y-42826152D01*
X27521201Y-42824563D01*
X27511592Y-42821648D01*
X27502728Y-42816910D01*
X27494963Y-42810537D01*
X27484752Y-42798094D01*
X27477822Y-42787725D01*
X27460495Y-42770398D01*
X27440120Y-42756785D01*
X27417480Y-42747409D01*
X27393447Y-42742629D01*
X27368943Y-42742630D01*
X27344910Y-42747412D01*
X27322271Y-42756790D01*
X27301898Y-42770405D01*
X27284571Y-42787732D01*
X27277642Y-42798102D01*
X27267437Y-42810537D01*
X27259672Y-42816910D01*
X27250808Y-42821648D01*
X27241199Y-42824563D01*
X27225060Y-42826152D01*
X26737338Y-42826152D01*
X26719001Y-42824346D01*
X26706750Y-42823744D01*
X26688331Y-42823744D01*
X26666051Y-42821550D01*
X26581967Y-42804824D01*
X26560540Y-42798324D01*
X26481342Y-42765520D01*
X26475897Y-42762609D01*
X26475891Y-42762607D01*
X26467031Y-42757871D01*
X26467027Y-42757868D01*
X26461586Y-42754960D01*
X26390301Y-42707329D01*
X26372996Y-42693128D01*
X26312372Y-42632504D01*
X26298171Y-42615199D01*
X26250540Y-42543914D01*
X26247632Y-42538473D01*
X26247629Y-42538469D01*
X26242893Y-42529609D01*
X26242891Y-42529603D01*
X26239980Y-42524158D01*
X26207176Y-42444960D01*
X26200676Y-42423533D01*
X26183950Y-42339449D01*
X26181756Y-42317169D01*
X26181756Y-42298750D01*
X26181154Y-42286499D01*
X26179348Y-42268162D01*
X26179348Y-41780438D01*
X26181154Y-41762101D01*
X26181756Y-41749850D01*
X26181756Y-41731431D01*
X26183950Y-41709151D01*
X26200676Y-41625067D01*
X26207176Y-41603640D01*
X26239980Y-41524442D01*
X26242891Y-41518997D01*
X26242893Y-41518991D01*
X26247629Y-41510131D01*
X26247632Y-41510127D01*
X26250540Y-41504686D01*
X26298171Y-41433401D01*
X26312372Y-41416096D01*
X26372996Y-41355472D01*
X26390301Y-41341271D01*
X26461586Y-41293640D01*
X26467027Y-41290732D01*
X26467031Y-41290729D01*
X26475891Y-41285993D01*
X26475897Y-41285991D01*
X26481342Y-41283080D01*
X26560540Y-41250276D01*
X26581967Y-41243776D01*
X26666051Y-41227050D01*
X26688331Y-41224856D01*
X26706750Y-41224856D01*
X26719001Y-41224254D01*
X26737339Y-41222448D01*
X27225060Y-41222448D01*
X27241199Y-41224037D01*
G37*
G36*
X34719274Y-41173665D02*
G01*
X34756967Y-41185099D01*
X34791703Y-41203666D01*
X34822148Y-41228652D01*
X34847134Y-41259097D01*
X34865701Y-41293833D01*
X34877135Y-41331526D01*
X34881600Y-41376861D01*
X34881600Y-42463539D01*
X34877135Y-42508874D01*
X34865701Y-42546567D01*
X34847134Y-42581303D01*
X34822148Y-42611748D01*
X34791703Y-42636734D01*
X34756967Y-42655301D01*
X34719274Y-42666735D01*
X34673939Y-42671200D01*
X33837261Y-42671200D01*
X33791926Y-42666735D01*
X33754233Y-42655301D01*
X33719497Y-42636734D01*
X33689052Y-42611748D01*
X33664066Y-42581303D01*
X33645499Y-42546567D01*
X33634065Y-42508874D01*
X33629600Y-42463539D01*
X33629600Y-41376861D01*
X33634065Y-41331526D01*
X33645499Y-41293833D01*
X33664066Y-41259097D01*
X33689052Y-41228652D01*
X33719497Y-41203666D01*
X33754233Y-41185099D01*
X33791926Y-41173665D01*
X33837261Y-41169200D01*
X34673939Y-41169200D01*
X34719274Y-41173665D01*
G37*
G36*
X36769274Y-41173665D02*
G01*
X36806967Y-41185099D01*
X36841703Y-41203666D01*
X36872148Y-41228652D01*
X36897134Y-41259097D01*
X36915701Y-41293833D01*
X36927135Y-41331526D01*
X36931600Y-41376861D01*
X36931600Y-42463539D01*
X36927135Y-42508874D01*
X36915701Y-42546567D01*
X36897134Y-42581303D01*
X36872148Y-42611748D01*
X36841703Y-42636734D01*
X36806967Y-42655301D01*
X36769274Y-42666735D01*
X36723939Y-42671200D01*
X35887261Y-42671200D01*
X35841926Y-42666735D01*
X35804233Y-42655301D01*
X35769497Y-42636734D01*
X35739052Y-42611748D01*
X35714066Y-42581303D01*
X35695499Y-42546567D01*
X35684065Y-42508874D01*
X35679600Y-42463539D01*
X35679600Y-41376861D01*
X35684065Y-41331526D01*
X35695499Y-41293833D01*
X35714066Y-41259097D01*
X35739052Y-41228652D01*
X35769497Y-41203666D01*
X35804233Y-41185099D01*
X35841926Y-41173665D01*
X35887261Y-41169200D01*
X36723939Y-41169200D01*
X36769274Y-41173665D01*
G37*
G36*
X39352018Y-40297953D02*
G01*
X39570585Y-40388487D01*
X39570587Y-40388488D01*
X39767293Y-40519922D01*
X39934578Y-40687207D01*
X40030475Y-40830728D01*
X40066013Y-40883915D01*
X40156547Y-41102482D01*
X40202700Y-41334510D01*
X40202700Y-41571090D01*
X40156547Y-41803118D01*
X40085618Y-41974354D01*
X40066012Y-42021687D01*
X39934578Y-42218393D01*
X39767293Y-42385678D01*
X39570587Y-42517112D01*
X39570586Y-42517113D01*
X39570585Y-42517113D01*
X39352018Y-42607647D01*
X39119990Y-42653800D01*
X38883410Y-42653800D01*
X38651382Y-42607647D01*
X38432815Y-42517113D01*
X38432814Y-42517113D01*
X38432813Y-42517112D01*
X38236107Y-42385678D01*
X38068822Y-42218393D01*
X37937388Y-42021687D01*
X37917782Y-41974354D01*
X37846853Y-41803118D01*
X37800700Y-41571090D01*
X37800700Y-41334510D01*
X37846853Y-41102482D01*
X37937387Y-40883915D01*
X37972925Y-40830728D01*
X38068822Y-40687207D01*
X38236107Y-40519922D01*
X38432813Y-40388488D01*
X38432815Y-40388487D01*
X38651382Y-40297953D01*
X38883410Y-40251800D01*
X39119990Y-40251800D01*
X39352018Y-40297953D01*
G37*
G36*
X42021174Y-41025665D02*
G01*
X42058867Y-41037099D01*
X42093603Y-41055666D01*
X42124048Y-41080652D01*
X42149034Y-41111097D01*
X42167601Y-41145833D01*
X42179035Y-41183526D01*
X42183500Y-41228861D01*
X42183500Y-42065539D01*
X42179035Y-42110874D01*
X42167601Y-42148567D01*
X42149034Y-42183303D01*
X42124048Y-42213748D01*
X42093603Y-42238734D01*
X42058867Y-42257301D01*
X42021174Y-42268735D01*
X41975839Y-42273200D01*
X40889161Y-42273200D01*
X40843826Y-42268735D01*
X40806133Y-42257301D01*
X40771397Y-42238734D01*
X40740952Y-42213748D01*
X40715966Y-42183303D01*
X40697399Y-42148567D01*
X40685965Y-42110874D01*
X40681500Y-42065539D01*
X40681500Y-41228861D01*
X40685965Y-41183526D01*
X40697399Y-41145833D01*
X40715966Y-41111097D01*
X40740952Y-41080652D01*
X40771397Y-41055666D01*
X40806133Y-41037099D01*
X40843826Y-41025665D01*
X40889161Y-41021200D01*
X41975839Y-41021200D01*
X42021174Y-41025665D01*
G37*
G36*
X51061418Y-39129553D02*
G01*
X51279985Y-39220087D01*
X51279987Y-39220088D01*
X51476693Y-39351522D01*
X51643978Y-39518807D01*
X51775412Y-39715513D01*
X51775413Y-39715515D01*
X51865947Y-39934082D01*
X51912100Y-40166110D01*
X51912100Y-40402690D01*
X51865947Y-40634718D01*
X51783360Y-40834100D01*
X51775412Y-40853287D01*
X51643978Y-41049993D01*
X51476693Y-41217278D01*
X51279987Y-41348712D01*
X51279986Y-41348713D01*
X51279985Y-41348713D01*
X51061418Y-41439247D01*
X50829390Y-41485400D01*
X50592810Y-41485400D01*
X50360782Y-41439247D01*
X50142215Y-41348713D01*
X50142214Y-41348713D01*
X50142213Y-41348712D01*
X49945507Y-41217278D01*
X49778222Y-41049993D01*
X49646788Y-40853287D01*
X49638840Y-40834100D01*
X49556253Y-40634718D01*
X49510100Y-40402690D01*
X49510100Y-40166110D01*
X49556253Y-39934082D01*
X49646787Y-39715515D01*
X49646788Y-39715513D01*
X49778222Y-39518807D01*
X49945507Y-39351522D01*
X50142213Y-39220088D01*
X50142215Y-39220087D01*
X50360782Y-39129553D01*
X50592810Y-39083400D01*
X50829390Y-39083400D01*
X51061418Y-39129553D01*
G37*
G36*
X43544028Y-39084864D02*
G01*
X43565109Y-39091260D01*
X43584545Y-39101648D01*
X43601576Y-39115624D01*
X43615552Y-39132655D01*
X43625940Y-39152091D01*
X43632336Y-39173172D01*
X43635100Y-39201240D01*
X43635100Y-40714960D01*
X43632336Y-40743028D01*
X43625940Y-40764109D01*
X43615552Y-40783545D01*
X43601576Y-40800576D01*
X43584545Y-40814552D01*
X43565109Y-40824940D01*
X43544028Y-40831336D01*
X43515960Y-40834100D01*
X43052240Y-40834100D01*
X43024172Y-40831336D01*
X43003091Y-40824940D01*
X42983655Y-40814552D01*
X42966624Y-40800576D01*
X42952648Y-40783545D01*
X42942260Y-40764109D01*
X42935864Y-40743028D01*
X42933100Y-40714960D01*
X42933100Y-39201240D01*
X42935864Y-39173172D01*
X42942260Y-39152091D01*
X42952648Y-39132655D01*
X42966624Y-39115624D01*
X42983655Y-39101648D01*
X43003091Y-39091260D01*
X43024172Y-39084864D01*
X43052240Y-39082100D01*
X43515960Y-39082100D01*
X43544028Y-39084864D01*
G37*
G36*
X44814028Y-39084864D02*
G01*
X44835109Y-39091260D01*
X44854545Y-39101648D01*
X44871576Y-39115624D01*
X44885552Y-39132655D01*
X44895940Y-39152091D01*
X44902336Y-39173172D01*
X44905100Y-39201240D01*
X44905100Y-40714960D01*
X44902336Y-40743028D01*
X44895940Y-40764109D01*
X44885552Y-40783545D01*
X44871576Y-40800576D01*
X44854545Y-40814552D01*
X44835109Y-40824940D01*
X44814028Y-40831336D01*
X44785960Y-40834100D01*
X44322240Y-40834100D01*
X44294172Y-40831336D01*
X44273091Y-40824940D01*
X44253655Y-40814552D01*
X44236624Y-40800576D01*
X44222648Y-40783545D01*
X44212260Y-40764109D01*
X44205864Y-40743028D01*
X44203100Y-40714960D01*
X44203100Y-39201240D01*
X44205864Y-39173172D01*
X44212260Y-39152091D01*
X44222648Y-39132655D01*
X44236624Y-39115624D01*
X44253655Y-39101648D01*
X44273091Y-39091260D01*
X44294172Y-39084864D01*
X44322240Y-39082100D01*
X44785960Y-39082100D01*
X44814028Y-39084864D01*
G37*
G36*
X47354028Y-39084864D02*
G01*
X47375109Y-39091260D01*
X47394545Y-39101648D01*
X47411576Y-39115624D01*
X47425552Y-39132655D01*
X47435940Y-39152091D01*
X47442336Y-39173172D01*
X47445100Y-39201240D01*
X47445100Y-40714960D01*
X47442336Y-40743028D01*
X47435940Y-40764109D01*
X47425552Y-40783545D01*
X47411576Y-40800576D01*
X47394545Y-40814552D01*
X47375109Y-40824940D01*
X47354028Y-40831336D01*
X47325960Y-40834100D01*
X46862240Y-40834100D01*
X46834172Y-40831336D01*
X46813091Y-40824940D01*
X46793655Y-40814552D01*
X46776624Y-40800576D01*
X46762648Y-40783545D01*
X46752260Y-40764109D01*
X46745864Y-40743028D01*
X46743100Y-40714960D01*
X46743100Y-39201240D01*
X46745864Y-39173172D01*
X46752260Y-39152091D01*
X46762648Y-39132655D01*
X46776624Y-39115624D01*
X46793655Y-39101648D01*
X46813091Y-39091260D01*
X46834172Y-39084864D01*
X46862240Y-39082100D01*
X47325960Y-39082100D01*
X47354028Y-39084864D01*
G37*
G36*
X46084028Y-39084864D02*
G01*
X46105109Y-39091260D01*
X46124545Y-39101648D01*
X46141576Y-39115624D01*
X46155552Y-39132655D01*
X46165940Y-39152091D01*
X46172336Y-39173172D01*
X46175100Y-39201240D01*
X46175100Y-40714960D01*
X46172336Y-40743028D01*
X46165940Y-40764109D01*
X46155552Y-40783545D01*
X46141576Y-40800576D01*
X46124545Y-40814552D01*
X46105109Y-40824940D01*
X46084028Y-40831336D01*
X46055960Y-40834100D01*
X45592240Y-40834100D01*
X45564172Y-40831336D01*
X45543091Y-40824940D01*
X45523655Y-40814552D01*
X45506624Y-40800576D01*
X45492648Y-40783545D01*
X45482260Y-40764109D01*
X45475864Y-40743028D01*
X45473100Y-40714960D01*
X45473100Y-39201240D01*
X45475864Y-39173172D01*
X45482260Y-39152091D01*
X45492648Y-39132655D01*
X45506624Y-39115624D01*
X45523655Y-39101648D01*
X45543091Y-39091260D01*
X45564172Y-39084864D01*
X45592240Y-39082100D01*
X46055960Y-39082100D01*
X46084028Y-39084864D01*
G37*
G36*
X42021174Y-38975665D02*
G01*
X42058867Y-38987099D01*
X42093603Y-39005666D01*
X42124048Y-39030652D01*
X42149034Y-39061097D01*
X42167601Y-39095833D01*
X42179035Y-39133526D01*
X42183500Y-39178861D01*
X42183500Y-40015539D01*
X42179035Y-40060874D01*
X42167601Y-40098567D01*
X42149034Y-40133303D01*
X42124048Y-40163748D01*
X42093603Y-40188734D01*
X42058867Y-40207301D01*
X42021174Y-40218735D01*
X41975839Y-40223200D01*
X40889161Y-40223200D01*
X40843826Y-40218735D01*
X40806133Y-40207301D01*
X40771397Y-40188734D01*
X40740952Y-40163748D01*
X40715966Y-40133303D01*
X40697399Y-40098567D01*
X40685965Y-40060874D01*
X40681500Y-40015539D01*
X40681500Y-39178861D01*
X40685965Y-39133526D01*
X40697399Y-39095833D01*
X40715966Y-39061097D01*
X40740952Y-39030652D01*
X40771397Y-39005666D01*
X40806133Y-38987099D01*
X40843826Y-38975665D01*
X40889161Y-38971200D01*
X41975839Y-38971200D01*
X42021174Y-38975665D01*
G37*
G36*
X37451028Y-39308764D02*
G01*
X37472109Y-39315160D01*
X37491545Y-39325548D01*
X37508576Y-39339524D01*
X37522552Y-39356555D01*
X37532940Y-39375991D01*
X37539336Y-39397072D01*
X37542100Y-39425140D01*
X37542100Y-39888860D01*
X37539336Y-39916928D01*
X37532940Y-39938009D01*
X37522552Y-39957445D01*
X37508576Y-39974476D01*
X37491545Y-39988452D01*
X37472109Y-39998840D01*
X37451028Y-40005236D01*
X37422960Y-40008000D01*
X35909240Y-40008000D01*
X35881172Y-40005236D01*
X35860091Y-39998840D01*
X35840655Y-39988452D01*
X35823624Y-39974476D01*
X35809648Y-39957445D01*
X35799260Y-39938009D01*
X35792864Y-39916928D01*
X35790100Y-39888860D01*
X35790100Y-39425140D01*
X35792864Y-39397072D01*
X35799260Y-39375991D01*
X35809648Y-39356555D01*
X35823624Y-39339524D01*
X35840655Y-39325548D01*
X35860091Y-39315160D01*
X35881172Y-39308764D01*
X35909240Y-39306000D01*
X37422960Y-39306000D01*
X37451028Y-39308764D01*
G37*
G36*
X32201028Y-39308764D02*
G01*
X32222109Y-39315160D01*
X32241545Y-39325548D01*
X32258576Y-39339524D01*
X32272552Y-39356555D01*
X32282940Y-39375991D01*
X32289336Y-39397072D01*
X32292100Y-39425140D01*
X32292100Y-39888860D01*
X32289336Y-39916928D01*
X32282940Y-39938009D01*
X32272552Y-39957445D01*
X32258576Y-39974476D01*
X32241545Y-39988452D01*
X32222109Y-39998840D01*
X32201028Y-40005236D01*
X32172960Y-40008000D01*
X30659240Y-40008000D01*
X30631172Y-40005236D01*
X30610091Y-39998840D01*
X30590655Y-39988452D01*
X30573624Y-39974476D01*
X30559648Y-39957445D01*
X30549260Y-39938009D01*
X30542864Y-39916928D01*
X30540100Y-39888860D01*
X30540100Y-39425140D01*
X30542864Y-39397072D01*
X30549260Y-39375991D01*
X30559648Y-39356555D01*
X30573624Y-39339524D01*
X30590655Y-39325548D01*
X30610091Y-39315160D01*
X30631172Y-39308764D01*
X30659240Y-39306000D01*
X32172960Y-39306000D01*
X32201028Y-39308764D01*
G37*
G36*
X28963418Y-37097553D02*
G01*
X29173506Y-37184575D01*
X29181987Y-37188088D01*
X29378693Y-37319522D01*
X29545978Y-37486807D01*
X29659404Y-37656562D01*
X29677413Y-37683515D01*
X29767947Y-37902082D01*
X29814100Y-38134110D01*
X29814100Y-38370690D01*
X29767947Y-38602718D01*
X29713056Y-38735236D01*
X29677412Y-38821287D01*
X29545978Y-39017993D01*
X29378693Y-39185278D01*
X29181987Y-39316712D01*
X29181986Y-39316713D01*
X29181985Y-39316713D01*
X28963418Y-39407247D01*
X28731390Y-39453400D01*
X28494810Y-39453400D01*
X28262782Y-39407247D01*
X28044215Y-39316713D01*
X28044214Y-39316713D01*
X28044213Y-39316712D01*
X27847507Y-39185278D01*
X27680222Y-39017993D01*
X27548788Y-38821287D01*
X27513144Y-38735236D01*
X27458253Y-38602718D01*
X27412100Y-38370690D01*
X27412100Y-38134110D01*
X27458253Y-37902082D01*
X27548787Y-37683515D01*
X27566796Y-37656562D01*
X27680222Y-37486807D01*
X27847507Y-37319522D01*
X28044213Y-37188088D01*
X28052694Y-37184575D01*
X28262782Y-37097553D01*
X28494810Y-37051400D01*
X28731390Y-37051400D01*
X28963418Y-37097553D01*
G37*
G36*
X37451028Y-38038764D02*
G01*
X37472109Y-38045160D01*
X37491545Y-38055548D01*
X37508576Y-38069524D01*
X37522552Y-38086555D01*
X37532940Y-38105991D01*
X37539336Y-38127072D01*
X37542100Y-38155140D01*
X37542100Y-38618860D01*
X37539336Y-38646928D01*
X37532940Y-38668009D01*
X37522552Y-38687445D01*
X37508576Y-38704476D01*
X37491545Y-38718452D01*
X37472109Y-38728840D01*
X37451028Y-38735236D01*
X37422960Y-38738000D01*
X35909240Y-38738000D01*
X35881172Y-38735236D01*
X35860091Y-38728840D01*
X35840655Y-38718452D01*
X35823624Y-38704476D01*
X35809648Y-38687445D01*
X35799260Y-38668009D01*
X35792864Y-38646928D01*
X35790100Y-38618860D01*
X35790100Y-38155140D01*
X35792864Y-38127072D01*
X35799260Y-38105991D01*
X35809648Y-38086555D01*
X35823624Y-38069524D01*
X35840655Y-38055548D01*
X35860091Y-38045160D01*
X35881172Y-38038764D01*
X35909240Y-38036000D01*
X37422960Y-38036000D01*
X37451028Y-38038764D01*
G37*
G36*
X32201028Y-38038764D02*
G01*
X32222109Y-38045160D01*
X32241545Y-38055548D01*
X32258576Y-38069524D01*
X32272552Y-38086555D01*
X32282940Y-38105991D01*
X32289336Y-38127072D01*
X32292100Y-38155140D01*
X32292100Y-38618860D01*
X32289336Y-38646928D01*
X32282940Y-38668009D01*
X32272552Y-38687445D01*
X32258576Y-38704476D01*
X32241545Y-38718452D01*
X32222109Y-38728840D01*
X32201028Y-38735236D01*
X32172960Y-38738000D01*
X30659240Y-38738000D01*
X30631172Y-38735236D01*
X30610091Y-38728840D01*
X30590655Y-38718452D01*
X30573624Y-38704476D01*
X30559648Y-38687445D01*
X30549260Y-38668009D01*
X30542864Y-38646928D01*
X30540100Y-38618860D01*
X30540100Y-38155140D01*
X30542864Y-38127072D01*
X30549260Y-38105991D01*
X30559648Y-38086555D01*
X30573624Y-38069524D01*
X30590655Y-38055548D01*
X30610091Y-38045160D01*
X30631172Y-38038764D01*
X30659240Y-38036000D01*
X32172960Y-38036000D01*
X32201028Y-38038764D01*
G37*
G36*
X51990674Y-37228365D02*
G01*
X52028367Y-37239799D01*
X52063103Y-37258366D01*
X52093548Y-37283352D01*
X52118534Y-37313797D01*
X52137101Y-37348533D01*
X52148535Y-37386226D01*
X52153000Y-37431561D01*
X52153000Y-38268239D01*
X52148535Y-38313574D01*
X52137101Y-38351267D01*
X52118534Y-38386003D01*
X52093548Y-38416448D01*
X52063103Y-38441434D01*
X52028367Y-38460001D01*
X51990674Y-38471435D01*
X51945339Y-38475900D01*
X50858661Y-38475900D01*
X50813326Y-38471435D01*
X50775633Y-38460001D01*
X50740897Y-38441434D01*
X50710452Y-38416448D01*
X50685466Y-38386003D01*
X50666899Y-38351267D01*
X50655465Y-38313574D01*
X50651000Y-38268239D01*
X50651000Y-37431561D01*
X50655465Y-37386226D01*
X50666899Y-37348533D01*
X50685466Y-37313797D01*
X50710452Y-37283352D01*
X50740897Y-37258366D01*
X50775633Y-37239799D01*
X50813326Y-37228365D01*
X50858661Y-37223900D01*
X51945339Y-37223900D01*
X51990674Y-37228365D01*
G37*
G36*
X49286374Y-36969965D02*
G01*
X49324067Y-36981399D01*
X49358803Y-36999966D01*
X49389248Y-37024952D01*
X49414234Y-37055397D01*
X49432801Y-37090133D01*
X49444235Y-37127826D01*
X49448700Y-37173161D01*
X49448700Y-38259839D01*
X49444235Y-38305174D01*
X49432801Y-38342867D01*
X49414234Y-38377603D01*
X49389248Y-38408048D01*
X49358803Y-38433034D01*
X49324067Y-38451601D01*
X49286374Y-38463035D01*
X49241039Y-38467500D01*
X48404361Y-38467500D01*
X48359026Y-38463035D01*
X48321333Y-38451601D01*
X48286597Y-38433034D01*
X48256152Y-38408048D01*
X48231166Y-38377603D01*
X48212599Y-38342867D01*
X48201165Y-38305174D01*
X48196700Y-38259839D01*
X48196700Y-37173161D01*
X48201165Y-37127826D01*
X48212599Y-37090133D01*
X48231166Y-37055397D01*
X48256152Y-37024952D01*
X48286597Y-36999966D01*
X48321333Y-36981399D01*
X48359026Y-36969965D01*
X48404361Y-36965500D01*
X49241039Y-36965500D01*
X49286374Y-36969965D01*
G37*
G36*
X47236374Y-36969965D02*
G01*
X47274067Y-36981399D01*
X47308803Y-36999966D01*
X47339248Y-37024952D01*
X47364234Y-37055397D01*
X47382801Y-37090133D01*
X47394235Y-37127826D01*
X47398700Y-37173161D01*
X47398700Y-38259839D01*
X47394235Y-38305174D01*
X47382801Y-38342867D01*
X47364234Y-38377603D01*
X47339248Y-38408048D01*
X47308803Y-38433034D01*
X47274067Y-38451601D01*
X47236374Y-38463035D01*
X47191039Y-38467500D01*
X46354361Y-38467500D01*
X46309026Y-38463035D01*
X46271333Y-38451601D01*
X46236597Y-38433034D01*
X46206152Y-38408048D01*
X46181166Y-38377603D01*
X46162599Y-38342867D01*
X46151165Y-38305174D01*
X46146700Y-38259839D01*
X46146700Y-37173161D01*
X46151165Y-37127826D01*
X46162599Y-37090133D01*
X46181166Y-37055397D01*
X46206152Y-37024952D01*
X46236597Y-36999966D01*
X46271333Y-36981399D01*
X46309026Y-36969965D01*
X46354361Y-36965500D01*
X47191039Y-36965500D01*
X47236374Y-36969965D01*
G37*
G36*
X45530728Y-37518064D02*
G01*
X45551809Y-37524460D01*
X45571245Y-37534848D01*
X45588276Y-37548824D01*
X45602252Y-37565855D01*
X45612640Y-37585291D01*
X45619036Y-37606372D01*
X45621800Y-37634440D01*
X45621800Y-38098160D01*
X45619036Y-38126228D01*
X45612640Y-38147309D01*
X45602252Y-38166745D01*
X45588276Y-38183776D01*
X45571245Y-38197752D01*
X45551809Y-38208140D01*
X45530728Y-38214536D01*
X45502660Y-38217300D01*
X43988940Y-38217300D01*
X43960872Y-38214536D01*
X43939791Y-38208140D01*
X43920355Y-38197752D01*
X43903324Y-38183776D01*
X43889348Y-38166745D01*
X43878960Y-38147309D01*
X43872564Y-38126228D01*
X43869800Y-38098160D01*
X43869800Y-37634440D01*
X43872564Y-37606372D01*
X43878960Y-37585291D01*
X43889348Y-37565855D01*
X43903324Y-37548824D01*
X43920355Y-37534848D01*
X43939791Y-37524460D01*
X43960872Y-37518064D01*
X43988940Y-37515300D01*
X45502660Y-37515300D01*
X45530728Y-37518064D01*
G37*
G36*
X40280728Y-37518064D02*
G01*
X40301809Y-37524460D01*
X40321245Y-37534848D01*
X40338276Y-37548824D01*
X40352252Y-37565855D01*
X40362640Y-37585291D01*
X40369036Y-37606372D01*
X40371800Y-37634440D01*
X40371800Y-38098160D01*
X40369036Y-38126228D01*
X40362640Y-38147309D01*
X40352252Y-38166745D01*
X40338276Y-38183776D01*
X40321245Y-38197752D01*
X40301809Y-38208140D01*
X40280728Y-38214536D01*
X40252660Y-38217300D01*
X38738940Y-38217300D01*
X38710872Y-38214536D01*
X38689791Y-38208140D01*
X38670355Y-38197752D01*
X38653324Y-38183776D01*
X38639348Y-38166745D01*
X38628960Y-38147309D01*
X38622564Y-38126228D01*
X38619800Y-38098160D01*
X38619800Y-37634440D01*
X38622564Y-37606372D01*
X38628960Y-37585291D01*
X38639348Y-37565855D01*
X38653324Y-37548824D01*
X38670355Y-37534848D01*
X38689791Y-37524460D01*
X38710872Y-37518064D01*
X38738940Y-37515300D01*
X40252660Y-37515300D01*
X40280728Y-37518064D01*
G37*
G36*
X37451028Y-36768764D02*
G01*
X37472109Y-36775160D01*
X37491545Y-36785548D01*
X37508576Y-36799524D01*
X37522552Y-36816555D01*
X37532940Y-36835991D01*
X37539336Y-36857072D01*
X37542100Y-36885140D01*
X37542100Y-37348860D01*
X37539336Y-37376928D01*
X37532940Y-37398009D01*
X37522552Y-37417445D01*
X37508576Y-37434476D01*
X37491545Y-37448452D01*
X37472109Y-37458840D01*
X37451028Y-37465236D01*
X37422960Y-37468000D01*
X35909240Y-37468000D01*
X35881172Y-37465236D01*
X35860091Y-37458840D01*
X35840655Y-37448452D01*
X35823624Y-37434476D01*
X35809648Y-37417445D01*
X35799260Y-37398009D01*
X35792864Y-37376928D01*
X35790100Y-37348860D01*
X35790100Y-36885140D01*
X35792864Y-36857072D01*
X35799260Y-36835991D01*
X35809648Y-36816555D01*
X35823624Y-36799524D01*
X35840655Y-36785548D01*
X35860091Y-36775160D01*
X35881172Y-36768764D01*
X35909240Y-36766000D01*
X37422960Y-36766000D01*
X37451028Y-36768764D01*
G37*
G36*
X32201028Y-36768764D02*
G01*
X32222109Y-36775160D01*
X32241545Y-36785548D01*
X32258576Y-36799524D01*
X32272552Y-36816555D01*
X32282940Y-36835991D01*
X32289336Y-36857072D01*
X32292100Y-36885140D01*
X32292100Y-37348860D01*
X32289336Y-37376928D01*
X32282940Y-37398009D01*
X32272552Y-37417445D01*
X32258576Y-37434476D01*
X32241545Y-37448452D01*
X32222109Y-37458840D01*
X32201028Y-37465236D01*
X32172960Y-37468000D01*
X30659240Y-37468000D01*
X30631172Y-37465236D01*
X30610091Y-37458840D01*
X30590655Y-37448452D01*
X30573624Y-37434476D01*
X30559648Y-37417445D01*
X30549260Y-37398009D01*
X30542864Y-37376928D01*
X30540100Y-37348860D01*
X30540100Y-36885140D01*
X30542864Y-36857072D01*
X30549260Y-36835991D01*
X30559648Y-36816555D01*
X30573624Y-36799524D01*
X30590655Y-36785548D01*
X30610091Y-36775160D01*
X30631172Y-36768764D01*
X30659240Y-36766000D01*
X32172960Y-36766000D01*
X32201028Y-36768764D01*
G37*
G36*
X45530728Y-36248064D02*
G01*
X45551809Y-36254460D01*
X45571245Y-36264848D01*
X45588276Y-36278824D01*
X45602252Y-36295855D01*
X45612640Y-36315291D01*
X45619036Y-36336372D01*
X45621800Y-36364440D01*
X45621800Y-36828160D01*
X45619036Y-36856228D01*
X45612640Y-36877309D01*
X45602252Y-36896745D01*
X45588276Y-36913776D01*
X45571245Y-36927752D01*
X45551809Y-36938140D01*
X45530728Y-36944536D01*
X45502660Y-36947300D01*
X43988940Y-36947300D01*
X43960872Y-36944536D01*
X43939791Y-36938140D01*
X43920355Y-36927752D01*
X43903324Y-36913776D01*
X43889348Y-36896745D01*
X43878960Y-36877309D01*
X43872564Y-36856228D01*
X43869800Y-36828160D01*
X43869800Y-36364440D01*
X43872564Y-36336372D01*
X43878960Y-36315291D01*
X43889348Y-36295855D01*
X43903324Y-36278824D01*
X43920355Y-36264848D01*
X43939791Y-36254460D01*
X43960872Y-36248064D01*
X43988940Y-36245300D01*
X45502660Y-36245300D01*
X45530728Y-36248064D01*
G37*
G36*
X40280728Y-36248064D02*
G01*
X40301809Y-36254460D01*
X40321245Y-36264848D01*
X40338276Y-36278824D01*
X40352252Y-36295855D01*
X40362640Y-36315291D01*
X40369036Y-36336372D01*
X40371800Y-36364440D01*
X40371800Y-36828160D01*
X40369036Y-36856228D01*
X40362640Y-36877309D01*
X40352252Y-36896745D01*
X40338276Y-36913776D01*
X40321245Y-36927752D01*
X40301809Y-36938140D01*
X40280728Y-36944536D01*
X40252660Y-36947300D01*
X38738940Y-36947300D01*
X38710872Y-36944536D01*
X38689791Y-36938140D01*
X38670355Y-36927752D01*
X38653324Y-36913776D01*
X38639348Y-36896745D01*
X38628960Y-36877309D01*
X38622564Y-36856228D01*
X38619800Y-36828160D01*
X38619800Y-36364440D01*
X38622564Y-36336372D01*
X38628960Y-36315291D01*
X38639348Y-36295855D01*
X38653324Y-36278824D01*
X38670355Y-36264848D01*
X38689791Y-36254460D01*
X38710872Y-36248064D01*
X38738940Y-36245300D01*
X40252660Y-36245300D01*
X40280728Y-36248064D01*
G37*
G36*
X27421874Y-35146165D02*
G01*
X27459567Y-35157599D01*
X27494303Y-35176166D01*
X27524748Y-35201152D01*
X27549734Y-35231597D01*
X27568301Y-35266333D01*
X27579735Y-35304026D01*
X27584200Y-35349361D01*
X27584200Y-36436039D01*
X27579735Y-36481374D01*
X27568301Y-36519067D01*
X27549734Y-36553803D01*
X27524748Y-36584248D01*
X27494303Y-36609234D01*
X27459567Y-36627801D01*
X27421874Y-36639235D01*
X27376539Y-36643700D01*
X26539861Y-36643700D01*
X26494526Y-36639235D01*
X26456833Y-36627801D01*
X26422097Y-36609234D01*
X26391652Y-36584248D01*
X26366666Y-36553803D01*
X26348099Y-36519067D01*
X26336665Y-36481374D01*
X26332200Y-36436039D01*
X26332200Y-35349361D01*
X26336665Y-35304026D01*
X26348099Y-35266333D01*
X26366666Y-35231597D01*
X26391652Y-35201152D01*
X26422097Y-35176166D01*
X26456833Y-35157599D01*
X26494526Y-35146165D01*
X26539861Y-35141700D01*
X27376539Y-35141700D01*
X27421874Y-35146165D01*
G37*
G36*
X29471874Y-35146165D02*
G01*
X29509567Y-35157599D01*
X29544303Y-35176166D01*
X29574748Y-35201152D01*
X29599734Y-35231597D01*
X29618301Y-35266333D01*
X29629735Y-35304026D01*
X29634200Y-35349361D01*
X29634200Y-36436039D01*
X29629735Y-36481374D01*
X29618301Y-36519067D01*
X29599734Y-36553803D01*
X29574748Y-36584248D01*
X29544303Y-36609234D01*
X29509567Y-36627801D01*
X29471874Y-36639235D01*
X29426539Y-36643700D01*
X28589861Y-36643700D01*
X28544526Y-36639235D01*
X28506833Y-36627801D01*
X28472097Y-36609234D01*
X28441652Y-36584248D01*
X28416666Y-36553803D01*
X28398099Y-36519067D01*
X28386665Y-36481374D01*
X28382200Y-36436039D01*
X28382200Y-35349361D01*
X28386665Y-35304026D01*
X28398099Y-35266333D01*
X28416666Y-35231597D01*
X28441652Y-35201152D01*
X28472097Y-35176166D01*
X28506833Y-35157599D01*
X28544526Y-35146165D01*
X28589861Y-35141700D01*
X29426539Y-35141700D01*
X29471874Y-35146165D01*
G37*
G36*
X47810218Y-34125753D02*
G01*
X48028785Y-34216287D01*
X48028787Y-34216288D01*
X48225493Y-34347722D01*
X48392778Y-34515007D01*
X48524212Y-34711713D01*
X48524213Y-34711715D01*
X48614747Y-34930282D01*
X48660900Y-35162310D01*
X48660900Y-35398890D01*
X48614747Y-35630918D01*
X48524213Y-35849485D01*
X48524212Y-35849487D01*
X48392778Y-36046193D01*
X48225493Y-36213478D01*
X48028787Y-36344912D01*
X48028786Y-36344913D01*
X48028785Y-36344913D01*
X47810218Y-36435447D01*
X47578190Y-36481600D01*
X47341610Y-36481600D01*
X47109582Y-36435447D01*
X46891015Y-36344913D01*
X46891014Y-36344913D01*
X46891013Y-36344912D01*
X46694307Y-36213478D01*
X46527022Y-36046193D01*
X46395588Y-35849487D01*
X46395587Y-35849485D01*
X46305053Y-35630918D01*
X46258900Y-35398890D01*
X46258900Y-35162310D01*
X46305053Y-34930282D01*
X46395587Y-34711715D01*
X46395588Y-34711713D01*
X46527022Y-34515007D01*
X46694307Y-34347722D01*
X46891013Y-34216288D01*
X46891015Y-34216287D01*
X47109582Y-34125753D01*
X47341610Y-34079600D01*
X47578190Y-34079600D01*
X47810218Y-34125753D01*
G37*
G36*
X51990674Y-35178365D02*
G01*
X52028367Y-35189799D01*
X52063103Y-35208366D01*
X52093548Y-35233352D01*
X52118534Y-35263797D01*
X52137101Y-35298533D01*
X52148535Y-35336226D01*
X52153000Y-35381561D01*
X52153000Y-36218239D01*
X52148535Y-36263574D01*
X52137101Y-36301267D01*
X52118534Y-36336003D01*
X52093548Y-36366448D01*
X52063103Y-36391434D01*
X52028367Y-36410001D01*
X51990674Y-36421435D01*
X51945339Y-36425900D01*
X50858661Y-36425900D01*
X50813326Y-36421435D01*
X50775633Y-36410001D01*
X50740897Y-36391434D01*
X50710452Y-36366448D01*
X50685466Y-36336003D01*
X50666899Y-36301267D01*
X50655465Y-36263574D01*
X50651000Y-36218239D01*
X50651000Y-35381561D01*
X50655465Y-35336226D01*
X50666899Y-35298533D01*
X50685466Y-35263797D01*
X50710452Y-35233352D01*
X50740897Y-35208366D01*
X50775633Y-35189799D01*
X50813326Y-35178365D01*
X50858661Y-35173900D01*
X51945339Y-35173900D01*
X51990674Y-35178365D01*
G37*
G36*
X32201028Y-35498764D02*
G01*
X32222109Y-35505160D01*
X32241545Y-35515548D01*
X32258576Y-35529524D01*
X32272552Y-35546555D01*
X32282940Y-35565991D01*
X32289336Y-35587072D01*
X32292100Y-35615140D01*
X32292100Y-36078860D01*
X32289336Y-36106928D01*
X32282940Y-36128009D01*
X32272552Y-36147445D01*
X32258576Y-36164476D01*
X32241545Y-36178452D01*
X32222109Y-36188840D01*
X32201028Y-36195236D01*
X32172960Y-36198000D01*
X30659240Y-36198000D01*
X30631172Y-36195236D01*
X30610091Y-36188840D01*
X30590655Y-36178452D01*
X30573624Y-36164476D01*
X30559648Y-36147445D01*
X30549260Y-36128009D01*
X30542864Y-36106928D01*
X30540100Y-36078860D01*
X30540100Y-35615140D01*
X30542864Y-35587072D01*
X30549260Y-35565991D01*
X30559648Y-35546555D01*
X30573624Y-35529524D01*
X30590655Y-35515548D01*
X30610091Y-35505160D01*
X30631172Y-35498764D01*
X30659240Y-35496000D01*
X32172960Y-35496000D01*
X32201028Y-35498764D01*
G37*
G36*
X37451028Y-35498764D02*
G01*
X37472109Y-35505160D01*
X37491545Y-35515548D01*
X37508576Y-35529524D01*
X37522552Y-35546555D01*
X37532940Y-35565991D01*
X37539336Y-35587072D01*
X37542100Y-35615140D01*
X37542100Y-36078860D01*
X37539336Y-36106928D01*
X37532940Y-36128009D01*
X37522552Y-36147445D01*
X37508576Y-36164476D01*
X37491545Y-36178452D01*
X37472109Y-36188840D01*
X37451028Y-36195236D01*
X37422960Y-36198000D01*
X35909240Y-36198000D01*
X35881172Y-36195236D01*
X35860091Y-36188840D01*
X35840655Y-36178452D01*
X35823624Y-36164476D01*
X35809648Y-36147445D01*
X35799260Y-36128009D01*
X35792864Y-36106928D01*
X35790100Y-36078860D01*
X35790100Y-35615140D01*
X35792864Y-35587072D01*
X35799260Y-35565991D01*
X35809648Y-35546555D01*
X35823624Y-35529524D01*
X35840655Y-35515548D01*
X35860091Y-35505160D01*
X35881172Y-35498764D01*
X35909240Y-35496000D01*
X37422960Y-35496000D01*
X37451028Y-35498764D01*
G37*
G36*
X40280728Y-34978064D02*
G01*
X40301809Y-34984460D01*
X40321245Y-34994848D01*
X40338276Y-35008824D01*
X40352252Y-35025855D01*
X40362640Y-35045291D01*
X40369036Y-35066372D01*
X40371800Y-35094440D01*
X40371800Y-35558160D01*
X40369036Y-35586228D01*
X40362640Y-35607309D01*
X40352252Y-35626745D01*
X40338276Y-35643776D01*
X40321245Y-35657752D01*
X40301809Y-35668140D01*
X40280728Y-35674536D01*
X40252660Y-35677300D01*
X38738940Y-35677300D01*
X38710872Y-35674536D01*
X38689791Y-35668140D01*
X38670355Y-35657752D01*
X38653324Y-35643776D01*
X38639348Y-35626745D01*
X38628960Y-35607309D01*
X38622564Y-35586228D01*
X38619800Y-35558160D01*
X38619800Y-35094440D01*
X38622564Y-35066372D01*
X38628960Y-35045291D01*
X38639348Y-35025855D01*
X38653324Y-35008824D01*
X38670355Y-34994848D01*
X38689791Y-34984460D01*
X38710872Y-34978064D01*
X38738940Y-34975300D01*
X40252660Y-34975300D01*
X40280728Y-34978064D01*
G37*
G36*
X45530728Y-34978064D02*
G01*
X45551809Y-34984460D01*
X45571245Y-34994848D01*
X45588276Y-35008824D01*
X45602252Y-35025855D01*
X45612640Y-35045291D01*
X45619036Y-35066372D01*
X45621800Y-35094440D01*
X45621800Y-35558160D01*
X45619036Y-35586228D01*
X45612640Y-35607309D01*
X45602252Y-35626745D01*
X45588276Y-35643776D01*
X45571245Y-35657752D01*
X45551809Y-35668140D01*
X45530728Y-35674536D01*
X45502660Y-35677300D01*
X43988940Y-35677300D01*
X43960872Y-35674536D01*
X43939791Y-35668140D01*
X43920355Y-35657752D01*
X43903324Y-35643776D01*
X43889348Y-35626745D01*
X43878960Y-35607309D01*
X43872564Y-35586228D01*
X43869800Y-35558160D01*
X43869800Y-35094440D01*
X43872564Y-35066372D01*
X43878960Y-35045291D01*
X43889348Y-35025855D01*
X43903324Y-35008824D01*
X43920355Y-34994848D01*
X43939791Y-34984460D01*
X43960872Y-34978064D01*
X43988940Y-34975300D01*
X45502660Y-34975300D01*
X45530728Y-34978064D01*
G37*
G36*
X31193774Y-33154865D02*
G01*
X31231467Y-33166299D01*
X31266203Y-33184866D01*
X31296648Y-33209852D01*
X31321634Y-33240297D01*
X31340201Y-33275033D01*
X31351635Y-33312726D01*
X31356100Y-33358061D01*
X31356100Y-34444739D01*
X31351635Y-34490074D01*
X31340201Y-34527767D01*
X31321634Y-34562503D01*
X31296648Y-34592948D01*
X31266203Y-34617934D01*
X31231467Y-34636501D01*
X31193774Y-34647935D01*
X31148439Y-34652400D01*
X30311761Y-34652400D01*
X30266426Y-34647935D01*
X30228733Y-34636501D01*
X30193997Y-34617934D01*
X30163552Y-34592948D01*
X30138566Y-34562503D01*
X30119999Y-34527767D01*
X30108565Y-34490074D01*
X30104100Y-34444739D01*
X30104100Y-33358061D01*
X30108565Y-33312726D01*
X30119999Y-33275033D01*
X30138566Y-33240297D01*
X30163552Y-33209852D01*
X30193997Y-33184866D01*
X30228733Y-33166299D01*
X30266426Y-33154865D01*
X30311761Y-33150400D01*
X31148439Y-33150400D01*
X31193774Y-33154865D01*
G37*
G36*
X33243774Y-33154865D02*
G01*
X33281467Y-33166299D01*
X33316203Y-33184866D01*
X33346648Y-33209852D01*
X33371634Y-33240297D01*
X33390201Y-33275033D01*
X33401635Y-33312726D01*
X33406100Y-33358061D01*
X33406100Y-34444739D01*
X33401635Y-34490074D01*
X33390201Y-34527767D01*
X33371634Y-34562503D01*
X33346648Y-34592948D01*
X33316203Y-34617934D01*
X33281467Y-34636501D01*
X33243774Y-34647935D01*
X33198439Y-34652400D01*
X32361761Y-34652400D01*
X32316426Y-34647935D01*
X32278733Y-34636501D01*
X32243997Y-34617934D01*
X32213552Y-34592948D01*
X32188566Y-34562503D01*
X32169999Y-34527767D01*
X32158565Y-34490074D01*
X32154100Y-34444739D01*
X32154100Y-33358061D01*
X32158565Y-33312726D01*
X32169999Y-33275033D01*
X32188566Y-33240297D01*
X32213552Y-33209852D01*
X32243997Y-33184866D01*
X32278733Y-33166299D01*
X32316426Y-33154865D01*
X32361761Y-33150400D01*
X33198439Y-33150400D01*
X33243774Y-33154865D01*
G37*
G36*
X29502374Y-33154865D02*
G01*
X29540067Y-33166299D01*
X29574803Y-33184866D01*
X29605248Y-33209852D01*
X29630234Y-33240297D01*
X29648801Y-33275033D01*
X29660235Y-33312726D01*
X29664700Y-33358061D01*
X29664700Y-34444739D01*
X29660235Y-34490074D01*
X29648801Y-34527767D01*
X29630234Y-34562503D01*
X29605248Y-34592948D01*
X29574803Y-34617934D01*
X29540067Y-34636501D01*
X29502374Y-34647935D01*
X29457039Y-34652400D01*
X28620361Y-34652400D01*
X28575026Y-34647935D01*
X28537333Y-34636501D01*
X28502597Y-34617934D01*
X28472152Y-34592948D01*
X28447166Y-34562503D01*
X28428599Y-34527767D01*
X28417165Y-34490074D01*
X28412700Y-34444739D01*
X28412700Y-33358061D01*
X28417165Y-33312726D01*
X28428599Y-33275033D01*
X28447166Y-33240297D01*
X28472152Y-33209852D01*
X28502597Y-33184866D01*
X28537333Y-33166299D01*
X28575026Y-33154865D01*
X28620361Y-33150400D01*
X29457039Y-33150400D01*
X29502374Y-33154865D01*
G37*
G36*
X27452374Y-33154865D02*
G01*
X27490067Y-33166299D01*
X27524803Y-33184866D01*
X27555248Y-33209852D01*
X27580234Y-33240297D01*
X27598801Y-33275033D01*
X27610235Y-33312726D01*
X27614700Y-33358061D01*
X27614700Y-34444739D01*
X27610235Y-34490074D01*
X27598801Y-34527767D01*
X27580234Y-34562503D01*
X27555248Y-34592948D01*
X27524803Y-34617934D01*
X27490067Y-34636501D01*
X27452374Y-34647935D01*
X27407039Y-34652400D01*
X26570361Y-34652400D01*
X26525026Y-34647935D01*
X26487333Y-34636501D01*
X26452597Y-34617934D01*
X26422152Y-34592948D01*
X26397166Y-34562503D01*
X26378599Y-34527767D01*
X26367165Y-34490074D01*
X26362700Y-34444739D01*
X26362700Y-33358061D01*
X26367165Y-33312726D01*
X26378599Y-33275033D01*
X26397166Y-33240297D01*
X26422152Y-33209852D01*
X26452597Y-33184866D01*
X26487333Y-33166299D01*
X26525026Y-33154865D01*
X26570361Y-33150400D01*
X27407039Y-33150400D01*
X27452374Y-33154865D01*
G37*
G36*
X40280728Y-33708064D02*
G01*
X40301809Y-33714460D01*
X40321245Y-33724848D01*
X40338276Y-33738824D01*
X40352252Y-33755855D01*
X40362640Y-33775291D01*
X40369036Y-33796372D01*
X40371800Y-33824440D01*
X40371800Y-34288160D01*
X40369036Y-34316228D01*
X40362640Y-34337309D01*
X40352252Y-34356745D01*
X40338276Y-34373776D01*
X40321245Y-34387752D01*
X40301809Y-34398140D01*
X40280728Y-34404536D01*
X40252660Y-34407300D01*
X38738940Y-34407300D01*
X38710872Y-34404536D01*
X38689791Y-34398140D01*
X38670355Y-34387752D01*
X38653324Y-34373776D01*
X38639348Y-34356745D01*
X38628960Y-34337309D01*
X38622564Y-34316228D01*
X38619800Y-34288160D01*
X38619800Y-33824440D01*
X38622564Y-33796372D01*
X38628960Y-33775291D01*
X38639348Y-33755855D01*
X38653324Y-33738824D01*
X38670355Y-33724848D01*
X38689791Y-33714460D01*
X38710872Y-33708064D01*
X38738940Y-33705300D01*
X40252660Y-33705300D01*
X40280728Y-33708064D01*
G37*
G36*
X45530728Y-33708064D02*
G01*
X45551809Y-33714460D01*
X45571245Y-33724848D01*
X45588276Y-33738824D01*
X45602252Y-33755855D01*
X45612640Y-33775291D01*
X45619036Y-33796372D01*
X45621800Y-33824440D01*
X45621800Y-34288160D01*
X45619036Y-34316228D01*
X45612640Y-34337309D01*
X45602252Y-34356745D01*
X45588276Y-34373776D01*
X45571245Y-34387752D01*
X45551809Y-34398140D01*
X45530728Y-34404536D01*
X45502660Y-34407300D01*
X43988940Y-34407300D01*
X43960872Y-34404536D01*
X43939791Y-34398140D01*
X43920355Y-34387752D01*
X43903324Y-34373776D01*
X43889348Y-34356745D01*
X43878960Y-34337309D01*
X43872564Y-34316228D01*
X43869800Y-34288160D01*
X43869800Y-33824440D01*
X43872564Y-33796372D01*
X43878960Y-33775291D01*
X43889348Y-33755855D01*
X43903324Y-33738824D01*
X43920355Y-33724848D01*
X43939791Y-33714460D01*
X43960872Y-33708064D01*
X43988940Y-33705300D01*
X45502660Y-33705300D01*
X45530728Y-33708064D01*
G37*
G36*
X49997374Y-32728165D02*
G01*
X50035067Y-32739599D01*
X50069803Y-32758166D01*
X50100248Y-32783152D01*
X50125234Y-32813597D01*
X50143801Y-32848333D01*
X50155235Y-32886026D01*
X50159700Y-32931361D01*
X50159700Y-34018039D01*
X50155235Y-34063374D01*
X50143801Y-34101067D01*
X50125234Y-34135803D01*
X50100248Y-34166248D01*
X50069803Y-34191234D01*
X50035067Y-34209801D01*
X49997374Y-34221235D01*
X49952039Y-34225700D01*
X49115361Y-34225700D01*
X49070026Y-34221235D01*
X49032333Y-34209801D01*
X48997597Y-34191234D01*
X48967152Y-34166248D01*
X48942166Y-34135803D01*
X48923599Y-34101067D01*
X48912165Y-34063374D01*
X48907700Y-34018039D01*
X48907700Y-32931361D01*
X48912165Y-32886026D01*
X48923599Y-32848333D01*
X48942166Y-32813597D01*
X48967152Y-32783152D01*
X48997597Y-32758166D01*
X49032333Y-32739599D01*
X49070026Y-32728165D01*
X49115361Y-32723700D01*
X49952039Y-32723700D01*
X49997374Y-32728165D01*
G37*
G36*
X52047374Y-32728165D02*
G01*
X52085067Y-32739599D01*
X52119803Y-32758166D01*
X52150248Y-32783152D01*
X52175234Y-32813597D01*
X52193801Y-32848333D01*
X52205235Y-32886026D01*
X52209700Y-32931361D01*
X52209700Y-34018039D01*
X52205235Y-34063374D01*
X52193801Y-34101067D01*
X52175234Y-34135803D01*
X52150248Y-34166248D01*
X52119803Y-34191234D01*
X52085067Y-34209801D01*
X52047374Y-34221235D01*
X52002039Y-34225700D01*
X51165361Y-34225700D01*
X51120026Y-34221235D01*
X51082333Y-34209801D01*
X51047597Y-34191234D01*
X51017152Y-34166248D01*
X50992166Y-34135803D01*
X50973599Y-34101067D01*
X50962165Y-34063374D01*
X50957700Y-34018039D01*
X50957700Y-32931361D01*
X50962165Y-32886026D01*
X50973599Y-32848333D01*
X50992166Y-32813597D01*
X51017152Y-32783152D01*
X51047597Y-32758166D01*
X51082333Y-32739599D01*
X51120026Y-32728165D01*
X51165361Y-32723700D01*
X52002039Y-32723700D01*
X52047374Y-32728165D01*
G37*
G36*
X35567418Y-31103153D02*
G01*
X35704701Y-31160018D01*
X35785987Y-31193688D01*
X35982693Y-31325122D01*
X36149978Y-31492407D01*
X36281412Y-31689113D01*
X36281413Y-31689115D01*
X36371947Y-31907682D01*
X36418100Y-32139710D01*
X36418100Y-32376290D01*
X36371947Y-32608318D01*
X36305154Y-32769569D01*
X36281412Y-32826887D01*
X36149978Y-33023593D01*
X35982693Y-33190878D01*
X35785987Y-33322312D01*
X35785986Y-33322313D01*
X35785985Y-33322313D01*
X35567418Y-33412847D01*
X35335390Y-33459000D01*
X35098810Y-33459000D01*
X34866782Y-33412847D01*
X34648215Y-33322313D01*
X34648214Y-33322313D01*
X34648213Y-33322312D01*
X34451507Y-33190878D01*
X34284222Y-33023593D01*
X34152788Y-32826887D01*
X34129046Y-32769569D01*
X34062253Y-32608318D01*
X34016100Y-32376290D01*
X34016100Y-32139710D01*
X34062253Y-31907682D01*
X34152787Y-31689115D01*
X34152788Y-31689113D01*
X34284222Y-31492407D01*
X34451507Y-31325122D01*
X34648213Y-31193688D01*
X34729499Y-31160018D01*
X34866782Y-31103153D01*
X35098810Y-31057000D01*
X35335390Y-31057000D01*
X35567418Y-31103153D01*
G37*
G36*
X38834074Y-31084765D02*
G01*
X38871767Y-31096199D01*
X38906503Y-31114766D01*
X38936948Y-31139752D01*
X38961934Y-31170197D01*
X38980501Y-31204933D01*
X38991935Y-31242626D01*
X38996400Y-31287961D01*
X38996400Y-32374639D01*
X38991935Y-32419974D01*
X38980501Y-32457667D01*
X38961934Y-32492403D01*
X38936948Y-32522848D01*
X38906503Y-32547834D01*
X38871767Y-32566401D01*
X38834074Y-32577835D01*
X38788739Y-32582300D01*
X37952061Y-32582300D01*
X37906726Y-32577835D01*
X37869033Y-32566401D01*
X37834297Y-32547834D01*
X37803852Y-32522848D01*
X37778866Y-32492403D01*
X37760299Y-32457667D01*
X37748865Y-32419974D01*
X37744400Y-32374639D01*
X37744400Y-31287961D01*
X37748865Y-31242626D01*
X37760299Y-31204933D01*
X37778866Y-31170197D01*
X37803852Y-31139752D01*
X37834297Y-31114766D01*
X37869033Y-31096199D01*
X37906726Y-31084765D01*
X37952061Y-31080300D01*
X38788739Y-31080300D01*
X38834074Y-31084765D01*
G37*
G36*
X40884074Y-31084765D02*
G01*
X40921767Y-31096199D01*
X40956503Y-31114766D01*
X40986948Y-31139752D01*
X41011934Y-31170197D01*
X41030501Y-31204933D01*
X41041935Y-31242626D01*
X41046400Y-31287961D01*
X41046400Y-32374639D01*
X41041935Y-32419974D01*
X41030501Y-32457667D01*
X41011934Y-32492403D01*
X40986948Y-32522848D01*
X40956503Y-32547834D01*
X40921767Y-32566401D01*
X40884074Y-32577835D01*
X40838739Y-32582300D01*
X40002061Y-32582300D01*
X39956726Y-32577835D01*
X39919033Y-32566401D01*
X39884297Y-32547834D01*
X39853852Y-32522848D01*
X39828866Y-32492403D01*
X39810299Y-32457667D01*
X39798865Y-32419974D01*
X39794400Y-32374639D01*
X39794400Y-31287961D01*
X39798865Y-31242626D01*
X39810299Y-31204933D01*
X39828866Y-31170197D01*
X39853852Y-31139752D01*
X39884297Y-31114766D01*
X39919033Y-31096199D01*
X39956726Y-31084765D01*
X40002061Y-31080300D01*
X40838739Y-31080300D01*
X40884074Y-31084765D01*
G37*
G36*
X33229528Y-31693864D02*
G01*
X33250609Y-31700260D01*
X33270045Y-31710648D01*
X33287076Y-31724624D01*
X33301052Y-31741655D01*
X33311440Y-31761091D01*
X33317836Y-31782172D01*
X33320600Y-31810240D01*
X33320600Y-32273960D01*
X33317836Y-32302028D01*
X33311440Y-32323109D01*
X33301052Y-32342545D01*
X33287076Y-32359576D01*
X33270045Y-32373552D01*
X33250609Y-32383940D01*
X33229528Y-32390336D01*
X33201460Y-32393100D01*
X31687740Y-32393100D01*
X31659672Y-32390336D01*
X31638591Y-32383940D01*
X31619155Y-32373552D01*
X31602124Y-32359576D01*
X31588148Y-32342545D01*
X31577760Y-32323109D01*
X31571364Y-32302028D01*
X31568600Y-32273960D01*
X31568600Y-31810240D01*
X31571364Y-31782172D01*
X31577760Y-31761091D01*
X31588148Y-31741655D01*
X31602124Y-31724624D01*
X31619155Y-31710648D01*
X31638591Y-31700260D01*
X31659672Y-31693864D01*
X31687740Y-31691100D01*
X33201460Y-31691100D01*
X33229528Y-31693864D01*
G37*
G36*
X27979528Y-31693864D02*
G01*
X28000609Y-31700260D01*
X28020045Y-31710648D01*
X28037076Y-31724624D01*
X28051052Y-31741655D01*
X28061440Y-31761091D01*
X28067836Y-31782172D01*
X28070600Y-31810240D01*
X28070600Y-32273960D01*
X28067836Y-32302028D01*
X28061440Y-32323109D01*
X28051052Y-32342545D01*
X28037076Y-32359576D01*
X28020045Y-32373552D01*
X28000609Y-32383940D01*
X27979528Y-32390336D01*
X27951460Y-32393100D01*
X26437740Y-32393100D01*
X26409672Y-32390336D01*
X26388591Y-32383940D01*
X26369155Y-32373552D01*
X26352124Y-32359576D01*
X26338148Y-32342545D01*
X26327760Y-32323109D01*
X26321364Y-32302028D01*
X26318600Y-32273960D01*
X26318600Y-31810240D01*
X26321364Y-31782172D01*
X26327760Y-31761091D01*
X26338148Y-31741655D01*
X26352124Y-31724624D01*
X26369155Y-31710648D01*
X26388591Y-31700260D01*
X26409672Y-31693864D01*
X26437740Y-31691100D01*
X27951460Y-31691100D01*
X27979528Y-31693864D01*
G37*
G36*
X49180728Y-31236664D02*
G01*
X49201809Y-31243060D01*
X49221245Y-31253448D01*
X49238276Y-31267424D01*
X49252252Y-31284455D01*
X49262640Y-31303891D01*
X49269036Y-31324972D01*
X49271800Y-31353040D01*
X49271800Y-31816760D01*
X49269036Y-31844828D01*
X49262640Y-31865909D01*
X49252252Y-31885345D01*
X49238276Y-31902376D01*
X49221245Y-31916352D01*
X49201809Y-31926740D01*
X49180728Y-31933136D01*
X49152660Y-31935900D01*
X47638940Y-31935900D01*
X47610872Y-31933136D01*
X47589791Y-31926740D01*
X47570355Y-31916352D01*
X47553324Y-31902376D01*
X47539348Y-31885345D01*
X47528960Y-31865909D01*
X47522564Y-31844828D01*
X47519800Y-31816760D01*
X47519800Y-31353040D01*
X47522564Y-31324972D01*
X47528960Y-31303891D01*
X47539348Y-31284455D01*
X47553324Y-31267424D01*
X47570355Y-31253448D01*
X47589791Y-31243060D01*
X47610872Y-31236664D01*
X47638940Y-31233900D01*
X49152660Y-31233900D01*
X49180728Y-31236664D01*
G37*
G36*
X43930728Y-31236664D02*
G01*
X43951809Y-31243060D01*
X43971245Y-31253448D01*
X43988276Y-31267424D01*
X44002252Y-31284455D01*
X44012640Y-31303891D01*
X44019036Y-31324972D01*
X44021800Y-31353040D01*
X44021800Y-31816760D01*
X44019036Y-31844828D01*
X44012640Y-31865909D01*
X44002252Y-31885345D01*
X43988276Y-31902376D01*
X43971245Y-31916352D01*
X43951809Y-31926740D01*
X43930728Y-31933136D01*
X43902660Y-31935900D01*
X42388940Y-31935900D01*
X42360872Y-31933136D01*
X42339791Y-31926740D01*
X42320355Y-31916352D01*
X42303324Y-31902376D01*
X42289348Y-31885345D01*
X42278960Y-31865909D01*
X42272564Y-31844828D01*
X42269800Y-31816760D01*
X42269800Y-31353040D01*
X42272564Y-31324972D01*
X42278960Y-31303891D01*
X42289348Y-31284455D01*
X42303324Y-31267424D01*
X42320355Y-31253448D01*
X42339791Y-31243060D01*
X42360872Y-31236664D01*
X42388940Y-31233900D01*
X43902660Y-31233900D01*
X43930728Y-31236664D01*
G37*
G36*
X51731574Y-30388165D02*
G01*
X51769267Y-30399599D01*
X51804003Y-30418166D01*
X51834448Y-30443152D01*
X51859434Y-30473597D01*
X51878001Y-30508333D01*
X51889435Y-30546026D01*
X51893900Y-30591361D01*
X51893900Y-31428039D01*
X51889435Y-31473374D01*
X51878001Y-31511067D01*
X51859434Y-31545803D01*
X51834448Y-31576248D01*
X51804003Y-31601234D01*
X51769267Y-31619801D01*
X51731574Y-31631235D01*
X51686239Y-31635700D01*
X50599561Y-31635700D01*
X50554226Y-31631235D01*
X50516533Y-31619801D01*
X50481797Y-31601234D01*
X50451352Y-31576248D01*
X50426366Y-31545803D01*
X50407799Y-31511067D01*
X50396365Y-31473374D01*
X50391900Y-31428039D01*
X50391900Y-30591361D01*
X50396365Y-30546026D01*
X50407799Y-30508333D01*
X50426366Y-30473597D01*
X50451352Y-30443152D01*
X50481797Y-30418166D01*
X50516533Y-30399599D01*
X50554226Y-30388165D01*
X50599561Y-30383700D01*
X51686239Y-30383700D01*
X51731574Y-30388165D01*
G37*
G36*
X27979528Y-30423864D02*
G01*
X28000609Y-30430260D01*
X28020045Y-30440648D01*
X28037076Y-30454624D01*
X28051052Y-30471655D01*
X28061440Y-30491091D01*
X28067836Y-30512172D01*
X28070600Y-30540240D01*
X28070600Y-31003960D01*
X28067836Y-31032028D01*
X28061440Y-31053109D01*
X28051052Y-31072545D01*
X28037076Y-31089576D01*
X28020045Y-31103552D01*
X28000609Y-31113940D01*
X27979528Y-31120336D01*
X27951460Y-31123100D01*
X26437740Y-31123100D01*
X26409672Y-31120336D01*
X26388591Y-31113940D01*
X26369155Y-31103552D01*
X26352124Y-31089576D01*
X26338148Y-31072545D01*
X26327760Y-31053109D01*
X26321364Y-31032028D01*
X26318600Y-31003960D01*
X26318600Y-30540240D01*
X26321364Y-30512172D01*
X26327760Y-30491091D01*
X26338148Y-30471655D01*
X26352124Y-30454624D01*
X26369155Y-30440648D01*
X26388591Y-30430260D01*
X26409672Y-30423864D01*
X26437740Y-30421100D01*
X27951460Y-30421100D01*
X27979528Y-30423864D01*
G37*
G36*
X33229528Y-30423864D02*
G01*
X33250609Y-30430260D01*
X33270045Y-30440648D01*
X33287076Y-30454624D01*
X33301052Y-30471655D01*
X33311440Y-30491091D01*
X33317836Y-30512172D01*
X33320600Y-30540240D01*
X33320600Y-31003960D01*
X33317836Y-31032028D01*
X33311440Y-31053109D01*
X33301052Y-31072545D01*
X33287076Y-31089576D01*
X33270045Y-31103552D01*
X33250609Y-31113940D01*
X33229528Y-31120336D01*
X33201460Y-31123100D01*
X31687740Y-31123100D01*
X31659672Y-31120336D01*
X31638591Y-31113940D01*
X31619155Y-31103552D01*
X31602124Y-31089576D01*
X31588148Y-31072545D01*
X31577760Y-31053109D01*
X31571364Y-31032028D01*
X31568600Y-31003960D01*
X31568600Y-30540240D01*
X31571364Y-30512172D01*
X31577760Y-30491091D01*
X31588148Y-30471655D01*
X31602124Y-30454624D01*
X31619155Y-30440648D01*
X31638591Y-30430260D01*
X31659672Y-30423864D01*
X31687740Y-30421100D01*
X33201460Y-30421100D01*
X33229528Y-30423864D01*
G37*
G36*
X49180728Y-29966664D02*
G01*
X49201809Y-29973060D01*
X49221245Y-29983448D01*
X49238276Y-29997424D01*
X49252252Y-30014455D01*
X49262640Y-30033891D01*
X49269036Y-30054972D01*
X49271800Y-30083040D01*
X49271800Y-30546760D01*
X49269036Y-30574828D01*
X49262640Y-30595909D01*
X49252252Y-30615345D01*
X49238276Y-30632376D01*
X49221245Y-30646352D01*
X49201809Y-30656740D01*
X49180728Y-30663136D01*
X49152660Y-30665900D01*
X47638940Y-30665900D01*
X47610872Y-30663136D01*
X47589791Y-30656740D01*
X47570355Y-30646352D01*
X47553324Y-30632376D01*
X47539348Y-30615345D01*
X47528960Y-30595909D01*
X47522564Y-30574828D01*
X47519800Y-30546760D01*
X47519800Y-30083040D01*
X47522564Y-30054972D01*
X47528960Y-30033891D01*
X47539348Y-30014455D01*
X47553324Y-29997424D01*
X47570355Y-29983448D01*
X47589791Y-29973060D01*
X47610872Y-29966664D01*
X47638940Y-29963900D01*
X49152660Y-29963900D01*
X49180728Y-29966664D01*
G37*
G36*
X43930728Y-29966664D02*
G01*
X43951809Y-29973060D01*
X43971245Y-29983448D01*
X43988276Y-29997424D01*
X44002252Y-30014455D01*
X44012640Y-30033891D01*
X44019036Y-30054972D01*
X44021800Y-30083040D01*
X44021800Y-30546760D01*
X44019036Y-30574828D01*
X44012640Y-30595909D01*
X44002252Y-30615345D01*
X43988276Y-30632376D01*
X43971245Y-30646352D01*
X43951809Y-30656740D01*
X43930728Y-30663136D01*
X43902660Y-30665900D01*
X42388940Y-30665900D01*
X42360872Y-30663136D01*
X42339791Y-30656740D01*
X42320355Y-30646352D01*
X42303324Y-30632376D01*
X42289348Y-30615345D01*
X42278960Y-30595909D01*
X42272564Y-30574828D01*
X42269800Y-30546760D01*
X42269800Y-30083040D01*
X42272564Y-30054972D01*
X42278960Y-30033891D01*
X42289348Y-30014455D01*
X42303324Y-29997424D01*
X42320355Y-29983448D01*
X42339791Y-29973060D01*
X42360872Y-29966664D01*
X42388940Y-29963900D01*
X43902660Y-29963900D01*
X43930728Y-29966664D01*
G37*
G36*
X40571218Y-28131353D02*
G01*
X40789785Y-28221887D01*
X40789787Y-28221888D01*
X40986493Y-28353322D01*
X41153778Y-28520607D01*
X41285212Y-28717313D01*
X41285213Y-28717315D01*
X41375747Y-28935882D01*
X41421900Y-29167910D01*
X41421900Y-29404490D01*
X41375747Y-29636518D01*
X41307327Y-29801697D01*
X41285212Y-29855087D01*
X41153778Y-30051793D01*
X40986493Y-30219078D01*
X40789787Y-30350512D01*
X40789786Y-30350513D01*
X40789785Y-30350513D01*
X40571218Y-30441047D01*
X40339190Y-30487200D01*
X40102610Y-30487200D01*
X39870582Y-30441047D01*
X39652015Y-30350513D01*
X39652014Y-30350513D01*
X39652013Y-30350512D01*
X39455307Y-30219078D01*
X39288022Y-30051793D01*
X39156588Y-29855087D01*
X39134473Y-29801697D01*
X39066053Y-29636518D01*
X39019900Y-29404490D01*
X39019900Y-29167910D01*
X39066053Y-28935882D01*
X39156587Y-28717315D01*
X39156588Y-28717313D01*
X39288022Y-28520607D01*
X39455307Y-28353322D01*
X39652013Y-28221888D01*
X39652015Y-28221887D01*
X39870582Y-28131353D01*
X40102610Y-28085200D01*
X40339190Y-28085200D01*
X40571218Y-28131353D01*
G37*
G36*
X33229528Y-29153864D02*
G01*
X33250609Y-29160260D01*
X33270045Y-29170648D01*
X33287076Y-29184624D01*
X33301052Y-29201655D01*
X33311440Y-29221091D01*
X33317836Y-29242172D01*
X33320600Y-29270240D01*
X33320600Y-29733960D01*
X33317836Y-29762028D01*
X33311440Y-29783109D01*
X33301052Y-29802545D01*
X33287076Y-29819576D01*
X33270045Y-29833552D01*
X33250609Y-29843940D01*
X33229528Y-29850336D01*
X33201460Y-29853100D01*
X31687740Y-29853100D01*
X31659672Y-29850336D01*
X31638591Y-29843940D01*
X31619155Y-29833552D01*
X31602124Y-29819576D01*
X31588148Y-29802545D01*
X31577760Y-29783109D01*
X31571364Y-29762028D01*
X31568600Y-29733960D01*
X31568600Y-29270240D01*
X31571364Y-29242172D01*
X31577760Y-29221091D01*
X31588148Y-29201655D01*
X31602124Y-29184624D01*
X31619155Y-29170648D01*
X31638591Y-29160260D01*
X31659672Y-29153864D01*
X31687740Y-29151100D01*
X33201460Y-29151100D01*
X33229528Y-29153864D01*
G37*
G36*
X27979528Y-29153864D02*
G01*
X28000609Y-29160260D01*
X28020045Y-29170648D01*
X28037076Y-29184624D01*
X28051052Y-29201655D01*
X28061440Y-29221091D01*
X28067836Y-29242172D01*
X28070600Y-29270240D01*
X28070600Y-29733960D01*
X28067836Y-29762028D01*
X28061440Y-29783109D01*
X28051052Y-29802545D01*
X28037076Y-29819576D01*
X28020045Y-29833552D01*
X28000609Y-29843940D01*
X27979528Y-29850336D01*
X27951460Y-29853100D01*
X26437740Y-29853100D01*
X26409672Y-29850336D01*
X26388591Y-29843940D01*
X26369155Y-29833552D01*
X26352124Y-29819576D01*
X26338148Y-29802545D01*
X26327760Y-29783109D01*
X26321364Y-29762028D01*
X26318600Y-29733960D01*
X26318600Y-29270240D01*
X26321364Y-29242172D01*
X26327760Y-29221091D01*
X26338148Y-29201655D01*
X26352124Y-29184624D01*
X26369155Y-29170648D01*
X26388591Y-29160260D01*
X26409672Y-29153864D01*
X26437740Y-29151100D01*
X27951460Y-29151100D01*
X27979528Y-29153864D01*
G37*
G36*
X51731574Y-28338165D02*
G01*
X51769267Y-28349599D01*
X51804003Y-28368166D01*
X51834448Y-28393152D01*
X51859434Y-28423597D01*
X51878001Y-28458333D01*
X51889435Y-28496026D01*
X51893900Y-28541361D01*
X51893900Y-29378039D01*
X51889435Y-29423374D01*
X51878001Y-29461067D01*
X51859434Y-29495803D01*
X51834448Y-29526248D01*
X51804003Y-29551234D01*
X51769267Y-29569801D01*
X51731574Y-29581235D01*
X51686239Y-29585700D01*
X50599561Y-29585700D01*
X50554226Y-29581235D01*
X50516533Y-29569801D01*
X50481797Y-29551234D01*
X50451352Y-29526248D01*
X50426366Y-29495803D01*
X50407799Y-29461067D01*
X50396365Y-29423374D01*
X50391900Y-29378039D01*
X50391900Y-28541361D01*
X50396365Y-28496026D01*
X50407799Y-28458333D01*
X50426366Y-28423597D01*
X50451352Y-28393152D01*
X50481797Y-28368166D01*
X50516533Y-28349599D01*
X50554226Y-28338165D01*
X50599561Y-28333700D01*
X51686239Y-28333700D01*
X51731574Y-28338165D01*
G37*
G36*
X43930728Y-28696664D02*
G01*
X43951809Y-28703060D01*
X43971245Y-28713448D01*
X43988276Y-28727424D01*
X44002252Y-28744455D01*
X44012640Y-28763891D01*
X44019036Y-28784972D01*
X44021800Y-28813040D01*
X44021800Y-29276760D01*
X44019036Y-29304828D01*
X44012640Y-29325909D01*
X44002252Y-29345345D01*
X43988276Y-29362376D01*
X43971245Y-29376352D01*
X43951809Y-29386740D01*
X43930728Y-29393136D01*
X43902660Y-29395900D01*
X42388940Y-29395900D01*
X42360872Y-29393136D01*
X42339791Y-29386740D01*
X42320355Y-29376352D01*
X42303324Y-29362376D01*
X42289348Y-29345345D01*
X42278960Y-29325909D01*
X42272564Y-29304828D01*
X42269800Y-29276760D01*
X42269800Y-28813040D01*
X42272564Y-28784972D01*
X42278960Y-28763891D01*
X42289348Y-28744455D01*
X42303324Y-28727424D01*
X42320355Y-28713448D01*
X42339791Y-28703060D01*
X42360872Y-28696664D01*
X42388940Y-28693900D01*
X43902660Y-28693900D01*
X43930728Y-28696664D01*
G37*
G36*
X49180728Y-28696664D02*
G01*
X49201809Y-28703060D01*
X49221245Y-28713448D01*
X49238276Y-28727424D01*
X49252252Y-28744455D01*
X49262640Y-28763891D01*
X49269036Y-28784972D01*
X49271800Y-28813040D01*
X49271800Y-29276760D01*
X49269036Y-29304828D01*
X49262640Y-29325909D01*
X49252252Y-29345345D01*
X49238276Y-29362376D01*
X49221245Y-29376352D01*
X49201809Y-29386740D01*
X49180728Y-29393136D01*
X49152660Y-29395900D01*
X47638940Y-29395900D01*
X47610872Y-29393136D01*
X47589791Y-29386740D01*
X47570355Y-29376352D01*
X47553324Y-29362376D01*
X47539348Y-29345345D01*
X47528960Y-29325909D01*
X47522564Y-29304828D01*
X47519800Y-29276760D01*
X47519800Y-28813040D01*
X47522564Y-28784972D01*
X47528960Y-28763891D01*
X47539348Y-28744455D01*
X47553324Y-28727424D01*
X47570355Y-28713448D01*
X47589791Y-28703060D01*
X47610872Y-28696664D01*
X47638940Y-28693900D01*
X49152660Y-28693900D01*
X49180728Y-28696664D01*
G37*
G36*
X37518574Y-27576565D02*
G01*
X37556267Y-27587999D01*
X37591003Y-27606566D01*
X37621448Y-27631552D01*
X37646434Y-27661997D01*
X37665001Y-27696733D01*
X37676435Y-27734426D01*
X37680900Y-27779761D01*
X37680900Y-28866439D01*
X37676435Y-28911774D01*
X37665001Y-28949467D01*
X37646434Y-28984203D01*
X37621448Y-29014648D01*
X37591003Y-29039634D01*
X37556267Y-29058201D01*
X37518574Y-29069635D01*
X37473239Y-29074100D01*
X36636561Y-29074100D01*
X36591226Y-29069635D01*
X36553533Y-29058201D01*
X36518797Y-29039634D01*
X36488352Y-29014648D01*
X36463366Y-28984203D01*
X36444799Y-28949467D01*
X36433365Y-28911774D01*
X36428900Y-28866439D01*
X36428900Y-27779761D01*
X36433365Y-27734426D01*
X36444799Y-27696733D01*
X36463366Y-27661997D01*
X36488352Y-27631552D01*
X36518797Y-27606566D01*
X36553533Y-27587999D01*
X36591226Y-27576565D01*
X36636561Y-27572100D01*
X37473239Y-27572100D01*
X37518574Y-27576565D01*
G37*
G36*
X35468574Y-27576565D02*
G01*
X35506267Y-27587999D01*
X35541003Y-27606566D01*
X35571448Y-27631552D01*
X35596434Y-27661997D01*
X35615001Y-27696733D01*
X35626435Y-27734426D01*
X35630900Y-27779761D01*
X35630900Y-28866439D01*
X35626435Y-28911774D01*
X35615001Y-28949467D01*
X35596434Y-28984203D01*
X35571448Y-29014648D01*
X35541003Y-29039634D01*
X35506267Y-29058201D01*
X35468574Y-29069635D01*
X35423239Y-29074100D01*
X34586561Y-29074100D01*
X34541226Y-29069635D01*
X34503533Y-29058201D01*
X34468797Y-29039634D01*
X34438352Y-29014648D01*
X34413366Y-28984203D01*
X34394799Y-28949467D01*
X34383365Y-28911774D01*
X34378900Y-28866439D01*
X34378900Y-27779761D01*
X34383365Y-27734426D01*
X34394799Y-27696733D01*
X34413366Y-27661997D01*
X34438352Y-27631552D01*
X34468797Y-27606566D01*
X34503533Y-27587999D01*
X34541226Y-27576565D01*
X34586561Y-27572100D01*
X35423239Y-27572100D01*
X35468574Y-27576565D01*
G37*
G36*
X27979528Y-27883864D02*
G01*
X28000609Y-27890260D01*
X28020045Y-27900648D01*
X28037076Y-27914624D01*
X28051052Y-27931655D01*
X28061440Y-27951091D01*
X28067836Y-27972172D01*
X28070600Y-28000240D01*
X28070600Y-28463960D01*
X28067836Y-28492028D01*
X28061440Y-28513109D01*
X28051052Y-28532545D01*
X28037076Y-28549576D01*
X28020045Y-28563552D01*
X28000609Y-28573940D01*
X27979528Y-28580336D01*
X27951460Y-28583100D01*
X26437740Y-28583100D01*
X26409672Y-28580336D01*
X26388591Y-28573940D01*
X26369155Y-28563552D01*
X26352124Y-28549576D01*
X26338148Y-28532545D01*
X26327760Y-28513109D01*
X26321364Y-28492028D01*
X26318600Y-28463960D01*
X26318600Y-28000240D01*
X26321364Y-27972172D01*
X26327760Y-27951091D01*
X26338148Y-27931655D01*
X26352124Y-27914624D01*
X26369155Y-27900648D01*
X26388591Y-27890260D01*
X26409672Y-27883864D01*
X26437740Y-27881100D01*
X27951460Y-27881100D01*
X27979528Y-27883864D01*
G37*
G36*
X33229528Y-27883864D02*
G01*
X33250609Y-27890260D01*
X33270045Y-27900648D01*
X33287076Y-27914624D01*
X33301052Y-27931655D01*
X33311440Y-27951091D01*
X33317836Y-27972172D01*
X33320600Y-28000240D01*
X33320600Y-28463960D01*
X33317836Y-28492028D01*
X33311440Y-28513109D01*
X33301052Y-28532545D01*
X33287076Y-28549576D01*
X33270045Y-28563552D01*
X33250609Y-28573940D01*
X33229528Y-28580336D01*
X33201460Y-28583100D01*
X31687740Y-28583100D01*
X31659672Y-28580336D01*
X31638591Y-28573940D01*
X31619155Y-28563552D01*
X31602124Y-28549576D01*
X31588148Y-28532545D01*
X31577760Y-28513109D01*
X31571364Y-28492028D01*
X31568600Y-28463960D01*
X31568600Y-28000240D01*
X31571364Y-27972172D01*
X31577760Y-27951091D01*
X31588148Y-27931655D01*
X31602124Y-27914624D01*
X31619155Y-27900648D01*
X31638591Y-27890260D01*
X31659672Y-27883864D01*
X31687740Y-27881100D01*
X33201460Y-27881100D01*
X33229528Y-27883864D01*
G37*
G36*
X43930728Y-27426664D02*
G01*
X43951809Y-27433060D01*
X43971245Y-27443448D01*
X43988276Y-27457424D01*
X44002252Y-27474455D01*
X44012640Y-27493891D01*
X44019036Y-27514972D01*
X44021800Y-27543040D01*
X44021800Y-28006760D01*
X44019036Y-28034828D01*
X44012640Y-28055909D01*
X44002252Y-28075345D01*
X43988276Y-28092376D01*
X43971245Y-28106352D01*
X43951809Y-28116740D01*
X43930728Y-28123136D01*
X43902660Y-28125900D01*
X42388940Y-28125900D01*
X42360872Y-28123136D01*
X42339791Y-28116740D01*
X42320355Y-28106352D01*
X42303324Y-28092376D01*
X42289348Y-28075345D01*
X42278960Y-28055909D01*
X42272564Y-28034828D01*
X42269800Y-28006760D01*
X42269800Y-27543040D01*
X42272564Y-27514972D01*
X42278960Y-27493891D01*
X42289348Y-27474455D01*
X42303324Y-27457424D01*
X42320355Y-27443448D01*
X42339791Y-27433060D01*
X42360872Y-27426664D01*
X42388940Y-27423900D01*
X43902660Y-27423900D01*
X43930728Y-27426664D01*
G37*
G36*
X49180728Y-27426664D02*
G01*
X49201809Y-27433060D01*
X49221245Y-27443448D01*
X49238276Y-27457424D01*
X49252252Y-27474455D01*
X49262640Y-27493891D01*
X49269036Y-27514972D01*
X49271800Y-27543040D01*
X49271800Y-28006760D01*
X49269036Y-28034828D01*
X49262640Y-28055909D01*
X49252252Y-28075345D01*
X49238276Y-28092376D01*
X49221245Y-28106352D01*
X49201809Y-28116740D01*
X49180728Y-28123136D01*
X49152660Y-28125900D01*
X47638940Y-28125900D01*
X47610872Y-28123136D01*
X47589791Y-28116740D01*
X47570355Y-28106352D01*
X47553324Y-28092376D01*
X47539348Y-28075345D01*
X47528960Y-28055909D01*
X47522564Y-28034828D01*
X47519800Y-28006760D01*
X47519800Y-27543040D01*
X47522564Y-27514972D01*
X47528960Y-27493891D01*
X47539348Y-27474455D01*
X47553324Y-27457424D01*
X47570355Y-27443448D01*
X47589791Y-27433060D01*
X47610872Y-27426664D01*
X47638940Y-27423900D01*
X49152660Y-27423900D01*
X49180728Y-27426664D01*
G37*
M02*
