M48
; DRILL file {KiCad (5.1.5)-3} date 20.02.2020 13:27:31
; FORMAT={-:-/ absolute / metric / decimal}
; #@! TF.CreationDate,2020-02-20T13:27:31+01:00
; #@! TF.GenerationSoftware,Kicad,Pcbnew,(5.1.5)-3
FMAT,2
METRIC
T1C0.400
T2C0.800
T3C1.500
%
G90
G05
T1
X26.842Y-60.313
X27.664Y-62.437
X27.664Y-53.079
X28.544Y-54.539
X28.567Y-49.527
X28.957Y-45.823
X29.152Y-41.412
X29.907Y-32.722
X31.805Y-60.813
X32.656Y-46.732
X32.681Y-54.334
X32.843Y-35.239
X33.072Y-41.363
X33.78Y-61.746
X33.839Y-62.838
X34.431Y-38.653
X35.234Y-49.333
X35.329Y-60.894
X35.786Y-56.797
X36.304Y-50.008
X36.506Y-52.938
X36.697Y-51.937
X36.798Y-56.484
X37.078Y-49.253
X37.757Y-51.43
X37.85Y-56.464
X38.104Y-39.531
X38.277Y-28.204
X38.69Y-51.912
X38.718Y-50.911
X39.529Y-57.345
X40.384Y-60.935
X40.898Y-56.879
X41.357Y-52.812
X41.841Y-36.091
X42.577Y-42.585
X42.922Y-33.877
X43.163Y-36.978
X43.357Y-51.879
X44.048Y-50.462
X44.592Y-47.403
X44.905Y-51.223
X46.083Y-43.756
X46.099Y-41.461
X46.179Y-34.087
X47.124Y-29.686
X48.086Y-32.805
X48.165Y-39.466
X48.181Y-51.277
X48.941Y-42.533
X49.834Y-27.644
X51.98Y-27.739
T2
X50.902Y-55.881
X50.902Y-57.881
X50.902Y-59.881
X50.902Y-61.881
X50.902Y-63.881
X47.803Y-55.881
X47.803Y-57.881
X47.803Y-59.881
X47.803Y-61.881
X47.803Y-63.881
T3
X27.292Y-51.156
X28.613Y-38.252
X30.543Y-56.083
X31.483Y-43.129
X34.074Y-44.679
X35.217Y-32.258
X37.757Y-62.459
X39.002Y-41.453
X40.221Y-29.286
X42.685Y-59.233
X46.393Y-48.158
X47.46Y-35.281
X49.517Y-53.111
X50.711Y-40.284
T0
M30
