G04 #@! TF.GenerationSoftware,KiCad,Pcbnew,(5.1.5-0-10_14)*
G04 #@! TF.CreationDate,2020-02-20T13:18:36+01:00*
G04 #@! TF.ProjectId,EM7SEG_DRIVER,454d3753-4547-45f4-9452-495645522e6b,rev?*
G04 #@! TF.SameCoordinates,Original*
G04 #@! TF.FileFunction,Copper,L1,Top*
G04 #@! TF.FilePolarity,Positive*
%FSLAX46Y46*%
G04 Gerber Fmt 4.6, Leading zero omitted, Abs format (unit mm)*
G04 Created by KiCad (PCBNEW (5.1.5-0-10_14)) date 2020-02-20 13:18:36*
%MOMM*%
%LPD*%
G04 APERTURE LIST*
%ADD10C,2.300000*%
%ADD11O,1.350000X1.350000*%
%ADD12R,1.350000X1.350000*%
%ADD13C,0.800000*%
%ADD14C,0.250000*%
G04 APERTURE END LIST*
D10*
X27292300Y-51155600D03*
X30543500Y-56083200D03*
X37757100Y-62458600D03*
X42684700Y-59232800D03*
X49517300Y-53111400D03*
X46393100Y-48158400D03*
X50711100Y-40284400D03*
X47459900Y-35280600D03*
X34074100Y-44678600D03*
X31483300Y-43129200D03*
X39001700Y-41452800D03*
X28613100Y-38252400D03*
X35217100Y-32258000D03*
X40220900Y-29286200D03*
D11*
X50901600Y-55881000D03*
X50901600Y-57881000D03*
X50901600Y-59881000D03*
X50901600Y-61881000D03*
D12*
X50901600Y-63881000D03*
X47802800Y-63881000D03*
D11*
X47802800Y-61881000D03*
X47802800Y-59881000D03*
X47802800Y-57881000D03*
X47802800Y-55881000D03*
D13*
X38277400Y-28203600D03*
X36797900Y-56483900D03*
X43356800Y-51878700D03*
X40384100Y-60934700D03*
X33779600Y-61746100D03*
X35329100Y-60893600D03*
X46083000Y-43755900D03*
X48165500Y-39466400D03*
X46099000Y-41461100D03*
X32843400Y-35239000D03*
X37849900Y-56464400D03*
X42922200Y-33877200D03*
X38690200Y-51911800D03*
X29907400Y-32722400D03*
X38718000Y-50911400D03*
X48086400Y-32804800D03*
X36696500Y-51937100D03*
X46178600Y-34086600D03*
X36506400Y-52937500D03*
X42577000Y-42585200D03*
X37756700Y-51430500D03*
X27664100Y-62436800D03*
X27664200Y-53079500D03*
X35233900Y-49333300D03*
X34431400Y-38652600D03*
X32655800Y-46732400D03*
X31805400Y-60812700D03*
X32680800Y-54333500D03*
X39529100Y-57344700D03*
X33071600Y-41362600D03*
X36304500Y-50007600D03*
X38104300Y-39530700D03*
X37077500Y-49253400D03*
X41840800Y-36091400D03*
X43162800Y-36978400D03*
X26842100Y-60313200D03*
X33838800Y-62838300D03*
X47124400Y-29686400D03*
X44591800Y-47403200D03*
X44904800Y-51222800D03*
X44048300Y-50461700D03*
X48180700Y-51276700D03*
X28544500Y-54539000D03*
X51979900Y-27739200D03*
X41357200Y-52811700D03*
X29152200Y-41411800D03*
X40897700Y-56879200D03*
X28956800Y-45823100D03*
X35785800Y-56797000D03*
X28566800Y-49527000D03*
X49833500Y-27644400D03*
X48940800Y-42533500D03*
D14*
X38277400Y-28203600D02*
X33382700Y-28203600D01*
X33382700Y-28203600D02*
X27133900Y-34452400D01*
X27133900Y-34452400D02*
X27133900Y-46819900D01*
X27133900Y-46819900D02*
X36797900Y-56483900D01*
X33779600Y-61746100D02*
X36121400Y-61746100D01*
X36121400Y-61746100D02*
X36932800Y-60934700D01*
X36932800Y-60934700D02*
X40384100Y-60934700D01*
X42719900Y-57074300D02*
X40384100Y-59410100D01*
X40384100Y-59410100D02*
X40384100Y-60934700D01*
X43356800Y-51878700D02*
X43356800Y-56437400D01*
X43356800Y-56437400D02*
X42719900Y-57074300D01*
X47802800Y-63881000D02*
X44978100Y-61056300D01*
X44978100Y-61056300D02*
X44978100Y-59332500D01*
X44978100Y-59332500D02*
X42719900Y-57074300D01*
X43871800Y-49497000D02*
X42424100Y-50944700D01*
X42424100Y-50944700D02*
X42424100Y-56385100D01*
X42424100Y-56385100D02*
X39595700Y-59213500D01*
X39595700Y-59213500D02*
X37009200Y-59213500D01*
X37009200Y-59213500D02*
X35329100Y-60893600D01*
X47802800Y-54880700D02*
X47802800Y-53030700D01*
X47802800Y-53030700D02*
X44269100Y-49497000D01*
X44269100Y-49497000D02*
X43871800Y-49497000D01*
X43871800Y-49497000D02*
X43866400Y-49491600D01*
X43866400Y-49491600D02*
X43866400Y-46102500D01*
X43866400Y-46102500D02*
X46083000Y-43885900D01*
X46083000Y-43885900D02*
X46083000Y-43755900D01*
X46083000Y-43755900D02*
X46099000Y-43739900D01*
X46099000Y-43739900D02*
X46099000Y-41461100D01*
X46099000Y-41461100D02*
X46170800Y-41461100D01*
X46170800Y-41461100D02*
X48165500Y-39466400D01*
X47802800Y-55881000D02*
X47802800Y-54880700D01*
X32843400Y-35239000D02*
X32843400Y-36238500D01*
X32843400Y-36238500D02*
X28231500Y-40850400D01*
X28231500Y-40850400D02*
X28231500Y-46962100D01*
X28231500Y-46962100D02*
X35832800Y-54563400D01*
X35832800Y-54563400D02*
X35948900Y-54563400D01*
X35948900Y-54563400D02*
X37849900Y-56464400D01*
X42922200Y-33877200D02*
X44346900Y-35301900D01*
X44346900Y-35301900D02*
X44346900Y-43059000D01*
X44346900Y-43059000D02*
X41000000Y-46405900D01*
X41000000Y-46405900D02*
X41000000Y-49656000D01*
X41000000Y-49656000D02*
X38744200Y-51911800D01*
X38744200Y-51911800D02*
X38690200Y-51911800D01*
X29907400Y-32722400D02*
X30933700Y-33748700D01*
X30933700Y-33748700D02*
X41258300Y-33748700D01*
X41258300Y-33748700D02*
X43896600Y-36387000D01*
X43896600Y-36387000D02*
X43896600Y-42872400D01*
X43896600Y-42872400D02*
X38718000Y-48051000D01*
X38718000Y-48051000D02*
X38718000Y-50911400D01*
X48086400Y-32804800D02*
X46347500Y-32804800D01*
X46347500Y-32804800D02*
X44797200Y-34355100D01*
X44797200Y-34355100D02*
X44797200Y-43772800D01*
X44797200Y-43772800D02*
X41450300Y-47119700D01*
X41450300Y-47119700D02*
X41450300Y-50251700D01*
X41450300Y-50251700D02*
X39056100Y-52645900D01*
X39056100Y-52645900D02*
X37405300Y-52645900D01*
X37405300Y-52645900D02*
X36696500Y-51937100D01*
X46178600Y-34086600D02*
X45247500Y-35017700D01*
X45247500Y-35017700D02*
X45247500Y-44069100D01*
X45247500Y-44069100D02*
X41900600Y-47416000D01*
X41900600Y-47416000D02*
X41900600Y-50452700D01*
X41900600Y-50452700D02*
X39250100Y-53103200D01*
X39250100Y-53103200D02*
X36672100Y-53103200D01*
X36672100Y-53103200D02*
X36506400Y-52937500D01*
X42577000Y-42585200D02*
X37802800Y-47359400D01*
X37802800Y-47359400D02*
X37802800Y-51384400D01*
X37802800Y-51384400D02*
X37756700Y-51430500D01*
X27664100Y-62436800D02*
X27664100Y-53079500D01*
X27664100Y-53079500D02*
X27664200Y-53079500D01*
X35233900Y-49333300D02*
X32655800Y-46755200D01*
X32655800Y-46755200D02*
X32655800Y-46732400D01*
X32655800Y-46732400D02*
X32257700Y-46732400D01*
X32257700Y-46732400D02*
X29528600Y-44003300D01*
X29528600Y-44003300D02*
X29528600Y-42286700D01*
X29528600Y-42286700D02*
X33162700Y-38652600D01*
X33162700Y-38652600D02*
X34431400Y-38652600D01*
X34220500Y-57544900D02*
X34220500Y-58397600D01*
X34220500Y-58397600D02*
X31805400Y-60812700D01*
X34220500Y-57544900D02*
X39328900Y-57544900D01*
X39328900Y-57544900D02*
X39529100Y-57344700D01*
X32680800Y-54333500D02*
X32680800Y-56005200D01*
X32680800Y-56005200D02*
X34220500Y-57544900D01*
X36304500Y-50007600D02*
X36304500Y-49329600D01*
X36304500Y-49329600D02*
X32982000Y-46007100D01*
X32982000Y-46007100D02*
X32190300Y-46007100D01*
X32190300Y-46007100D02*
X29978900Y-43795700D01*
X29978900Y-43795700D02*
X29978900Y-42473300D01*
X29978900Y-42473300D02*
X31089500Y-41362700D01*
X31089500Y-41362700D02*
X33071600Y-41362700D01*
X33071600Y-41362700D02*
X33071600Y-41362600D01*
X37077500Y-49253400D02*
X37077500Y-40557500D01*
X37077500Y-40557500D02*
X38104300Y-39530700D01*
X41840800Y-36091400D02*
X39001700Y-38930500D01*
X39001700Y-38930500D02*
X39001700Y-41452800D01*
X43162800Y-36978400D02*
X43162800Y-36387400D01*
X43162800Y-36387400D02*
X42128800Y-35353400D01*
X42128800Y-35353400D02*
X41244100Y-35353400D01*
X41244100Y-35353400D02*
X34074100Y-42523400D01*
X34074100Y-42523400D02*
X34074100Y-44678600D01*
X27292300Y-51155600D02*
X26842100Y-51605800D01*
X26842100Y-51605800D02*
X26842100Y-60313200D01*
X33838800Y-62838300D02*
X34953000Y-63952500D01*
X34953000Y-63952500D02*
X38394000Y-63952500D01*
X38394000Y-63952500D02*
X42684700Y-59661800D01*
X42684700Y-59661800D02*
X42684700Y-59232800D01*
X47124400Y-29686400D02*
X50711100Y-33273100D01*
X50711100Y-33273100D02*
X50711100Y-40284400D01*
X44591800Y-47403200D02*
X44591800Y-48713500D01*
X44591800Y-48713500D02*
X48989700Y-53111400D01*
X48989700Y-53111400D02*
X49517300Y-53111400D01*
X47802800Y-57881000D02*
X44904800Y-54983000D01*
X44904800Y-54983000D02*
X44904800Y-51222800D01*
X47802800Y-59881000D02*
X44084000Y-56162200D01*
X44084000Y-56162200D02*
X44084000Y-50497400D01*
X44084000Y-50497400D02*
X44048300Y-50461700D01*
X49901300Y-59881000D02*
X47802800Y-59881000D01*
X50901600Y-59881000D02*
X49901300Y-59881000D01*
X51901900Y-51276700D02*
X51901900Y-61881000D01*
X51979900Y-27739200D02*
X52250200Y-28009500D01*
X52250200Y-28009500D02*
X52250200Y-50928400D01*
X52250200Y-50928400D02*
X51901900Y-51276700D01*
X51901900Y-51276700D02*
X48180700Y-51276700D01*
X28544500Y-54539000D02*
X28544500Y-58577500D01*
X28544500Y-58577500D02*
X34899800Y-64932800D01*
X34899800Y-64932800D02*
X48566100Y-64932800D01*
X48566100Y-64932800D02*
X48803100Y-64695800D01*
X48803100Y-64695800D02*
X48803100Y-61881000D01*
X48803100Y-61881000D02*
X49901300Y-61881000D01*
X47802800Y-61881000D02*
X48803100Y-61881000D01*
X50901600Y-61881000D02*
X49901300Y-61881000D01*
X50901600Y-61881000D02*
X51901900Y-61881000D01*
X29152200Y-41411800D02*
X29008400Y-41555600D01*
X29008400Y-41555600D02*
X29008400Y-44691500D01*
X29008400Y-44691500D02*
X35781100Y-51464200D01*
X35781100Y-51464200D02*
X35781100Y-53237900D01*
X35781100Y-53237900D02*
X36206000Y-53662800D01*
X36206000Y-53662800D02*
X40506100Y-53662800D01*
X40506100Y-53662800D02*
X41357200Y-52811700D01*
X28956800Y-45823100D02*
X28956800Y-47050500D01*
X28956800Y-47050500D02*
X36019400Y-54113100D01*
X36019400Y-54113100D02*
X38131600Y-54113100D01*
X38131600Y-54113100D02*
X40897700Y-56879200D01*
X28566800Y-49527000D02*
X28900100Y-49527000D01*
X28900100Y-49527000D02*
X35785800Y-56412700D01*
X35785800Y-56412700D02*
X35785800Y-56797000D01*
X48940800Y-42533500D02*
X48940800Y-32633400D01*
X48940800Y-32633400D02*
X46399000Y-30091600D01*
X46399000Y-30091600D02*
X46399000Y-29336300D01*
X46399000Y-29336300D02*
X48090900Y-27644400D01*
X48090900Y-27644400D02*
X49833500Y-27644400D01*
M02*
