M48
; DRILL file {KiCad (5.1.5-0-10_14)} date 2020 February 20, Thursday 13:18:39
; FORMAT={-:-/ absolute / inch / decimal}
; #@! TF.CreationDate,2020-02-20T13:18:39+01:00
; #@! TF.GenerationSoftware,Kicad,Pcbnew,(5.1.5-0-10_14)
FMAT,2
INCH
T1C0.0157
T2C0.0315
T3C0.0591
%
G90
G05
T1
X1.0568Y-2.3745
X1.0891Y-2.4581
X1.0891Y-2.0897
X1.1238Y-2.1472
X1.1247Y-1.9499
X1.14Y-1.8041
X1.1477Y-1.6304
X1.1775Y-1.2883
X1.2522Y-2.3942
X1.2857Y-1.8399
X1.2866Y-2.1391
X1.293Y-1.3874
X1.302Y-1.6284
X1.3299Y-2.4309
X1.3322Y-2.4739
X1.3556Y-1.5218
X1.3872Y-1.9423
X1.3909Y-2.3974
X1.4089Y-2.2361
X1.4293Y-1.9688
X1.4373Y-2.0842
X1.4447Y-2.0448
X1.4487Y-2.2238
X1.4597Y-1.9391
X1.4865Y-2.0248
X1.4902Y-2.223
X1.5002Y-1.5563
X1.507Y-1.1104
X1.5232Y-2.0438
X1.5243Y-2.0044
X1.5563Y-2.2577
X1.5899Y-2.399
X1.6101Y-2.2393
X1.6282Y-2.0792
X1.6473Y-1.4209
X1.6763Y-1.6766
X1.6899Y-1.3337
X1.6993Y-1.4558
X1.707Y-2.0425
X1.7342Y-1.9867
X1.7556Y-1.8663
X1.7679Y-2.0166
X1.8143Y-1.7227
X1.8149Y-1.6323
X1.8181Y-1.342
X1.8553Y-1.1688
X1.8932Y-1.2915
X1.8963Y-1.5538
X1.8969Y-2.0188
X1.9268Y-1.6745
X1.9619Y-1.0884
X2.0465Y-1.0921
T2
X1.882Y-2.2
X1.882Y-2.2788
X1.882Y-2.3575
X1.882Y-2.4363
X1.882Y-2.515
X2.004Y-2.2
X2.004Y-2.2788
X2.004Y-2.3575
X2.004Y-2.4363
X2.004Y-2.515
T3
X1.0745Y-2.014
X1.1265Y-1.506
X1.2025Y-2.208
X1.2395Y-1.698
X1.3415Y-1.759
X1.3865Y-1.27
X1.4865Y-2.459
X1.5355Y-1.632
X1.5835Y-1.153
X1.6805Y-2.332
X1.8265Y-1.896
X1.8685Y-1.389
X1.9495Y-2.091
X1.9965Y-1.586
T0
M30
