M48
; DRILL file {KiCad 8.0.7} date 2025-05-03T20:28:37+0200
; FORMAT={-:-/ absolute / inch / decimal}
; #@! TF.CreationDate,2025-05-03T20:28:37+02:00
; #@! TF.GenerationSoftware,Kicad,Pcbnew,8.0.7
; #@! TF.FileFunction,MixedPlating,1,2
FMAT,2
INCH
; #@! TA.AperFunction,Plated,PTH,ViaDrill
T1C0.0157
; #@! TA.AperFunction,Plated,PTH,ComponentDrill
T2C0.0315
; #@! TA.AperFunction,Plated,PTH,ComponentDrill
T3C0.0591
%
G90
G05
T1
X1.0665Y-1.5998
X1.0834Y-2.3744
X1.1314Y-2.1396
X1.1341Y-1.939
X1.1353Y-1.7101
X1.1397Y-2.4341
X1.1398Y-1.8957
X1.1768Y-1.2895
X1.1776Y-1.8766
X1.2306Y-2.367
X1.2811Y-1.8262
X1.2825Y-1.8729
X1.2957Y-1.5068
X1.3089Y-2.2195
X1.3272Y-1.9207
X1.3287Y-2.403
X1.3348Y-2.4727
X1.3394Y-2.1693
X1.3395Y-1.9768
X1.3436Y-1.5073
X1.3498Y-1.3617
X1.3781Y-1.866
X1.3926Y-2.4142
X1.3971Y-1.5894
X1.4263Y-2.3736
X1.4427Y-1.8776
X1.4569Y-1.9179
X1.457Y-2.1483
X1.4786Y-2.255
X1.5Y-1.9555
X1.5024Y-1.4187
X1.5362Y-2.5088
X1.5441Y-2.0447
X1.5744Y-1.8407
X1.5948Y-2.2204
X1.6056Y-2.1757
X1.6111Y-1.4088
X1.613Y-1.9432
X1.6227Y-1.9902
X1.6312Y-1.5069
X1.6533Y-2.2376
X1.6555Y-2.5334
X1.6577Y-1.3747
X1.6639Y-1.4368
X1.6695Y-1.8761
X1.6727Y-1.2988
X1.6981Y-1.7016
X1.7401Y-2.1179
X1.7402Y-1.9581
X1.7406Y-2.0661
X1.7559Y-1.1464
X1.7692Y-1.9884
X1.7724Y-1.0916
X1.7846Y-1.7246
X1.7858Y-1.1935
X1.8356Y-2.1226
X1.8534Y-1.7014
X1.8804Y-2.0534
X1.9797Y-1.3691
X2.0135Y-1.0934
X2.0144Y-1.6557
T2
X1.882Y-2.2
X1.882Y-2.2788
X1.882Y-2.3575
X1.882Y-2.4363
X1.882Y-2.515
X2.004Y-2.2
X2.004Y-2.2788
X2.004Y-2.3575
X2.004Y-2.4363
X2.004Y-2.515
T3
X1.0745Y-2.014
X1.1265Y-1.506
X1.2025Y-2.208
X1.2395Y-1.698
X1.3415Y-1.759
X1.3865Y-1.27
X1.4865Y-2.459
X1.5355Y-1.632
X1.5835Y-1.153
X1.6805Y-2.332
X1.8265Y-1.896
X1.8685Y-1.389
X1.9495Y-2.091
X1.9965Y-1.586
M30
