G04 #@! TF.GenerationSoftware,KiCad,Pcbnew,8.0.7*
G04 #@! TF.CreationDate,2025-05-03T20:28:39+02:00*
G04 #@! TF.ProjectId,EM7SEG_DRIVER,454d3753-4547-45f4-9452-495645522e6b,rev?*
G04 #@! TF.SameCoordinates,Original*
G04 #@! TF.FileFunction,Copper,L2,Bot*
G04 #@! TF.FilePolarity,Positive*
%FSLAX46Y46*%
G04 Gerber Fmt 4.6, Leading zero omitted, Abs format (unit mm)*
G04 Created by KiCad (PCBNEW 8.0.7) date 2025-05-03 20:28:39*
%MOMM*%
%LPD*%
G01*
G04 APERTURE LIST*
G04 Aperture macros list*
%AMRoundRect*
0 Rectangle with rounded corners*
0 $1 Rounding radius*
0 $2 $3 $4 $5 $6 $7 $8 $9 X,Y pos of 4 corners*
0 Add a 4 corners polygon primitive as box body*
4,1,4,$2,$3,$4,$5,$6,$7,$8,$9,$2,$3,0*
0 Add four circle primitives for the rounded corners*
1,1,$1+$1,$2,$3*
1,1,$1+$1,$4,$5*
1,1,$1+$1,$6,$7*
1,1,$1+$1,$8,$9*
0 Add four rect primitives between the rounded corners*
20,1,$1+$1,$2,$3,$4,$5,0*
20,1,$1+$1,$4,$5,$6,$7,0*
20,1,$1+$1,$6,$7,$8,$9,0*
20,1,$1+$1,$8,$9,$2,$3,0*%
%AMFreePoly0*
4,1,19,0.500000,-0.750000,0.000000,-0.750000,0.000000,-0.744911,-0.071157,-0.744911,-0.207708,-0.704816,-0.327430,-0.627875,-0.420627,-0.520320,-0.479746,-0.390866,-0.500000,-0.250000,-0.500000,0.250000,-0.479746,0.390866,-0.420627,0.520320,-0.327430,0.627875,-0.207708,0.704816,-0.071157,0.744911,0.000000,0.744911,0.000000,0.750000,0.500000,0.750000,0.500000,-0.750000,0.500000,-0.750000,
$1*%
%AMFreePoly1*
4,1,19,0.000000,0.744911,0.071157,0.744911,0.207708,0.704816,0.327430,0.627875,0.420627,0.520320,0.479746,0.390866,0.500000,0.250000,0.500000,-0.250000,0.479746,-0.390866,0.420627,-0.520320,0.327430,-0.627875,0.207708,-0.704816,0.071157,-0.744911,0.000000,-0.744911,0.000000,-0.750000,-0.500000,-0.750000,-0.500000,0.750000,0.000000,0.750000,0.000000,0.744911,0.000000,0.744911,
$1*%
G04 Aperture macros list end*
G04 #@! TA.AperFunction,ComponentPad*
%ADD10C,2.300000*%
G04 #@! TD*
G04 #@! TA.AperFunction,SMDPad,CuDef*
%ADD11RoundRect,0.250000X0.450000X-0.325000X0.450000X0.325000X-0.450000X0.325000X-0.450000X-0.325000X0*%
G04 #@! TD*
G04 #@! TA.AperFunction,SMDPad,CuDef*
%ADD12RoundRect,0.150000X0.150000X-0.675000X0.150000X0.675000X-0.150000X0.675000X-0.150000X-0.675000X0*%
G04 #@! TD*
G04 #@! TA.AperFunction,SMDPad,CuDef*
%ADD13RoundRect,0.250000X-0.450000X0.325000X-0.450000X-0.325000X0.450000X-0.325000X0.450000X0.325000X0*%
G04 #@! TD*
G04 #@! TA.AperFunction,SMDPad,CuDef*
%ADD14RoundRect,0.250000X0.325000X0.450000X-0.325000X0.450000X-0.325000X-0.450000X0.325000X-0.450000X0*%
G04 #@! TD*
G04 #@! TA.AperFunction,SMDPad,CuDef*
%ADD15FreePoly0,0.000000*%
G04 #@! TD*
G04 #@! TA.AperFunction,SMDPad,CuDef*
%ADD16FreePoly1,0.000000*%
G04 #@! TD*
G04 #@! TA.AperFunction,SMDPad,CuDef*
%ADD17RoundRect,0.150000X0.675000X0.150000X-0.675000X0.150000X-0.675000X-0.150000X0.675000X-0.150000X0*%
G04 #@! TD*
G04 #@! TA.AperFunction,SMDPad,CuDef*
%ADD18RoundRect,0.150000X-0.675000X-0.150000X0.675000X-0.150000X0.675000X0.150000X-0.675000X0.150000X0*%
G04 #@! TD*
G04 #@! TA.AperFunction,ComponentPad*
%ADD19R,1.350000X1.350000*%
G04 #@! TD*
G04 #@! TA.AperFunction,ComponentPad*
%ADD20O,1.350000X1.350000*%
G04 #@! TD*
G04 #@! TA.AperFunction,SMDPad,CuDef*
%ADD21RoundRect,0.150000X-0.150000X0.675000X-0.150000X-0.675000X0.150000X-0.675000X0.150000X0.675000X0*%
G04 #@! TD*
G04 #@! TA.AperFunction,SMDPad,CuDef*
%ADD22RoundRect,0.250000X-0.325000X-0.450000X0.325000X-0.450000X0.325000X0.450000X-0.325000X0.450000X0*%
G04 #@! TD*
G04 #@! TA.AperFunction,SMDPad,CuDef*
%ADD23C,1.000000*%
G04 #@! TD*
G04 #@! TA.AperFunction,SMDPad,CuDef*
%ADD24R,1.750000X0.450000*%
G04 #@! TD*
G04 #@! TA.AperFunction,ViaPad*
%ADD25C,0.800000*%
G04 #@! TD*
G04 #@! TA.AperFunction,Conductor*
%ADD26C,0.250000*%
G04 #@! TD*
G04 APERTURE END LIST*
D10*
X40220900Y-29286200D03*
X35217100Y-32258000D03*
X47459900Y-35280600D03*
X50711100Y-40284400D03*
X46393100Y-48158400D03*
X49517300Y-53111400D03*
X37757100Y-62458600D03*
X42684700Y-59232800D03*
X30543500Y-56083200D03*
X27292300Y-51155600D03*
X31483300Y-43129200D03*
X28613100Y-38252400D03*
X39001700Y-41452800D03*
X34074100Y-44678600D03*
D11*
X46456600Y-52714000D03*
X46456600Y-50664000D03*
D12*
X35737800Y-64131100D03*
X34467800Y-64131100D03*
X33197800Y-64131100D03*
X31927800Y-64131100D03*
X31927800Y-58881100D03*
X33197800Y-58881100D03*
X34467800Y-58881100D03*
X35737800Y-58881100D03*
D13*
X27228800Y-54626400D03*
X27228800Y-56676400D03*
D11*
X32024300Y-52424400D03*
X32024300Y-50374400D03*
D14*
X45288200Y-62052200D03*
X43238200Y-62052200D03*
D11*
X44983400Y-59546600D03*
X44983400Y-57496600D03*
D15*
X26731200Y-44627800D03*
D16*
X28031200Y-44627800D03*
D17*
X32444600Y-28232100D03*
X32444600Y-29502100D03*
X32444600Y-30772100D03*
X32444600Y-32042100D03*
X27194600Y-32042100D03*
X27194600Y-30772100D03*
X27194600Y-29502100D03*
X27194600Y-28232100D03*
D18*
X43145800Y-31584900D03*
X43145800Y-30314900D03*
X43145800Y-29044900D03*
X43145800Y-27774900D03*
X48395800Y-27774900D03*
X48395800Y-29044900D03*
X48395800Y-30314900D03*
X48395800Y-31584900D03*
X31416100Y-39657000D03*
X31416100Y-38387000D03*
X31416100Y-37117000D03*
X31416100Y-35847000D03*
X36666100Y-35847000D03*
X36666100Y-37117000D03*
X36666100Y-38387000D03*
X36666100Y-39657000D03*
D15*
X26731200Y-47231300D03*
D16*
X28031200Y-47231300D03*
D19*
X50901600Y-63881000D03*
D20*
X50901600Y-61881000D03*
X50901600Y-59881000D03*
X50901600Y-57881000D03*
X50901600Y-55881000D03*
D13*
X51142900Y-28959700D03*
X51142900Y-31009700D03*
D12*
X47094100Y-45208100D03*
X45824100Y-45208100D03*
X44554100Y-45208100D03*
X43284100Y-45208100D03*
X43284100Y-39958100D03*
X44554100Y-39958100D03*
X45824100Y-39958100D03*
X47094100Y-39958100D03*
D11*
X51402000Y-37849900D03*
X51402000Y-35799900D03*
D17*
X44745800Y-34056300D03*
X44745800Y-35326300D03*
X44745800Y-36596300D03*
X44745800Y-37866300D03*
X39495800Y-37866300D03*
X39495800Y-36596300D03*
X39495800Y-35326300D03*
X39495800Y-34056300D03*
D21*
X26492200Y-58881100D03*
X27762200Y-58881100D03*
X29032200Y-58881100D03*
X30302200Y-58881100D03*
X30302200Y-64131100D03*
X29032200Y-64131100D03*
X27762200Y-64131100D03*
X26492200Y-64131100D03*
D19*
X47802800Y-63881000D03*
D20*
X47802800Y-61881000D03*
X47802800Y-59881000D03*
X47802800Y-57881000D03*
X47802800Y-55881000D03*
D15*
X26731200Y-42024300D03*
D16*
X28031200Y-42024300D03*
D14*
X38871000Y-45478700D03*
X36821000Y-45478700D03*
D11*
X49034700Y-45805200D03*
X49034700Y-43755200D03*
X51282600Y-45817900D03*
X51282600Y-43767900D03*
D13*
X50190400Y-47679500D03*
X50190400Y-49729500D03*
D14*
X45309900Y-64152800D03*
X43259900Y-64152800D03*
D22*
X26988700Y-33901400D03*
X29038700Y-33901400D03*
D14*
X32780100Y-33901400D03*
X30730100Y-33901400D03*
X40420400Y-31831300D03*
X38370400Y-31831300D03*
X37054900Y-28323100D03*
X35004900Y-28323100D03*
D13*
X41427400Y-43463100D03*
X41427400Y-45513100D03*
D22*
X46772700Y-37716500D03*
X48822700Y-37716500D03*
D11*
X40713700Y-64311600D03*
X40713700Y-62261600D03*
D14*
X51583700Y-33474700D03*
X49533700Y-33474700D03*
X39968300Y-58658800D03*
X37918300Y-58658800D03*
D11*
X29700200Y-52437100D03*
X29700200Y-50387100D03*
D13*
X31234400Y-45982800D03*
X31234400Y-48032800D03*
X41432500Y-39597200D03*
X41432500Y-41647200D03*
D22*
X34255600Y-41920200D03*
X36305600Y-41920200D03*
D14*
X29008200Y-35892700D03*
X26958200Y-35892700D03*
D23*
X51460400Y-51638200D03*
D24*
X35516000Y-55943000D03*
X35516000Y-55293000D03*
X35516001Y-54643000D03*
X35516000Y-53993000D03*
X35516000Y-53343001D03*
X35516000Y-52693000D03*
X35516000Y-52043000D03*
X35516000Y-51392999D03*
X35516000Y-50743000D03*
X35516001Y-50093000D03*
X35516000Y-49443000D03*
X35516000Y-48793000D03*
X42716000Y-48793000D03*
X42716000Y-49443000D03*
X42715999Y-50093000D03*
X42716000Y-50743000D03*
X42716000Y-51392999D03*
X42716000Y-52043000D03*
X42716000Y-52693000D03*
X42716000Y-53343001D03*
X42716000Y-53993000D03*
X42715999Y-54643000D03*
X42716000Y-55293000D03*
X42716000Y-55943000D03*
D25*
X41995000Y-56835800D03*
X42049300Y-64348400D03*
X28805700Y-49249800D03*
X34021200Y-55100100D03*
X29910100Y-47664700D03*
X37008000Y-54567800D03*
X27089600Y-40635500D03*
X34024400Y-50210600D03*
X44199400Y-53793800D03*
X37005200Y-48714400D03*
X47762500Y-52157400D03*
X51165100Y-42055000D03*
X51142900Y-27772500D03*
X46623500Y-53912800D03*
X39220600Y-51936200D03*
X35004700Y-47396600D03*
X45328000Y-43804200D03*
X45018100Y-27727400D03*
X33904400Y-62807600D03*
X27517900Y-60310200D03*
X40922000Y-35784700D03*
X42105500Y-34917200D03*
X38099400Y-49670900D03*
X41432500Y-38275400D03*
X38161200Y-36034400D03*
X36643900Y-47691700D03*
X35486400Y-40371800D03*
X34128100Y-38286000D03*
X32539200Y-46386600D03*
X28947800Y-61825500D03*
X28736500Y-54346500D03*
X41216900Y-50552100D03*
X43130900Y-43221600D03*
X39020500Y-63723000D03*
X40508700Y-56398800D03*
X33747900Y-61036800D03*
X39990600Y-46753000D03*
X42262200Y-36495700D03*
X40782300Y-55262500D03*
X50283300Y-34775100D03*
X37555500Y-57276000D03*
X42405700Y-47652900D03*
X29891100Y-32753000D03*
X44201400Y-49736800D03*
X42487800Y-32990000D03*
X40970200Y-49357500D03*
X34284500Y-34587700D03*
X47075300Y-43216100D03*
X45358600Y-30314900D03*
X33244900Y-56374900D03*
X35373300Y-61319600D03*
X28951000Y-48151100D03*
X33711200Y-48785300D03*
X32574400Y-47572100D03*
X32909700Y-38273200D03*
X28837800Y-43436600D03*
X44210700Y-52479400D03*
X36226900Y-60290600D03*
X31256500Y-60123000D03*
X44936800Y-50505000D03*
X44600700Y-29118200D03*
D26*
X42716000Y-53993000D02*
X41515900Y-53993000D01*
X41515900Y-56356700D02*
X41995000Y-56835800D01*
X41515900Y-53993000D02*
X41515900Y-56356700D01*
X43064300Y-64348400D02*
X43259900Y-64152800D01*
X42049300Y-64348400D02*
X43064300Y-64348400D01*
X26731200Y-47652200D02*
X26731200Y-47231300D01*
X28328800Y-49249800D02*
X26731200Y-47652200D01*
X28805700Y-49249800D02*
X28328800Y-49249800D01*
X40936600Y-59750600D02*
X43238200Y-62052200D01*
X40936600Y-57978800D02*
X40936600Y-59750600D01*
X40531900Y-57574100D02*
X40936600Y-57978800D01*
X40014300Y-57574100D02*
X40531900Y-57574100D01*
X37733200Y-55293000D02*
X40014300Y-57574100D01*
X36716100Y-55293000D02*
X37733200Y-55293000D01*
X36116100Y-55293000D02*
X36716100Y-55293000D01*
X36116100Y-55293000D02*
X35516000Y-55293000D01*
X28165500Y-45920100D02*
X29910100Y-47664700D01*
X27512600Y-45920100D02*
X28165500Y-45920100D01*
X26731200Y-45138700D02*
X27512600Y-45920100D01*
X26731200Y-44627800D02*
X26731200Y-45138700D01*
X34214100Y-55293000D02*
X34021200Y-55100100D01*
X35516000Y-55293000D02*
X34214100Y-55293000D01*
X35516000Y-54643000D02*
X36716100Y-54643000D01*
X26731200Y-40993900D02*
X27089600Y-40635500D01*
X26731200Y-42024300D02*
X26731200Y-40993900D01*
X36932800Y-54643000D02*
X37008000Y-54567800D01*
X36716100Y-54643000D02*
X36932800Y-54643000D01*
X44905900Y-57574100D02*
X44983400Y-57496600D01*
X41281100Y-57574100D02*
X44905900Y-57574100D01*
X40831000Y-57124000D02*
X41281100Y-57574100D01*
X40200800Y-57124000D02*
X40831000Y-57124000D01*
X37644600Y-54567800D02*
X40200800Y-57124000D01*
X37008000Y-54567800D02*
X37644600Y-54567800D01*
X35516000Y-49443000D02*
X34315900Y-49443000D01*
X45420300Y-53793800D02*
X44199400Y-53793800D01*
X46272900Y-54646400D02*
X45420300Y-53793800D01*
X50124900Y-54646400D02*
X46272900Y-54646400D01*
X51460400Y-53310900D02*
X50124900Y-54646400D01*
X51460400Y-51638200D02*
X51460400Y-53310900D01*
X34315900Y-49919100D02*
X34024400Y-50210600D01*
X34315900Y-49443000D02*
X34315900Y-49919100D01*
X50901600Y-57881000D02*
X49901500Y-57881000D01*
X47802800Y-57881000D02*
X49901500Y-57881000D01*
X42716000Y-54643000D02*
X43916100Y-54643000D01*
X44995800Y-54643000D02*
X43916100Y-54643000D01*
X47802800Y-57450000D02*
X44995800Y-54643000D01*
X47802800Y-57881000D02*
X47802800Y-57450000D01*
X50901600Y-59881000D02*
X49901500Y-59881000D01*
X47802800Y-59881000D02*
X49901500Y-59881000D01*
X42716000Y-55293000D02*
X43916100Y-55293000D01*
X45009200Y-55293000D02*
X43916100Y-55293000D01*
X46470500Y-56754300D02*
X45009200Y-55293000D01*
X46470500Y-58548700D02*
X46470500Y-56754300D01*
X47802800Y-59881000D02*
X46470500Y-58548700D01*
X47762500Y-52157400D02*
X50190400Y-49729500D01*
X35516000Y-50093000D02*
X36716100Y-50093000D01*
X36716100Y-49003500D02*
X37005200Y-48714400D01*
X36716100Y-50093000D02*
X36716100Y-49003500D01*
X39748400Y-45478700D02*
X38871000Y-45478700D01*
X41182800Y-46913100D02*
X39748400Y-45478700D01*
X42886400Y-46913100D02*
X41182800Y-46913100D01*
X45617100Y-49643800D02*
X42886400Y-46913100D01*
X47560800Y-49643800D02*
X45617100Y-49643800D01*
X49525100Y-47679500D02*
X47560800Y-49643800D01*
X50190400Y-47679500D02*
X49525100Y-47679500D01*
X52197400Y-38645300D02*
X51402000Y-37849900D01*
X52197400Y-42853100D02*
X52197400Y-38645300D01*
X51282600Y-43767900D02*
X52197400Y-42853100D01*
X51142900Y-27772500D02*
X51142900Y-28959700D01*
X50734900Y-42055000D02*
X51165100Y-42055000D01*
X49034700Y-43755200D02*
X50734900Y-42055000D01*
X27772300Y-56676400D02*
X27228800Y-56676400D01*
X32024300Y-52424400D02*
X27772300Y-56676400D01*
X49533700Y-32618900D02*
X49533700Y-33474700D01*
X51142900Y-31009700D02*
X49533700Y-32618900D01*
X47802800Y-61881000D02*
X46802700Y-61881000D01*
X45288200Y-61881000D02*
X46802700Y-61881000D01*
X44983400Y-61576200D02*
X45288200Y-61881000D01*
X44983400Y-59546600D02*
X44983400Y-61576200D01*
X27228800Y-53305400D02*
X27228800Y-54626400D01*
X29700200Y-50834000D02*
X27228800Y-53305400D01*
X29700200Y-50387100D02*
X29700200Y-50834000D01*
X46456600Y-53745900D02*
X46623500Y-53912800D01*
X46456600Y-52714000D02*
X46456600Y-53745900D01*
X31234400Y-48852900D02*
X31234400Y-48032800D01*
X29700200Y-50387100D02*
X31234400Y-48852900D01*
X40144800Y-42934900D02*
X41432500Y-41647200D01*
X40144800Y-43841100D02*
X40144800Y-42934900D01*
X36305600Y-41920200D02*
X38342600Y-43957100D01*
X36821000Y-45478700D02*
X38342600Y-43957100D01*
X38458600Y-43841100D02*
X40144800Y-43841100D01*
X38342600Y-43957100D02*
X38458600Y-43841100D01*
X46020300Y-58509700D02*
X44983400Y-59546600D01*
X46020300Y-56940800D02*
X46020300Y-58509700D01*
X45022500Y-55943000D02*
X46020300Y-56940800D01*
X43916100Y-55943000D02*
X45022500Y-55943000D01*
X49533700Y-37005500D02*
X48822700Y-37716500D01*
X49533700Y-33474700D02*
X49533700Y-37005500D01*
X41427400Y-45513100D02*
X41427400Y-45123700D01*
X41427400Y-45123700D02*
X40144800Y-43841100D01*
X48247900Y-38291300D02*
X48822700Y-37716500D01*
X48247900Y-40320800D02*
X48247900Y-38291300D01*
X46705700Y-41863000D02*
X48247900Y-40320800D01*
X45514900Y-41863000D02*
X46705700Y-41863000D01*
X43431200Y-43946700D02*
X45514900Y-41863000D01*
X42604400Y-43946700D02*
X43431200Y-43946700D01*
X41427400Y-45123700D02*
X42604400Y-43946700D01*
X29038700Y-33901400D02*
X30730100Y-33901400D01*
X28949500Y-33901400D02*
X29038700Y-33901400D01*
X26958200Y-35892700D02*
X28949500Y-33901400D01*
X38129300Y-32072400D02*
X38370400Y-31831300D01*
X37154600Y-32072400D02*
X38129300Y-32072400D01*
X37154600Y-32745200D02*
X37154600Y-32072400D01*
X34586900Y-35312900D02*
X37154600Y-32745200D01*
X33681300Y-35312900D02*
X34586900Y-35312900D01*
X33545700Y-35177300D02*
X33681300Y-35312900D01*
X32006000Y-35177300D02*
X33545700Y-35177300D01*
X30730100Y-33901400D02*
X32006000Y-35177300D01*
X34258600Y-27576800D02*
X35004900Y-28323100D01*
X31599500Y-27576800D02*
X34258600Y-27576800D01*
X31239200Y-27937100D02*
X31599500Y-27576800D01*
X31239200Y-31075100D02*
X31239200Y-27937100D01*
X31571200Y-31407100D02*
X31239200Y-31075100D01*
X33395800Y-31407100D02*
X31571200Y-31407100D01*
X34036800Y-30766100D02*
X33395800Y-31407100D01*
X35848300Y-30766100D02*
X34036800Y-30766100D01*
X37154600Y-32072400D02*
X35848300Y-30766100D01*
X45288200Y-61881000D02*
X45288200Y-62052200D01*
X45288200Y-62052200D02*
X45288200Y-63102500D01*
X45309900Y-63124200D02*
X45309900Y-64152800D01*
X45288200Y-63102500D02*
X45309900Y-63124200D01*
X40713700Y-61454200D02*
X40713700Y-62261600D01*
X37918300Y-58658800D02*
X40713700Y-61454200D01*
X41554600Y-63102500D02*
X45288200Y-63102500D01*
X40713700Y-62261600D02*
X41554600Y-63102500D01*
X43316100Y-55943000D02*
X43241400Y-55943000D01*
X42716000Y-55943000D02*
X43241400Y-55943000D01*
X43316100Y-55943000D02*
X43916100Y-55943000D01*
X39328600Y-47986300D02*
X36821000Y-45478700D01*
X39328600Y-51828200D02*
X39328600Y-47986300D01*
X39220600Y-51936200D02*
X39328600Y-51828200D01*
X32258100Y-45079900D02*
X30173600Y-45079900D01*
X34574800Y-47396600D02*
X32258100Y-45079900D01*
X35004700Y-47396600D02*
X34574800Y-47396600D01*
X30173600Y-46870300D02*
X30173600Y-45079900D01*
X31234400Y-47931100D02*
X30173600Y-46870300D01*
X31234400Y-48032800D02*
X31234400Y-47931100D01*
X26618300Y-36232600D02*
X26958200Y-35892700D01*
X26618300Y-39062300D02*
X26618300Y-36232600D01*
X29691400Y-42135400D02*
X26618300Y-39062300D01*
X29691400Y-44597700D02*
X29691400Y-42135400D01*
X30173600Y-45079900D02*
X29691400Y-44597700D01*
X47094100Y-47457400D02*
X46393100Y-48158400D01*
X47094100Y-45208100D02*
X47094100Y-47457400D01*
X44436500Y-43804200D02*
X45328000Y-43804200D01*
X43284100Y-44956600D02*
X44436500Y-43804200D01*
X43284100Y-45208100D02*
X43284100Y-44956600D01*
X47459900Y-35193000D02*
X47459900Y-35280600D01*
X43851800Y-31584900D02*
X47459900Y-35193000D01*
X43145800Y-31584900D02*
X43851800Y-31584900D01*
X44970600Y-27774900D02*
X45018100Y-27727400D01*
X43145800Y-27774900D02*
X44970600Y-27774900D01*
X35001200Y-32042100D02*
X35217100Y-32258000D01*
X32444600Y-32042100D02*
X35001200Y-32042100D01*
X40154700Y-29352400D02*
X40220900Y-29286200D01*
X33940000Y-29352400D02*
X40154700Y-29352400D01*
X32819700Y-28232100D02*
X33940000Y-29352400D01*
X32444600Y-28232100D02*
X32819700Y-28232100D01*
X36084600Y-64131100D02*
X37757100Y-62458600D01*
X35737800Y-64131100D02*
X36084600Y-64131100D01*
X33019400Y-62807600D02*
X33904400Y-62807600D01*
X31927800Y-63899200D02*
X33019400Y-62807600D01*
X31927800Y-64131100D02*
X31927800Y-63899200D01*
X27796200Y-60031900D02*
X27517900Y-60310200D01*
X29399900Y-60031900D02*
X27796200Y-60031900D01*
X30302200Y-59129600D02*
X29399900Y-60031900D01*
X30302200Y-58881100D02*
X30302200Y-59129600D01*
X28896400Y-57730300D02*
X30543500Y-56083200D01*
X27365500Y-57730300D02*
X28896400Y-57730300D01*
X26492200Y-58603600D02*
X27365500Y-57730300D01*
X26492200Y-58881100D02*
X26492200Y-58603600D01*
X40922000Y-36180900D02*
X40922000Y-35784700D01*
X42607400Y-37866300D02*
X40922000Y-36180900D01*
X44745800Y-37866300D02*
X42607400Y-37866300D01*
X42966400Y-34056300D02*
X42105500Y-34917200D01*
X44745800Y-34056300D02*
X42966400Y-34056300D01*
X31018500Y-35847000D02*
X28613100Y-38252400D01*
X31416100Y-35847000D02*
X31018500Y-35847000D01*
X31483300Y-39724200D02*
X31483300Y-43129200D01*
X31416100Y-39657000D02*
X31483300Y-39724200D01*
X39753400Y-36596300D02*
X41432500Y-38275400D01*
X39495800Y-36596300D02*
X39753400Y-36596300D01*
X41432500Y-38275400D02*
X41432500Y-39597200D01*
X38099300Y-49670900D02*
X38099400Y-49670900D01*
X38099300Y-50038500D02*
X38099300Y-49670900D01*
X36744800Y-51393000D02*
X38099300Y-50038500D01*
X35516000Y-51393000D02*
X36744800Y-51393000D01*
X38869300Y-35326300D02*
X39495800Y-35326300D01*
X38161200Y-36034400D02*
X38869300Y-35326300D01*
X35516000Y-50743000D02*
X36716100Y-50743000D01*
X34255600Y-41602600D02*
X35486400Y-40371800D01*
X34255600Y-41920200D02*
X34255600Y-41602600D01*
X37008100Y-47691700D02*
X36643900Y-47691700D01*
X37741200Y-48424800D02*
X37008100Y-47691700D01*
X37741200Y-49003800D02*
X37741200Y-48424800D01*
X37373200Y-49371800D02*
X37741200Y-49003800D01*
X37373200Y-50085900D02*
X37373200Y-49371800D01*
X36716100Y-50743000D02*
X37373200Y-50085900D01*
X33436800Y-57208700D02*
X34270600Y-56374900D01*
X33352600Y-57208700D02*
X33436800Y-57208700D01*
X32562800Y-57998500D02*
X33352600Y-57208700D01*
X32562800Y-60364200D02*
X32562800Y-57998500D01*
X29032200Y-63894800D02*
X32562800Y-60364200D01*
X29032200Y-64131100D02*
X29032200Y-63894800D01*
X33283700Y-55388000D02*
X34270600Y-56374900D01*
X33283700Y-54808200D02*
X33283700Y-55388000D01*
X34098900Y-53993000D02*
X33283700Y-54808200D01*
X35516000Y-53993000D02*
X34098900Y-53993000D01*
X37810700Y-56501200D02*
X39968300Y-58658800D01*
X34396900Y-56501200D02*
X37810700Y-56501200D01*
X34270600Y-56374900D02*
X34396900Y-56501200D01*
X32135400Y-45982800D02*
X32539200Y-46386600D01*
X31234400Y-45982800D02*
X32135400Y-45982800D01*
X34600100Y-52693000D02*
X35516000Y-52693000D01*
X33050400Y-51143300D02*
X34600100Y-52693000D01*
X33050400Y-49811000D02*
X33050400Y-51143300D01*
X32970500Y-49731100D02*
X33050400Y-49811000D01*
X32970500Y-48392900D02*
X32970500Y-49731100D01*
X33342100Y-48021300D02*
X32970500Y-48392900D01*
X33342100Y-47189500D02*
X33342100Y-48021300D01*
X32539200Y-46386600D02*
X33342100Y-47189500D01*
X35297100Y-37117000D02*
X34128100Y-38286000D01*
X36666100Y-37117000D02*
X35297100Y-37117000D01*
X30673000Y-51464300D02*
X29700200Y-52437100D01*
X32654000Y-51464300D02*
X30673000Y-51464300D01*
X34315900Y-53126200D02*
X32654000Y-51464300D01*
X34315900Y-53343000D02*
X34315900Y-53126200D01*
X35516000Y-53343000D02*
X34315900Y-53343000D01*
X29700200Y-53382800D02*
X29700200Y-52437100D01*
X28736500Y-54346500D02*
X29700200Y-53382800D01*
X27762200Y-63011100D02*
X28947800Y-61825500D01*
X27762200Y-64131100D02*
X27762200Y-63011100D01*
X33257400Y-42582600D02*
X33257400Y-39022000D01*
X33646800Y-42972000D02*
X33257400Y-42582600D01*
X34536800Y-42972000D02*
X33646800Y-42972000D01*
X35740800Y-44176000D02*
X34536800Y-42972000D01*
X35740800Y-46062000D02*
X35740800Y-44176000D01*
X36645300Y-46966500D02*
X35740800Y-46062000D01*
X37033100Y-46966500D02*
X36645300Y-46966500D01*
X38836400Y-48769800D02*
X37033100Y-46966500D01*
X38836400Y-50007400D02*
X38836400Y-48769800D01*
X36800800Y-52043000D02*
X38836400Y-50007400D01*
X35516000Y-52043000D02*
X36800800Y-52043000D01*
X36031100Y-39022000D02*
X33257400Y-39022000D01*
X36666100Y-38387000D02*
X36031100Y-39022000D01*
X28876000Y-35892700D02*
X29008200Y-35892700D01*
X27103600Y-37665100D02*
X28876000Y-35892700D01*
X27103600Y-38831400D02*
X27103600Y-37665100D01*
X28005200Y-39733000D02*
X27103600Y-38831400D01*
X29689200Y-39733000D02*
X28005200Y-39733000D01*
X30400200Y-39022000D02*
X29689200Y-39733000D01*
X33257400Y-39022000D02*
X30400200Y-39022000D01*
X42716000Y-51393000D02*
X41515900Y-51393000D01*
X41216900Y-51094000D02*
X41216900Y-50552100D01*
X41515900Y-51393000D02*
X41216900Y-51094000D01*
X42760400Y-42851100D02*
X43130900Y-43221600D01*
X44554100Y-41057400D02*
X42760400Y-42851100D01*
X44554100Y-39958100D02*
X44554100Y-41057400D01*
X42148400Y-43463100D02*
X41427400Y-43463100D01*
X42760400Y-42851100D02*
X42148400Y-43463100D01*
X40125100Y-63723000D02*
X39020500Y-63723000D01*
X40713700Y-64311600D02*
X40125100Y-63723000D01*
X42716000Y-52693000D02*
X41515900Y-52693000D01*
X40020900Y-55911000D02*
X40508700Y-56398800D01*
X40020900Y-54188000D02*
X40020900Y-55911000D01*
X41515900Y-52693000D02*
X40020900Y-54188000D01*
X33197800Y-60486700D02*
X33197800Y-58881100D01*
X33747900Y-61036800D02*
X33197800Y-60486700D01*
X45824100Y-38665100D02*
X46436100Y-38053100D01*
X45824100Y-39958100D02*
X45824100Y-38665100D01*
X46436100Y-38053100D02*
X46772700Y-37716500D01*
X42742700Y-36495700D02*
X42262200Y-36495700D01*
X43478300Y-37231300D02*
X42742700Y-36495700D01*
X45614200Y-37231300D02*
X43478300Y-37231300D01*
X46436100Y-38053100D02*
X45614200Y-37231300D01*
X39990600Y-50570800D02*
X39990600Y-46753000D01*
X41462800Y-52043000D02*
X39990600Y-50570800D01*
X42716000Y-52043000D02*
X41462800Y-52043000D01*
X51583700Y-33474700D02*
X50283300Y-34775100D01*
X42716000Y-53343000D02*
X41515900Y-53343000D01*
X35826500Y-57276000D02*
X37555500Y-57276000D01*
X34467800Y-58634700D02*
X35826500Y-57276000D01*
X34467800Y-58881100D02*
X34467800Y-58634700D01*
X40782300Y-54076600D02*
X40782300Y-55262500D01*
X41515900Y-53343000D02*
X40782300Y-54076600D01*
X42716000Y-48793000D02*
X41515900Y-48793000D01*
X29682800Y-32544700D02*
X29891100Y-32753000D01*
X28345400Y-32544700D02*
X29682800Y-32544700D01*
X26988700Y-33901400D02*
X28345400Y-32544700D01*
X27486200Y-30772100D02*
X27194600Y-30772100D01*
X28345400Y-31631300D02*
X27486200Y-30772100D01*
X28345400Y-32544700D02*
X28345400Y-31631300D01*
X42290100Y-47652900D02*
X42405700Y-47652900D01*
X41515900Y-48427100D02*
X42290100Y-47652900D01*
X41515900Y-48793000D02*
X41515900Y-48427100D01*
X43916100Y-50022100D02*
X44201400Y-49736800D01*
X43916100Y-50093000D02*
X43916100Y-50022100D01*
X41366100Y-31831300D02*
X40420400Y-31831300D01*
X42716000Y-50093000D02*
X43916100Y-50093000D01*
X41366100Y-31868300D02*
X42487800Y-32990000D01*
X41366100Y-31831300D02*
X41366100Y-31868300D01*
X48164600Y-29044900D02*
X48395800Y-29044900D01*
X46148300Y-31061200D02*
X48164600Y-29044900D01*
X44284900Y-31061200D02*
X46148300Y-31061200D01*
X44164400Y-30940700D02*
X44284900Y-31061200D01*
X42256700Y-30940700D02*
X44164400Y-30940700D01*
X41366100Y-31831300D02*
X42256700Y-30940700D01*
X28380800Y-29502100D02*
X27194600Y-29502100D01*
X32780100Y-33901400D02*
X28380800Y-29502100D01*
X33598200Y-33901400D02*
X32780100Y-33901400D01*
X34284500Y-34587700D02*
X33598200Y-33901400D01*
X41055700Y-49443000D02*
X40970200Y-49357500D01*
X42716000Y-49443000D02*
X41055700Y-49443000D01*
X50901600Y-55881000D02*
X49901500Y-55881000D01*
X49901500Y-55881000D02*
X47802800Y-55881000D01*
X34467800Y-64131100D02*
X33197800Y-64131100D01*
X44554100Y-45208100D02*
X45824100Y-45208100D01*
X50273300Y-36928600D02*
X51402000Y-35799900D01*
X50273300Y-38471000D02*
X50273300Y-36928600D01*
X48875600Y-39868700D02*
X50273300Y-38471000D01*
X48875600Y-41415800D02*
X48875600Y-39868700D01*
X47075300Y-43216100D02*
X48875600Y-41415800D01*
X45824100Y-44467300D02*
X45824100Y-45208100D01*
X47075300Y-43216100D02*
X45824100Y-44467300D01*
X43145800Y-30314900D02*
X45358600Y-30314900D01*
X31889700Y-57730100D02*
X33244900Y-56374900D01*
X29943500Y-57730100D02*
X31889700Y-57730100D01*
X29032200Y-58641400D02*
X29943500Y-57730100D01*
X29032200Y-58881100D02*
X29032200Y-58641400D01*
X29032200Y-58881100D02*
X27762200Y-58881100D01*
X34467800Y-63795000D02*
X34467800Y-64131100D01*
X35373300Y-62889500D02*
X34467800Y-63795000D01*
X35373300Y-61319600D02*
X35373300Y-62889500D01*
X31416100Y-37117000D02*
X31416100Y-38387000D01*
X39630000Y-32632300D02*
X39395400Y-32632300D01*
X41129400Y-34131700D02*
X39630000Y-32632300D01*
X41129400Y-34966400D02*
X41129400Y-34131700D01*
X41822400Y-35659400D02*
X41129400Y-34966400D01*
X44745800Y-35659400D02*
X41822400Y-35659400D01*
X44745800Y-35326300D02*
X44745800Y-35659400D01*
X44745800Y-35659400D02*
X44745800Y-36596300D01*
X33419500Y-37117000D02*
X31416100Y-37117000D01*
X37229800Y-33306700D02*
X33419500Y-37117000D01*
X38721000Y-33306700D02*
X37229800Y-33306700D01*
X39395400Y-32632300D02*
X38721000Y-33306700D01*
X43145800Y-30314900D02*
X43145800Y-29044900D01*
X39395400Y-32632300D02*
X39395400Y-31199600D01*
X41987400Y-30314900D02*
X43145800Y-30314900D01*
X41519100Y-30783200D02*
X41987400Y-30314900D01*
X39811800Y-30783200D02*
X41519100Y-30783200D01*
X39395400Y-31199600D02*
X39811800Y-30783200D01*
X32903300Y-29960800D02*
X32444600Y-29502100D01*
X32903300Y-30313400D02*
X32903300Y-29960800D01*
X38509200Y-30313400D02*
X32903300Y-30313400D01*
X39395400Y-31199600D02*
X38509200Y-30313400D01*
X32903300Y-30313400D02*
X32444600Y-30772100D01*
X51216600Y-45817900D02*
X51282600Y-45817900D01*
X49047400Y-45817900D02*
X49034700Y-45805200D01*
X51216600Y-45817900D02*
X49047400Y-45817900D01*
X47802800Y-63881000D02*
X50901600Y-63881000D01*
X36666100Y-35847000D02*
X37275000Y-35847000D01*
X39065700Y-34056300D02*
X39495800Y-34056300D01*
X37275000Y-35847000D02*
X39065700Y-34056300D01*
X33718900Y-48793000D02*
X33711200Y-48785300D01*
X34315900Y-48793000D02*
X33718900Y-48793000D01*
X32501500Y-47645000D02*
X32574400Y-47572100D01*
X32501500Y-49897200D02*
X32501500Y-47645000D01*
X32024300Y-50374400D02*
X32501500Y-49897200D01*
X26908500Y-32042100D02*
X27194600Y-32042100D01*
X26036500Y-31170100D02*
X26908500Y-32042100D01*
X26036500Y-29162300D02*
X26036500Y-31170100D01*
X26966700Y-28232100D02*
X26036500Y-29162300D01*
X27194600Y-28232100D02*
X26966700Y-28232100D01*
X49296200Y-27774900D02*
X48395800Y-27774900D01*
X50015800Y-28494500D02*
X49296200Y-27774900D01*
X50015800Y-30234200D02*
X50015800Y-28494500D01*
X48665100Y-31584900D02*
X50015800Y-30234200D01*
X48395800Y-31584900D02*
X48665100Y-31584900D01*
X28472300Y-26954400D02*
X27194600Y-28232100D01*
X47575300Y-26954400D02*
X28472300Y-26954400D01*
X48395800Y-27774900D02*
X47575300Y-26954400D01*
X37275000Y-36173600D02*
X38840000Y-37738500D01*
X37275000Y-35847000D02*
X37275000Y-36173600D01*
X38967700Y-37866300D02*
X39495800Y-37866300D01*
X38840000Y-37738500D02*
X38967700Y-37866300D01*
X36921500Y-39657000D02*
X38840000Y-37738500D01*
X36666100Y-39657000D02*
X36921500Y-39657000D01*
X35516000Y-48793000D02*
X34315900Y-48793000D01*
X42718900Y-40523300D02*
X43284100Y-39958100D01*
X40732900Y-40523300D02*
X42718900Y-40523300D01*
X39495800Y-39286200D02*
X40732900Y-40523300D01*
X39495800Y-37866300D02*
X39495800Y-39286200D01*
X35335900Y-35847000D02*
X32909700Y-38273200D01*
X36666100Y-35847000D02*
X35335900Y-35847000D01*
X28837800Y-43436600D02*
X28031200Y-43436600D01*
X28031200Y-42024300D02*
X28031200Y-43436600D01*
X28031200Y-43436600D02*
X28031200Y-44627800D01*
X51216600Y-48242800D02*
X51216600Y-45817900D01*
X50762600Y-48696800D02*
X51216600Y-48242800D01*
X49260900Y-48696800D02*
X50762600Y-48696800D01*
X47293700Y-50664000D02*
X49260900Y-48696800D01*
X46456600Y-50664000D02*
X47293700Y-50664000D01*
X46026100Y-50664000D02*
X46456600Y-50664000D01*
X44210700Y-52479400D02*
X46026100Y-50664000D01*
X47094100Y-40186100D02*
X47094100Y-39958100D01*
X46165500Y-41114700D02*
X47094100Y-40186100D01*
X45472900Y-41114700D02*
X46165500Y-41114700D01*
X45189100Y-40830900D02*
X45472900Y-41114700D01*
X45189100Y-39011900D02*
X45189100Y-40830900D01*
X44954800Y-38777600D02*
X45189100Y-39011900D01*
X44192800Y-38777600D02*
X44954800Y-38777600D01*
X43284100Y-39686300D02*
X44192800Y-38777600D01*
X43284100Y-39958100D02*
X43284100Y-39686300D01*
X48395800Y-34130200D02*
X48395800Y-31584900D01*
X48935100Y-34669500D02*
X48395800Y-34130200D01*
X48935100Y-35891700D02*
X48935100Y-34669500D01*
X47797700Y-37029100D02*
X48935100Y-35891700D01*
X47797700Y-39254500D02*
X47797700Y-37029100D01*
X47094100Y-39958100D02*
X47797700Y-39254500D01*
X35737800Y-60290600D02*
X35737800Y-58881100D01*
X35737800Y-60290600D02*
X36226900Y-60290600D01*
X28031200Y-47231300D02*
X28951000Y-48151100D01*
X31927800Y-59451700D02*
X31256500Y-60123000D01*
X31927800Y-58881100D02*
X31927800Y-59451700D01*
X30842400Y-60537100D02*
X31256500Y-60123000D01*
X29143300Y-60537100D02*
X30842400Y-60537100D01*
X26492200Y-63188200D02*
X29143300Y-60537100D01*
X26492200Y-64131100D02*
X26492200Y-63188200D01*
X35283000Y-60290600D02*
X35737800Y-60290600D01*
X34473000Y-61100600D02*
X35283000Y-60290600D01*
X34473000Y-61337200D02*
X34473000Y-61100600D01*
X34048300Y-61761900D02*
X34473000Y-61337200D01*
X32671400Y-61761900D02*
X34048300Y-61761900D01*
X30302200Y-64131100D02*
X32671400Y-61761900D01*
X44698800Y-50743000D02*
X44936800Y-50505000D01*
X42716000Y-50743000D02*
X44698800Y-50743000D01*
X44684400Y-28419100D02*
X44751200Y-28485900D01*
X42174000Y-28419100D02*
X44684400Y-28419100D01*
X41519100Y-27764200D02*
X42174000Y-28419100D01*
X37613800Y-27764200D02*
X41519100Y-27764200D01*
X37054900Y-28323100D02*
X37613800Y-27764200D01*
X48677400Y-30314900D02*
X48395800Y-30314900D01*
X49546600Y-29445700D02*
X48677400Y-30314900D01*
X49546600Y-28672300D02*
X49546600Y-29445700D01*
X49274900Y-28400600D02*
X49546600Y-28672300D01*
X45420300Y-28400600D02*
X49274900Y-28400600D01*
X45335000Y-28485900D02*
X45420300Y-28400600D01*
X44751200Y-28485900D02*
X45335000Y-28485900D01*
X44751200Y-28967700D02*
X44600700Y-29118200D01*
X44751200Y-28485900D02*
X44751200Y-28967700D01*
M02*
