G04 #@! TF.GenerationSoftware,KiCad,Pcbnew,8.0.7*
G04 #@! TF.CreationDate,2025-05-03T20:28:39+02:00*
G04 #@! TF.ProjectId,EM7SEG_DRIVER,454d3753-4547-45f4-9452-495645522e6b,rev?*
G04 #@! TF.SameCoordinates,Original*
G04 #@! TF.FileFunction,Copper,L1,Top*
G04 #@! TF.FilePolarity,Positive*
%FSLAX46Y46*%
G04 Gerber Fmt 4.6, Leading zero omitted, Abs format (unit mm)*
G04 Created by KiCad (PCBNEW 8.0.7) date 2025-05-03 20:28:39*
%MOMM*%
%LPD*%
G01*
G04 APERTURE LIST*
G04 #@! TA.AperFunction,ComponentPad*
%ADD10C,2.300000*%
G04 #@! TD*
G04 #@! TA.AperFunction,ComponentPad*
%ADD11R,1.350000X1.350000*%
G04 #@! TD*
G04 #@! TA.AperFunction,ComponentPad*
%ADD12O,1.350000X1.350000*%
G04 #@! TD*
G04 #@! TA.AperFunction,ViaPad*
%ADD13C,0.800000*%
G04 #@! TD*
G04 #@! TA.AperFunction,Conductor*
%ADD14C,0.250000*%
G04 #@! TD*
G04 APERTURE END LIST*
D10*
X40220900Y-29286200D03*
X35217100Y-32258000D03*
X47459900Y-35280600D03*
X50711100Y-40284400D03*
X46393100Y-48158400D03*
X49517300Y-53111400D03*
X37757100Y-62458600D03*
X42684700Y-59232800D03*
X30543500Y-56083200D03*
X27292300Y-51155600D03*
X31483300Y-43129200D03*
X28613100Y-38252400D03*
X39001700Y-41452800D03*
X34074100Y-44678600D03*
D11*
X50901600Y-63881000D03*
D12*
X50901600Y-61881000D03*
X50901600Y-59881000D03*
X50901600Y-57881000D03*
X50901600Y-55881000D03*
D11*
X47802800Y-63881000D03*
D12*
X47802800Y-61881000D03*
X47802800Y-59881000D03*
X47802800Y-57881000D03*
X47802800Y-55881000D03*
D13*
X41995000Y-56835800D03*
X42049300Y-64348400D03*
X28805700Y-49249800D03*
X34021200Y-55100100D03*
X29910100Y-47664700D03*
X37008000Y-54567800D03*
X27089600Y-40635500D03*
X34024400Y-50210600D03*
X44199400Y-53793800D03*
X37005200Y-48714400D03*
X47762500Y-52157400D03*
X51165100Y-42055000D03*
X51142900Y-27772500D03*
X46623500Y-53912800D03*
X39220600Y-51936200D03*
X35004700Y-47396600D03*
X45328000Y-43804200D03*
X45018100Y-27727400D03*
X33904400Y-62807600D03*
X27517900Y-60310200D03*
X40922000Y-35784700D03*
X42105500Y-34917200D03*
X38099400Y-49670900D03*
X41432500Y-38275400D03*
X38161200Y-36034400D03*
X36643900Y-47691700D03*
X35486400Y-40371800D03*
X34128100Y-38286000D03*
X32539200Y-46386600D03*
X28947800Y-61825500D03*
X28736500Y-54346500D03*
X41216900Y-50552100D03*
X43130900Y-43221600D03*
X39020500Y-63723000D03*
X40508700Y-56398800D03*
X33747900Y-61036800D03*
X39990600Y-46753000D03*
X42262200Y-36495700D03*
X40782300Y-55262500D03*
X50283300Y-34775100D03*
X37555500Y-57276000D03*
X42405700Y-47652900D03*
X29891100Y-32753000D03*
X44201400Y-49736800D03*
X42487800Y-32990000D03*
X40970200Y-49357500D03*
X34284500Y-34587700D03*
X47075300Y-43216100D03*
X45358600Y-30314900D03*
X33244900Y-56374900D03*
X35373300Y-61319600D03*
X28951000Y-48151100D03*
X33711200Y-48785300D03*
X32574400Y-47572100D03*
X32909700Y-38273200D03*
X28837800Y-43436600D03*
X44210700Y-52479400D03*
X36226900Y-60290600D03*
X31256500Y-60123000D03*
X44936800Y-50505000D03*
X44600700Y-29118200D03*
D14*
X44188800Y-62208900D02*
X42049300Y-64348400D01*
X44188800Y-58650300D02*
X44188800Y-62208900D01*
X42374300Y-56835800D02*
X44188800Y-58650300D01*
X41995000Y-56835800D02*
X42374300Y-56835800D01*
X28805700Y-51946300D02*
X28805700Y-49249800D01*
X32069600Y-55210200D02*
X28805700Y-51946300D01*
X32069600Y-57155400D02*
X32069600Y-55210200D01*
X30527400Y-58697600D02*
X32069600Y-57155400D01*
X30527400Y-60519100D02*
X30527400Y-58697600D01*
X34933700Y-64925400D02*
X30527400Y-60519100D01*
X41472300Y-64925400D02*
X34933700Y-64925400D01*
X42049300Y-64348400D02*
X41472300Y-64925400D01*
X30772200Y-48526800D02*
X29910100Y-47664700D01*
X30772300Y-48526800D02*
X30772200Y-48526800D01*
X30772300Y-51851200D02*
X30772300Y-48526800D01*
X34021200Y-55100100D02*
X30772300Y-51851200D01*
X32886700Y-50446500D02*
X37008000Y-54567800D01*
X32886700Y-49535700D02*
X32886700Y-50446500D01*
X27089600Y-43738600D02*
X32886700Y-49535700D01*
X27089600Y-40635500D02*
X27089600Y-43738600D01*
X37000800Y-53187000D02*
X34024400Y-50210600D01*
X43592600Y-53187000D02*
X37000800Y-53187000D01*
X44199400Y-53793800D02*
X43592600Y-53187000D01*
X37005200Y-49677400D02*
X37005200Y-48714400D01*
X38538900Y-51211100D02*
X37005200Y-49677400D01*
X39521000Y-51211100D02*
X38538900Y-51211100D01*
X39612300Y-51302400D02*
X39521000Y-51211100D01*
X46907500Y-51302400D02*
X39612300Y-51302400D01*
X47762500Y-52157400D02*
X46907500Y-51302400D01*
X52250400Y-28880000D02*
X51142900Y-27772500D01*
X52250400Y-40969700D02*
X52250400Y-28880000D01*
X51165100Y-42055000D02*
X52250400Y-40969700D01*
X50901600Y-61881000D02*
X49901500Y-61881000D01*
X47802800Y-61881000D02*
X48190300Y-61881000D01*
X48190300Y-61881000D02*
X48802900Y-61881000D01*
X48802900Y-61881000D02*
X49901500Y-61881000D01*
X47248900Y-53912800D02*
X46623500Y-53912800D01*
X48802900Y-55466800D02*
X47248900Y-53912800D01*
X48802900Y-61881000D02*
X48802900Y-55466800D01*
X39404200Y-51752600D02*
X39220600Y-51936200D01*
X44552800Y-51752600D02*
X39404200Y-51752600D01*
X46623500Y-53823300D02*
X44552800Y-51752600D01*
X46623500Y-53912800D02*
X46623500Y-53823300D01*
X35004700Y-48367600D02*
X35004700Y-47396600D01*
X38573300Y-51936200D02*
X35004700Y-48367600D01*
X39220600Y-51936200D02*
X38573300Y-51936200D01*
X49517300Y-47993500D02*
X49517300Y-53111400D01*
X45328000Y-43804200D02*
X49517300Y-47993500D01*
X51057900Y-33767200D02*
X45018100Y-27727400D01*
X51057900Y-39937600D02*
X51057900Y-33767200D01*
X50711100Y-40284400D02*
X51057900Y-39937600D01*
X35556000Y-64459200D02*
X33904400Y-62807600D01*
X39408000Y-64459200D02*
X35556000Y-64459200D01*
X42684700Y-61182500D02*
X39408000Y-64459200D01*
X42684700Y-59232800D02*
X42684700Y-61182500D01*
X27517900Y-51381200D02*
X27292300Y-51155600D01*
X27517900Y-60310200D02*
X27517900Y-51381200D01*
X40418600Y-35281300D02*
X40922000Y-35784700D01*
X37886700Y-35281300D02*
X40418600Y-35281300D01*
X36331400Y-36836600D02*
X37886700Y-35281300D01*
X36331400Y-38485300D02*
X36331400Y-36836600D01*
X34074100Y-40742600D02*
X36331400Y-38485300D01*
X34074100Y-44678600D02*
X34074100Y-40742600D01*
X39001700Y-38730500D02*
X39001700Y-41452800D01*
X42105500Y-35626700D02*
X39001700Y-38730500D01*
X42105500Y-34917200D02*
X42105500Y-35626700D01*
X41432500Y-46337800D02*
X38099400Y-49670900D01*
X41432500Y-38275400D02*
X41432500Y-46337800D01*
X36643900Y-40371800D02*
X36643900Y-47691700D01*
X38161200Y-38854500D02*
X36643900Y-40371800D01*
X38161200Y-36034400D02*
X38161200Y-38854500D01*
X36643900Y-40371800D02*
X35486400Y-40371800D01*
X30006000Y-42408100D02*
X34128100Y-38286000D01*
X30006000Y-43853400D02*
X30006000Y-42408100D01*
X32539200Y-46386600D02*
X30006000Y-43853400D01*
X28736500Y-61614200D02*
X28947800Y-61825500D01*
X28736500Y-54346500D02*
X28736500Y-61614200D01*
X43130900Y-48638100D02*
X43130900Y-43221600D01*
X41216900Y-50552100D02*
X43130900Y-48638100D01*
X40508700Y-62234800D02*
X39020500Y-63723000D01*
X40508700Y-56398800D02*
X40508700Y-62234800D01*
X33747900Y-61474100D02*
X33747900Y-61036800D01*
X36211300Y-63937500D02*
X33747900Y-61474100D01*
X38806000Y-63937500D02*
X36211300Y-63937500D01*
X39020500Y-63723000D02*
X38806000Y-63937500D01*
X40476800Y-46266800D02*
X39990600Y-46753000D01*
X40476800Y-38186500D02*
X40476800Y-46266800D01*
X42167600Y-36495700D02*
X40476800Y-38186500D01*
X42262200Y-36495700D02*
X42167600Y-36495700D01*
X39569000Y-55262500D02*
X40782300Y-55262500D01*
X37555500Y-57276000D02*
X39569000Y-55262500D01*
X49202500Y-35855900D02*
X50283300Y-34775100D01*
X49202500Y-41310000D02*
X49202500Y-35855900D01*
X51942700Y-44050200D02*
X49202500Y-41310000D01*
X51942700Y-64680100D02*
X51942700Y-44050200D01*
X51690500Y-64932300D02*
X51942700Y-64680100D01*
X46984200Y-64932300D02*
X51690500Y-64932300D01*
X45040400Y-62988500D02*
X46984200Y-64932300D01*
X45040400Y-58813900D02*
X45040400Y-62988500D01*
X41489000Y-55262500D02*
X45040400Y-58813900D01*
X40782300Y-55262500D02*
X41489000Y-55262500D01*
X42405700Y-39085300D02*
X42405700Y-47652900D01*
X43441800Y-38049200D02*
X42405700Y-39085300D01*
X43441800Y-34580600D02*
X43441800Y-38049200D01*
X42576400Y-33715200D02*
X43441800Y-34580600D01*
X36657100Y-33715200D02*
X42576400Y-33715200D01*
X36583400Y-33788900D02*
X36657100Y-33715200D01*
X30927000Y-33788900D02*
X36583400Y-33788900D01*
X29891100Y-32753000D02*
X30927000Y-33788900D01*
X43891900Y-34394100D02*
X42487800Y-32990000D01*
X43891900Y-49427300D02*
X43891900Y-34394100D01*
X44201400Y-49736800D02*
X43891900Y-49427300D01*
X40970200Y-47707400D02*
X40970200Y-49357500D01*
X41955600Y-46722000D02*
X40970200Y-47707400D01*
X41955600Y-38898800D02*
X41955600Y-46722000D01*
X42991700Y-37862700D02*
X41955600Y-38898800D01*
X42991700Y-34767100D02*
X42991700Y-37862700D01*
X42389900Y-34165300D02*
X42991700Y-34767100D01*
X37674000Y-34165300D02*
X42389900Y-34165300D01*
X37251600Y-34587700D02*
X37674000Y-34165300D01*
X34284500Y-34587700D02*
X37251600Y-34587700D01*
X50901600Y-55881000D02*
X50901600Y-54880900D01*
X51038500Y-47179300D02*
X47075300Y-43216100D01*
X51038500Y-54744000D02*
X51038500Y-47179300D01*
X50901600Y-54880900D02*
X51038500Y-54744000D01*
X45358600Y-41499400D02*
X45358600Y-30314900D01*
X47075300Y-43216100D02*
X45358600Y-41499400D01*
X35373300Y-56374900D02*
X35373300Y-61319600D01*
X33244900Y-56374900D02*
X35373300Y-56374900D01*
X43487900Y-55881000D02*
X47802800Y-55881000D01*
X41694100Y-54087200D02*
X43487900Y-55881000D01*
X38572400Y-54087200D02*
X41694100Y-54087200D01*
X36284700Y-56374900D02*
X38572400Y-54087200D01*
X35373300Y-56374900D02*
X36284700Y-56374900D01*
X29979800Y-41203100D02*
X29498800Y-41203100D01*
X32909700Y-38273200D02*
X29979800Y-41203100D01*
X29498800Y-43436600D02*
X28837800Y-43436600D01*
X29498800Y-44496500D02*
X29498800Y-43436600D01*
X32574400Y-47572100D02*
X29498800Y-44496500D01*
X29498800Y-43436600D02*
X29498800Y-41203100D01*
X32574400Y-47648500D02*
X33711200Y-48785300D01*
X32574400Y-47572100D02*
X32574400Y-47648500D01*
X45667300Y-61745500D02*
X47802800Y-63881000D01*
X45667300Y-58697200D02*
X45667300Y-61745500D01*
X41507400Y-54537300D02*
X45667300Y-58697200D01*
X39267600Y-54537300D02*
X41507400Y-54537300D01*
X36226900Y-57578000D02*
X39267600Y-54537300D01*
X36226900Y-60290600D02*
X36226900Y-57578000D01*
X26320000Y-45520100D02*
X28951000Y-48151100D01*
X26320000Y-40377800D02*
X26320000Y-45520100D01*
X26832900Y-39864900D02*
X26320000Y-40377800D01*
X28160600Y-39864900D02*
X26832900Y-39864900D01*
X29498800Y-41203100D02*
X28160600Y-39864900D01*
X34473000Y-60655300D02*
X32598600Y-58780900D01*
X34473000Y-61494100D02*
X34473000Y-60655300D01*
X35036300Y-62057400D02*
X34473000Y-61494100D01*
X35695700Y-62057400D02*
X35036300Y-62057400D01*
X36226900Y-61526200D02*
X35695700Y-62057400D01*
X36226900Y-60290600D02*
X36226900Y-61526200D01*
X31256500Y-60123000D02*
X32598600Y-58780900D01*
X30044400Y-49244500D02*
X28951000Y-48151100D01*
X30044400Y-52548400D02*
X30044400Y-49244500D01*
X32519700Y-55023700D02*
X30044400Y-52548400D01*
X32519700Y-58702000D02*
X32519700Y-55023700D01*
X32598600Y-58780900D02*
X32519700Y-58702000D01*
X44028800Y-52661300D02*
X44210700Y-52479400D01*
X37587200Y-52661300D02*
X44028800Y-52661300D01*
X33711200Y-48785300D02*
X37587200Y-52661300D01*
X44936800Y-49200800D02*
X44936800Y-50505000D01*
X44600700Y-48864700D02*
X44936800Y-49200800D01*
X44600700Y-29118200D02*
X44600700Y-48864700D01*
M02*
