G04 #@! TF.GenerationSoftware,KiCad,Pcbnew,8.0.7*
G04 #@! TF.CreationDate,2025-05-03T20:28:39+02:00*
G04 #@! TF.ProjectId,EM7SEG_DRIVER,454d3753-4547-45f4-9452-495645522e6b,rev?*
G04 #@! TF.SameCoordinates,Original*
G04 #@! TF.FileFunction,Legend,Bot*
G04 #@! TF.FilePolarity,Positive*
%FSLAX46Y46*%
G04 Gerber Fmt 4.6, Leading zero omitted, Abs format (unit mm)*
G04 Created by KiCad (PCBNEW 8.0.7) date 2025-05-03 20:28:39*
%MOMM*%
%LPD*%
G01*
G04 APERTURE LIST*
%ADD10C,0.125000*%
%ADD11C,0.150000*%
%ADD12C,0.120000*%
G04 APERTURE END LIST*
D10*
X45028633Y-51810310D02*
X45052442Y-51834120D01*
X45052442Y-51834120D02*
X45123871Y-51857929D01*
X45123871Y-51857929D02*
X45171490Y-51857929D01*
X45171490Y-51857929D02*
X45242918Y-51834120D01*
X45242918Y-51834120D02*
X45290537Y-51786500D01*
X45290537Y-51786500D02*
X45314347Y-51738881D01*
X45314347Y-51738881D02*
X45338156Y-51643643D01*
X45338156Y-51643643D02*
X45338156Y-51572215D01*
X45338156Y-51572215D02*
X45314347Y-51476977D01*
X45314347Y-51476977D02*
X45290537Y-51429358D01*
X45290537Y-51429358D02*
X45242918Y-51381739D01*
X45242918Y-51381739D02*
X45171490Y-51357929D01*
X45171490Y-51357929D02*
X45123871Y-51357929D01*
X45123871Y-51357929D02*
X45052442Y-51381739D01*
X45052442Y-51381739D02*
X45028633Y-51405548D01*
X44552442Y-51857929D02*
X44838156Y-51857929D01*
X44695299Y-51857929D02*
X44695299Y-51357929D01*
X44695299Y-51357929D02*
X44742918Y-51429358D01*
X44742918Y-51429358D02*
X44790537Y-51476977D01*
X44790537Y-51476977D02*
X44838156Y-51500786D01*
D11*
X34670903Y-60999019D02*
X34670903Y-61808542D01*
X34670903Y-61808542D02*
X34623284Y-61903780D01*
X34623284Y-61903780D02*
X34575665Y-61951400D01*
X34575665Y-61951400D02*
X34480427Y-61999019D01*
X34480427Y-61999019D02*
X34289951Y-61999019D01*
X34289951Y-61999019D02*
X34194713Y-61951400D01*
X34194713Y-61951400D02*
X34147094Y-61903780D01*
X34147094Y-61903780D02*
X34099475Y-61808542D01*
X34099475Y-61808542D02*
X34099475Y-60999019D01*
X33194713Y-60999019D02*
X33385189Y-60999019D01*
X33385189Y-60999019D02*
X33480427Y-61046638D01*
X33480427Y-61046638D02*
X33528046Y-61094257D01*
X33528046Y-61094257D02*
X33623284Y-61237114D01*
X33623284Y-61237114D02*
X33670903Y-61427590D01*
X33670903Y-61427590D02*
X33670903Y-61808542D01*
X33670903Y-61808542D02*
X33623284Y-61903780D01*
X33623284Y-61903780D02*
X33575665Y-61951400D01*
X33575665Y-61951400D02*
X33480427Y-61999019D01*
X33480427Y-61999019D02*
X33289951Y-61999019D01*
X33289951Y-61999019D02*
X33194713Y-61951400D01*
X33194713Y-61951400D02*
X33147094Y-61903780D01*
X33147094Y-61903780D02*
X33099475Y-61808542D01*
X33099475Y-61808542D02*
X33099475Y-61570447D01*
X33099475Y-61570447D02*
X33147094Y-61475209D01*
X33147094Y-61475209D02*
X33194713Y-61427590D01*
X33194713Y-61427590D02*
X33289951Y-61379971D01*
X33289951Y-61379971D02*
X33480427Y-61379971D01*
X33480427Y-61379971D02*
X33575665Y-61427590D01*
X33575665Y-61427590D02*
X33623284Y-61475209D01*
X33623284Y-61475209D02*
X33670903Y-61570447D01*
D10*
X27319753Y-53699429D02*
X27486419Y-53461334D01*
X27605467Y-53699429D02*
X27605467Y-53199429D01*
X27605467Y-53199429D02*
X27414991Y-53199429D01*
X27414991Y-53199429D02*
X27367372Y-53223239D01*
X27367372Y-53223239D02*
X27343562Y-53247048D01*
X27343562Y-53247048D02*
X27319753Y-53294667D01*
X27319753Y-53294667D02*
X27319753Y-53366096D01*
X27319753Y-53366096D02*
X27343562Y-53413715D01*
X27343562Y-53413715D02*
X27367372Y-53437524D01*
X27367372Y-53437524D02*
X27414991Y-53461334D01*
X27414991Y-53461334D02*
X27605467Y-53461334D01*
X26843562Y-53699429D02*
X27129276Y-53699429D01*
X26986419Y-53699429D02*
X26986419Y-53199429D01*
X26986419Y-53199429D02*
X27034038Y-53270858D01*
X27034038Y-53270858D02*
X27081657Y-53318477D01*
X27081657Y-53318477D02*
X27129276Y-53342286D01*
X32056833Y-53857510D02*
X32080642Y-53881320D01*
X32080642Y-53881320D02*
X32152071Y-53905129D01*
X32152071Y-53905129D02*
X32199690Y-53905129D01*
X32199690Y-53905129D02*
X32271118Y-53881320D01*
X32271118Y-53881320D02*
X32318737Y-53833700D01*
X32318737Y-53833700D02*
X32342547Y-53786081D01*
X32342547Y-53786081D02*
X32366356Y-53690843D01*
X32366356Y-53690843D02*
X32366356Y-53619415D01*
X32366356Y-53619415D02*
X32342547Y-53524177D01*
X32342547Y-53524177D02*
X32318737Y-53476558D01*
X32318737Y-53476558D02*
X32271118Y-53428939D01*
X32271118Y-53428939D02*
X32199690Y-53405129D01*
X32199690Y-53405129D02*
X32152071Y-53405129D01*
X32152071Y-53405129D02*
X32080642Y-53428939D01*
X32080642Y-53428939D02*
X32056833Y-53452748D01*
X31866356Y-53452748D02*
X31842547Y-53428939D01*
X31842547Y-53428939D02*
X31794928Y-53405129D01*
X31794928Y-53405129D02*
X31675880Y-53405129D01*
X31675880Y-53405129D02*
X31628261Y-53428939D01*
X31628261Y-53428939D02*
X31604452Y-53452748D01*
X31604452Y-53452748D02*
X31580642Y-53500367D01*
X31580642Y-53500367D02*
X31580642Y-53547986D01*
X31580642Y-53547986D02*
X31604452Y-53619415D01*
X31604452Y-53619415D02*
X31890166Y-53905129D01*
X31890166Y-53905129D02*
X31580642Y-53905129D01*
X42294829Y-61915526D02*
X42056734Y-61748860D01*
X42294829Y-61629812D02*
X41794829Y-61629812D01*
X41794829Y-61629812D02*
X41794829Y-61820288D01*
X41794829Y-61820288D02*
X41818639Y-61867907D01*
X41818639Y-61867907D02*
X41842448Y-61891717D01*
X41842448Y-61891717D02*
X41890067Y-61915526D01*
X41890067Y-61915526D02*
X41961496Y-61915526D01*
X41961496Y-61915526D02*
X42009115Y-61891717D01*
X42009115Y-61891717D02*
X42032924Y-61867907D01*
X42032924Y-61867907D02*
X42056734Y-61820288D01*
X42056734Y-61820288D02*
X42056734Y-61629812D01*
X41794829Y-62082193D02*
X41794829Y-62391717D01*
X41794829Y-62391717D02*
X41985305Y-62225050D01*
X41985305Y-62225050D02*
X41985305Y-62296479D01*
X41985305Y-62296479D02*
X42009115Y-62344098D01*
X42009115Y-62344098D02*
X42032924Y-62367907D01*
X42032924Y-62367907D02*
X42080543Y-62391717D01*
X42080543Y-62391717D02*
X42199591Y-62391717D01*
X42199591Y-62391717D02*
X42247210Y-62367907D01*
X42247210Y-62367907D02*
X42271020Y-62344098D01*
X42271020Y-62344098D02*
X42294829Y-62296479D01*
X42294829Y-62296479D02*
X42294829Y-62153622D01*
X42294829Y-62153622D02*
X42271020Y-62106003D01*
X42271020Y-62106003D02*
X42247210Y-62082193D01*
X45181033Y-56498509D02*
X45347699Y-56260414D01*
X45466747Y-56498509D02*
X45466747Y-55998509D01*
X45466747Y-55998509D02*
X45276271Y-55998509D01*
X45276271Y-55998509D02*
X45228652Y-56022319D01*
X45228652Y-56022319D02*
X45204842Y-56046128D01*
X45204842Y-56046128D02*
X45181033Y-56093747D01*
X45181033Y-56093747D02*
X45181033Y-56165176D01*
X45181033Y-56165176D02*
X45204842Y-56212795D01*
X45204842Y-56212795D02*
X45228652Y-56236604D01*
X45228652Y-56236604D02*
X45276271Y-56260414D01*
X45276271Y-56260414D02*
X45466747Y-56260414D01*
X44752461Y-56165176D02*
X44752461Y-56498509D01*
X44871509Y-55974700D02*
X44990556Y-56331842D01*
X44990556Y-56331842D02*
X44681033Y-56331842D01*
X29904961Y-44699592D02*
X29666866Y-44699592D01*
X29952580Y-44842449D02*
X29785914Y-44342449D01*
X29785914Y-44342449D02*
X29619247Y-44842449D01*
X29190676Y-44842449D02*
X29476390Y-44842449D01*
X29333533Y-44842449D02*
X29333533Y-44342449D01*
X29333533Y-44342449D02*
X29381152Y-44413878D01*
X29381152Y-44413878D02*
X29428771Y-44461497D01*
X29428771Y-44461497D02*
X29476390Y-44485306D01*
D11*
X30657704Y-29503019D02*
X30657704Y-30312542D01*
X30657704Y-30312542D02*
X30610085Y-30407780D01*
X30610085Y-30407780D02*
X30562466Y-30455400D01*
X30562466Y-30455400D02*
X30467228Y-30503019D01*
X30467228Y-30503019D02*
X30276752Y-30503019D01*
X30276752Y-30503019D02*
X30181514Y-30455400D01*
X30181514Y-30455400D02*
X30133895Y-30407780D01*
X30133895Y-30407780D02*
X30086276Y-30312542D01*
X30086276Y-30312542D02*
X30086276Y-29503019D01*
X29705323Y-29503019D02*
X29086276Y-29503019D01*
X29086276Y-29503019D02*
X29419609Y-29883971D01*
X29419609Y-29883971D02*
X29276752Y-29883971D01*
X29276752Y-29883971D02*
X29181514Y-29931590D01*
X29181514Y-29931590D02*
X29133895Y-29979209D01*
X29133895Y-29979209D02*
X29086276Y-30074447D01*
X29086276Y-30074447D02*
X29086276Y-30312542D01*
X29086276Y-30312542D02*
X29133895Y-30407780D01*
X29133895Y-30407780D02*
X29181514Y-30455400D01*
X29181514Y-30455400D02*
X29276752Y-30503019D01*
X29276752Y-30503019D02*
X29562466Y-30503019D01*
X29562466Y-30503019D02*
X29657704Y-30455400D01*
X29657704Y-30455400D02*
X29705323Y-30407780D01*
X46380304Y-29198219D02*
X46380304Y-30007742D01*
X46380304Y-30007742D02*
X46332685Y-30102980D01*
X46332685Y-30102980D02*
X46285066Y-30150600D01*
X46285066Y-30150600D02*
X46189828Y-30198219D01*
X46189828Y-30198219D02*
X45999352Y-30198219D01*
X45999352Y-30198219D02*
X45904114Y-30150600D01*
X45904114Y-30150600D02*
X45856495Y-30102980D01*
X45856495Y-30102980D02*
X45808876Y-30007742D01*
X45808876Y-30007742D02*
X45808876Y-29198219D01*
X44904114Y-29531552D02*
X44904114Y-30198219D01*
X45142209Y-29150600D02*
X45380304Y-29864885D01*
X45380304Y-29864885D02*
X44761257Y-29864885D01*
X34828405Y-37295719D02*
X34828405Y-38105242D01*
X34828405Y-38105242D02*
X34780786Y-38200480D01*
X34780786Y-38200480D02*
X34733167Y-38248100D01*
X34733167Y-38248100D02*
X34637929Y-38295719D01*
X34637929Y-38295719D02*
X34447453Y-38295719D01*
X34447453Y-38295719D02*
X34352215Y-38248100D01*
X34352215Y-38248100D02*
X34304596Y-38200480D01*
X34304596Y-38200480D02*
X34256977Y-38105242D01*
X34256977Y-38105242D02*
X34256977Y-37295719D01*
X33733167Y-38295719D02*
X33542691Y-38295719D01*
X33542691Y-38295719D02*
X33447453Y-38248100D01*
X33447453Y-38248100D02*
X33399834Y-38200480D01*
X33399834Y-38200480D02*
X33304596Y-38057623D01*
X33304596Y-38057623D02*
X33256977Y-37867147D01*
X33256977Y-37867147D02*
X33256977Y-37486195D01*
X33256977Y-37486195D02*
X33304596Y-37390957D01*
X33304596Y-37390957D02*
X33352215Y-37343338D01*
X33352215Y-37343338D02*
X33447453Y-37295719D01*
X33447453Y-37295719D02*
X33637929Y-37295719D01*
X33637929Y-37295719D02*
X33733167Y-37343338D01*
X33733167Y-37343338D02*
X33780786Y-37390957D01*
X33780786Y-37390957D02*
X33828405Y-37486195D01*
X33828405Y-37486195D02*
X33828405Y-37724290D01*
X33828405Y-37724290D02*
X33780786Y-37819528D01*
X33780786Y-37819528D02*
X33733167Y-37867147D01*
X33733167Y-37867147D02*
X33637929Y-37914766D01*
X33637929Y-37914766D02*
X33447453Y-37914766D01*
X33447453Y-37914766D02*
X33352215Y-37867147D01*
X33352215Y-37867147D02*
X33304596Y-37819528D01*
X33304596Y-37819528D02*
X33256977Y-37724290D01*
D10*
X27814541Y-48959172D02*
X27576446Y-48959172D01*
X27862160Y-49102029D02*
X27695494Y-48602029D01*
X27695494Y-48602029D02*
X27528827Y-49102029D01*
X27385970Y-48649648D02*
X27362161Y-48625839D01*
X27362161Y-48625839D02*
X27314542Y-48602029D01*
X27314542Y-48602029D02*
X27195494Y-48602029D01*
X27195494Y-48602029D02*
X27147875Y-48625839D01*
X27147875Y-48625839D02*
X27124066Y-48649648D01*
X27124066Y-48649648D02*
X27100256Y-48697267D01*
X27100256Y-48697267D02*
X27100256Y-48744886D01*
X27100256Y-48744886D02*
X27124066Y-48816315D01*
X27124066Y-48816315D02*
X27409780Y-49102029D01*
X27409780Y-49102029D02*
X27100256Y-49102029D01*
X51238933Y-27961609D02*
X51405599Y-27723514D01*
X51524647Y-27961609D02*
X51524647Y-27461609D01*
X51524647Y-27461609D02*
X51334171Y-27461609D01*
X51334171Y-27461609D02*
X51286552Y-27485419D01*
X51286552Y-27485419D02*
X51262742Y-27509228D01*
X51262742Y-27509228D02*
X51238933Y-27556847D01*
X51238933Y-27556847D02*
X51238933Y-27628276D01*
X51238933Y-27628276D02*
X51262742Y-27675895D01*
X51262742Y-27675895D02*
X51286552Y-27699704D01*
X51286552Y-27699704D02*
X51334171Y-27723514D01*
X51334171Y-27723514D02*
X51524647Y-27723514D01*
X50786552Y-27461609D02*
X51024647Y-27461609D01*
X51024647Y-27461609D02*
X51048456Y-27699704D01*
X51048456Y-27699704D02*
X51024647Y-27675895D01*
X51024647Y-27675895D02*
X50977028Y-27652085D01*
X50977028Y-27652085D02*
X50857980Y-27652085D01*
X50857980Y-27652085D02*
X50810361Y-27675895D01*
X50810361Y-27675895D02*
X50786552Y-27699704D01*
X50786552Y-27699704D02*
X50762742Y-27747323D01*
X50762742Y-27747323D02*
X50762742Y-27866371D01*
X50762742Y-27866371D02*
X50786552Y-27913990D01*
X50786552Y-27913990D02*
X50810361Y-27937800D01*
X50810361Y-27937800D02*
X50857980Y-27961609D01*
X50857980Y-27961609D02*
X50977028Y-27961609D01*
X50977028Y-27961609D02*
X51024647Y-27937800D01*
X51024647Y-27937800D02*
X51048456Y-27913990D01*
D11*
X45912904Y-42012519D02*
X45912904Y-42822042D01*
X45912904Y-42822042D02*
X45865285Y-42917280D01*
X45865285Y-42917280D02*
X45817666Y-42964900D01*
X45817666Y-42964900D02*
X45722428Y-43012519D01*
X45722428Y-43012519D02*
X45531952Y-43012519D01*
X45531952Y-43012519D02*
X45436714Y-42964900D01*
X45436714Y-42964900D02*
X45389095Y-42917280D01*
X45389095Y-42917280D02*
X45341476Y-42822042D01*
X45341476Y-42822042D02*
X45341476Y-42012519D01*
X44389095Y-42012519D02*
X44865285Y-42012519D01*
X44865285Y-42012519D02*
X44912904Y-42488709D01*
X44912904Y-42488709D02*
X44865285Y-42441090D01*
X44865285Y-42441090D02*
X44770047Y-42393471D01*
X44770047Y-42393471D02*
X44531952Y-42393471D01*
X44531952Y-42393471D02*
X44436714Y-42441090D01*
X44436714Y-42441090D02*
X44389095Y-42488709D01*
X44389095Y-42488709D02*
X44341476Y-42583947D01*
X44341476Y-42583947D02*
X44341476Y-42822042D01*
X44341476Y-42822042D02*
X44389095Y-42917280D01*
X44389095Y-42917280D02*
X44436714Y-42964900D01*
X44436714Y-42964900D02*
X44531952Y-43012519D01*
X44531952Y-43012519D02*
X44770047Y-43012519D01*
X44770047Y-43012519D02*
X44865285Y-42964900D01*
X44865285Y-42964900D02*
X44912904Y-42917280D01*
D10*
X49994333Y-35988009D02*
X50160999Y-35749914D01*
X50280047Y-35988009D02*
X50280047Y-35488009D01*
X50280047Y-35488009D02*
X50089571Y-35488009D01*
X50089571Y-35488009D02*
X50041952Y-35511819D01*
X50041952Y-35511819D02*
X50018142Y-35535628D01*
X50018142Y-35535628D02*
X49994333Y-35583247D01*
X49994333Y-35583247D02*
X49994333Y-35654676D01*
X49994333Y-35654676D02*
X50018142Y-35702295D01*
X50018142Y-35702295D02*
X50041952Y-35726104D01*
X50041952Y-35726104D02*
X50089571Y-35749914D01*
X50089571Y-35749914D02*
X50280047Y-35749914D01*
X49827666Y-35488009D02*
X49494333Y-35488009D01*
X49494333Y-35488009D02*
X49708618Y-35988009D01*
D11*
X42781104Y-35530418D02*
X42781104Y-36339941D01*
X42781104Y-36339941D02*
X42733485Y-36435179D01*
X42733485Y-36435179D02*
X42685866Y-36482799D01*
X42685866Y-36482799D02*
X42590628Y-36530418D01*
X42590628Y-36530418D02*
X42400152Y-36530418D01*
X42400152Y-36530418D02*
X42304914Y-36482799D01*
X42304914Y-36482799D02*
X42257295Y-36435179D01*
X42257295Y-36435179D02*
X42209676Y-36339941D01*
X42209676Y-36339941D02*
X42209676Y-35530418D01*
X41590628Y-35958989D02*
X41685866Y-35911370D01*
X41685866Y-35911370D02*
X41733485Y-35863751D01*
X41733485Y-35863751D02*
X41781104Y-35768513D01*
X41781104Y-35768513D02*
X41781104Y-35720894D01*
X41781104Y-35720894D02*
X41733485Y-35625656D01*
X41733485Y-35625656D02*
X41685866Y-35578037D01*
X41685866Y-35578037D02*
X41590628Y-35530418D01*
X41590628Y-35530418D02*
X41400152Y-35530418D01*
X41400152Y-35530418D02*
X41304914Y-35578037D01*
X41304914Y-35578037D02*
X41257295Y-35625656D01*
X41257295Y-35625656D02*
X41209676Y-35720894D01*
X41209676Y-35720894D02*
X41209676Y-35768513D01*
X41209676Y-35768513D02*
X41257295Y-35863751D01*
X41257295Y-35863751D02*
X41304914Y-35911370D01*
X41304914Y-35911370D02*
X41400152Y-35958989D01*
X41400152Y-35958989D02*
X41590628Y-35958989D01*
X41590628Y-35958989D02*
X41685866Y-36006608D01*
X41685866Y-36006608D02*
X41733485Y-36054227D01*
X41733485Y-36054227D02*
X41781104Y-36149465D01*
X41781104Y-36149465D02*
X41781104Y-36339941D01*
X41781104Y-36339941D02*
X41733485Y-36435179D01*
X41733485Y-36435179D02*
X41685866Y-36482799D01*
X41685866Y-36482799D02*
X41590628Y-36530418D01*
X41590628Y-36530418D02*
X41400152Y-36530418D01*
X41400152Y-36530418D02*
X41304914Y-36482799D01*
X41304914Y-36482799D02*
X41257295Y-36435179D01*
X41257295Y-36435179D02*
X41209676Y-36339941D01*
X41209676Y-36339941D02*
X41209676Y-36149465D01*
X41209676Y-36149465D02*
X41257295Y-36054227D01*
X41257295Y-36054227D02*
X41304914Y-36006608D01*
X41304914Y-36006608D02*
X41400152Y-35958989D01*
X29235304Y-60948219D02*
X29235304Y-61757742D01*
X29235304Y-61757742D02*
X29187685Y-61852980D01*
X29187685Y-61852980D02*
X29140066Y-61900600D01*
X29140066Y-61900600D02*
X29044828Y-61948219D01*
X29044828Y-61948219D02*
X28854352Y-61948219D01*
X28854352Y-61948219D02*
X28759114Y-61900600D01*
X28759114Y-61900600D02*
X28711495Y-61852980D01*
X28711495Y-61852980D02*
X28663876Y-61757742D01*
X28663876Y-61757742D02*
X28663876Y-60948219D01*
X28282923Y-60948219D02*
X27616257Y-60948219D01*
X27616257Y-60948219D02*
X28044828Y-61948219D01*
D10*
X27839941Y-40412072D02*
X27601846Y-40412072D01*
X27887560Y-40554929D02*
X27720894Y-40054929D01*
X27720894Y-40054929D02*
X27554227Y-40554929D01*
X27292323Y-40054929D02*
X27244704Y-40054929D01*
X27244704Y-40054929D02*
X27197085Y-40078739D01*
X27197085Y-40078739D02*
X27173275Y-40102548D01*
X27173275Y-40102548D02*
X27149466Y-40150167D01*
X27149466Y-40150167D02*
X27125656Y-40245405D01*
X27125656Y-40245405D02*
X27125656Y-40364453D01*
X27125656Y-40364453D02*
X27149466Y-40459691D01*
X27149466Y-40459691D02*
X27173275Y-40507310D01*
X27173275Y-40507310D02*
X27197085Y-40531120D01*
X27197085Y-40531120D02*
X27244704Y-40554929D01*
X27244704Y-40554929D02*
X27292323Y-40554929D01*
X27292323Y-40554929D02*
X27339942Y-40531120D01*
X27339942Y-40531120D02*
X27363751Y-40507310D01*
X27363751Y-40507310D02*
X27387561Y-40459691D01*
X27387561Y-40459691D02*
X27411370Y-40364453D01*
X27411370Y-40364453D02*
X27411370Y-40245405D01*
X27411370Y-40245405D02*
X27387561Y-40150167D01*
X27387561Y-40150167D02*
X27363751Y-40102548D01*
X27363751Y-40102548D02*
X27339942Y-40078739D01*
X27339942Y-40078739D02*
X27292323Y-40054929D01*
X38208733Y-44420809D02*
X38375399Y-44182714D01*
X38494447Y-44420809D02*
X38494447Y-43920809D01*
X38494447Y-43920809D02*
X38303971Y-43920809D01*
X38303971Y-43920809D02*
X38256352Y-43944619D01*
X38256352Y-43944619D02*
X38232542Y-43968428D01*
X38232542Y-43968428D02*
X38208733Y-44016047D01*
X38208733Y-44016047D02*
X38208733Y-44087476D01*
X38208733Y-44087476D02*
X38232542Y-44135095D01*
X38232542Y-44135095D02*
X38256352Y-44158904D01*
X38256352Y-44158904D02*
X38303971Y-44182714D01*
X38303971Y-44182714D02*
X38494447Y-44182714D01*
X37780161Y-43920809D02*
X37875399Y-43920809D01*
X37875399Y-43920809D02*
X37923018Y-43944619D01*
X37923018Y-43944619D02*
X37946828Y-43968428D01*
X37946828Y-43968428D02*
X37994447Y-44039857D01*
X37994447Y-44039857D02*
X38018256Y-44135095D01*
X38018256Y-44135095D02*
X38018256Y-44325571D01*
X38018256Y-44325571D02*
X37994447Y-44373190D01*
X37994447Y-44373190D02*
X37970637Y-44397000D01*
X37970637Y-44397000D02*
X37923018Y-44420809D01*
X37923018Y-44420809D02*
X37827780Y-44420809D01*
X37827780Y-44420809D02*
X37780161Y-44397000D01*
X37780161Y-44397000D02*
X37756352Y-44373190D01*
X37756352Y-44373190D02*
X37732542Y-44325571D01*
X37732542Y-44325571D02*
X37732542Y-44206523D01*
X37732542Y-44206523D02*
X37756352Y-44158904D01*
X37756352Y-44158904D02*
X37780161Y-44135095D01*
X37780161Y-44135095D02*
X37827780Y-44111285D01*
X37827780Y-44111285D02*
X37923018Y-44111285D01*
X37923018Y-44111285D02*
X37970637Y-44135095D01*
X37970637Y-44135095D02*
X37994447Y-44158904D01*
X37994447Y-44158904D02*
X38018256Y-44206523D01*
X49444387Y-42777429D02*
X49444387Y-42277429D01*
X49444387Y-42277429D02*
X49325339Y-42277429D01*
X49325339Y-42277429D02*
X49253911Y-42301239D01*
X49253911Y-42301239D02*
X49206292Y-42348858D01*
X49206292Y-42348858D02*
X49182482Y-42396477D01*
X49182482Y-42396477D02*
X49158673Y-42491715D01*
X49158673Y-42491715D02*
X49158673Y-42563143D01*
X49158673Y-42563143D02*
X49182482Y-42658381D01*
X49182482Y-42658381D02*
X49206292Y-42706000D01*
X49206292Y-42706000D02*
X49253911Y-42753620D01*
X49253911Y-42753620D02*
X49325339Y-42777429D01*
X49325339Y-42777429D02*
X49444387Y-42777429D01*
X48682482Y-42777429D02*
X48968196Y-42777429D01*
X48825339Y-42777429D02*
X48825339Y-42277429D01*
X48825339Y-42277429D02*
X48872958Y-42348858D01*
X48872958Y-42348858D02*
X48920577Y-42396477D01*
X48920577Y-42396477D02*
X48968196Y-42420286D01*
X51656727Y-42762189D02*
X51656727Y-42262189D01*
X51656727Y-42262189D02*
X51537679Y-42262189D01*
X51537679Y-42262189D02*
X51466251Y-42285999D01*
X51466251Y-42285999D02*
X51418632Y-42333618D01*
X51418632Y-42333618D02*
X51394822Y-42381237D01*
X51394822Y-42381237D02*
X51371013Y-42476475D01*
X51371013Y-42476475D02*
X51371013Y-42547903D01*
X51371013Y-42547903D02*
X51394822Y-42643141D01*
X51394822Y-42643141D02*
X51418632Y-42690760D01*
X51418632Y-42690760D02*
X51466251Y-42738380D01*
X51466251Y-42738380D02*
X51537679Y-42762189D01*
X51537679Y-42762189D02*
X51656727Y-42762189D01*
X51180536Y-42309808D02*
X51156727Y-42285999D01*
X51156727Y-42285999D02*
X51109108Y-42262189D01*
X51109108Y-42262189D02*
X50990060Y-42262189D01*
X50990060Y-42262189D02*
X50942441Y-42285999D01*
X50942441Y-42285999D02*
X50918632Y-42309808D01*
X50918632Y-42309808D02*
X50894822Y-42357427D01*
X50894822Y-42357427D02*
X50894822Y-42405046D01*
X50894822Y-42405046D02*
X50918632Y-42476475D01*
X50918632Y-42476475D02*
X51204346Y-42762189D01*
X51204346Y-42762189D02*
X50894822Y-42762189D01*
X50607707Y-51217849D02*
X50607707Y-50717849D01*
X50607707Y-50717849D02*
X50488659Y-50717849D01*
X50488659Y-50717849D02*
X50417231Y-50741659D01*
X50417231Y-50741659D02*
X50369612Y-50789278D01*
X50369612Y-50789278D02*
X50345802Y-50836897D01*
X50345802Y-50836897D02*
X50321993Y-50932135D01*
X50321993Y-50932135D02*
X50321993Y-51003563D01*
X50321993Y-51003563D02*
X50345802Y-51098801D01*
X50345802Y-51098801D02*
X50369612Y-51146420D01*
X50369612Y-51146420D02*
X50417231Y-51194040D01*
X50417231Y-51194040D02*
X50488659Y-51217849D01*
X50488659Y-51217849D02*
X50607707Y-51217849D01*
X50155326Y-50717849D02*
X49845802Y-50717849D01*
X49845802Y-50717849D02*
X50012469Y-50908325D01*
X50012469Y-50908325D02*
X49941040Y-50908325D01*
X49941040Y-50908325D02*
X49893421Y-50932135D01*
X49893421Y-50932135D02*
X49869612Y-50955944D01*
X49869612Y-50955944D02*
X49845802Y-51003563D01*
X49845802Y-51003563D02*
X49845802Y-51122611D01*
X49845802Y-51122611D02*
X49869612Y-51170230D01*
X49869612Y-51170230D02*
X49893421Y-51194040D01*
X49893421Y-51194040D02*
X49941040Y-51217849D01*
X49941040Y-51217849D02*
X50083897Y-51217849D01*
X50083897Y-51217849D02*
X50131516Y-51194040D01*
X50131516Y-51194040D02*
X50155326Y-51170230D01*
X42320229Y-64028826D02*
X42082134Y-63862160D01*
X42320229Y-63743112D02*
X41820229Y-63743112D01*
X41820229Y-63743112D02*
X41820229Y-63933588D01*
X41820229Y-63933588D02*
X41844039Y-63981207D01*
X41844039Y-63981207D02*
X41867848Y-64005017D01*
X41867848Y-64005017D02*
X41915467Y-64028826D01*
X41915467Y-64028826D02*
X41986896Y-64028826D01*
X41986896Y-64028826D02*
X42034515Y-64005017D01*
X42034515Y-64005017D02*
X42058324Y-63981207D01*
X42058324Y-63981207D02*
X42082134Y-63933588D01*
X42082134Y-63933588D02*
X42082134Y-63743112D01*
X41867848Y-64219303D02*
X41844039Y-64243112D01*
X41844039Y-64243112D02*
X41820229Y-64290731D01*
X41820229Y-64290731D02*
X41820229Y-64409779D01*
X41820229Y-64409779D02*
X41844039Y-64457398D01*
X41844039Y-64457398D02*
X41867848Y-64481207D01*
X41867848Y-64481207D02*
X41915467Y-64505017D01*
X41915467Y-64505017D02*
X41963086Y-64505017D01*
X41963086Y-64505017D02*
X42034515Y-64481207D01*
X42034515Y-64481207D02*
X42320229Y-64195493D01*
X42320229Y-64195493D02*
X42320229Y-64505017D01*
X26748293Y-37583149D02*
X26914959Y-37345054D01*
X27034007Y-37583149D02*
X27034007Y-37083149D01*
X27034007Y-37083149D02*
X26843531Y-37083149D01*
X26843531Y-37083149D02*
X26795912Y-37106959D01*
X26795912Y-37106959D02*
X26772102Y-37130768D01*
X26772102Y-37130768D02*
X26748293Y-37178387D01*
X26748293Y-37178387D02*
X26748293Y-37249816D01*
X26748293Y-37249816D02*
X26772102Y-37297435D01*
X26772102Y-37297435D02*
X26795912Y-37321244D01*
X26795912Y-37321244D02*
X26843531Y-37345054D01*
X26843531Y-37345054D02*
X27034007Y-37345054D01*
X26462578Y-37297435D02*
X26510197Y-37273625D01*
X26510197Y-37273625D02*
X26534007Y-37249816D01*
X26534007Y-37249816D02*
X26557816Y-37202197D01*
X26557816Y-37202197D02*
X26557816Y-37178387D01*
X26557816Y-37178387D02*
X26534007Y-37130768D01*
X26534007Y-37130768D02*
X26510197Y-37106959D01*
X26510197Y-37106959D02*
X26462578Y-37083149D01*
X26462578Y-37083149D02*
X26367340Y-37083149D01*
X26367340Y-37083149D02*
X26319721Y-37106959D01*
X26319721Y-37106959D02*
X26295912Y-37130768D01*
X26295912Y-37130768D02*
X26272102Y-37178387D01*
X26272102Y-37178387D02*
X26272102Y-37202197D01*
X26272102Y-37202197D02*
X26295912Y-37249816D01*
X26295912Y-37249816D02*
X26319721Y-37273625D01*
X26319721Y-37273625D02*
X26367340Y-37297435D01*
X26367340Y-37297435D02*
X26462578Y-37297435D01*
X26462578Y-37297435D02*
X26510197Y-37321244D01*
X26510197Y-37321244D02*
X26534007Y-37345054D01*
X26534007Y-37345054D02*
X26557816Y-37392673D01*
X26557816Y-37392673D02*
X26557816Y-37487911D01*
X26557816Y-37487911D02*
X26534007Y-37535530D01*
X26534007Y-37535530D02*
X26510197Y-37559340D01*
X26510197Y-37559340D02*
X26462578Y-37583149D01*
X26462578Y-37583149D02*
X26367340Y-37583149D01*
X26367340Y-37583149D02*
X26319721Y-37559340D01*
X26319721Y-37559340D02*
X26295912Y-37535530D01*
X26295912Y-37535530D02*
X26272102Y-37487911D01*
X26272102Y-37487911D02*
X26272102Y-37392673D01*
X26272102Y-37392673D02*
X26295912Y-37345054D01*
X26295912Y-37345054D02*
X26319721Y-37321244D01*
X26319721Y-37321244D02*
X26367340Y-37297435D01*
X34253973Y-34207489D02*
X34420639Y-33969394D01*
X34539687Y-34207489D02*
X34539687Y-33707489D01*
X34539687Y-33707489D02*
X34349211Y-33707489D01*
X34349211Y-33707489D02*
X34301592Y-33731299D01*
X34301592Y-33731299D02*
X34277782Y-33755108D01*
X34277782Y-33755108D02*
X34253973Y-33802727D01*
X34253973Y-33802727D02*
X34253973Y-33874156D01*
X34253973Y-33874156D02*
X34277782Y-33921775D01*
X34277782Y-33921775D02*
X34301592Y-33945584D01*
X34301592Y-33945584D02*
X34349211Y-33969394D01*
X34349211Y-33969394D02*
X34539687Y-33969394D01*
X34015877Y-34207489D02*
X33920639Y-34207489D01*
X33920639Y-34207489D02*
X33873020Y-34183680D01*
X33873020Y-34183680D02*
X33849211Y-34159870D01*
X33849211Y-34159870D02*
X33801592Y-34088441D01*
X33801592Y-34088441D02*
X33777782Y-33993203D01*
X33777782Y-33993203D02*
X33777782Y-33802727D01*
X33777782Y-33802727D02*
X33801592Y-33755108D01*
X33801592Y-33755108D02*
X33825401Y-33731299D01*
X33825401Y-33731299D02*
X33873020Y-33707489D01*
X33873020Y-33707489D02*
X33968258Y-33707489D01*
X33968258Y-33707489D02*
X34015877Y-33731299D01*
X34015877Y-33731299D02*
X34039687Y-33755108D01*
X34039687Y-33755108D02*
X34063496Y-33802727D01*
X34063496Y-33802727D02*
X34063496Y-33921775D01*
X34063496Y-33921775D02*
X34039687Y-33969394D01*
X34039687Y-33969394D02*
X34015877Y-33993203D01*
X34015877Y-33993203D02*
X33968258Y-34017013D01*
X33968258Y-34017013D02*
X33873020Y-34017013D01*
X33873020Y-34017013D02*
X33825401Y-33993203D01*
X33825401Y-33993203D02*
X33801592Y-33969394D01*
X33801592Y-33969394D02*
X33777782Y-33921775D01*
X38337608Y-30702289D02*
X38504274Y-30464194D01*
X38623322Y-30702289D02*
X38623322Y-30202289D01*
X38623322Y-30202289D02*
X38432846Y-30202289D01*
X38432846Y-30202289D02*
X38385227Y-30226099D01*
X38385227Y-30226099D02*
X38361417Y-30249908D01*
X38361417Y-30249908D02*
X38337608Y-30297527D01*
X38337608Y-30297527D02*
X38337608Y-30368956D01*
X38337608Y-30368956D02*
X38361417Y-30416575D01*
X38361417Y-30416575D02*
X38385227Y-30440384D01*
X38385227Y-30440384D02*
X38432846Y-30464194D01*
X38432846Y-30464194D02*
X38623322Y-30464194D01*
X37861417Y-30702289D02*
X38147131Y-30702289D01*
X38004274Y-30702289D02*
X38004274Y-30202289D01*
X38004274Y-30202289D02*
X38051893Y-30273718D01*
X38051893Y-30273718D02*
X38099512Y-30321337D01*
X38099512Y-30321337D02*
X38147131Y-30345146D01*
X37551894Y-30202289D02*
X37504275Y-30202289D01*
X37504275Y-30202289D02*
X37456656Y-30226099D01*
X37456656Y-30226099D02*
X37432846Y-30249908D01*
X37432846Y-30249908D02*
X37409037Y-30297527D01*
X37409037Y-30297527D02*
X37385227Y-30392765D01*
X37385227Y-30392765D02*
X37385227Y-30511813D01*
X37385227Y-30511813D02*
X37409037Y-30607051D01*
X37409037Y-30607051D02*
X37432846Y-30654670D01*
X37432846Y-30654670D02*
X37456656Y-30678480D01*
X37456656Y-30678480D02*
X37504275Y-30702289D01*
X37504275Y-30702289D02*
X37551894Y-30702289D01*
X37551894Y-30702289D02*
X37599513Y-30678480D01*
X37599513Y-30678480D02*
X37623322Y-30654670D01*
X37623322Y-30654670D02*
X37647132Y-30607051D01*
X37647132Y-30607051D02*
X37670941Y-30511813D01*
X37670941Y-30511813D02*
X37670941Y-30392765D01*
X37670941Y-30392765D02*
X37647132Y-30297527D01*
X37647132Y-30297527D02*
X37623322Y-30249908D01*
X37623322Y-30249908D02*
X37599513Y-30226099D01*
X37599513Y-30226099D02*
X37551894Y-30202289D01*
X36320848Y-29991049D02*
X36487514Y-29752954D01*
X36606562Y-29991049D02*
X36606562Y-29491049D01*
X36606562Y-29491049D02*
X36416086Y-29491049D01*
X36416086Y-29491049D02*
X36368467Y-29514859D01*
X36368467Y-29514859D02*
X36344657Y-29538668D01*
X36344657Y-29538668D02*
X36320848Y-29586287D01*
X36320848Y-29586287D02*
X36320848Y-29657716D01*
X36320848Y-29657716D02*
X36344657Y-29705335D01*
X36344657Y-29705335D02*
X36368467Y-29729144D01*
X36368467Y-29729144D02*
X36416086Y-29752954D01*
X36416086Y-29752954D02*
X36606562Y-29752954D01*
X35844657Y-29991049D02*
X36130371Y-29991049D01*
X35987514Y-29991049D02*
X35987514Y-29491049D01*
X35987514Y-29491049D02*
X36035133Y-29562478D01*
X36035133Y-29562478D02*
X36082752Y-29610097D01*
X36082752Y-29610097D02*
X36130371Y-29633906D01*
X35368467Y-29991049D02*
X35654181Y-29991049D01*
X35511324Y-29991049D02*
X35511324Y-29491049D01*
X35511324Y-29491049D02*
X35558943Y-29562478D01*
X35558943Y-29562478D02*
X35606562Y-29610097D01*
X35606562Y-29610097D02*
X35654181Y-29633906D01*
X40072428Y-43531809D02*
X40239094Y-43293714D01*
X40358142Y-43531809D02*
X40358142Y-43031809D01*
X40358142Y-43031809D02*
X40167666Y-43031809D01*
X40167666Y-43031809D02*
X40120047Y-43055619D01*
X40120047Y-43055619D02*
X40096237Y-43079428D01*
X40096237Y-43079428D02*
X40072428Y-43127047D01*
X40072428Y-43127047D02*
X40072428Y-43198476D01*
X40072428Y-43198476D02*
X40096237Y-43246095D01*
X40096237Y-43246095D02*
X40120047Y-43269904D01*
X40120047Y-43269904D02*
X40167666Y-43293714D01*
X40167666Y-43293714D02*
X40358142Y-43293714D01*
X39596237Y-43531809D02*
X39881951Y-43531809D01*
X39739094Y-43531809D02*
X39739094Y-43031809D01*
X39739094Y-43031809D02*
X39786713Y-43103238D01*
X39786713Y-43103238D02*
X39834332Y-43150857D01*
X39834332Y-43150857D02*
X39881951Y-43174666D01*
X39405761Y-43079428D02*
X39381952Y-43055619D01*
X39381952Y-43055619D02*
X39334333Y-43031809D01*
X39334333Y-43031809D02*
X39215285Y-43031809D01*
X39215285Y-43031809D02*
X39167666Y-43055619D01*
X39167666Y-43055619D02*
X39143857Y-43079428D01*
X39143857Y-43079428D02*
X39120047Y-43127047D01*
X39120047Y-43127047D02*
X39120047Y-43174666D01*
X39120047Y-43174666D02*
X39143857Y-43246095D01*
X39143857Y-43246095D02*
X39429571Y-43531809D01*
X39429571Y-43531809D02*
X39120047Y-43531809D01*
X49056388Y-39317989D02*
X49223054Y-39079894D01*
X49342102Y-39317989D02*
X49342102Y-38817989D01*
X49342102Y-38817989D02*
X49151626Y-38817989D01*
X49151626Y-38817989D02*
X49104007Y-38841799D01*
X49104007Y-38841799D02*
X49080197Y-38865608D01*
X49080197Y-38865608D02*
X49056388Y-38913227D01*
X49056388Y-38913227D02*
X49056388Y-38984656D01*
X49056388Y-38984656D02*
X49080197Y-39032275D01*
X49080197Y-39032275D02*
X49104007Y-39056084D01*
X49104007Y-39056084D02*
X49151626Y-39079894D01*
X49151626Y-39079894D02*
X49342102Y-39079894D01*
X48580197Y-39317989D02*
X48865911Y-39317989D01*
X48723054Y-39317989D02*
X48723054Y-38817989D01*
X48723054Y-38817989D02*
X48770673Y-38889418D01*
X48770673Y-38889418D02*
X48818292Y-38937037D01*
X48818292Y-38937037D02*
X48865911Y-38960846D01*
X48413531Y-38817989D02*
X48104007Y-38817989D01*
X48104007Y-38817989D02*
X48270674Y-39008465D01*
X48270674Y-39008465D02*
X48199245Y-39008465D01*
X48199245Y-39008465D02*
X48151626Y-39032275D01*
X48151626Y-39032275D02*
X48127817Y-39056084D01*
X48127817Y-39056084D02*
X48104007Y-39103703D01*
X48104007Y-39103703D02*
X48104007Y-39222751D01*
X48104007Y-39222751D02*
X48127817Y-39270370D01*
X48127817Y-39270370D02*
X48151626Y-39294180D01*
X48151626Y-39294180D02*
X48199245Y-39317989D01*
X48199245Y-39317989D02*
X48342102Y-39317989D01*
X48342102Y-39317989D02*
X48389721Y-39294180D01*
X48389721Y-39294180D02*
X48413531Y-39270370D01*
X41012228Y-61337209D02*
X41178894Y-61099114D01*
X41297942Y-61337209D02*
X41297942Y-60837209D01*
X41297942Y-60837209D02*
X41107466Y-60837209D01*
X41107466Y-60837209D02*
X41059847Y-60861019D01*
X41059847Y-60861019D02*
X41036037Y-60884828D01*
X41036037Y-60884828D02*
X41012228Y-60932447D01*
X41012228Y-60932447D02*
X41012228Y-61003876D01*
X41012228Y-61003876D02*
X41036037Y-61051495D01*
X41036037Y-61051495D02*
X41059847Y-61075304D01*
X41059847Y-61075304D02*
X41107466Y-61099114D01*
X41107466Y-61099114D02*
X41297942Y-61099114D01*
X40536037Y-61337209D02*
X40821751Y-61337209D01*
X40678894Y-61337209D02*
X40678894Y-60837209D01*
X40678894Y-60837209D02*
X40726513Y-60908638D01*
X40726513Y-60908638D02*
X40774132Y-60956257D01*
X40774132Y-60956257D02*
X40821751Y-60980066D01*
X40107466Y-61003876D02*
X40107466Y-61337209D01*
X40226514Y-60813400D02*
X40345561Y-61170542D01*
X40345561Y-61170542D02*
X40036038Y-61170542D01*
X51896128Y-32307589D02*
X52062794Y-32069494D01*
X52181842Y-32307589D02*
X52181842Y-31807589D01*
X52181842Y-31807589D02*
X51991366Y-31807589D01*
X51991366Y-31807589D02*
X51943747Y-31831399D01*
X51943747Y-31831399D02*
X51919937Y-31855208D01*
X51919937Y-31855208D02*
X51896128Y-31902827D01*
X51896128Y-31902827D02*
X51896128Y-31974256D01*
X51896128Y-31974256D02*
X51919937Y-32021875D01*
X51919937Y-32021875D02*
X51943747Y-32045684D01*
X51943747Y-32045684D02*
X51991366Y-32069494D01*
X51991366Y-32069494D02*
X52181842Y-32069494D01*
X51419937Y-32307589D02*
X51705651Y-32307589D01*
X51562794Y-32307589D02*
X51562794Y-31807589D01*
X51562794Y-31807589D02*
X51610413Y-31879018D01*
X51610413Y-31879018D02*
X51658032Y-31926637D01*
X51658032Y-31926637D02*
X51705651Y-31950446D01*
X50967557Y-31807589D02*
X51205652Y-31807589D01*
X51205652Y-31807589D02*
X51229461Y-32045684D01*
X51229461Y-32045684D02*
X51205652Y-32021875D01*
X51205652Y-32021875D02*
X51158033Y-31998065D01*
X51158033Y-31998065D02*
X51038985Y-31998065D01*
X51038985Y-31998065D02*
X50991366Y-32021875D01*
X50991366Y-32021875D02*
X50967557Y-32045684D01*
X50967557Y-32045684D02*
X50943747Y-32093303D01*
X50943747Y-32093303D02*
X50943747Y-32212351D01*
X50943747Y-32212351D02*
X50967557Y-32259970D01*
X50967557Y-32259970D02*
X50991366Y-32283780D01*
X50991366Y-32283780D02*
X51038985Y-32307589D01*
X51038985Y-32307589D02*
X51158033Y-32307589D01*
X51158033Y-32307589D02*
X51205652Y-32283780D01*
X51205652Y-32283780D02*
X51229461Y-32259970D01*
X39272348Y-60224729D02*
X39439014Y-59986634D01*
X39558062Y-60224729D02*
X39558062Y-59724729D01*
X39558062Y-59724729D02*
X39367586Y-59724729D01*
X39367586Y-59724729D02*
X39319967Y-59748539D01*
X39319967Y-59748539D02*
X39296157Y-59772348D01*
X39296157Y-59772348D02*
X39272348Y-59819967D01*
X39272348Y-59819967D02*
X39272348Y-59891396D01*
X39272348Y-59891396D02*
X39296157Y-59939015D01*
X39296157Y-59939015D02*
X39319967Y-59962824D01*
X39319967Y-59962824D02*
X39367586Y-59986634D01*
X39367586Y-59986634D02*
X39558062Y-59986634D01*
X38796157Y-60224729D02*
X39081871Y-60224729D01*
X38939014Y-60224729D02*
X38939014Y-59724729D01*
X38939014Y-59724729D02*
X38986633Y-59796158D01*
X38986633Y-59796158D02*
X39034252Y-59843777D01*
X39034252Y-59843777D02*
X39081871Y-59867586D01*
X38367586Y-59724729D02*
X38462824Y-59724729D01*
X38462824Y-59724729D02*
X38510443Y-59748539D01*
X38510443Y-59748539D02*
X38534253Y-59772348D01*
X38534253Y-59772348D02*
X38581872Y-59843777D01*
X38581872Y-59843777D02*
X38605681Y-59939015D01*
X38605681Y-59939015D02*
X38605681Y-60129491D01*
X38605681Y-60129491D02*
X38581872Y-60177110D01*
X38581872Y-60177110D02*
X38558062Y-60200920D01*
X38558062Y-60200920D02*
X38510443Y-60224729D01*
X38510443Y-60224729D02*
X38415205Y-60224729D01*
X38415205Y-60224729D02*
X38367586Y-60200920D01*
X38367586Y-60200920D02*
X38343777Y-60177110D01*
X38343777Y-60177110D02*
X38319967Y-60129491D01*
X38319967Y-60129491D02*
X38319967Y-60010443D01*
X38319967Y-60010443D02*
X38343777Y-59962824D01*
X38343777Y-59962824D02*
X38367586Y-59939015D01*
X38367586Y-59939015D02*
X38415205Y-59915205D01*
X38415205Y-59915205D02*
X38510443Y-59915205D01*
X38510443Y-59915205D02*
X38558062Y-59939015D01*
X38558062Y-59939015D02*
X38581872Y-59962824D01*
X38581872Y-59962824D02*
X38605681Y-60010443D01*
X29998768Y-53922909D02*
X30165434Y-53684814D01*
X30284482Y-53922909D02*
X30284482Y-53422909D01*
X30284482Y-53422909D02*
X30094006Y-53422909D01*
X30094006Y-53422909D02*
X30046387Y-53446719D01*
X30046387Y-53446719D02*
X30022577Y-53470528D01*
X30022577Y-53470528D02*
X29998768Y-53518147D01*
X29998768Y-53518147D02*
X29998768Y-53589576D01*
X29998768Y-53589576D02*
X30022577Y-53637195D01*
X30022577Y-53637195D02*
X30046387Y-53661004D01*
X30046387Y-53661004D02*
X30094006Y-53684814D01*
X30094006Y-53684814D02*
X30284482Y-53684814D01*
X29522577Y-53922909D02*
X29808291Y-53922909D01*
X29665434Y-53922909D02*
X29665434Y-53422909D01*
X29665434Y-53422909D02*
X29713053Y-53494338D01*
X29713053Y-53494338D02*
X29760672Y-53541957D01*
X29760672Y-53541957D02*
X29808291Y-53565766D01*
X29355911Y-53422909D02*
X29022578Y-53422909D01*
X29022578Y-53422909D02*
X29236863Y-53922909D01*
X31560908Y-49457649D02*
X31727574Y-49219554D01*
X31846622Y-49457649D02*
X31846622Y-48957649D01*
X31846622Y-48957649D02*
X31656146Y-48957649D01*
X31656146Y-48957649D02*
X31608527Y-48981459D01*
X31608527Y-48981459D02*
X31584717Y-49005268D01*
X31584717Y-49005268D02*
X31560908Y-49052887D01*
X31560908Y-49052887D02*
X31560908Y-49124316D01*
X31560908Y-49124316D02*
X31584717Y-49171935D01*
X31584717Y-49171935D02*
X31608527Y-49195744D01*
X31608527Y-49195744D02*
X31656146Y-49219554D01*
X31656146Y-49219554D02*
X31846622Y-49219554D01*
X31084717Y-49457649D02*
X31370431Y-49457649D01*
X31227574Y-49457649D02*
X31227574Y-48957649D01*
X31227574Y-48957649D02*
X31275193Y-49029078D01*
X31275193Y-49029078D02*
X31322812Y-49076697D01*
X31322812Y-49076697D02*
X31370431Y-49100506D01*
X30799003Y-49171935D02*
X30846622Y-49148125D01*
X30846622Y-49148125D02*
X30870432Y-49124316D01*
X30870432Y-49124316D02*
X30894241Y-49076697D01*
X30894241Y-49076697D02*
X30894241Y-49052887D01*
X30894241Y-49052887D02*
X30870432Y-49005268D01*
X30870432Y-49005268D02*
X30846622Y-48981459D01*
X30846622Y-48981459D02*
X30799003Y-48957649D01*
X30799003Y-48957649D02*
X30703765Y-48957649D01*
X30703765Y-48957649D02*
X30656146Y-48981459D01*
X30656146Y-48981459D02*
X30632337Y-49005268D01*
X30632337Y-49005268D02*
X30608527Y-49052887D01*
X30608527Y-49052887D02*
X30608527Y-49076697D01*
X30608527Y-49076697D02*
X30632337Y-49124316D01*
X30632337Y-49124316D02*
X30656146Y-49148125D01*
X30656146Y-49148125D02*
X30703765Y-49171935D01*
X30703765Y-49171935D02*
X30799003Y-49171935D01*
X30799003Y-49171935D02*
X30846622Y-49195744D01*
X30846622Y-49195744D02*
X30870432Y-49219554D01*
X30870432Y-49219554D02*
X30894241Y-49267173D01*
X30894241Y-49267173D02*
X30894241Y-49362411D01*
X30894241Y-49362411D02*
X30870432Y-49410030D01*
X30870432Y-49410030D02*
X30846622Y-49433840D01*
X30846622Y-49433840D02*
X30799003Y-49457649D01*
X30799003Y-49457649D02*
X30703765Y-49457649D01*
X30703765Y-49457649D02*
X30656146Y-49433840D01*
X30656146Y-49433840D02*
X30632337Y-49410030D01*
X30632337Y-49410030D02*
X30608527Y-49362411D01*
X30608527Y-49362411D02*
X30608527Y-49267173D01*
X30608527Y-49267173D02*
X30632337Y-49219554D01*
X30632337Y-49219554D02*
X30656146Y-49195744D01*
X30656146Y-49195744D02*
X30703765Y-49171935D01*
X40097828Y-39696409D02*
X40264494Y-39458314D01*
X40383542Y-39696409D02*
X40383542Y-39196409D01*
X40383542Y-39196409D02*
X40193066Y-39196409D01*
X40193066Y-39196409D02*
X40145447Y-39220219D01*
X40145447Y-39220219D02*
X40121637Y-39244028D01*
X40121637Y-39244028D02*
X40097828Y-39291647D01*
X40097828Y-39291647D02*
X40097828Y-39363076D01*
X40097828Y-39363076D02*
X40121637Y-39410695D01*
X40121637Y-39410695D02*
X40145447Y-39434504D01*
X40145447Y-39434504D02*
X40193066Y-39458314D01*
X40193066Y-39458314D02*
X40383542Y-39458314D01*
X39907351Y-39244028D02*
X39883542Y-39220219D01*
X39883542Y-39220219D02*
X39835923Y-39196409D01*
X39835923Y-39196409D02*
X39716875Y-39196409D01*
X39716875Y-39196409D02*
X39669256Y-39220219D01*
X39669256Y-39220219D02*
X39645447Y-39244028D01*
X39645447Y-39244028D02*
X39621637Y-39291647D01*
X39621637Y-39291647D02*
X39621637Y-39339266D01*
X39621637Y-39339266D02*
X39645447Y-39410695D01*
X39645447Y-39410695D02*
X39931161Y-39696409D01*
X39931161Y-39696409D02*
X39621637Y-39696409D01*
X39312114Y-39196409D02*
X39264495Y-39196409D01*
X39264495Y-39196409D02*
X39216876Y-39220219D01*
X39216876Y-39220219D02*
X39193066Y-39244028D01*
X39193066Y-39244028D02*
X39169257Y-39291647D01*
X39169257Y-39291647D02*
X39145447Y-39386885D01*
X39145447Y-39386885D02*
X39145447Y-39505933D01*
X39145447Y-39505933D02*
X39169257Y-39601171D01*
X39169257Y-39601171D02*
X39193066Y-39648790D01*
X39193066Y-39648790D02*
X39216876Y-39672600D01*
X39216876Y-39672600D02*
X39264495Y-39696409D01*
X39264495Y-39696409D02*
X39312114Y-39696409D01*
X39312114Y-39696409D02*
X39359733Y-39672600D01*
X39359733Y-39672600D02*
X39383542Y-39648790D01*
X39383542Y-39648790D02*
X39407352Y-39601171D01*
X39407352Y-39601171D02*
X39431161Y-39505933D01*
X39431161Y-39505933D02*
X39431161Y-39386885D01*
X39431161Y-39386885D02*
X39407352Y-39291647D01*
X39407352Y-39291647D02*
X39383542Y-39244028D01*
X39383542Y-39244028D02*
X39359733Y-39220219D01*
X39359733Y-39220219D02*
X39312114Y-39196409D01*
X36821228Y-43506409D02*
X36987894Y-43268314D01*
X37106942Y-43506409D02*
X37106942Y-43006409D01*
X37106942Y-43006409D02*
X36916466Y-43006409D01*
X36916466Y-43006409D02*
X36868847Y-43030219D01*
X36868847Y-43030219D02*
X36845037Y-43054028D01*
X36845037Y-43054028D02*
X36821228Y-43101647D01*
X36821228Y-43101647D02*
X36821228Y-43173076D01*
X36821228Y-43173076D02*
X36845037Y-43220695D01*
X36845037Y-43220695D02*
X36868847Y-43244504D01*
X36868847Y-43244504D02*
X36916466Y-43268314D01*
X36916466Y-43268314D02*
X37106942Y-43268314D01*
X36630751Y-43054028D02*
X36606942Y-43030219D01*
X36606942Y-43030219D02*
X36559323Y-43006409D01*
X36559323Y-43006409D02*
X36440275Y-43006409D01*
X36440275Y-43006409D02*
X36392656Y-43030219D01*
X36392656Y-43030219D02*
X36368847Y-43054028D01*
X36368847Y-43054028D02*
X36345037Y-43101647D01*
X36345037Y-43101647D02*
X36345037Y-43149266D01*
X36345037Y-43149266D02*
X36368847Y-43220695D01*
X36368847Y-43220695D02*
X36654561Y-43506409D01*
X36654561Y-43506409D02*
X36345037Y-43506409D01*
X35868847Y-43506409D02*
X36154561Y-43506409D01*
X36011704Y-43506409D02*
X36011704Y-43006409D01*
X36011704Y-43006409D02*
X36059323Y-43077838D01*
X36059323Y-43077838D02*
X36106942Y-43125457D01*
X36106942Y-43125457D02*
X36154561Y-43149266D01*
X26750148Y-38398429D02*
X26916814Y-38160334D01*
X27035862Y-38398429D02*
X27035862Y-37898429D01*
X27035862Y-37898429D02*
X26845386Y-37898429D01*
X26845386Y-37898429D02*
X26797767Y-37922239D01*
X26797767Y-37922239D02*
X26773957Y-37946048D01*
X26773957Y-37946048D02*
X26750148Y-37993667D01*
X26750148Y-37993667D02*
X26750148Y-38065096D01*
X26750148Y-38065096D02*
X26773957Y-38112715D01*
X26773957Y-38112715D02*
X26797767Y-38136524D01*
X26797767Y-38136524D02*
X26845386Y-38160334D01*
X26845386Y-38160334D02*
X27035862Y-38160334D01*
X26273957Y-38398429D02*
X26559671Y-38398429D01*
X26416814Y-38398429D02*
X26416814Y-37898429D01*
X26416814Y-37898429D02*
X26464433Y-37969858D01*
X26464433Y-37969858D02*
X26512052Y-38017477D01*
X26512052Y-38017477D02*
X26559671Y-38041286D01*
X26035862Y-38398429D02*
X25940624Y-38398429D01*
X25940624Y-38398429D02*
X25893005Y-38374620D01*
X25893005Y-38374620D02*
X25869196Y-38350810D01*
X25869196Y-38350810D02*
X25821577Y-38279381D01*
X25821577Y-38279381D02*
X25797767Y-38184143D01*
X25797767Y-38184143D02*
X25797767Y-37993667D01*
X25797767Y-37993667D02*
X25821577Y-37946048D01*
X25821577Y-37946048D02*
X25845386Y-37922239D01*
X25845386Y-37922239D02*
X25893005Y-37898429D01*
X25893005Y-37898429D02*
X25988243Y-37898429D01*
X25988243Y-37898429D02*
X26035862Y-37922239D01*
X26035862Y-37922239D02*
X26059672Y-37946048D01*
X26059672Y-37946048D02*
X26083481Y-37993667D01*
X26083481Y-37993667D02*
X26083481Y-38112715D01*
X26083481Y-38112715D02*
X26059672Y-38160334D01*
X26059672Y-38160334D02*
X26035862Y-38184143D01*
X26035862Y-38184143D02*
X25988243Y-38207953D01*
X25988243Y-38207953D02*
X25893005Y-38207953D01*
X25893005Y-38207953D02*
X25845386Y-38184143D01*
X25845386Y-38184143D02*
X25821577Y-38160334D01*
X25821577Y-38160334D02*
X25797767Y-38112715D01*
X51627066Y-52811009D02*
X51627066Y-53168152D01*
X51627066Y-53168152D02*
X51650875Y-53239580D01*
X51650875Y-53239580D02*
X51698494Y-53287200D01*
X51698494Y-53287200D02*
X51769923Y-53311009D01*
X51769923Y-53311009D02*
X51817542Y-53311009D01*
X51436590Y-52811009D02*
X51127066Y-52811009D01*
X51127066Y-52811009D02*
X51293733Y-53001485D01*
X51293733Y-53001485D02*
X51222304Y-53001485D01*
X51222304Y-53001485D02*
X51174685Y-53025295D01*
X51174685Y-53025295D02*
X51150876Y-53049104D01*
X51150876Y-53049104D02*
X51127066Y-53096723D01*
X51127066Y-53096723D02*
X51127066Y-53215771D01*
X51127066Y-53215771D02*
X51150876Y-53263390D01*
X51150876Y-53263390D02*
X51174685Y-53287200D01*
X51174685Y-53287200D02*
X51222304Y-53311009D01*
X51222304Y-53311009D02*
X51365161Y-53311009D01*
X51365161Y-53311009D02*
X51412780Y-53287200D01*
X51412780Y-53287200D02*
X51436590Y-53263390D01*
D11*
X40302904Y-46742819D02*
X40302904Y-47552342D01*
X40302904Y-47552342D02*
X40255285Y-47647580D01*
X40255285Y-47647580D02*
X40207666Y-47695200D01*
X40207666Y-47695200D02*
X40112428Y-47742819D01*
X40112428Y-47742819D02*
X39921952Y-47742819D01*
X39921952Y-47742819D02*
X39826714Y-47695200D01*
X39826714Y-47695200D02*
X39779095Y-47647580D01*
X39779095Y-47647580D02*
X39731476Y-47552342D01*
X39731476Y-47552342D02*
X39731476Y-46742819D01*
X39302904Y-46838057D02*
X39255285Y-46790438D01*
X39255285Y-46790438D02*
X39160047Y-46742819D01*
X39160047Y-46742819D02*
X38921952Y-46742819D01*
X38921952Y-46742819D02*
X38826714Y-46790438D01*
X38826714Y-46790438D02*
X38779095Y-46838057D01*
X38779095Y-46838057D02*
X38731476Y-46933295D01*
X38731476Y-46933295D02*
X38731476Y-47028533D01*
X38731476Y-47028533D02*
X38779095Y-47171390D01*
X38779095Y-47171390D02*
X39350523Y-47742819D01*
X39350523Y-47742819D02*
X38731476Y-47742819D01*
D12*
X45746600Y-51950252D02*
X45746600Y-51427748D01*
X47166600Y-51950252D02*
X47166600Y-51427748D01*
X31272800Y-61506100D02*
X31272800Y-59556100D01*
X31272800Y-61506100D02*
X31272800Y-63456100D01*
X36392800Y-61506100D02*
X36392800Y-59556100D01*
X36392800Y-61506100D02*
X36392800Y-64956100D01*
X26518800Y-55390148D02*
X26518800Y-55912652D01*
X27938800Y-55390148D02*
X27938800Y-55912652D01*
X31314300Y-51660652D02*
X31314300Y-51138148D01*
X32734300Y-51660652D02*
X32734300Y-51138148D01*
X44524452Y-61342200D02*
X44001948Y-61342200D01*
X44524452Y-62762200D02*
X44001948Y-62762200D01*
X44273400Y-58782852D02*
X44273400Y-58260348D01*
X45693400Y-58782852D02*
X45693400Y-58260348D01*
X25981200Y-44327800D02*
X25981200Y-44927800D01*
X26681200Y-45627800D02*
X28081200Y-45627800D01*
X28081200Y-43627800D02*
X26681200Y-43627800D01*
X28781200Y-44927800D02*
X28781200Y-44327800D01*
X25981200Y-44327800D02*
G75*
G02*
X26681200Y-43627800I699999J1D01*
G01*
X26681200Y-45627800D02*
G75*
G02*
X25981200Y-44927800I-1J699999D01*
G01*
X28081200Y-43627800D02*
G75*
G02*
X28781200Y-44327800I0J-700000D01*
G01*
X28781200Y-44927800D02*
G75*
G02*
X28081200Y-45627800I-700000J0D01*
G01*
X29819600Y-27577100D02*
X27869600Y-27577100D01*
X29819600Y-27577100D02*
X33269600Y-27577100D01*
X29819600Y-32697100D02*
X27869600Y-32697100D01*
X29819600Y-32697100D02*
X31769600Y-32697100D01*
X45770800Y-27119900D02*
X43820800Y-27119900D01*
X45770800Y-27119900D02*
X47720800Y-27119900D01*
X45770800Y-32239900D02*
X42320800Y-32239900D01*
X45770800Y-32239900D02*
X47720800Y-32239900D01*
X34041100Y-35192000D02*
X32091100Y-35192000D01*
X34041100Y-35192000D02*
X35991100Y-35192000D01*
X34041100Y-40312000D02*
X30591100Y-40312000D01*
X34041100Y-40312000D02*
X35991100Y-40312000D01*
X25981200Y-46931300D02*
X25981200Y-47531300D01*
X26681200Y-48231300D02*
X28081200Y-48231300D01*
X28081200Y-46231300D02*
X26681200Y-46231300D01*
X28781200Y-47531300D02*
X28781200Y-46931300D01*
X25981200Y-46931300D02*
G75*
G02*
X26681200Y-46231300I699999J1D01*
G01*
X26681200Y-48231300D02*
G75*
G02*
X25981200Y-47531300I-1J699999D01*
G01*
X28081200Y-46231300D02*
G75*
G02*
X28781200Y-46931300I0J-700000D01*
G01*
X28781200Y-47531300D02*
G75*
G02*
X28081200Y-48231300I-700000J0D01*
G01*
X49841600Y-54821000D02*
X51961600Y-54821000D01*
X49841600Y-62881000D02*
X49841600Y-54821000D01*
X49841600Y-62881000D02*
X51961600Y-62881000D01*
X49841600Y-63881000D02*
X49841600Y-64941000D01*
X49841600Y-64941000D02*
X50901600Y-64941000D01*
X51961600Y-62881000D02*
X51961600Y-54821000D01*
X50432900Y-29723448D02*
X50432900Y-30245952D01*
X51852900Y-29723448D02*
X51852900Y-30245952D01*
X42629100Y-42583100D02*
X42629100Y-40633100D01*
X42629100Y-42583100D02*
X42629100Y-44533100D01*
X47749100Y-42583100D02*
X47749100Y-40633100D01*
X47749100Y-42583100D02*
X47749100Y-46033100D01*
X50692000Y-37086152D02*
X50692000Y-36563648D01*
X52112000Y-37086152D02*
X52112000Y-36563648D01*
X42120800Y-33401300D02*
X40170800Y-33401300D01*
X42120800Y-33401300D02*
X45570800Y-33401300D01*
X42120800Y-38521300D02*
X40170800Y-38521300D01*
X42120800Y-38521300D02*
X44070800Y-38521300D01*
X25837200Y-61506100D02*
X25837200Y-58056100D01*
X25837200Y-61506100D02*
X25837200Y-63456100D01*
X30957200Y-61506100D02*
X30957200Y-59556100D01*
X30957200Y-61506100D02*
X30957200Y-63456100D01*
X46742800Y-54821000D02*
X48862800Y-54821000D01*
X46742800Y-62881000D02*
X46742800Y-54821000D01*
X46742800Y-62881000D02*
X48862800Y-62881000D01*
X46742800Y-63881000D02*
X46742800Y-64941000D01*
X46742800Y-64941000D02*
X47802800Y-64941000D01*
X48862800Y-62881000D02*
X48862800Y-54821000D01*
X25981200Y-41724300D02*
X25981200Y-42324300D01*
X26681200Y-43024300D02*
X28081200Y-43024300D01*
X28081200Y-41024300D02*
X26681200Y-41024300D01*
X28781200Y-42324300D02*
X28781200Y-41724300D01*
X25981200Y-41724300D02*
G75*
G02*
X26681200Y-41024300I699999J1D01*
G01*
X26681200Y-43024300D02*
G75*
G02*
X25981200Y-42324300I-1J699999D01*
G01*
X28081200Y-41024300D02*
G75*
G02*
X28781200Y-41724300I0J-700000D01*
G01*
X28781200Y-42324300D02*
G75*
G02*
X28081200Y-43024300I-700000J0D01*
G01*
X38107252Y-44768700D02*
X37584748Y-44768700D01*
X38107252Y-46188700D02*
X37584748Y-46188700D01*
X48074700Y-46640200D02*
X48074700Y-43780200D01*
X49994700Y-43780200D02*
X49994700Y-46640200D01*
X49994700Y-46640200D02*
X48074700Y-46640200D01*
X50322600Y-46652900D02*
X50322600Y-43792900D01*
X52242600Y-43792900D02*
X52242600Y-46652900D01*
X52242600Y-46652900D02*
X50322600Y-46652900D01*
X49230400Y-46844500D02*
X51150400Y-46844500D01*
X49230400Y-49704500D02*
X49230400Y-46844500D01*
X51150400Y-46844500D02*
X51150400Y-49704500D01*
X44546152Y-63442800D02*
X44023648Y-63442800D01*
X44546152Y-64862800D02*
X44023648Y-64862800D01*
X27752448Y-33191400D02*
X28274952Y-33191400D01*
X27752448Y-34611400D02*
X28274952Y-34611400D01*
X32016352Y-33191400D02*
X31493848Y-33191400D01*
X32016352Y-34611400D02*
X31493848Y-34611400D01*
X39656652Y-31121300D02*
X39134148Y-31121300D01*
X39656652Y-32541300D02*
X39134148Y-32541300D01*
X36291152Y-27613100D02*
X35768648Y-27613100D01*
X36291152Y-29033100D02*
X35768648Y-29033100D01*
X40717400Y-44226848D02*
X40717400Y-44749352D01*
X42137400Y-44226848D02*
X42137400Y-44749352D01*
X47536448Y-37006500D02*
X48058952Y-37006500D01*
X47536448Y-38426500D02*
X48058952Y-38426500D01*
X40003700Y-63547852D02*
X40003700Y-63025348D01*
X41423700Y-63547852D02*
X41423700Y-63025348D01*
X50819952Y-32764700D02*
X50297448Y-32764700D01*
X50819952Y-34184700D02*
X50297448Y-34184700D01*
X39204552Y-57948800D02*
X38682048Y-57948800D01*
X39204552Y-59368800D02*
X38682048Y-59368800D01*
X28990200Y-51673352D02*
X28990200Y-51150848D01*
X30410200Y-51673352D02*
X30410200Y-51150848D01*
X30524400Y-46746548D02*
X30524400Y-47269052D01*
X31944400Y-46746548D02*
X31944400Y-47269052D01*
X40722500Y-40360948D02*
X40722500Y-40883452D01*
X42142500Y-40360948D02*
X42142500Y-40883452D01*
X35019348Y-41210200D02*
X35541852Y-41210200D01*
X35019348Y-42630200D02*
X35541852Y-42630200D01*
X28244452Y-35182700D02*
X27721948Y-35182700D01*
X28244452Y-36602700D02*
X27721948Y-36602700D01*
X52160400Y-51638200D02*
G75*
G02*
X50760400Y-51638200I-700000J0D01*
G01*
X50760400Y-51638200D02*
G75*
G02*
X52160400Y-51638200I700000J0D01*
G01*
D11*
X41991000Y-48043000D02*
X36241000Y-48043000D01*
X41991000Y-48268000D02*
X41991000Y-48043000D01*
X36241000Y-48268000D02*
X36241000Y-48043000D01*
X41991000Y-56468000D02*
X41991000Y-56693000D01*
X36241000Y-56468000D02*
X36241000Y-56693000D01*
X41991000Y-56693000D02*
X36241000Y-56693000D01*
D12*
X35981000Y-56773000D02*
X35501000Y-56772999D01*
X35741000Y-56443001D01*
X35981000Y-56773000D01*
G36*
X35981000Y-56773000D02*
G01*
X35501000Y-56772999D01*
X35741000Y-56443001D01*
X35981000Y-56773000D01*
G37*
M02*
