G04 #@! TF.GenerationSoftware,KiCad,Pcbnew,8.0.7*
G04 #@! TF.CreationDate,2025-05-03T20:28:39+02:00*
G04 #@! TF.ProjectId,EM7SEG_DRIVER,454d3753-4547-45f4-9452-495645522e6b,rev?*
G04 #@! TF.SameCoordinates,Original*
G04 #@! TF.FileFunction,Soldermask,Bot*
G04 #@! TF.FilePolarity,Negative*
%FSLAX46Y46*%
G04 Gerber Fmt 4.6, Leading zero omitted, Abs format (unit mm)*
G04 Created by KiCad (PCBNEW 8.0.7) date 2025-05-03 20:28:39*
%MOMM*%
%LPD*%
G01*
G04 APERTURE LIST*
G04 Aperture macros list*
%AMRoundRect*
0 Rectangle with rounded corners*
0 $1 Rounding radius*
0 $2 $3 $4 $5 $6 $7 $8 $9 X,Y pos of 4 corners*
0 Add a 4 corners polygon primitive as box body*
4,1,4,$2,$3,$4,$5,$6,$7,$8,$9,$2,$3,0*
0 Add four circle primitives for the rounded corners*
1,1,$1+$1,$2,$3*
1,1,$1+$1,$4,$5*
1,1,$1+$1,$6,$7*
1,1,$1+$1,$8,$9*
0 Add four rect primitives between the rounded corners*
20,1,$1+$1,$2,$3,$4,$5,0*
20,1,$1+$1,$4,$5,$6,$7,0*
20,1,$1+$1,$6,$7,$8,$9,0*
20,1,$1+$1,$8,$9,$2,$3,0*%
%AMFreePoly0*
4,1,19,0.500000,-0.750000,0.000000,-0.750000,0.000000,-0.744911,-0.071157,-0.744911,-0.207708,-0.704816,-0.327430,-0.627875,-0.420627,-0.520320,-0.479746,-0.390866,-0.500000,-0.250000,-0.500000,0.250000,-0.479746,0.390866,-0.420627,0.520320,-0.327430,0.627875,-0.207708,0.704816,-0.071157,0.744911,0.000000,0.744911,0.000000,0.750000,0.500000,0.750000,0.500000,-0.750000,0.500000,-0.750000,
$1*%
%AMFreePoly1*
4,1,19,0.000000,0.744911,0.071157,0.744911,0.207708,0.704816,0.327430,0.627875,0.420627,0.520320,0.479746,0.390866,0.500000,0.250000,0.500000,-0.250000,0.479746,-0.390866,0.420627,-0.520320,0.327430,-0.627875,0.207708,-0.704816,0.071157,-0.744911,0.000000,-0.744911,0.000000,-0.750000,-0.500000,-0.750000,-0.500000,0.750000,0.000000,0.750000,0.000000,0.744911,0.000000,0.744911,
$1*%
G04 Aperture macros list end*
%ADD10C,2.300000*%
%ADD11RoundRect,0.250000X0.450000X-0.325000X0.450000X0.325000X-0.450000X0.325000X-0.450000X-0.325000X0*%
%ADD12RoundRect,0.150000X0.150000X-0.675000X0.150000X0.675000X-0.150000X0.675000X-0.150000X-0.675000X0*%
%ADD13RoundRect,0.250000X-0.450000X0.325000X-0.450000X-0.325000X0.450000X-0.325000X0.450000X0.325000X0*%
%ADD14RoundRect,0.250000X0.325000X0.450000X-0.325000X0.450000X-0.325000X-0.450000X0.325000X-0.450000X0*%
%ADD15FreePoly0,0.000000*%
%ADD16FreePoly1,0.000000*%
%ADD17RoundRect,0.150000X0.675000X0.150000X-0.675000X0.150000X-0.675000X-0.150000X0.675000X-0.150000X0*%
%ADD18RoundRect,0.150000X-0.675000X-0.150000X0.675000X-0.150000X0.675000X0.150000X-0.675000X0.150000X0*%
%ADD19R,1.350000X1.350000*%
%ADD20O,1.350000X1.350000*%
%ADD21RoundRect,0.150000X-0.150000X0.675000X-0.150000X-0.675000X0.150000X-0.675000X0.150000X0.675000X0*%
%ADD22RoundRect,0.250000X-0.325000X-0.450000X0.325000X-0.450000X0.325000X0.450000X-0.325000X0.450000X0*%
%ADD23C,1.000000*%
%ADD24R,1.750000X0.450000*%
G04 APERTURE END LIST*
D10*
X40220900Y-29286200D03*
X35217100Y-32258000D03*
X47459900Y-35280600D03*
X50711100Y-40284400D03*
X46393100Y-48158400D03*
X49517300Y-53111400D03*
X37757100Y-62458600D03*
X42684700Y-59232800D03*
X30543500Y-56083200D03*
X27292300Y-51155600D03*
X31483300Y-43129200D03*
X28613100Y-38252400D03*
X39001700Y-41452800D03*
X34074100Y-44678600D03*
D11*
X46456600Y-52714000D03*
X46456600Y-50664000D03*
D12*
X35737800Y-64131100D03*
X34467800Y-64131100D03*
X33197800Y-64131100D03*
X31927800Y-64131100D03*
X31927800Y-58881100D03*
X33197800Y-58881100D03*
X34467800Y-58881100D03*
X35737800Y-58881100D03*
D13*
X27228800Y-54626400D03*
X27228800Y-56676400D03*
D11*
X32024300Y-52424400D03*
X32024300Y-50374400D03*
D14*
X45288200Y-62052200D03*
X43238200Y-62052200D03*
D11*
X44983400Y-59546600D03*
X44983400Y-57496600D03*
D15*
X26731200Y-44627800D03*
D16*
X28031200Y-44627800D03*
D17*
X32444600Y-28232100D03*
X32444600Y-29502100D03*
X32444600Y-30772100D03*
X32444600Y-32042100D03*
X27194600Y-32042100D03*
X27194600Y-30772100D03*
X27194600Y-29502100D03*
X27194600Y-28232100D03*
D18*
X43145800Y-31584900D03*
X43145800Y-30314900D03*
X43145800Y-29044900D03*
X43145800Y-27774900D03*
X48395800Y-27774900D03*
X48395800Y-29044900D03*
X48395800Y-30314900D03*
X48395800Y-31584900D03*
X31416100Y-39657000D03*
X31416100Y-38387000D03*
X31416100Y-37117000D03*
X31416100Y-35847000D03*
X36666100Y-35847000D03*
X36666100Y-37117000D03*
X36666100Y-38387000D03*
X36666100Y-39657000D03*
D15*
X26731200Y-47231300D03*
D16*
X28031200Y-47231300D03*
D19*
X50901600Y-63881000D03*
D20*
X50901600Y-61881000D03*
X50901600Y-59881000D03*
X50901600Y-57881000D03*
X50901600Y-55881000D03*
D13*
X51142900Y-28959700D03*
X51142900Y-31009700D03*
D12*
X47094100Y-45208100D03*
X45824100Y-45208100D03*
X44554100Y-45208100D03*
X43284100Y-45208100D03*
X43284100Y-39958100D03*
X44554100Y-39958100D03*
X45824100Y-39958100D03*
X47094100Y-39958100D03*
D11*
X51402000Y-37849900D03*
X51402000Y-35799900D03*
D17*
X44745800Y-34056300D03*
X44745800Y-35326300D03*
X44745800Y-36596300D03*
X44745800Y-37866300D03*
X39495800Y-37866300D03*
X39495800Y-36596300D03*
X39495800Y-35326300D03*
X39495800Y-34056300D03*
D21*
X26492200Y-58881100D03*
X27762200Y-58881100D03*
X29032200Y-58881100D03*
X30302200Y-58881100D03*
X30302200Y-64131100D03*
X29032200Y-64131100D03*
X27762200Y-64131100D03*
X26492200Y-64131100D03*
D19*
X47802800Y-63881000D03*
D20*
X47802800Y-61881000D03*
X47802800Y-59881000D03*
X47802800Y-57881000D03*
X47802800Y-55881000D03*
D15*
X26731200Y-42024300D03*
D16*
X28031200Y-42024300D03*
D14*
X38871000Y-45478700D03*
X36821000Y-45478700D03*
D11*
X49034700Y-45805200D03*
X49034700Y-43755200D03*
X51282600Y-45817900D03*
X51282600Y-43767900D03*
D13*
X50190400Y-47679500D03*
X50190400Y-49729500D03*
D14*
X45309900Y-64152800D03*
X43259900Y-64152800D03*
D22*
X26988700Y-33901400D03*
X29038700Y-33901400D03*
D14*
X32780100Y-33901400D03*
X30730100Y-33901400D03*
X40420400Y-31831300D03*
X38370400Y-31831300D03*
X37054900Y-28323100D03*
X35004900Y-28323100D03*
D13*
X41427400Y-43463100D03*
X41427400Y-45513100D03*
D22*
X46772700Y-37716500D03*
X48822700Y-37716500D03*
D11*
X40713700Y-64311600D03*
X40713700Y-62261600D03*
D14*
X51583700Y-33474700D03*
X49533700Y-33474700D03*
X39968300Y-58658800D03*
X37918300Y-58658800D03*
D11*
X29700200Y-52437100D03*
X29700200Y-50387100D03*
D13*
X31234400Y-45982800D03*
X31234400Y-48032800D03*
X41432500Y-39597200D03*
X41432500Y-41647200D03*
D22*
X34255600Y-41920200D03*
X36305600Y-41920200D03*
D14*
X29008200Y-35892700D03*
X26958200Y-35892700D03*
D23*
X51460400Y-51638200D03*
D24*
X35516000Y-55943000D03*
X35516000Y-55293000D03*
X35516001Y-54643000D03*
X35516000Y-53993000D03*
X35516000Y-53343001D03*
X35516000Y-52693000D03*
X35516000Y-52043000D03*
X35516000Y-51392999D03*
X35516000Y-50743000D03*
X35516001Y-50093000D03*
X35516000Y-49443000D03*
X35516000Y-48793000D03*
X42716000Y-48793000D03*
X42716000Y-49443000D03*
X42715999Y-50093000D03*
X42716000Y-50743000D03*
X42716000Y-51392999D03*
X42716000Y-52043000D03*
X42716000Y-52693000D03*
X42716000Y-53343001D03*
X42716000Y-53993000D03*
X42715999Y-54643000D03*
X42716000Y-55293000D03*
X42716000Y-55943000D03*
M02*
