G04 #@! TF.GenerationSoftware,KiCad,Pcbnew,(5.1.5)-3*
G04 #@! TF.CreationDate,2020-02-20T13:27:19+01:00*
G04 #@! TF.ProjectId,EM7SEG_DRIVER,454d3753-4547-45f4-9452-495645522e6b,rev?*
G04 #@! TF.SameCoordinates,Original*
G04 #@! TF.FileFunction,Soldermask,Top*
G04 #@! TF.FilePolarity,Negative*
%FSLAX46Y46*%
G04 Gerber Fmt 4.6, Leading zero omitted, Abs format (unit mm)*
G04 Created by KiCad (PCBNEW (5.1.5)-3) date 2020-02-20 13:27:19*
%MOMM*%
%LPD*%
G04 APERTURE LIST*
%ADD10C,0.100000*%
G04 APERTURE END LIST*
D10*
G36*
X51627600Y-64607000D02*
G01*
X50175600Y-64607000D01*
X50175600Y-63155000D01*
X51627600Y-63155000D01*
X51627600Y-64607000D01*
G37*
G36*
X48528800Y-64607000D02*
G01*
X47076800Y-64607000D01*
X47076800Y-63155000D01*
X48528800Y-63155000D01*
X48528800Y-64607000D01*
G37*
G36*
X38107418Y-61303753D02*
G01*
X38325985Y-61394287D01*
X38325987Y-61394288D01*
X38522693Y-61525722D01*
X38689978Y-61693007D01*
X38767812Y-61809495D01*
X38821413Y-61889715D01*
X38911947Y-62108282D01*
X38958100Y-62340310D01*
X38958100Y-62576890D01*
X38911947Y-62808918D01*
X38821413Y-63027485D01*
X38821412Y-63027487D01*
X38689978Y-63224193D01*
X38522693Y-63391478D01*
X38325987Y-63522912D01*
X38325986Y-63522913D01*
X38325985Y-63522913D01*
X38107418Y-63613447D01*
X37875390Y-63659600D01*
X37638810Y-63659600D01*
X37406782Y-63613447D01*
X37188215Y-63522913D01*
X37188214Y-63522913D01*
X37188213Y-63522912D01*
X36991507Y-63391478D01*
X36824222Y-63224193D01*
X36692788Y-63027487D01*
X36692787Y-63027485D01*
X36602253Y-62808918D01*
X36556100Y-62576890D01*
X36556100Y-62340310D01*
X36602253Y-62108282D01*
X36692787Y-61889715D01*
X36746388Y-61809495D01*
X36824222Y-61693007D01*
X36991507Y-61525722D01*
X37188213Y-61394288D01*
X37188215Y-61394287D01*
X37406782Y-61303753D01*
X37638810Y-61257600D01*
X37875390Y-61257600D01*
X38107418Y-61303753D01*
G37*
G36*
X51113366Y-61182899D02*
G01*
X51245488Y-61237626D01*
X51245490Y-61237627D01*
X51364398Y-61317079D01*
X51465521Y-61418202D01*
X51544973Y-61537110D01*
X51544974Y-61537112D01*
X51599701Y-61669234D01*
X51627600Y-61809494D01*
X51627600Y-61952506D01*
X51599701Y-62092766D01*
X51544974Y-62224888D01*
X51544973Y-62224890D01*
X51465521Y-62343798D01*
X51364398Y-62444921D01*
X51245490Y-62524373D01*
X51245489Y-62524374D01*
X51245488Y-62524374D01*
X51113366Y-62579101D01*
X50973106Y-62607000D01*
X50830094Y-62607000D01*
X50689834Y-62579101D01*
X50557712Y-62524374D01*
X50557711Y-62524374D01*
X50557710Y-62524373D01*
X50438802Y-62444921D01*
X50337679Y-62343798D01*
X50258227Y-62224890D01*
X50258226Y-62224888D01*
X50203499Y-62092766D01*
X50175600Y-61952506D01*
X50175600Y-61809494D01*
X50203499Y-61669234D01*
X50258226Y-61537112D01*
X50258227Y-61537110D01*
X50337679Y-61418202D01*
X50438802Y-61317079D01*
X50557710Y-61237627D01*
X50557712Y-61237626D01*
X50689834Y-61182899D01*
X50830094Y-61155000D01*
X50973106Y-61155000D01*
X51113366Y-61182899D01*
G37*
G36*
X48014566Y-61182899D02*
G01*
X48146688Y-61237626D01*
X48146690Y-61237627D01*
X48265598Y-61317079D01*
X48366721Y-61418202D01*
X48446173Y-61537110D01*
X48446174Y-61537112D01*
X48500901Y-61669234D01*
X48528800Y-61809494D01*
X48528800Y-61952506D01*
X48500901Y-62092766D01*
X48446174Y-62224888D01*
X48446173Y-62224890D01*
X48366721Y-62343798D01*
X48265598Y-62444921D01*
X48146690Y-62524373D01*
X48146689Y-62524374D01*
X48146688Y-62524374D01*
X48014566Y-62579101D01*
X47874306Y-62607000D01*
X47731294Y-62607000D01*
X47591034Y-62579101D01*
X47458912Y-62524374D01*
X47458911Y-62524374D01*
X47458910Y-62524373D01*
X47340002Y-62444921D01*
X47238879Y-62343798D01*
X47159427Y-62224890D01*
X47159426Y-62224888D01*
X47104699Y-62092766D01*
X47076800Y-61952506D01*
X47076800Y-61809494D01*
X47104699Y-61669234D01*
X47159426Y-61537112D01*
X47159427Y-61537110D01*
X47238879Y-61418202D01*
X47340002Y-61317079D01*
X47458910Y-61237627D01*
X47458912Y-61237626D01*
X47591034Y-61182899D01*
X47731294Y-61155000D01*
X47874306Y-61155000D01*
X48014566Y-61182899D01*
G37*
G36*
X48014566Y-59182899D02*
G01*
X48146688Y-59237626D01*
X48146690Y-59237627D01*
X48265598Y-59317079D01*
X48366721Y-59418202D01*
X48366722Y-59418204D01*
X48446174Y-59537112D01*
X48500901Y-59669234D01*
X48528800Y-59809494D01*
X48528800Y-59952506D01*
X48500901Y-60092766D01*
X48446174Y-60224888D01*
X48446173Y-60224890D01*
X48366721Y-60343798D01*
X48265598Y-60444921D01*
X48146690Y-60524373D01*
X48146689Y-60524374D01*
X48146688Y-60524374D01*
X48014566Y-60579101D01*
X47874306Y-60607000D01*
X47731294Y-60607000D01*
X47591034Y-60579101D01*
X47458912Y-60524374D01*
X47458911Y-60524374D01*
X47458910Y-60524373D01*
X47340002Y-60444921D01*
X47238879Y-60343798D01*
X47159427Y-60224890D01*
X47159426Y-60224888D01*
X47104699Y-60092766D01*
X47076800Y-59952506D01*
X47076800Y-59809494D01*
X47104699Y-59669234D01*
X47159426Y-59537112D01*
X47238878Y-59418204D01*
X47238879Y-59418202D01*
X47340002Y-59317079D01*
X47458910Y-59237627D01*
X47458912Y-59237626D01*
X47591034Y-59182899D01*
X47731294Y-59155000D01*
X47874306Y-59155000D01*
X48014566Y-59182899D01*
G37*
G36*
X51113366Y-59182899D02*
G01*
X51245488Y-59237626D01*
X51245490Y-59237627D01*
X51364398Y-59317079D01*
X51465521Y-59418202D01*
X51465522Y-59418204D01*
X51544974Y-59537112D01*
X51599701Y-59669234D01*
X51627600Y-59809494D01*
X51627600Y-59952506D01*
X51599701Y-60092766D01*
X51544974Y-60224888D01*
X51544973Y-60224890D01*
X51465521Y-60343798D01*
X51364398Y-60444921D01*
X51245490Y-60524373D01*
X51245489Y-60524374D01*
X51245488Y-60524374D01*
X51113366Y-60579101D01*
X50973106Y-60607000D01*
X50830094Y-60607000D01*
X50689834Y-60579101D01*
X50557712Y-60524374D01*
X50557711Y-60524374D01*
X50557710Y-60524373D01*
X50438802Y-60444921D01*
X50337679Y-60343798D01*
X50258227Y-60224890D01*
X50258226Y-60224888D01*
X50203499Y-60092766D01*
X50175600Y-59952506D01*
X50175600Y-59809494D01*
X50203499Y-59669234D01*
X50258226Y-59537112D01*
X50337678Y-59418204D01*
X50337679Y-59418202D01*
X50438802Y-59317079D01*
X50557710Y-59237627D01*
X50557712Y-59237626D01*
X50689834Y-59182899D01*
X50830094Y-59155000D01*
X50973106Y-59155000D01*
X51113366Y-59182899D01*
G37*
G36*
X43035018Y-58077953D02*
G01*
X43253585Y-58168487D01*
X43253587Y-58168488D01*
X43450293Y-58299922D01*
X43617578Y-58467207D01*
X43710984Y-58607000D01*
X43749013Y-58663915D01*
X43839547Y-58882482D01*
X43885700Y-59114510D01*
X43885700Y-59351090D01*
X43839547Y-59583118D01*
X43803876Y-59669234D01*
X43749012Y-59801687D01*
X43617578Y-59998393D01*
X43450293Y-60165678D01*
X43253587Y-60297112D01*
X43253586Y-60297113D01*
X43253585Y-60297113D01*
X43035018Y-60387647D01*
X42802990Y-60433800D01*
X42566410Y-60433800D01*
X42334382Y-60387647D01*
X42115815Y-60297113D01*
X42115814Y-60297113D01*
X42115813Y-60297112D01*
X41919107Y-60165678D01*
X41751822Y-59998393D01*
X41620388Y-59801687D01*
X41565524Y-59669234D01*
X41529853Y-59583118D01*
X41483700Y-59351090D01*
X41483700Y-59114510D01*
X41529853Y-58882482D01*
X41620387Y-58663915D01*
X41658416Y-58607000D01*
X41751822Y-58467207D01*
X41919107Y-58299922D01*
X42115813Y-58168488D01*
X42115815Y-58168487D01*
X42334382Y-58077953D01*
X42566410Y-58031800D01*
X42802990Y-58031800D01*
X43035018Y-58077953D01*
G37*
G36*
X51113366Y-57182899D02*
G01*
X51245488Y-57237626D01*
X51245490Y-57237627D01*
X51364398Y-57317079D01*
X51465521Y-57418202D01*
X51465522Y-57418204D01*
X51544974Y-57537112D01*
X51599701Y-57669234D01*
X51627600Y-57809494D01*
X51627600Y-57952506D01*
X51599701Y-58092766D01*
X51544974Y-58224888D01*
X51544973Y-58224890D01*
X51465521Y-58343798D01*
X51364398Y-58444921D01*
X51245490Y-58524373D01*
X51245489Y-58524374D01*
X51245488Y-58524374D01*
X51113366Y-58579101D01*
X50973106Y-58607000D01*
X50830094Y-58607000D01*
X50689834Y-58579101D01*
X50557712Y-58524374D01*
X50557711Y-58524374D01*
X50557710Y-58524373D01*
X50438802Y-58444921D01*
X50337679Y-58343798D01*
X50258227Y-58224890D01*
X50258226Y-58224888D01*
X50203499Y-58092766D01*
X50175600Y-57952506D01*
X50175600Y-57809494D01*
X50203499Y-57669234D01*
X50258226Y-57537112D01*
X50337678Y-57418204D01*
X50337679Y-57418202D01*
X50438802Y-57317079D01*
X50557710Y-57237627D01*
X50557712Y-57237626D01*
X50689834Y-57182899D01*
X50830094Y-57155000D01*
X50973106Y-57155000D01*
X51113366Y-57182899D01*
G37*
G36*
X48014566Y-57182899D02*
G01*
X48146688Y-57237626D01*
X48146690Y-57237627D01*
X48265598Y-57317079D01*
X48366721Y-57418202D01*
X48366722Y-57418204D01*
X48446174Y-57537112D01*
X48500901Y-57669234D01*
X48528800Y-57809494D01*
X48528800Y-57952506D01*
X48500901Y-58092766D01*
X48446174Y-58224888D01*
X48446173Y-58224890D01*
X48366721Y-58343798D01*
X48265598Y-58444921D01*
X48146690Y-58524373D01*
X48146689Y-58524374D01*
X48146688Y-58524374D01*
X48014566Y-58579101D01*
X47874306Y-58607000D01*
X47731294Y-58607000D01*
X47591034Y-58579101D01*
X47458912Y-58524374D01*
X47458911Y-58524374D01*
X47458910Y-58524373D01*
X47340002Y-58444921D01*
X47238879Y-58343798D01*
X47159427Y-58224890D01*
X47159426Y-58224888D01*
X47104699Y-58092766D01*
X47076800Y-57952506D01*
X47076800Y-57809494D01*
X47104699Y-57669234D01*
X47159426Y-57537112D01*
X47238878Y-57418204D01*
X47238879Y-57418202D01*
X47340002Y-57317079D01*
X47458910Y-57237627D01*
X47458912Y-57237626D01*
X47591034Y-57182899D01*
X47731294Y-57155000D01*
X47874306Y-57155000D01*
X48014566Y-57182899D01*
G37*
G36*
X30893818Y-54928353D02*
G01*
X31112385Y-55018887D01*
X31112387Y-55018888D01*
X31309093Y-55150322D01*
X31476378Y-55317607D01*
X31543593Y-55418202D01*
X31607813Y-55514315D01*
X31698347Y-55732882D01*
X31744500Y-55964910D01*
X31744500Y-56201490D01*
X31698347Y-56433518D01*
X31638044Y-56579101D01*
X31607812Y-56652087D01*
X31476378Y-56848793D01*
X31309093Y-57016078D01*
X31112387Y-57147512D01*
X31112386Y-57147513D01*
X31112385Y-57147513D01*
X30893818Y-57238047D01*
X30661790Y-57284200D01*
X30425210Y-57284200D01*
X30193182Y-57238047D01*
X29974615Y-57147513D01*
X29974614Y-57147513D01*
X29974613Y-57147512D01*
X29777907Y-57016078D01*
X29610622Y-56848793D01*
X29479188Y-56652087D01*
X29448956Y-56579101D01*
X29388653Y-56433518D01*
X29342500Y-56201490D01*
X29342500Y-55964910D01*
X29388653Y-55732882D01*
X29479187Y-55514315D01*
X29543407Y-55418202D01*
X29610622Y-55317607D01*
X29777907Y-55150322D01*
X29974613Y-55018888D01*
X29974615Y-55018887D01*
X30193182Y-54928353D01*
X30425210Y-54882200D01*
X30661790Y-54882200D01*
X30893818Y-54928353D01*
G37*
G36*
X51113366Y-55182899D02*
G01*
X51245488Y-55237626D01*
X51245490Y-55237627D01*
X51364398Y-55317079D01*
X51465521Y-55418202D01*
X51544973Y-55537110D01*
X51544974Y-55537112D01*
X51599701Y-55669234D01*
X51627600Y-55809494D01*
X51627600Y-55952506D01*
X51599701Y-56092766D01*
X51544974Y-56224888D01*
X51544973Y-56224890D01*
X51465521Y-56343798D01*
X51364398Y-56444921D01*
X51245490Y-56524373D01*
X51245489Y-56524374D01*
X51245488Y-56524374D01*
X51113366Y-56579101D01*
X50973106Y-56607000D01*
X50830094Y-56607000D01*
X50689834Y-56579101D01*
X50557712Y-56524374D01*
X50557711Y-56524374D01*
X50557710Y-56524373D01*
X50438802Y-56444921D01*
X50337679Y-56343798D01*
X50258227Y-56224890D01*
X50258226Y-56224888D01*
X50203499Y-56092766D01*
X50175600Y-55952506D01*
X50175600Y-55809494D01*
X50203499Y-55669234D01*
X50258226Y-55537112D01*
X50258227Y-55537110D01*
X50337679Y-55418202D01*
X50438802Y-55317079D01*
X50557710Y-55237627D01*
X50557712Y-55237626D01*
X50689834Y-55182899D01*
X50830094Y-55155000D01*
X50973106Y-55155000D01*
X51113366Y-55182899D01*
G37*
G36*
X48014566Y-55182899D02*
G01*
X48146688Y-55237626D01*
X48146690Y-55237627D01*
X48265598Y-55317079D01*
X48366721Y-55418202D01*
X48446173Y-55537110D01*
X48446174Y-55537112D01*
X48500901Y-55669234D01*
X48528800Y-55809494D01*
X48528800Y-55952506D01*
X48500901Y-56092766D01*
X48446174Y-56224888D01*
X48446173Y-56224890D01*
X48366721Y-56343798D01*
X48265598Y-56444921D01*
X48146690Y-56524373D01*
X48146689Y-56524374D01*
X48146688Y-56524374D01*
X48014566Y-56579101D01*
X47874306Y-56607000D01*
X47731294Y-56607000D01*
X47591034Y-56579101D01*
X47458912Y-56524374D01*
X47458911Y-56524374D01*
X47458910Y-56524373D01*
X47340002Y-56444921D01*
X47238879Y-56343798D01*
X47159427Y-56224890D01*
X47159426Y-56224888D01*
X47104699Y-56092766D01*
X47076800Y-55952506D01*
X47076800Y-55809494D01*
X47104699Y-55669234D01*
X47159426Y-55537112D01*
X47159427Y-55537110D01*
X47238879Y-55418202D01*
X47340002Y-55317079D01*
X47458910Y-55237627D01*
X47458912Y-55237626D01*
X47591034Y-55182899D01*
X47731294Y-55155000D01*
X47874306Y-55155000D01*
X48014566Y-55182899D01*
G37*
G36*
X49867618Y-51956553D02*
G01*
X50086185Y-52047087D01*
X50086187Y-52047088D01*
X50282893Y-52178522D01*
X50450178Y-52345807D01*
X50581612Y-52542513D01*
X50581613Y-52542515D01*
X50672147Y-52761082D01*
X50718300Y-52993110D01*
X50718300Y-53229690D01*
X50672147Y-53461718D01*
X50581613Y-53680285D01*
X50581612Y-53680287D01*
X50450178Y-53876993D01*
X50282893Y-54044278D01*
X50086187Y-54175712D01*
X50086186Y-54175713D01*
X50086185Y-54175713D01*
X49867618Y-54266247D01*
X49635590Y-54312400D01*
X49399010Y-54312400D01*
X49166982Y-54266247D01*
X48948415Y-54175713D01*
X48948414Y-54175713D01*
X48948413Y-54175712D01*
X48751707Y-54044278D01*
X48584422Y-53876993D01*
X48452988Y-53680287D01*
X48452987Y-53680285D01*
X48362453Y-53461718D01*
X48316300Y-53229690D01*
X48316300Y-52993110D01*
X48362453Y-52761082D01*
X48452987Y-52542515D01*
X48452988Y-52542513D01*
X48584422Y-52345807D01*
X48751707Y-52178522D01*
X48948413Y-52047088D01*
X48948415Y-52047087D01*
X49166982Y-51956553D01*
X49399010Y-51910400D01*
X49635590Y-51910400D01*
X49867618Y-51956553D01*
G37*
G36*
X27642618Y-50000753D02*
G01*
X27861185Y-50091287D01*
X27861187Y-50091288D01*
X28057893Y-50222722D01*
X28225178Y-50390007D01*
X28356612Y-50586713D01*
X28356613Y-50586715D01*
X28447147Y-50805282D01*
X28493300Y-51037310D01*
X28493300Y-51273890D01*
X28447147Y-51505918D01*
X28356613Y-51724485D01*
X28356612Y-51724487D01*
X28225178Y-51921193D01*
X28057893Y-52088478D01*
X27861187Y-52219912D01*
X27861186Y-52219913D01*
X27861185Y-52219913D01*
X27642618Y-52310447D01*
X27410590Y-52356600D01*
X27174010Y-52356600D01*
X26941982Y-52310447D01*
X26723415Y-52219913D01*
X26723414Y-52219913D01*
X26723413Y-52219912D01*
X26526707Y-52088478D01*
X26359422Y-51921193D01*
X26227988Y-51724487D01*
X26227987Y-51724485D01*
X26137453Y-51505918D01*
X26091300Y-51273890D01*
X26091300Y-51037310D01*
X26137453Y-50805282D01*
X26227987Y-50586715D01*
X26227988Y-50586713D01*
X26359422Y-50390007D01*
X26526707Y-50222722D01*
X26723413Y-50091288D01*
X26723415Y-50091287D01*
X26941982Y-50000753D01*
X27174010Y-49954600D01*
X27410590Y-49954600D01*
X27642618Y-50000753D01*
G37*
G36*
X46743418Y-47003553D02*
G01*
X46961985Y-47094087D01*
X46961987Y-47094088D01*
X47158693Y-47225522D01*
X47325978Y-47392807D01*
X47457412Y-47589513D01*
X47457413Y-47589515D01*
X47547947Y-47808082D01*
X47594100Y-48040110D01*
X47594100Y-48276690D01*
X47547947Y-48508718D01*
X47457413Y-48727285D01*
X47457412Y-48727287D01*
X47325978Y-48923993D01*
X47158693Y-49091278D01*
X46961987Y-49222712D01*
X46961986Y-49222713D01*
X46961985Y-49222713D01*
X46743418Y-49313247D01*
X46511390Y-49359400D01*
X46274810Y-49359400D01*
X46042782Y-49313247D01*
X45824215Y-49222713D01*
X45824214Y-49222713D01*
X45824213Y-49222712D01*
X45627507Y-49091278D01*
X45460222Y-48923993D01*
X45328788Y-48727287D01*
X45328787Y-48727285D01*
X45238253Y-48508718D01*
X45192100Y-48276690D01*
X45192100Y-48040110D01*
X45238253Y-47808082D01*
X45328787Y-47589515D01*
X45328788Y-47589513D01*
X45460222Y-47392807D01*
X45627507Y-47225522D01*
X45824213Y-47094088D01*
X45824215Y-47094087D01*
X46042782Y-47003553D01*
X46274810Y-46957400D01*
X46511390Y-46957400D01*
X46743418Y-47003553D01*
G37*
G36*
X34424418Y-43523753D02*
G01*
X34642985Y-43614287D01*
X34642987Y-43614288D01*
X34839693Y-43745722D01*
X35006978Y-43913007D01*
X35106583Y-44062078D01*
X35138413Y-44109715D01*
X35228947Y-44328282D01*
X35275100Y-44560310D01*
X35275100Y-44796890D01*
X35228947Y-45028918D01*
X35138413Y-45247485D01*
X35138412Y-45247487D01*
X35006978Y-45444193D01*
X34839693Y-45611478D01*
X34642987Y-45742912D01*
X34642986Y-45742913D01*
X34642985Y-45742913D01*
X34424418Y-45833447D01*
X34192390Y-45879600D01*
X33955810Y-45879600D01*
X33723782Y-45833447D01*
X33505215Y-45742913D01*
X33505214Y-45742913D01*
X33505213Y-45742912D01*
X33308507Y-45611478D01*
X33141222Y-45444193D01*
X33009788Y-45247487D01*
X33009787Y-45247485D01*
X32919253Y-45028918D01*
X32873100Y-44796890D01*
X32873100Y-44560310D01*
X32919253Y-44328282D01*
X33009787Y-44109715D01*
X33041617Y-44062078D01*
X33141222Y-43913007D01*
X33308507Y-43745722D01*
X33505213Y-43614288D01*
X33505215Y-43614287D01*
X33723782Y-43523753D01*
X33955810Y-43477600D01*
X34192390Y-43477600D01*
X34424418Y-43523753D01*
G37*
G36*
X31833618Y-41974353D02*
G01*
X32052185Y-42064887D01*
X32052187Y-42064888D01*
X32248893Y-42196322D01*
X32416178Y-42363607D01*
X32547612Y-42560313D01*
X32547613Y-42560315D01*
X32638147Y-42778882D01*
X32684300Y-43010910D01*
X32684300Y-43247490D01*
X32638147Y-43479518D01*
X32582323Y-43614287D01*
X32547612Y-43698087D01*
X32416178Y-43894793D01*
X32248893Y-44062078D01*
X32052187Y-44193512D01*
X32052186Y-44193513D01*
X32052185Y-44193513D01*
X31833618Y-44284047D01*
X31601590Y-44330200D01*
X31365010Y-44330200D01*
X31132982Y-44284047D01*
X30914415Y-44193513D01*
X30914414Y-44193513D01*
X30914413Y-44193512D01*
X30717707Y-44062078D01*
X30550422Y-43894793D01*
X30418988Y-43698087D01*
X30384277Y-43614287D01*
X30328453Y-43479518D01*
X30282300Y-43247490D01*
X30282300Y-43010910D01*
X30328453Y-42778882D01*
X30418987Y-42560315D01*
X30418988Y-42560313D01*
X30550422Y-42363607D01*
X30717707Y-42196322D01*
X30914413Y-42064888D01*
X30914415Y-42064887D01*
X31132982Y-41974353D01*
X31365010Y-41928200D01*
X31601590Y-41928200D01*
X31833618Y-41974353D01*
G37*
G36*
X39352018Y-40297953D02*
G01*
X39570585Y-40388487D01*
X39570587Y-40388488D01*
X39767293Y-40519922D01*
X39934578Y-40687207D01*
X40045547Y-40853285D01*
X40066013Y-40883915D01*
X40156547Y-41102482D01*
X40202700Y-41334510D01*
X40202700Y-41571090D01*
X40156547Y-41803118D01*
X40085618Y-41974354D01*
X40066012Y-42021687D01*
X39934578Y-42218393D01*
X39767293Y-42385678D01*
X39570587Y-42517112D01*
X39570586Y-42517113D01*
X39570585Y-42517113D01*
X39352018Y-42607647D01*
X39119990Y-42653800D01*
X38883410Y-42653800D01*
X38651382Y-42607647D01*
X38432815Y-42517113D01*
X38432814Y-42517113D01*
X38432813Y-42517112D01*
X38236107Y-42385678D01*
X38068822Y-42218393D01*
X37937388Y-42021687D01*
X37917782Y-41974354D01*
X37846853Y-41803118D01*
X37800700Y-41571090D01*
X37800700Y-41334510D01*
X37846853Y-41102482D01*
X37937387Y-40883915D01*
X37957853Y-40853285D01*
X38068822Y-40687207D01*
X38236107Y-40519922D01*
X38432813Y-40388488D01*
X38432815Y-40388487D01*
X38651382Y-40297953D01*
X38883410Y-40251800D01*
X39119990Y-40251800D01*
X39352018Y-40297953D01*
G37*
G36*
X51061418Y-39129553D02*
G01*
X51279985Y-39220087D01*
X51279987Y-39220088D01*
X51476693Y-39351522D01*
X51643978Y-39518807D01*
X51775412Y-39715513D01*
X51775413Y-39715515D01*
X51865947Y-39934082D01*
X51912100Y-40166110D01*
X51912100Y-40402690D01*
X51865947Y-40634718D01*
X51775413Y-40853285D01*
X51775412Y-40853287D01*
X51643978Y-41049993D01*
X51476693Y-41217278D01*
X51279987Y-41348712D01*
X51279986Y-41348713D01*
X51279985Y-41348713D01*
X51061418Y-41439247D01*
X50829390Y-41485400D01*
X50592810Y-41485400D01*
X50360782Y-41439247D01*
X50142215Y-41348713D01*
X50142214Y-41348713D01*
X50142213Y-41348712D01*
X49945507Y-41217278D01*
X49778222Y-41049993D01*
X49646788Y-40853287D01*
X49646787Y-40853285D01*
X49556253Y-40634718D01*
X49510100Y-40402690D01*
X49510100Y-40166110D01*
X49556253Y-39934082D01*
X49646787Y-39715515D01*
X49646788Y-39715513D01*
X49778222Y-39518807D01*
X49945507Y-39351522D01*
X50142213Y-39220088D01*
X50142215Y-39220087D01*
X50360782Y-39129553D01*
X50592810Y-39083400D01*
X50829390Y-39083400D01*
X51061418Y-39129553D01*
G37*
G36*
X28963418Y-37097553D02*
G01*
X29181985Y-37188087D01*
X29181987Y-37188088D01*
X29378693Y-37319522D01*
X29545978Y-37486807D01*
X29677412Y-37683513D01*
X29677413Y-37683515D01*
X29767947Y-37902082D01*
X29814100Y-38134110D01*
X29814100Y-38370690D01*
X29767947Y-38602718D01*
X29677413Y-38821285D01*
X29677412Y-38821287D01*
X29545978Y-39017993D01*
X29378693Y-39185278D01*
X29181987Y-39316712D01*
X29181986Y-39316713D01*
X29181985Y-39316713D01*
X28963418Y-39407247D01*
X28731390Y-39453400D01*
X28494810Y-39453400D01*
X28262782Y-39407247D01*
X28044215Y-39316713D01*
X28044214Y-39316713D01*
X28044213Y-39316712D01*
X27847507Y-39185278D01*
X27680222Y-39017993D01*
X27548788Y-38821287D01*
X27548787Y-38821285D01*
X27458253Y-38602718D01*
X27412100Y-38370690D01*
X27412100Y-38134110D01*
X27458253Y-37902082D01*
X27548787Y-37683515D01*
X27548788Y-37683513D01*
X27680222Y-37486807D01*
X27847507Y-37319522D01*
X28044213Y-37188088D01*
X28044215Y-37188087D01*
X28262782Y-37097553D01*
X28494810Y-37051400D01*
X28731390Y-37051400D01*
X28963418Y-37097553D01*
G37*
G36*
X47810218Y-34125753D02*
G01*
X48028785Y-34216287D01*
X48028787Y-34216288D01*
X48225493Y-34347722D01*
X48392778Y-34515007D01*
X48524212Y-34711713D01*
X48524213Y-34711715D01*
X48614747Y-34930282D01*
X48660900Y-35162310D01*
X48660900Y-35398890D01*
X48614747Y-35630918D01*
X48524213Y-35849485D01*
X48524212Y-35849487D01*
X48392778Y-36046193D01*
X48225493Y-36213478D01*
X48028787Y-36344912D01*
X48028786Y-36344913D01*
X48028785Y-36344913D01*
X47810218Y-36435447D01*
X47578190Y-36481600D01*
X47341610Y-36481600D01*
X47109582Y-36435447D01*
X46891015Y-36344913D01*
X46891014Y-36344913D01*
X46891013Y-36344912D01*
X46694307Y-36213478D01*
X46527022Y-36046193D01*
X46395588Y-35849487D01*
X46395587Y-35849485D01*
X46305053Y-35630918D01*
X46258900Y-35398890D01*
X46258900Y-35162310D01*
X46305053Y-34930282D01*
X46395587Y-34711715D01*
X46395588Y-34711713D01*
X46527022Y-34515007D01*
X46694307Y-34347722D01*
X46891013Y-34216288D01*
X46891015Y-34216287D01*
X47109582Y-34125753D01*
X47341610Y-34079600D01*
X47578190Y-34079600D01*
X47810218Y-34125753D01*
G37*
G36*
X35567418Y-31103153D02*
G01*
X35785985Y-31193687D01*
X35785987Y-31193688D01*
X35982693Y-31325122D01*
X36149978Y-31492407D01*
X36281412Y-31689113D01*
X36281413Y-31689115D01*
X36371947Y-31907682D01*
X36418100Y-32139710D01*
X36418100Y-32376290D01*
X36371947Y-32608318D01*
X36281413Y-32826885D01*
X36281412Y-32826887D01*
X36149978Y-33023593D01*
X35982693Y-33190878D01*
X35785987Y-33322312D01*
X35785986Y-33322313D01*
X35785985Y-33322313D01*
X35567418Y-33412847D01*
X35335390Y-33459000D01*
X35098810Y-33459000D01*
X34866782Y-33412847D01*
X34648215Y-33322313D01*
X34648214Y-33322313D01*
X34648213Y-33322312D01*
X34451507Y-33190878D01*
X34284222Y-33023593D01*
X34152788Y-32826887D01*
X34152787Y-32826885D01*
X34062253Y-32608318D01*
X34016100Y-32376290D01*
X34016100Y-32139710D01*
X34062253Y-31907682D01*
X34152787Y-31689115D01*
X34152788Y-31689113D01*
X34284222Y-31492407D01*
X34451507Y-31325122D01*
X34648213Y-31193688D01*
X34648215Y-31193687D01*
X34866782Y-31103153D01*
X35098810Y-31057000D01*
X35335390Y-31057000D01*
X35567418Y-31103153D01*
G37*
G36*
X40571218Y-28131353D02*
G01*
X40789785Y-28221887D01*
X40789787Y-28221888D01*
X40986493Y-28353322D01*
X41153778Y-28520607D01*
X41285212Y-28717313D01*
X41285213Y-28717315D01*
X41375747Y-28935882D01*
X41421900Y-29167910D01*
X41421900Y-29404490D01*
X41375747Y-29636518D01*
X41285213Y-29855085D01*
X41285212Y-29855087D01*
X41153778Y-30051793D01*
X40986493Y-30219078D01*
X40789787Y-30350512D01*
X40789786Y-30350513D01*
X40789785Y-30350513D01*
X40571218Y-30441047D01*
X40339190Y-30487200D01*
X40102610Y-30487200D01*
X39870582Y-30441047D01*
X39652015Y-30350513D01*
X39652014Y-30350513D01*
X39652013Y-30350512D01*
X39455307Y-30219078D01*
X39288022Y-30051793D01*
X39156588Y-29855087D01*
X39156587Y-29855085D01*
X39066053Y-29636518D01*
X39019900Y-29404490D01*
X39019900Y-29167910D01*
X39066053Y-28935882D01*
X39156587Y-28717315D01*
X39156588Y-28717313D01*
X39288022Y-28520607D01*
X39455307Y-28353322D01*
X39652013Y-28221888D01*
X39652015Y-28221887D01*
X39870582Y-28131353D01*
X40102610Y-28085200D01*
X40339190Y-28085200D01*
X40571218Y-28131353D01*
G37*
M02*
