G04 #@! TF.GenerationSoftware,KiCad,Pcbnew,(5.1.5)-3*
G04 #@! TF.CreationDate,2020-02-20T13:27:19+01:00*
G04 #@! TF.ProjectId,EM7SEG_DRIVER,454d3753-4547-45f4-9452-495645522e6b,rev?*
G04 #@! TF.SameCoordinates,Original*
G04 #@! TF.FileFunction,Legend,Bot*
G04 #@! TF.FilePolarity,Positive*
%FSLAX46Y46*%
G04 Gerber Fmt 4.6, Leading zero omitted, Abs format (unit mm)*
G04 Created by KiCad (PCBNEW (5.1.5)-3) date 2020-02-20 13:27:19*
%MOMM*%
%LPD*%
G04 APERTURE LIST*
%ADD10C,0.120000*%
%ADD11C,0.150000*%
%ADD12C,0.125000*%
G04 APERTURE END LIST*
D10*
X52160400Y-51638200D02*
G75*
G03X52160400Y-51638200I-700000J0D01*
G01*
X35019348Y-41210200D02*
X35541852Y-41210200D01*
X35019348Y-42630200D02*
X35541852Y-42630200D01*
X42142500Y-40360948D02*
X42142500Y-40883452D01*
X40722500Y-40360948D02*
X40722500Y-40883452D01*
X28244452Y-36602700D02*
X27721948Y-36602700D01*
X28244452Y-35182700D02*
X27721948Y-35182700D01*
X31944400Y-46746548D02*
X31944400Y-47269052D01*
X30524400Y-46746548D02*
X30524400Y-47269052D01*
X28990200Y-51673352D02*
X28990200Y-51150848D01*
X30410200Y-51673352D02*
X30410200Y-51150848D01*
X39204552Y-57948800D02*
X38682048Y-57948800D01*
X39204552Y-59368800D02*
X38682048Y-59368800D01*
X50819952Y-34184700D02*
X50297448Y-34184700D01*
X50819952Y-32764700D02*
X50297448Y-32764700D01*
X40003700Y-63547852D02*
X40003700Y-63025348D01*
X41423700Y-63547852D02*
X41423700Y-63025348D01*
X47536448Y-37006500D02*
X48058952Y-37006500D01*
X47536448Y-38426500D02*
X48058952Y-38426500D01*
X42137400Y-44226848D02*
X42137400Y-44749352D01*
X40717400Y-44226848D02*
X40717400Y-44749352D01*
X36291152Y-29033100D02*
X35768648Y-29033100D01*
X36291152Y-27613100D02*
X35768648Y-27613100D01*
X39656652Y-32541300D02*
X39134148Y-32541300D01*
X39656652Y-31121300D02*
X39134148Y-31121300D01*
X32016352Y-34611400D02*
X31493848Y-34611400D01*
X32016352Y-33191400D02*
X31493848Y-33191400D01*
X27752448Y-33191400D02*
X28274952Y-33191400D01*
X27752448Y-34611400D02*
X28274952Y-34611400D01*
X38107252Y-46188700D02*
X37584748Y-46188700D01*
X38107252Y-44768700D02*
X37584748Y-44768700D01*
X51150400Y-46844500D02*
X51150400Y-49704500D01*
X49230400Y-46844500D02*
X51150400Y-46844500D01*
X49230400Y-49704500D02*
X49230400Y-46844500D01*
X50692000Y-37086152D02*
X50692000Y-36563648D01*
X52112000Y-37086152D02*
X52112000Y-36563648D01*
X51852900Y-29723448D02*
X51852900Y-30245952D01*
X50432900Y-29723448D02*
X50432900Y-30245952D01*
X44273400Y-58782852D02*
X44273400Y-58260348D01*
X45693400Y-58782852D02*
X45693400Y-58260348D01*
X44524452Y-62762200D02*
X44001948Y-62762200D01*
X44524452Y-61342200D02*
X44001948Y-61342200D01*
X44546152Y-64862800D02*
X44023648Y-64862800D01*
X44546152Y-63442800D02*
X44023648Y-63442800D01*
X27938800Y-55390148D02*
X27938800Y-55912652D01*
X26518800Y-55390148D02*
X26518800Y-55912652D01*
X50322600Y-46652900D02*
X50322600Y-43792900D01*
X52242600Y-46652900D02*
X50322600Y-46652900D01*
X52242600Y-43792900D02*
X52242600Y-46652900D01*
X48074700Y-46640200D02*
X48074700Y-43780200D01*
X49994700Y-46640200D02*
X48074700Y-46640200D01*
X49994700Y-43780200D02*
X49994700Y-46640200D01*
X31314300Y-51660652D02*
X31314300Y-51138148D01*
X32734300Y-51660652D02*
X32734300Y-51138148D01*
X45746600Y-51950252D02*
X45746600Y-51427748D01*
X47166600Y-51950252D02*
X47166600Y-51427748D01*
X47749100Y-42583100D02*
X47749100Y-46033100D01*
X47749100Y-42583100D02*
X47749100Y-40633100D01*
X42629100Y-42583100D02*
X42629100Y-44533100D01*
X42629100Y-42583100D02*
X42629100Y-40633100D01*
X45770800Y-32239900D02*
X42320800Y-32239900D01*
X45770800Y-32239900D02*
X47720800Y-32239900D01*
X45770800Y-27119900D02*
X43820800Y-27119900D01*
X45770800Y-27119900D02*
X47720800Y-27119900D01*
X29819600Y-27577100D02*
X33269600Y-27577100D01*
X29819600Y-27577100D02*
X27869600Y-27577100D01*
X29819600Y-32697100D02*
X31769600Y-32697100D01*
X29819600Y-32697100D02*
X27869600Y-32697100D01*
X36392800Y-61506100D02*
X36392800Y-64956100D01*
X36392800Y-61506100D02*
X36392800Y-59556100D01*
X31272800Y-61506100D02*
X31272800Y-63456100D01*
X31272800Y-61506100D02*
X31272800Y-59556100D01*
X25837200Y-61506100D02*
X25837200Y-58056100D01*
X25837200Y-61506100D02*
X25837200Y-63456100D01*
X30957200Y-61506100D02*
X30957200Y-59556100D01*
X30957200Y-61506100D02*
X30957200Y-63456100D01*
X42120800Y-33401300D02*
X45570800Y-33401300D01*
X42120800Y-33401300D02*
X40170800Y-33401300D01*
X42120800Y-38521300D02*
X44070800Y-38521300D01*
X42120800Y-38521300D02*
X40170800Y-38521300D01*
X34041100Y-40312000D02*
X30591100Y-40312000D01*
X34041100Y-40312000D02*
X35991100Y-40312000D01*
X34041100Y-35192000D02*
X32091100Y-35192000D01*
X34041100Y-35192000D02*
X35991100Y-35192000D01*
D11*
X34010400Y-48471100D02*
X34010400Y-46871100D01*
X44085400Y-48471100D02*
X44085400Y-54221100D01*
X33435400Y-48471100D02*
X33435400Y-54221100D01*
X44085400Y-48471100D02*
X43435400Y-48471100D01*
X44085400Y-54221100D02*
X43435400Y-54221100D01*
X33435400Y-54221100D02*
X34085400Y-54221100D01*
X33435400Y-48471100D02*
X34010400Y-48471100D01*
D10*
X49841600Y-64941000D02*
X50901600Y-64941000D01*
X49841600Y-63881000D02*
X49841600Y-64941000D01*
X49841600Y-62881000D02*
X51961600Y-62881000D01*
X51961600Y-62881000D02*
X51961600Y-54821000D01*
X49841600Y-62881000D02*
X49841600Y-54821000D01*
X49841600Y-54821000D02*
X51961600Y-54821000D01*
X46742800Y-54821000D02*
X48862800Y-54821000D01*
X46742800Y-62881000D02*
X46742800Y-54821000D01*
X48862800Y-62881000D02*
X48862800Y-54821000D01*
X46742800Y-62881000D02*
X48862800Y-62881000D01*
X46742800Y-63881000D02*
X46742800Y-64941000D01*
X46742800Y-64941000D02*
X47802800Y-64941000D01*
X26681200Y-48231300D02*
X28081200Y-48231300D01*
X28781200Y-47531300D02*
X28781200Y-46931300D01*
X28081200Y-46231300D02*
X26681200Y-46231300D01*
X25981200Y-46931300D02*
X25981200Y-47531300D01*
X25981200Y-47531300D02*
G75*
G03X26681200Y-48231300I700000J0D01*
G01*
X26681200Y-46231300D02*
G75*
G03X25981200Y-46931300I0J-700000D01*
G01*
X28781200Y-46931300D02*
G75*
G03X28081200Y-46231300I-700000J0D01*
G01*
X28081200Y-48231300D02*
G75*
G03X28781200Y-47531300I0J700000D01*
G01*
X26681200Y-45627800D02*
X28081200Y-45627800D01*
X28781200Y-44927800D02*
X28781200Y-44327800D01*
X28081200Y-43627800D02*
X26681200Y-43627800D01*
X25981200Y-44327800D02*
X25981200Y-44927800D01*
X25981200Y-44927800D02*
G75*
G03X26681200Y-45627800I700000J0D01*
G01*
X26681200Y-43627800D02*
G75*
G03X25981200Y-44327800I0J-700000D01*
G01*
X28781200Y-44327800D02*
G75*
G03X28081200Y-43627800I-700000J0D01*
G01*
X28081200Y-45627800D02*
G75*
G03X28781200Y-44927800I0J700000D01*
G01*
X26681200Y-43024300D02*
X28081200Y-43024300D01*
X28781200Y-42324300D02*
X28781200Y-41724300D01*
X28081200Y-41024300D02*
X26681200Y-41024300D01*
X25981200Y-41724300D02*
X25981200Y-42324300D01*
X25981200Y-42324300D02*
G75*
G03X26681200Y-43024300I700000J0D01*
G01*
X26681200Y-41024300D02*
G75*
G03X25981200Y-41724300I0J-700000D01*
G01*
X28781200Y-41724300D02*
G75*
G03X28081200Y-41024300I-700000J0D01*
G01*
X28081200Y-43024300D02*
G75*
G03X28781200Y-42324300I0J700000D01*
G01*
D12*
X51627066Y-52812390D02*
X51627066Y-53169533D01*
X51650876Y-53240961D01*
X51698495Y-53288580D01*
X51769923Y-53312390D01*
X51817542Y-53312390D01*
X51436590Y-52812390D02*
X51127066Y-52812390D01*
X51293733Y-53002866D01*
X51222304Y-53002866D01*
X51174685Y-53026676D01*
X51150876Y-53050485D01*
X51127066Y-53098104D01*
X51127066Y-53217152D01*
X51150876Y-53264771D01*
X51174685Y-53288580D01*
X51222304Y-53312390D01*
X51365161Y-53312390D01*
X51412780Y-53288580D01*
X51436590Y-53264771D01*
X36821228Y-43507790D02*
X36987895Y-43269695D01*
X37106942Y-43507790D02*
X37106942Y-43007790D01*
X36916466Y-43007790D01*
X36868847Y-43031600D01*
X36845038Y-43055409D01*
X36821228Y-43103028D01*
X36821228Y-43174457D01*
X36845038Y-43222076D01*
X36868847Y-43245885D01*
X36916466Y-43269695D01*
X37106942Y-43269695D01*
X36630752Y-43055409D02*
X36606942Y-43031600D01*
X36559323Y-43007790D01*
X36440276Y-43007790D01*
X36392657Y-43031600D01*
X36368847Y-43055409D01*
X36345038Y-43103028D01*
X36345038Y-43150647D01*
X36368847Y-43222076D01*
X36654561Y-43507790D01*
X36345038Y-43507790D01*
X35868847Y-43507790D02*
X36154561Y-43507790D01*
X36011704Y-43507790D02*
X36011704Y-43007790D01*
X36059323Y-43079219D01*
X36106942Y-43126838D01*
X36154561Y-43150647D01*
X40097828Y-39697790D02*
X40264495Y-39459695D01*
X40383542Y-39697790D02*
X40383542Y-39197790D01*
X40193066Y-39197790D01*
X40145447Y-39221600D01*
X40121638Y-39245409D01*
X40097828Y-39293028D01*
X40097828Y-39364457D01*
X40121638Y-39412076D01*
X40145447Y-39435885D01*
X40193066Y-39459695D01*
X40383542Y-39459695D01*
X39907352Y-39245409D02*
X39883542Y-39221600D01*
X39835923Y-39197790D01*
X39716876Y-39197790D01*
X39669257Y-39221600D01*
X39645447Y-39245409D01*
X39621638Y-39293028D01*
X39621638Y-39340647D01*
X39645447Y-39412076D01*
X39931161Y-39697790D01*
X39621638Y-39697790D01*
X39312114Y-39197790D02*
X39264495Y-39197790D01*
X39216876Y-39221600D01*
X39193066Y-39245409D01*
X39169257Y-39293028D01*
X39145447Y-39388266D01*
X39145447Y-39507314D01*
X39169257Y-39602552D01*
X39193066Y-39650171D01*
X39216876Y-39673980D01*
X39264495Y-39697790D01*
X39312114Y-39697790D01*
X39359733Y-39673980D01*
X39383542Y-39650171D01*
X39407352Y-39602552D01*
X39431161Y-39507314D01*
X39431161Y-39388266D01*
X39407352Y-39293028D01*
X39383542Y-39245409D01*
X39359733Y-39221600D01*
X39312114Y-39197790D01*
X26750148Y-38399810D02*
X26916815Y-38161715D01*
X27035862Y-38399810D02*
X27035862Y-37899810D01*
X26845386Y-37899810D01*
X26797767Y-37923620D01*
X26773958Y-37947429D01*
X26750148Y-37995048D01*
X26750148Y-38066477D01*
X26773958Y-38114096D01*
X26797767Y-38137905D01*
X26845386Y-38161715D01*
X27035862Y-38161715D01*
X26273958Y-38399810D02*
X26559672Y-38399810D01*
X26416815Y-38399810D02*
X26416815Y-37899810D01*
X26464434Y-37971239D01*
X26512053Y-38018858D01*
X26559672Y-38042667D01*
X26035862Y-38399810D02*
X25940624Y-38399810D01*
X25893005Y-38376000D01*
X25869196Y-38352191D01*
X25821577Y-38280762D01*
X25797767Y-38185524D01*
X25797767Y-37995048D01*
X25821577Y-37947429D01*
X25845386Y-37923620D01*
X25893005Y-37899810D01*
X25988243Y-37899810D01*
X26035862Y-37923620D01*
X26059672Y-37947429D01*
X26083481Y-37995048D01*
X26083481Y-38114096D01*
X26059672Y-38161715D01*
X26035862Y-38185524D01*
X25988243Y-38209334D01*
X25893005Y-38209334D01*
X25845386Y-38185524D01*
X25821577Y-38161715D01*
X25797767Y-38114096D01*
X31560908Y-49459030D02*
X31727575Y-49220935D01*
X31846622Y-49459030D02*
X31846622Y-48959030D01*
X31656146Y-48959030D01*
X31608527Y-48982840D01*
X31584718Y-49006649D01*
X31560908Y-49054268D01*
X31560908Y-49125697D01*
X31584718Y-49173316D01*
X31608527Y-49197125D01*
X31656146Y-49220935D01*
X31846622Y-49220935D01*
X31084718Y-49459030D02*
X31370432Y-49459030D01*
X31227575Y-49459030D02*
X31227575Y-48959030D01*
X31275194Y-49030459D01*
X31322813Y-49078078D01*
X31370432Y-49101887D01*
X30799003Y-49173316D02*
X30846622Y-49149506D01*
X30870432Y-49125697D01*
X30894241Y-49078078D01*
X30894241Y-49054268D01*
X30870432Y-49006649D01*
X30846622Y-48982840D01*
X30799003Y-48959030D01*
X30703765Y-48959030D01*
X30656146Y-48982840D01*
X30632337Y-49006649D01*
X30608527Y-49054268D01*
X30608527Y-49078078D01*
X30632337Y-49125697D01*
X30656146Y-49149506D01*
X30703765Y-49173316D01*
X30799003Y-49173316D01*
X30846622Y-49197125D01*
X30870432Y-49220935D01*
X30894241Y-49268554D01*
X30894241Y-49363792D01*
X30870432Y-49411411D01*
X30846622Y-49435220D01*
X30799003Y-49459030D01*
X30703765Y-49459030D01*
X30656146Y-49435220D01*
X30632337Y-49411411D01*
X30608527Y-49363792D01*
X30608527Y-49268554D01*
X30632337Y-49220935D01*
X30656146Y-49197125D01*
X30703765Y-49173316D01*
X29998768Y-53924290D02*
X30165435Y-53686195D01*
X30284482Y-53924290D02*
X30284482Y-53424290D01*
X30094006Y-53424290D01*
X30046387Y-53448100D01*
X30022578Y-53471909D01*
X29998768Y-53519528D01*
X29998768Y-53590957D01*
X30022578Y-53638576D01*
X30046387Y-53662385D01*
X30094006Y-53686195D01*
X30284482Y-53686195D01*
X29522578Y-53924290D02*
X29808292Y-53924290D01*
X29665435Y-53924290D02*
X29665435Y-53424290D01*
X29713054Y-53495719D01*
X29760673Y-53543338D01*
X29808292Y-53567147D01*
X29355911Y-53424290D02*
X29022578Y-53424290D01*
X29236863Y-53924290D01*
X39272348Y-60226110D02*
X39439015Y-59988015D01*
X39558062Y-60226110D02*
X39558062Y-59726110D01*
X39367586Y-59726110D01*
X39319967Y-59749920D01*
X39296158Y-59773729D01*
X39272348Y-59821348D01*
X39272348Y-59892777D01*
X39296158Y-59940396D01*
X39319967Y-59964205D01*
X39367586Y-59988015D01*
X39558062Y-59988015D01*
X38796158Y-60226110D02*
X39081872Y-60226110D01*
X38939015Y-60226110D02*
X38939015Y-59726110D01*
X38986634Y-59797539D01*
X39034253Y-59845158D01*
X39081872Y-59868967D01*
X38367586Y-59726110D02*
X38462824Y-59726110D01*
X38510443Y-59749920D01*
X38534253Y-59773729D01*
X38581872Y-59845158D01*
X38605681Y-59940396D01*
X38605681Y-60130872D01*
X38581872Y-60178491D01*
X38558062Y-60202300D01*
X38510443Y-60226110D01*
X38415205Y-60226110D01*
X38367586Y-60202300D01*
X38343777Y-60178491D01*
X38319967Y-60130872D01*
X38319967Y-60011824D01*
X38343777Y-59964205D01*
X38367586Y-59940396D01*
X38415205Y-59916586D01*
X38510443Y-59916586D01*
X38558062Y-59940396D01*
X38581872Y-59964205D01*
X38605681Y-60011824D01*
X51896128Y-32308970D02*
X52062795Y-32070875D01*
X52181842Y-32308970D02*
X52181842Y-31808970D01*
X51991366Y-31808970D01*
X51943747Y-31832780D01*
X51919938Y-31856589D01*
X51896128Y-31904208D01*
X51896128Y-31975637D01*
X51919938Y-32023256D01*
X51943747Y-32047065D01*
X51991366Y-32070875D01*
X52181842Y-32070875D01*
X51419938Y-32308970D02*
X51705652Y-32308970D01*
X51562795Y-32308970D02*
X51562795Y-31808970D01*
X51610414Y-31880399D01*
X51658033Y-31928018D01*
X51705652Y-31951827D01*
X50967557Y-31808970D02*
X51205652Y-31808970D01*
X51229461Y-32047065D01*
X51205652Y-32023256D01*
X51158033Y-31999446D01*
X51038985Y-31999446D01*
X50991366Y-32023256D01*
X50967557Y-32047065D01*
X50943747Y-32094684D01*
X50943747Y-32213732D01*
X50967557Y-32261351D01*
X50991366Y-32285160D01*
X51038985Y-32308970D01*
X51158033Y-32308970D01*
X51205652Y-32285160D01*
X51229461Y-32261351D01*
X41012228Y-61338590D02*
X41178895Y-61100495D01*
X41297942Y-61338590D02*
X41297942Y-60838590D01*
X41107466Y-60838590D01*
X41059847Y-60862400D01*
X41036038Y-60886209D01*
X41012228Y-60933828D01*
X41012228Y-61005257D01*
X41036038Y-61052876D01*
X41059847Y-61076685D01*
X41107466Y-61100495D01*
X41297942Y-61100495D01*
X40536038Y-61338590D02*
X40821752Y-61338590D01*
X40678895Y-61338590D02*
X40678895Y-60838590D01*
X40726514Y-60910019D01*
X40774133Y-60957638D01*
X40821752Y-60981447D01*
X40107466Y-61005257D02*
X40107466Y-61338590D01*
X40226514Y-60814780D02*
X40345561Y-61171923D01*
X40036038Y-61171923D01*
X49056388Y-39319370D02*
X49223055Y-39081275D01*
X49342102Y-39319370D02*
X49342102Y-38819370D01*
X49151626Y-38819370D01*
X49104007Y-38843180D01*
X49080198Y-38866989D01*
X49056388Y-38914608D01*
X49056388Y-38986037D01*
X49080198Y-39033656D01*
X49104007Y-39057465D01*
X49151626Y-39081275D01*
X49342102Y-39081275D01*
X48580198Y-39319370D02*
X48865912Y-39319370D01*
X48723055Y-39319370D02*
X48723055Y-38819370D01*
X48770674Y-38890799D01*
X48818293Y-38938418D01*
X48865912Y-38962227D01*
X48413531Y-38819370D02*
X48104007Y-38819370D01*
X48270674Y-39009846D01*
X48199245Y-39009846D01*
X48151626Y-39033656D01*
X48127817Y-39057465D01*
X48104007Y-39105084D01*
X48104007Y-39224132D01*
X48127817Y-39271751D01*
X48151626Y-39295560D01*
X48199245Y-39319370D01*
X48342102Y-39319370D01*
X48389721Y-39295560D01*
X48413531Y-39271751D01*
X40072428Y-43533190D02*
X40239095Y-43295095D01*
X40358142Y-43533190D02*
X40358142Y-43033190D01*
X40167666Y-43033190D01*
X40120047Y-43057000D01*
X40096238Y-43080809D01*
X40072428Y-43128428D01*
X40072428Y-43199857D01*
X40096238Y-43247476D01*
X40120047Y-43271285D01*
X40167666Y-43295095D01*
X40358142Y-43295095D01*
X39596238Y-43533190D02*
X39881952Y-43533190D01*
X39739095Y-43533190D02*
X39739095Y-43033190D01*
X39786714Y-43104619D01*
X39834333Y-43152238D01*
X39881952Y-43176047D01*
X39405761Y-43080809D02*
X39381952Y-43057000D01*
X39334333Y-43033190D01*
X39215285Y-43033190D01*
X39167666Y-43057000D01*
X39143857Y-43080809D01*
X39120047Y-43128428D01*
X39120047Y-43176047D01*
X39143857Y-43247476D01*
X39429571Y-43533190D01*
X39120047Y-43533190D01*
X36320848Y-29992430D02*
X36487515Y-29754335D01*
X36606562Y-29992430D02*
X36606562Y-29492430D01*
X36416086Y-29492430D01*
X36368467Y-29516240D01*
X36344658Y-29540049D01*
X36320848Y-29587668D01*
X36320848Y-29659097D01*
X36344658Y-29706716D01*
X36368467Y-29730525D01*
X36416086Y-29754335D01*
X36606562Y-29754335D01*
X35844658Y-29992430D02*
X36130372Y-29992430D01*
X35987515Y-29992430D02*
X35987515Y-29492430D01*
X36035134Y-29563859D01*
X36082753Y-29611478D01*
X36130372Y-29635287D01*
X35368467Y-29992430D02*
X35654181Y-29992430D01*
X35511324Y-29992430D02*
X35511324Y-29492430D01*
X35558943Y-29563859D01*
X35606562Y-29611478D01*
X35654181Y-29635287D01*
X38337608Y-30703670D02*
X38504275Y-30465575D01*
X38623322Y-30703670D02*
X38623322Y-30203670D01*
X38432846Y-30203670D01*
X38385227Y-30227480D01*
X38361418Y-30251289D01*
X38337608Y-30298908D01*
X38337608Y-30370337D01*
X38361418Y-30417956D01*
X38385227Y-30441765D01*
X38432846Y-30465575D01*
X38623322Y-30465575D01*
X37861418Y-30703670D02*
X38147132Y-30703670D01*
X38004275Y-30703670D02*
X38004275Y-30203670D01*
X38051894Y-30275099D01*
X38099513Y-30322718D01*
X38147132Y-30346527D01*
X37551894Y-30203670D02*
X37504275Y-30203670D01*
X37456656Y-30227480D01*
X37432846Y-30251289D01*
X37409037Y-30298908D01*
X37385227Y-30394146D01*
X37385227Y-30513194D01*
X37409037Y-30608432D01*
X37432846Y-30656051D01*
X37456656Y-30679860D01*
X37504275Y-30703670D01*
X37551894Y-30703670D01*
X37599513Y-30679860D01*
X37623322Y-30656051D01*
X37647132Y-30608432D01*
X37670941Y-30513194D01*
X37670941Y-30394146D01*
X37647132Y-30298908D01*
X37623322Y-30251289D01*
X37599513Y-30227480D01*
X37551894Y-30203670D01*
X34253973Y-34208870D02*
X34420640Y-33970775D01*
X34539687Y-34208870D02*
X34539687Y-33708870D01*
X34349211Y-33708870D01*
X34301592Y-33732680D01*
X34277782Y-33756489D01*
X34253973Y-33804108D01*
X34253973Y-33875537D01*
X34277782Y-33923156D01*
X34301592Y-33946965D01*
X34349211Y-33970775D01*
X34539687Y-33970775D01*
X34015878Y-34208870D02*
X33920640Y-34208870D01*
X33873020Y-34185060D01*
X33849211Y-34161251D01*
X33801592Y-34089822D01*
X33777782Y-33994584D01*
X33777782Y-33804108D01*
X33801592Y-33756489D01*
X33825401Y-33732680D01*
X33873020Y-33708870D01*
X33968259Y-33708870D01*
X34015878Y-33732680D01*
X34039687Y-33756489D01*
X34063497Y-33804108D01*
X34063497Y-33923156D01*
X34039687Y-33970775D01*
X34015878Y-33994584D01*
X33968259Y-34018394D01*
X33873020Y-34018394D01*
X33825401Y-33994584D01*
X33801592Y-33970775D01*
X33777782Y-33923156D01*
X26748293Y-37584530D02*
X26914960Y-37346435D01*
X27034007Y-37584530D02*
X27034007Y-37084530D01*
X26843531Y-37084530D01*
X26795912Y-37108340D01*
X26772102Y-37132149D01*
X26748293Y-37179768D01*
X26748293Y-37251197D01*
X26772102Y-37298816D01*
X26795912Y-37322625D01*
X26843531Y-37346435D01*
X27034007Y-37346435D01*
X26462579Y-37298816D02*
X26510198Y-37275006D01*
X26534007Y-37251197D01*
X26557817Y-37203578D01*
X26557817Y-37179768D01*
X26534007Y-37132149D01*
X26510198Y-37108340D01*
X26462579Y-37084530D01*
X26367340Y-37084530D01*
X26319721Y-37108340D01*
X26295912Y-37132149D01*
X26272102Y-37179768D01*
X26272102Y-37203578D01*
X26295912Y-37251197D01*
X26319721Y-37275006D01*
X26367340Y-37298816D01*
X26462579Y-37298816D01*
X26510198Y-37322625D01*
X26534007Y-37346435D01*
X26557817Y-37394054D01*
X26557817Y-37489292D01*
X26534007Y-37536911D01*
X26510198Y-37560720D01*
X26462579Y-37584530D01*
X26367340Y-37584530D01*
X26319721Y-37560720D01*
X26295912Y-37536911D01*
X26272102Y-37489292D01*
X26272102Y-37394054D01*
X26295912Y-37346435D01*
X26319721Y-37322625D01*
X26367340Y-37298816D01*
X38208733Y-44422190D02*
X38375400Y-44184095D01*
X38494447Y-44422190D02*
X38494447Y-43922190D01*
X38303971Y-43922190D01*
X38256352Y-43946000D01*
X38232542Y-43969809D01*
X38208733Y-44017428D01*
X38208733Y-44088857D01*
X38232542Y-44136476D01*
X38256352Y-44160285D01*
X38303971Y-44184095D01*
X38494447Y-44184095D01*
X37780161Y-43922190D02*
X37875400Y-43922190D01*
X37923019Y-43946000D01*
X37946828Y-43969809D01*
X37994447Y-44041238D01*
X38018257Y-44136476D01*
X38018257Y-44326952D01*
X37994447Y-44374571D01*
X37970638Y-44398380D01*
X37923019Y-44422190D01*
X37827780Y-44422190D01*
X37780161Y-44398380D01*
X37756352Y-44374571D01*
X37732542Y-44326952D01*
X37732542Y-44207904D01*
X37756352Y-44160285D01*
X37780161Y-44136476D01*
X37827780Y-44112666D01*
X37923019Y-44112666D01*
X37970638Y-44136476D01*
X37994447Y-44160285D01*
X38018257Y-44207904D01*
X50607707Y-51219230D02*
X50607707Y-50719230D01*
X50488660Y-50719230D01*
X50417231Y-50743040D01*
X50369612Y-50790659D01*
X50345802Y-50838278D01*
X50321993Y-50933516D01*
X50321993Y-51004944D01*
X50345802Y-51100182D01*
X50369612Y-51147801D01*
X50417231Y-51195420D01*
X50488660Y-51219230D01*
X50607707Y-51219230D01*
X50155326Y-50719230D02*
X49845802Y-50719230D01*
X50012469Y-50909706D01*
X49941040Y-50909706D01*
X49893421Y-50933516D01*
X49869612Y-50957325D01*
X49845802Y-51004944D01*
X49845802Y-51123992D01*
X49869612Y-51171611D01*
X49893421Y-51195420D01*
X49941040Y-51219230D01*
X50083898Y-51219230D01*
X50131517Y-51195420D01*
X50155326Y-51171611D01*
X49994333Y-35989390D02*
X50161000Y-35751295D01*
X50280047Y-35989390D02*
X50280047Y-35489390D01*
X50089571Y-35489390D01*
X50041952Y-35513200D01*
X50018142Y-35537009D01*
X49994333Y-35584628D01*
X49994333Y-35656057D01*
X50018142Y-35703676D01*
X50041952Y-35727485D01*
X50089571Y-35751295D01*
X50280047Y-35751295D01*
X49827666Y-35489390D02*
X49494333Y-35489390D01*
X49708619Y-35989390D01*
X51238933Y-27962990D02*
X51405600Y-27724895D01*
X51524647Y-27962990D02*
X51524647Y-27462990D01*
X51334171Y-27462990D01*
X51286552Y-27486800D01*
X51262742Y-27510609D01*
X51238933Y-27558228D01*
X51238933Y-27629657D01*
X51262742Y-27677276D01*
X51286552Y-27701085D01*
X51334171Y-27724895D01*
X51524647Y-27724895D01*
X50786552Y-27462990D02*
X51024647Y-27462990D01*
X51048457Y-27701085D01*
X51024647Y-27677276D01*
X50977028Y-27653466D01*
X50857980Y-27653466D01*
X50810361Y-27677276D01*
X50786552Y-27701085D01*
X50762742Y-27748704D01*
X50762742Y-27867752D01*
X50786552Y-27915371D01*
X50810361Y-27939180D01*
X50857980Y-27962990D01*
X50977028Y-27962990D01*
X51024647Y-27939180D01*
X51048457Y-27915371D01*
X45181033Y-56499890D02*
X45347700Y-56261795D01*
X45466747Y-56499890D02*
X45466747Y-55999890D01*
X45276271Y-55999890D01*
X45228652Y-56023700D01*
X45204842Y-56047509D01*
X45181033Y-56095128D01*
X45181033Y-56166557D01*
X45204842Y-56214176D01*
X45228652Y-56237985D01*
X45276271Y-56261795D01*
X45466747Y-56261795D01*
X44752461Y-56166557D02*
X44752461Y-56499890D01*
X44871509Y-55976080D02*
X44990557Y-56333223D01*
X44681033Y-56333223D01*
X42296210Y-61915526D02*
X42058115Y-61748860D01*
X42296210Y-61629812D02*
X41796210Y-61629812D01*
X41796210Y-61820288D01*
X41820020Y-61867907D01*
X41843829Y-61891717D01*
X41891448Y-61915526D01*
X41962877Y-61915526D01*
X42010496Y-61891717D01*
X42034305Y-61867907D01*
X42058115Y-61820288D01*
X42058115Y-61629812D01*
X41796210Y-62082193D02*
X41796210Y-62391717D01*
X41986686Y-62225050D01*
X41986686Y-62296479D01*
X42010496Y-62344098D01*
X42034305Y-62367907D01*
X42081924Y-62391717D01*
X42200972Y-62391717D01*
X42248591Y-62367907D01*
X42272400Y-62344098D01*
X42296210Y-62296479D01*
X42296210Y-62153621D01*
X42272400Y-62106002D01*
X42248591Y-62082193D01*
X42321610Y-64028826D02*
X42083515Y-63862160D01*
X42321610Y-63743112D02*
X41821610Y-63743112D01*
X41821610Y-63933588D01*
X41845420Y-63981207D01*
X41869229Y-64005017D01*
X41916848Y-64028826D01*
X41988277Y-64028826D01*
X42035896Y-64005017D01*
X42059705Y-63981207D01*
X42083515Y-63933588D01*
X42083515Y-63743112D01*
X41869229Y-64219302D02*
X41845420Y-64243112D01*
X41821610Y-64290731D01*
X41821610Y-64409779D01*
X41845420Y-64457398D01*
X41869229Y-64481207D01*
X41916848Y-64505017D01*
X41964467Y-64505017D01*
X42035896Y-64481207D01*
X42321610Y-64195493D01*
X42321610Y-64505017D01*
X27319753Y-53700810D02*
X27486420Y-53462715D01*
X27605467Y-53700810D02*
X27605467Y-53200810D01*
X27414991Y-53200810D01*
X27367372Y-53224620D01*
X27343562Y-53248429D01*
X27319753Y-53296048D01*
X27319753Y-53367477D01*
X27343562Y-53415096D01*
X27367372Y-53438905D01*
X27414991Y-53462715D01*
X27605467Y-53462715D01*
X26843562Y-53700810D02*
X27129277Y-53700810D01*
X26986420Y-53700810D02*
X26986420Y-53200810D01*
X27034039Y-53272239D01*
X27081658Y-53319858D01*
X27129277Y-53343667D01*
X51656727Y-42763570D02*
X51656727Y-42263570D01*
X51537680Y-42263570D01*
X51466251Y-42287380D01*
X51418632Y-42334999D01*
X51394822Y-42382618D01*
X51371013Y-42477856D01*
X51371013Y-42549284D01*
X51394822Y-42644522D01*
X51418632Y-42692141D01*
X51466251Y-42739760D01*
X51537680Y-42763570D01*
X51656727Y-42763570D01*
X51180537Y-42311189D02*
X51156727Y-42287380D01*
X51109108Y-42263570D01*
X50990060Y-42263570D01*
X50942441Y-42287380D01*
X50918632Y-42311189D01*
X50894822Y-42358808D01*
X50894822Y-42406427D01*
X50918632Y-42477856D01*
X51204346Y-42763570D01*
X50894822Y-42763570D01*
X49444387Y-42778810D02*
X49444387Y-42278810D01*
X49325340Y-42278810D01*
X49253911Y-42302620D01*
X49206292Y-42350239D01*
X49182482Y-42397858D01*
X49158673Y-42493096D01*
X49158673Y-42564524D01*
X49182482Y-42659762D01*
X49206292Y-42707381D01*
X49253911Y-42755000D01*
X49325340Y-42778810D01*
X49444387Y-42778810D01*
X48682482Y-42778810D02*
X48968197Y-42778810D01*
X48825340Y-42778810D02*
X48825340Y-42278810D01*
X48872959Y-42350239D01*
X48920578Y-42397858D01*
X48968197Y-42421667D01*
X32056833Y-53858891D02*
X32080642Y-53882700D01*
X32152071Y-53906510D01*
X32199690Y-53906510D01*
X32271119Y-53882700D01*
X32318738Y-53835081D01*
X32342547Y-53787462D01*
X32366357Y-53692224D01*
X32366357Y-53620796D01*
X32342547Y-53525558D01*
X32318738Y-53477939D01*
X32271119Y-53430320D01*
X32199690Y-53406510D01*
X32152071Y-53406510D01*
X32080642Y-53430320D01*
X32056833Y-53454129D01*
X31866357Y-53454129D02*
X31842547Y-53430320D01*
X31794928Y-53406510D01*
X31675880Y-53406510D01*
X31628261Y-53430320D01*
X31604452Y-53454129D01*
X31580642Y-53501748D01*
X31580642Y-53549367D01*
X31604452Y-53620796D01*
X31890166Y-53906510D01*
X31580642Y-53906510D01*
X45028633Y-51811691D02*
X45052442Y-51835500D01*
X45123871Y-51859310D01*
X45171490Y-51859310D01*
X45242919Y-51835500D01*
X45290538Y-51787881D01*
X45314347Y-51740262D01*
X45338157Y-51645024D01*
X45338157Y-51573596D01*
X45314347Y-51478358D01*
X45290538Y-51430739D01*
X45242919Y-51383120D01*
X45171490Y-51359310D01*
X45123871Y-51359310D01*
X45052442Y-51383120D01*
X45028633Y-51406929D01*
X44552442Y-51859310D02*
X44838157Y-51859310D01*
X44695300Y-51859310D02*
X44695300Y-51359310D01*
X44742919Y-51430739D01*
X44790538Y-51478358D01*
X44838157Y-51502167D01*
D11*
X45912904Y-42010080D02*
X45912904Y-42819604D01*
X45865285Y-42914842D01*
X45817666Y-42962461D01*
X45722428Y-43010080D01*
X45531952Y-43010080D01*
X45436714Y-42962461D01*
X45389095Y-42914842D01*
X45341476Y-42819604D01*
X45341476Y-42010080D01*
X44389095Y-42010080D02*
X44865285Y-42010080D01*
X44912904Y-42486271D01*
X44865285Y-42438652D01*
X44770047Y-42391033D01*
X44531952Y-42391033D01*
X44436714Y-42438652D01*
X44389095Y-42486271D01*
X44341476Y-42581509D01*
X44341476Y-42819604D01*
X44389095Y-42914842D01*
X44436714Y-42962461D01*
X44531952Y-43010080D01*
X44770047Y-43010080D01*
X44865285Y-42962461D01*
X44912904Y-42914842D01*
X46380304Y-29195780D02*
X46380304Y-30005304D01*
X46332685Y-30100542D01*
X46285066Y-30148161D01*
X46189828Y-30195780D01*
X45999352Y-30195780D01*
X45904114Y-30148161D01*
X45856495Y-30100542D01*
X45808876Y-30005304D01*
X45808876Y-29195780D01*
X44904114Y-29529114D02*
X44904114Y-30195780D01*
X45142209Y-29148161D02*
X45380304Y-29862447D01*
X44761257Y-29862447D01*
X30657704Y-29500580D02*
X30657704Y-30310104D01*
X30610085Y-30405342D01*
X30562466Y-30452961D01*
X30467228Y-30500580D01*
X30276752Y-30500580D01*
X30181514Y-30452961D01*
X30133895Y-30405342D01*
X30086276Y-30310104D01*
X30086276Y-29500580D01*
X29705323Y-29500580D02*
X29086276Y-29500580D01*
X29419609Y-29881533D01*
X29276752Y-29881533D01*
X29181514Y-29929152D01*
X29133895Y-29976771D01*
X29086276Y-30072009D01*
X29086276Y-30310104D01*
X29133895Y-30405342D01*
X29181514Y-30452961D01*
X29276752Y-30500580D01*
X29562466Y-30500580D01*
X29657704Y-30452961D01*
X29705323Y-30405342D01*
X34670903Y-60996580D02*
X34670903Y-61806104D01*
X34623284Y-61901342D01*
X34575665Y-61948961D01*
X34480427Y-61996580D01*
X34289951Y-61996580D01*
X34194713Y-61948961D01*
X34147094Y-61901342D01*
X34099475Y-61806104D01*
X34099475Y-60996580D01*
X33194713Y-60996580D02*
X33385189Y-60996580D01*
X33480427Y-61044200D01*
X33528046Y-61091819D01*
X33623284Y-61234676D01*
X33670903Y-61425152D01*
X33670903Y-61806104D01*
X33623284Y-61901342D01*
X33575665Y-61948961D01*
X33480427Y-61996580D01*
X33289951Y-61996580D01*
X33194713Y-61948961D01*
X33147094Y-61901342D01*
X33099475Y-61806104D01*
X33099475Y-61568009D01*
X33147094Y-61472771D01*
X33194713Y-61425152D01*
X33289951Y-61377533D01*
X33480427Y-61377533D01*
X33575665Y-61425152D01*
X33623284Y-61472771D01*
X33670903Y-61568009D01*
X29235304Y-60945780D02*
X29235304Y-61755304D01*
X29187685Y-61850542D01*
X29140066Y-61898161D01*
X29044828Y-61945780D01*
X28854352Y-61945780D01*
X28759114Y-61898161D01*
X28711495Y-61850542D01*
X28663876Y-61755304D01*
X28663876Y-60945780D01*
X28282923Y-60945780D02*
X27616257Y-60945780D01*
X28044828Y-61945780D01*
X42781104Y-35527979D02*
X42781104Y-36337503D01*
X42733485Y-36432741D01*
X42685866Y-36480360D01*
X42590628Y-36527979D01*
X42400152Y-36527979D01*
X42304914Y-36480360D01*
X42257295Y-36432741D01*
X42209676Y-36337503D01*
X42209676Y-35527979D01*
X41590628Y-35956551D02*
X41685866Y-35908932D01*
X41733485Y-35861313D01*
X41781104Y-35766075D01*
X41781104Y-35718456D01*
X41733485Y-35623218D01*
X41685866Y-35575599D01*
X41590628Y-35527979D01*
X41400152Y-35527979D01*
X41304914Y-35575599D01*
X41257295Y-35623218D01*
X41209676Y-35718456D01*
X41209676Y-35766075D01*
X41257295Y-35861313D01*
X41304914Y-35908932D01*
X41400152Y-35956551D01*
X41590628Y-35956551D01*
X41685866Y-36004170D01*
X41733485Y-36051789D01*
X41781104Y-36147027D01*
X41781104Y-36337503D01*
X41733485Y-36432741D01*
X41685866Y-36480360D01*
X41590628Y-36527979D01*
X41400152Y-36527979D01*
X41304914Y-36480360D01*
X41257295Y-36432741D01*
X41209676Y-36337503D01*
X41209676Y-36147027D01*
X41257295Y-36051789D01*
X41304914Y-36004170D01*
X41400152Y-35956551D01*
X34828405Y-37293280D02*
X34828405Y-38102804D01*
X34780786Y-38198042D01*
X34733167Y-38245661D01*
X34637929Y-38293280D01*
X34447453Y-38293280D01*
X34352215Y-38245661D01*
X34304596Y-38198042D01*
X34256977Y-38102804D01*
X34256977Y-37293280D01*
X33733167Y-38293280D02*
X33542691Y-38293280D01*
X33447453Y-38245661D01*
X33399834Y-38198042D01*
X33304596Y-38055185D01*
X33256977Y-37864709D01*
X33256977Y-37483757D01*
X33304596Y-37388519D01*
X33352215Y-37340900D01*
X33447453Y-37293280D01*
X33637929Y-37293280D01*
X33733167Y-37340900D01*
X33780786Y-37388519D01*
X33828405Y-37483757D01*
X33828405Y-37721852D01*
X33780786Y-37817090D01*
X33733167Y-37864709D01*
X33637929Y-37912328D01*
X33447453Y-37912328D01*
X33352215Y-37864709D01*
X33304596Y-37817090D01*
X33256977Y-37721852D01*
X39641684Y-50892460D02*
X39641684Y-51701984D01*
X39594065Y-51797222D01*
X39546446Y-51844841D01*
X39451208Y-51892460D01*
X39260732Y-51892460D01*
X39165494Y-51844841D01*
X39117875Y-51797222D01*
X39070256Y-51701984D01*
X39070256Y-50892460D01*
X38641684Y-50987699D02*
X38594065Y-50940080D01*
X38498827Y-50892460D01*
X38260732Y-50892460D01*
X38165494Y-50940080D01*
X38117875Y-50987699D01*
X38070256Y-51082937D01*
X38070256Y-51178175D01*
X38117875Y-51321032D01*
X38689303Y-51892460D01*
X38070256Y-51892460D01*
D12*
X27814542Y-48960553D02*
X27576447Y-48960553D01*
X27862161Y-49103410D02*
X27695495Y-48603410D01*
X27528828Y-49103410D01*
X27385971Y-48651029D02*
X27362161Y-48627220D01*
X27314542Y-48603410D01*
X27195495Y-48603410D01*
X27147876Y-48627220D01*
X27124066Y-48651029D01*
X27100257Y-48698648D01*
X27100257Y-48746267D01*
X27124066Y-48817696D01*
X27409780Y-49103410D01*
X27100257Y-49103410D01*
X29904962Y-44700973D02*
X29666867Y-44700973D01*
X29952581Y-44843830D02*
X29785915Y-44343830D01*
X29619248Y-44843830D01*
X29190677Y-44843830D02*
X29476391Y-44843830D01*
X29333534Y-44843830D02*
X29333534Y-44343830D01*
X29381153Y-44415259D01*
X29428772Y-44462878D01*
X29476391Y-44486687D01*
X27839942Y-40413453D02*
X27601847Y-40413453D01*
X27887561Y-40556310D02*
X27720895Y-40056310D01*
X27554228Y-40556310D01*
X27292323Y-40056310D02*
X27244704Y-40056310D01*
X27197085Y-40080120D01*
X27173276Y-40103929D01*
X27149466Y-40151548D01*
X27125657Y-40246786D01*
X27125657Y-40365834D01*
X27149466Y-40461072D01*
X27173276Y-40508691D01*
X27197085Y-40532500D01*
X27244704Y-40556310D01*
X27292323Y-40556310D01*
X27339942Y-40532500D01*
X27363752Y-40508691D01*
X27387561Y-40461072D01*
X27411371Y-40365834D01*
X27411371Y-40246786D01*
X27387561Y-40151548D01*
X27363752Y-40103929D01*
X27339942Y-40080120D01*
X27292323Y-40056310D01*
M02*
