G04 #@! TF.GenerationSoftware,KiCad,Pcbnew,10.0.0*
G04 #@! TF.CreationDate,2026-04-04T23:40:08+02:00*
G04 #@! TF.ProjectId,FP7SEG_DRIVER,46503753-4547-45f4-9452-495645522e6b,rev?*
G04 #@! TF.SameCoordinates,Original*
G04 #@! TF.FileFunction,Legend,Bot*
G04 #@! TF.FilePolarity,Positive*
%FSLAX46Y46*%
G04 Gerber Fmt 4.6, Leading zero omitted, Abs format (unit mm)*
G04 Created by KiCad (PCBNEW 10.0.0) date 2026-04-04 23:40:08*
%MOMM*%
%LPD*%
G01*
G04 APERTURE LIST*
%ADD10C,0.125000*%
%ADD11C,0.150000*%
%ADD12C,0.120000*%
G04 APERTURE END LIST*
D10*
X36958833Y-33551097D02*
X36958833Y-33017764D01*
X36692166Y-33284430D02*
X37225500Y-33284430D01*
X36692166Y-32317763D02*
X36692166Y-32717763D01*
X36692166Y-32517763D02*
X37392166Y-32517763D01*
X37392166Y-32517763D02*
X37292166Y-32584430D01*
X37292166Y-32584430D02*
X37225500Y-32651097D01*
X37225500Y-32651097D02*
X37192166Y-32717763D01*
X36692166Y-31984430D02*
X36692166Y-31851096D01*
X36692166Y-31851096D02*
X36725500Y-31784430D01*
X36725500Y-31784430D02*
X36758833Y-31751096D01*
X36758833Y-31751096D02*
X36858833Y-31684430D01*
X36858833Y-31684430D02*
X36992166Y-31651096D01*
X36992166Y-31651096D02*
X37258833Y-31651096D01*
X37258833Y-31651096D02*
X37325500Y-31684430D01*
X37325500Y-31684430D02*
X37358833Y-31717763D01*
X37358833Y-31717763D02*
X37392166Y-31784430D01*
X37392166Y-31784430D02*
X37392166Y-31917763D01*
X37392166Y-31917763D02*
X37358833Y-31984430D01*
X37358833Y-31984430D02*
X37325500Y-32017763D01*
X37325500Y-32017763D02*
X37258833Y-32051096D01*
X37258833Y-32051096D02*
X37092166Y-32051096D01*
X37092166Y-32051096D02*
X37025500Y-32017763D01*
X37025500Y-32017763D02*
X36992166Y-31984430D01*
X36992166Y-31984430D02*
X36958833Y-31917763D01*
X36958833Y-31917763D02*
X36958833Y-31784430D01*
X36958833Y-31784430D02*
X36992166Y-31717763D01*
X36992166Y-31717763D02*
X37025500Y-31684430D01*
X37025500Y-31684430D02*
X37092166Y-31651096D01*
X37392166Y-31451096D02*
X36692166Y-31217763D01*
X36692166Y-31217763D02*
X37392166Y-30984429D01*
X34225500Y-32784430D02*
X34192166Y-32684430D01*
X34192166Y-32684430D02*
X34192166Y-32517764D01*
X34192166Y-32517764D02*
X34225500Y-32451097D01*
X34225500Y-32451097D02*
X34258833Y-32417764D01*
X34258833Y-32417764D02*
X34325500Y-32384430D01*
X34325500Y-32384430D02*
X34392166Y-32384430D01*
X34392166Y-32384430D02*
X34458833Y-32417764D01*
X34458833Y-32417764D02*
X34492166Y-32451097D01*
X34492166Y-32451097D02*
X34525500Y-32517764D01*
X34525500Y-32517764D02*
X34558833Y-32651097D01*
X34558833Y-32651097D02*
X34592166Y-32717764D01*
X34592166Y-32717764D02*
X34625500Y-32751097D01*
X34625500Y-32751097D02*
X34692166Y-32784430D01*
X34692166Y-32784430D02*
X34758833Y-32784430D01*
X34758833Y-32784430D02*
X34825500Y-32751097D01*
X34825500Y-32751097D02*
X34858833Y-32717764D01*
X34858833Y-32717764D02*
X34892166Y-32651097D01*
X34892166Y-32651097D02*
X34892166Y-32484430D01*
X34892166Y-32484430D02*
X34858833Y-32384430D01*
X34192166Y-32084430D02*
X34892166Y-32084430D01*
X34892166Y-32084430D02*
X34892166Y-31917763D01*
X34892166Y-31917763D02*
X34858833Y-31817763D01*
X34858833Y-31817763D02*
X34792166Y-31751097D01*
X34792166Y-31751097D02*
X34725500Y-31717763D01*
X34725500Y-31717763D02*
X34592166Y-31684430D01*
X34592166Y-31684430D02*
X34492166Y-31684430D01*
X34492166Y-31684430D02*
X34358833Y-31717763D01*
X34358833Y-31717763D02*
X34292166Y-31751097D01*
X34292166Y-31751097D02*
X34225500Y-31817763D01*
X34225500Y-31817763D02*
X34192166Y-31917763D01*
X34192166Y-31917763D02*
X34192166Y-32084430D01*
X34392166Y-31417763D02*
X34392166Y-31084430D01*
X34192166Y-31484430D02*
X34892166Y-31251097D01*
X34892166Y-31251097D02*
X34192166Y-31017763D01*
X31725500Y-32784430D02*
X31692166Y-32684430D01*
X31692166Y-32684430D02*
X31692166Y-32517764D01*
X31692166Y-32517764D02*
X31725500Y-32451097D01*
X31725500Y-32451097D02*
X31758833Y-32417764D01*
X31758833Y-32417764D02*
X31825500Y-32384430D01*
X31825500Y-32384430D02*
X31892166Y-32384430D01*
X31892166Y-32384430D02*
X31958833Y-32417764D01*
X31958833Y-32417764D02*
X31992166Y-32451097D01*
X31992166Y-32451097D02*
X32025500Y-32517764D01*
X32025500Y-32517764D02*
X32058833Y-32651097D01*
X32058833Y-32651097D02*
X32092166Y-32717764D01*
X32092166Y-32717764D02*
X32125500Y-32751097D01*
X32125500Y-32751097D02*
X32192166Y-32784430D01*
X32192166Y-32784430D02*
X32258833Y-32784430D01*
X32258833Y-32784430D02*
X32325500Y-32751097D01*
X32325500Y-32751097D02*
X32358833Y-32717764D01*
X32358833Y-32717764D02*
X32392166Y-32651097D01*
X32392166Y-32651097D02*
X32392166Y-32484430D01*
X32392166Y-32484430D02*
X32358833Y-32384430D01*
X31758833Y-31684430D02*
X31725500Y-31717763D01*
X31725500Y-31717763D02*
X31692166Y-31817763D01*
X31692166Y-31817763D02*
X31692166Y-31884430D01*
X31692166Y-31884430D02*
X31725500Y-31984430D01*
X31725500Y-31984430D02*
X31792166Y-32051097D01*
X31792166Y-32051097D02*
X31858833Y-32084430D01*
X31858833Y-32084430D02*
X31992166Y-32117763D01*
X31992166Y-32117763D02*
X32092166Y-32117763D01*
X32092166Y-32117763D02*
X32225500Y-32084430D01*
X32225500Y-32084430D02*
X32292166Y-32051097D01*
X32292166Y-32051097D02*
X32358833Y-31984430D01*
X32358833Y-31984430D02*
X32392166Y-31884430D01*
X32392166Y-31884430D02*
X32392166Y-31817763D01*
X32392166Y-31817763D02*
X32358833Y-31717763D01*
X32358833Y-31717763D02*
X32325500Y-31684430D01*
X31692166Y-31051097D02*
X31692166Y-31384430D01*
X31692166Y-31384430D02*
X32392166Y-31384430D01*
X27258833Y-32384430D02*
X27292166Y-32451097D01*
X27292166Y-32451097D02*
X27292166Y-32551097D01*
X27292166Y-32551097D02*
X27258833Y-32651097D01*
X27258833Y-32651097D02*
X27192166Y-32717764D01*
X27192166Y-32717764D02*
X27125500Y-32751097D01*
X27125500Y-32751097D02*
X26992166Y-32784430D01*
X26992166Y-32784430D02*
X26892166Y-32784430D01*
X26892166Y-32784430D02*
X26758833Y-32751097D01*
X26758833Y-32751097D02*
X26692166Y-32717764D01*
X26692166Y-32717764D02*
X26625500Y-32651097D01*
X26625500Y-32651097D02*
X26592166Y-32551097D01*
X26592166Y-32551097D02*
X26592166Y-32484430D01*
X26592166Y-32484430D02*
X26625500Y-32384430D01*
X26625500Y-32384430D02*
X26658833Y-32351097D01*
X26658833Y-32351097D02*
X26892166Y-32351097D01*
X26892166Y-32351097D02*
X26892166Y-32484430D01*
X26592166Y-32051097D02*
X27292166Y-32051097D01*
X27292166Y-32051097D02*
X26592166Y-31651097D01*
X26592166Y-31651097D02*
X27292166Y-31651097D01*
X26592166Y-31317764D02*
X27292166Y-31317764D01*
X27292166Y-31317764D02*
X27292166Y-31151097D01*
X27292166Y-31151097D02*
X27258833Y-31051097D01*
X27258833Y-31051097D02*
X27192166Y-30984431D01*
X27192166Y-30984431D02*
X27125500Y-30951097D01*
X27125500Y-30951097D02*
X26992166Y-30917764D01*
X26992166Y-30917764D02*
X26892166Y-30917764D01*
X26892166Y-30917764D02*
X26758833Y-30951097D01*
X26758833Y-30951097D02*
X26692166Y-30984431D01*
X26692166Y-30984431D02*
X26625500Y-31051097D01*
X26625500Y-31051097D02*
X26592166Y-31151097D01*
X26592166Y-31151097D02*
X26592166Y-31317764D01*
X29358833Y-32851097D02*
X29358833Y-32317764D01*
X29092166Y-32584430D02*
X29625500Y-32584430D01*
X29792166Y-31651097D02*
X29792166Y-31984430D01*
X29792166Y-31984430D02*
X29458833Y-32017763D01*
X29458833Y-32017763D02*
X29492166Y-31984430D01*
X29492166Y-31984430D02*
X29525500Y-31917763D01*
X29525500Y-31917763D02*
X29525500Y-31751097D01*
X29525500Y-31751097D02*
X29492166Y-31684430D01*
X29492166Y-31684430D02*
X29458833Y-31651097D01*
X29458833Y-31651097D02*
X29392166Y-31617763D01*
X29392166Y-31617763D02*
X29225500Y-31617763D01*
X29225500Y-31617763D02*
X29158833Y-31651097D01*
X29158833Y-31651097D02*
X29125500Y-31684430D01*
X29125500Y-31684430D02*
X29092166Y-31751097D01*
X29092166Y-31751097D02*
X29092166Y-31917763D01*
X29092166Y-31917763D02*
X29125500Y-31984430D01*
X29125500Y-31984430D02*
X29158833Y-32017763D01*
X29792166Y-31417763D02*
X29092166Y-31184430D01*
X29092166Y-31184430D02*
X29792166Y-30951096D01*
D11*
X47559580Y-31958333D02*
X47607200Y-31910714D01*
X47607200Y-31910714D02*
X47654819Y-31767857D01*
X47654819Y-31767857D02*
X47654819Y-31672619D01*
X47654819Y-31672619D02*
X47607200Y-31529762D01*
X47607200Y-31529762D02*
X47511961Y-31434524D01*
X47511961Y-31434524D02*
X47416723Y-31386905D01*
X47416723Y-31386905D02*
X47226247Y-31339286D01*
X47226247Y-31339286D02*
X47083390Y-31339286D01*
X47083390Y-31339286D02*
X46892914Y-31386905D01*
X46892914Y-31386905D02*
X46797676Y-31434524D01*
X46797676Y-31434524D02*
X46702438Y-31529762D01*
X46702438Y-31529762D02*
X46654819Y-31672619D01*
X46654819Y-31672619D02*
X46654819Y-31767857D01*
X46654819Y-31767857D02*
X46702438Y-31910714D01*
X46702438Y-31910714D02*
X46750057Y-31958333D01*
X46654819Y-32863095D02*
X46654819Y-32386905D01*
X46654819Y-32386905D02*
X47131009Y-32339286D01*
X47131009Y-32339286D02*
X47083390Y-32386905D01*
X47083390Y-32386905D02*
X47035771Y-32482143D01*
X47035771Y-32482143D02*
X47035771Y-32720238D01*
X47035771Y-32720238D02*
X47083390Y-32815476D01*
X47083390Y-32815476D02*
X47131009Y-32863095D01*
X47131009Y-32863095D02*
X47226247Y-32910714D01*
X47226247Y-32910714D02*
X47464342Y-32910714D01*
X47464342Y-32910714D02*
X47559580Y-32863095D01*
X47559580Y-32863095D02*
X47607200Y-32815476D01*
X47607200Y-32815476D02*
X47654819Y-32720238D01*
X47654819Y-32720238D02*
X47654819Y-32482143D01*
X47654819Y-32482143D02*
X47607200Y-32386905D01*
X47607200Y-32386905D02*
X47559580Y-32339286D01*
X31534580Y-37433333D02*
X31582200Y-37385714D01*
X31582200Y-37385714D02*
X31629819Y-37242857D01*
X31629819Y-37242857D02*
X31629819Y-37147619D01*
X31629819Y-37147619D02*
X31582200Y-37004762D01*
X31582200Y-37004762D02*
X31486961Y-36909524D01*
X31486961Y-36909524D02*
X31391723Y-36861905D01*
X31391723Y-36861905D02*
X31201247Y-36814286D01*
X31201247Y-36814286D02*
X31058390Y-36814286D01*
X31058390Y-36814286D02*
X30867914Y-36861905D01*
X30867914Y-36861905D02*
X30772676Y-36909524D01*
X30772676Y-36909524D02*
X30677438Y-37004762D01*
X30677438Y-37004762D02*
X30629819Y-37147619D01*
X30629819Y-37147619D02*
X30629819Y-37242857D01*
X30629819Y-37242857D02*
X30677438Y-37385714D01*
X30677438Y-37385714D02*
X30725057Y-37433333D01*
X30629819Y-37766667D02*
X30629819Y-38385714D01*
X30629819Y-38385714D02*
X31010771Y-38052381D01*
X31010771Y-38052381D02*
X31010771Y-38195238D01*
X31010771Y-38195238D02*
X31058390Y-38290476D01*
X31058390Y-38290476D02*
X31106009Y-38338095D01*
X31106009Y-38338095D02*
X31201247Y-38385714D01*
X31201247Y-38385714D02*
X31439342Y-38385714D01*
X31439342Y-38385714D02*
X31534580Y-38338095D01*
X31534580Y-38338095D02*
X31582200Y-38290476D01*
X31582200Y-38290476D02*
X31629819Y-38195238D01*
X31629819Y-38195238D02*
X31629819Y-37909524D01*
X31629819Y-37909524D02*
X31582200Y-37814286D01*
X31582200Y-37814286D02*
X31534580Y-37766667D01*
X28829580Y-37433333D02*
X28877200Y-37385714D01*
X28877200Y-37385714D02*
X28924819Y-37242857D01*
X28924819Y-37242857D02*
X28924819Y-37147619D01*
X28924819Y-37147619D02*
X28877200Y-37004762D01*
X28877200Y-37004762D02*
X28781961Y-36909524D01*
X28781961Y-36909524D02*
X28686723Y-36861905D01*
X28686723Y-36861905D02*
X28496247Y-36814286D01*
X28496247Y-36814286D02*
X28353390Y-36814286D01*
X28353390Y-36814286D02*
X28162914Y-36861905D01*
X28162914Y-36861905D02*
X28067676Y-36909524D01*
X28067676Y-36909524D02*
X27972438Y-37004762D01*
X27972438Y-37004762D02*
X27924819Y-37147619D01*
X27924819Y-37147619D02*
X27924819Y-37242857D01*
X27924819Y-37242857D02*
X27972438Y-37385714D01*
X27972438Y-37385714D02*
X28020057Y-37433333D01*
X27924819Y-38290476D02*
X27924819Y-38100000D01*
X27924819Y-38100000D02*
X27972438Y-38004762D01*
X27972438Y-38004762D02*
X28020057Y-37957143D01*
X28020057Y-37957143D02*
X28162914Y-37861905D01*
X28162914Y-37861905D02*
X28353390Y-37814286D01*
X28353390Y-37814286D02*
X28734342Y-37814286D01*
X28734342Y-37814286D02*
X28829580Y-37861905D01*
X28829580Y-37861905D02*
X28877200Y-37909524D01*
X28877200Y-37909524D02*
X28924819Y-38004762D01*
X28924819Y-38004762D02*
X28924819Y-38195238D01*
X28924819Y-38195238D02*
X28877200Y-38290476D01*
X28877200Y-38290476D02*
X28829580Y-38338095D01*
X28829580Y-38338095D02*
X28734342Y-38385714D01*
X28734342Y-38385714D02*
X28496247Y-38385714D01*
X28496247Y-38385714D02*
X28401009Y-38338095D01*
X28401009Y-38338095D02*
X28353390Y-38290476D01*
X28353390Y-38290476D02*
X28305771Y-38195238D01*
X28305771Y-38195238D02*
X28305771Y-38004762D01*
X28305771Y-38004762D02*
X28353390Y-37909524D01*
X28353390Y-37909524D02*
X28401009Y-37861905D01*
X28401009Y-37861905D02*
X28496247Y-37814286D01*
X34309580Y-37358333D02*
X34357200Y-37310714D01*
X34357200Y-37310714D02*
X34404819Y-37167857D01*
X34404819Y-37167857D02*
X34404819Y-37072619D01*
X34404819Y-37072619D02*
X34357200Y-36929762D01*
X34357200Y-36929762D02*
X34261961Y-36834524D01*
X34261961Y-36834524D02*
X34166723Y-36786905D01*
X34166723Y-36786905D02*
X33976247Y-36739286D01*
X33976247Y-36739286D02*
X33833390Y-36739286D01*
X33833390Y-36739286D02*
X33642914Y-36786905D01*
X33642914Y-36786905D02*
X33547676Y-36834524D01*
X33547676Y-36834524D02*
X33452438Y-36929762D01*
X33452438Y-36929762D02*
X33404819Y-37072619D01*
X33404819Y-37072619D02*
X33404819Y-37167857D01*
X33404819Y-37167857D02*
X33452438Y-37310714D01*
X33452438Y-37310714D02*
X33500057Y-37358333D01*
X33738152Y-38215476D02*
X34404819Y-38215476D01*
X33357200Y-37977381D02*
X34071485Y-37739286D01*
X34071485Y-37739286D02*
X34071485Y-38358333D01*
D10*
X27895228Y-54982103D02*
X27514275Y-54982103D01*
X27971418Y-55210675D02*
X27704751Y-54410675D01*
X27704751Y-54410675D02*
X27438085Y-55210675D01*
X27209514Y-54486865D02*
X27171418Y-54448770D01*
X27171418Y-54448770D02*
X27095228Y-54410675D01*
X27095228Y-54410675D02*
X26904752Y-54410675D01*
X26904752Y-54410675D02*
X26828561Y-54448770D01*
X26828561Y-54448770D02*
X26790466Y-54486865D01*
X26790466Y-54486865D02*
X26752371Y-54563056D01*
X26752371Y-54563056D02*
X26752371Y-54639246D01*
X26752371Y-54639246D02*
X26790466Y-54753532D01*
X26790466Y-54753532D02*
X27247609Y-55210675D01*
X27247609Y-55210675D02*
X26752371Y-55210675D01*
X27769828Y-63729203D02*
X27388875Y-63729203D01*
X27846018Y-63957775D02*
X27579351Y-63157775D01*
X27579351Y-63157775D02*
X27312685Y-63957775D01*
X26893637Y-63157775D02*
X26817447Y-63157775D01*
X26817447Y-63157775D02*
X26741256Y-63195870D01*
X26741256Y-63195870D02*
X26703161Y-63233965D01*
X26703161Y-63233965D02*
X26665066Y-63310156D01*
X26665066Y-63310156D02*
X26626971Y-63462537D01*
X26626971Y-63462537D02*
X26626971Y-63653013D01*
X26626971Y-63653013D02*
X26665066Y-63805394D01*
X26665066Y-63805394D02*
X26703161Y-63881584D01*
X26703161Y-63881584D02*
X26741256Y-63919680D01*
X26741256Y-63919680D02*
X26817447Y-63957775D01*
X26817447Y-63957775D02*
X26893637Y-63957775D01*
X26893637Y-63957775D02*
X26969828Y-63919680D01*
X26969828Y-63919680D02*
X27007923Y-63881584D01*
X27007923Y-63881584D02*
X27046018Y-63805394D01*
X27046018Y-63805394D02*
X27084114Y-63653013D01*
X27084114Y-63653013D02*
X27084114Y-63462537D01*
X27084114Y-63462537D02*
X27046018Y-63310156D01*
X27046018Y-63310156D02*
X27007923Y-63233965D01*
X27007923Y-63233965D02*
X26969828Y-63195870D01*
X26969828Y-63195870D02*
X26893637Y-63157775D01*
D11*
X32816666Y-57954819D02*
X33149999Y-57478628D01*
X33388094Y-57954819D02*
X33388094Y-56954819D01*
X33388094Y-56954819D02*
X33007142Y-56954819D01*
X33007142Y-56954819D02*
X32911904Y-57002438D01*
X32911904Y-57002438D02*
X32864285Y-57050057D01*
X32864285Y-57050057D02*
X32816666Y-57145295D01*
X32816666Y-57145295D02*
X32816666Y-57288152D01*
X32816666Y-57288152D02*
X32864285Y-57383390D01*
X32864285Y-57383390D02*
X32911904Y-57431009D01*
X32911904Y-57431009D02*
X33007142Y-57478628D01*
X33007142Y-57478628D02*
X33388094Y-57478628D01*
X32435713Y-57050057D02*
X32388094Y-57002438D01*
X32388094Y-57002438D02*
X32292856Y-56954819D01*
X32292856Y-56954819D02*
X32054761Y-56954819D01*
X32054761Y-56954819D02*
X31959523Y-57002438D01*
X31959523Y-57002438D02*
X31911904Y-57050057D01*
X31911904Y-57050057D02*
X31864285Y-57145295D01*
X31864285Y-57145295D02*
X31864285Y-57240533D01*
X31864285Y-57240533D02*
X31911904Y-57383390D01*
X31911904Y-57383390D02*
X32483332Y-57954819D01*
X32483332Y-57954819D02*
X31864285Y-57954819D01*
X37566666Y-64054819D02*
X37899999Y-63578628D01*
X38138094Y-64054819D02*
X38138094Y-63054819D01*
X38138094Y-63054819D02*
X37757142Y-63054819D01*
X37757142Y-63054819D02*
X37661904Y-63102438D01*
X37661904Y-63102438D02*
X37614285Y-63150057D01*
X37614285Y-63150057D02*
X37566666Y-63245295D01*
X37566666Y-63245295D02*
X37566666Y-63388152D01*
X37566666Y-63388152D02*
X37614285Y-63483390D01*
X37614285Y-63483390D02*
X37661904Y-63531009D01*
X37661904Y-63531009D02*
X37757142Y-63578628D01*
X37757142Y-63578628D02*
X38138094Y-63578628D01*
X37233332Y-63054819D02*
X36614285Y-63054819D01*
X36614285Y-63054819D02*
X36947618Y-63435771D01*
X36947618Y-63435771D02*
X36804761Y-63435771D01*
X36804761Y-63435771D02*
X36709523Y-63483390D01*
X36709523Y-63483390D02*
X36661904Y-63531009D01*
X36661904Y-63531009D02*
X36614285Y-63626247D01*
X36614285Y-63626247D02*
X36614285Y-63864342D01*
X36614285Y-63864342D02*
X36661904Y-63959580D01*
X36661904Y-63959580D02*
X36709523Y-64007200D01*
X36709523Y-64007200D02*
X36804761Y-64054819D01*
X36804761Y-64054819D02*
X37090475Y-64054819D01*
X37090475Y-64054819D02*
X37185713Y-64007200D01*
X37185713Y-64007200D02*
X37233332Y-63959580D01*
X32666666Y-64079819D02*
X32999999Y-63603628D01*
X33238094Y-64079819D02*
X33238094Y-63079819D01*
X33238094Y-63079819D02*
X32857142Y-63079819D01*
X32857142Y-63079819D02*
X32761904Y-63127438D01*
X32761904Y-63127438D02*
X32714285Y-63175057D01*
X32714285Y-63175057D02*
X32666666Y-63270295D01*
X32666666Y-63270295D02*
X32666666Y-63413152D01*
X32666666Y-63413152D02*
X32714285Y-63508390D01*
X32714285Y-63508390D02*
X32761904Y-63556009D01*
X32761904Y-63556009D02*
X32857142Y-63603628D01*
X32857142Y-63603628D02*
X33238094Y-63603628D01*
X31809523Y-63413152D02*
X31809523Y-64079819D01*
X32047618Y-63032200D02*
X32285713Y-63746485D01*
X32285713Y-63746485D02*
X31666666Y-63746485D01*
X47186904Y-53854819D02*
X47186904Y-54664342D01*
X47186904Y-54664342D02*
X47139285Y-54759580D01*
X47139285Y-54759580D02*
X47091666Y-54807200D01*
X47091666Y-54807200D02*
X46996428Y-54854819D01*
X46996428Y-54854819D02*
X46805952Y-54854819D01*
X46805952Y-54854819D02*
X46710714Y-54807200D01*
X46710714Y-54807200D02*
X46663095Y-54759580D01*
X46663095Y-54759580D02*
X46615476Y-54664342D01*
X46615476Y-54664342D02*
X46615476Y-53854819D01*
X45710714Y-53854819D02*
X45901190Y-53854819D01*
X45901190Y-53854819D02*
X45996428Y-53902438D01*
X45996428Y-53902438D02*
X46044047Y-53950057D01*
X46044047Y-53950057D02*
X46139285Y-54092914D01*
X46139285Y-54092914D02*
X46186904Y-54283390D01*
X46186904Y-54283390D02*
X46186904Y-54664342D01*
X46186904Y-54664342D02*
X46139285Y-54759580D01*
X46139285Y-54759580D02*
X46091666Y-54807200D01*
X46091666Y-54807200D02*
X45996428Y-54854819D01*
X45996428Y-54854819D02*
X45805952Y-54854819D01*
X45805952Y-54854819D02*
X45710714Y-54807200D01*
X45710714Y-54807200D02*
X45663095Y-54759580D01*
X45663095Y-54759580D02*
X45615476Y-54664342D01*
X45615476Y-54664342D02*
X45615476Y-54426247D01*
X45615476Y-54426247D02*
X45663095Y-54331009D01*
X45663095Y-54331009D02*
X45710714Y-54283390D01*
X45710714Y-54283390D02*
X45805952Y-54235771D01*
X45805952Y-54235771D02*
X45996428Y-54235771D01*
X45996428Y-54235771D02*
X46091666Y-54283390D01*
X46091666Y-54283390D02*
X46139285Y-54331009D01*
X46139285Y-54331009D02*
X46186904Y-54426247D01*
X41486904Y-33804819D02*
X41486904Y-34614342D01*
X41486904Y-34614342D02*
X41439285Y-34709580D01*
X41439285Y-34709580D02*
X41391666Y-34757200D01*
X41391666Y-34757200D02*
X41296428Y-34804819D01*
X41296428Y-34804819D02*
X41105952Y-34804819D01*
X41105952Y-34804819D02*
X41010714Y-34757200D01*
X41010714Y-34757200D02*
X40963095Y-34709580D01*
X40963095Y-34709580D02*
X40915476Y-34614342D01*
X40915476Y-34614342D02*
X40915476Y-33804819D01*
X40534523Y-33804819D02*
X39915476Y-33804819D01*
X39915476Y-33804819D02*
X40248809Y-34185771D01*
X40248809Y-34185771D02*
X40105952Y-34185771D01*
X40105952Y-34185771D02*
X40010714Y-34233390D01*
X40010714Y-34233390D02*
X39963095Y-34281009D01*
X39963095Y-34281009D02*
X39915476Y-34376247D01*
X39915476Y-34376247D02*
X39915476Y-34614342D01*
X39915476Y-34614342D02*
X39963095Y-34709580D01*
X39963095Y-34709580D02*
X40010714Y-34757200D01*
X40010714Y-34757200D02*
X40105952Y-34804819D01*
X40105952Y-34804819D02*
X40391666Y-34804819D01*
X40391666Y-34804819D02*
X40486904Y-34757200D01*
X40486904Y-34757200D02*
X40534523Y-34709580D01*
X39336904Y-47404819D02*
X39336904Y-48214342D01*
X39336904Y-48214342D02*
X39289285Y-48309580D01*
X39289285Y-48309580D02*
X39241666Y-48357200D01*
X39241666Y-48357200D02*
X39146428Y-48404819D01*
X39146428Y-48404819D02*
X38955952Y-48404819D01*
X38955952Y-48404819D02*
X38860714Y-48357200D01*
X38860714Y-48357200D02*
X38813095Y-48309580D01*
X38813095Y-48309580D02*
X38765476Y-48214342D01*
X38765476Y-48214342D02*
X38765476Y-47404819D01*
X37813095Y-47404819D02*
X38289285Y-47404819D01*
X38289285Y-47404819D02*
X38336904Y-47881009D01*
X38336904Y-47881009D02*
X38289285Y-47833390D01*
X38289285Y-47833390D02*
X38194047Y-47785771D01*
X38194047Y-47785771D02*
X37955952Y-47785771D01*
X37955952Y-47785771D02*
X37860714Y-47833390D01*
X37860714Y-47833390D02*
X37813095Y-47881009D01*
X37813095Y-47881009D02*
X37765476Y-47976247D01*
X37765476Y-47976247D02*
X37765476Y-48214342D01*
X37765476Y-48214342D02*
X37813095Y-48309580D01*
X37813095Y-48309580D02*
X37860714Y-48357200D01*
X37860714Y-48357200D02*
X37955952Y-48404819D01*
X37955952Y-48404819D02*
X38194047Y-48404819D01*
X38194047Y-48404819D02*
X38289285Y-48357200D01*
X38289285Y-48357200D02*
X38336904Y-48309580D01*
X31086904Y-41504819D02*
X31086904Y-42314342D01*
X31086904Y-42314342D02*
X31039285Y-42409580D01*
X31039285Y-42409580D02*
X30991666Y-42457200D01*
X30991666Y-42457200D02*
X30896428Y-42504819D01*
X30896428Y-42504819D02*
X30705952Y-42504819D01*
X30705952Y-42504819D02*
X30610714Y-42457200D01*
X30610714Y-42457200D02*
X30563095Y-42409580D01*
X30563095Y-42409580D02*
X30515476Y-42314342D01*
X30515476Y-42314342D02*
X30515476Y-41504819D01*
X30086904Y-41600057D02*
X30039285Y-41552438D01*
X30039285Y-41552438D02*
X29944047Y-41504819D01*
X29944047Y-41504819D02*
X29705952Y-41504819D01*
X29705952Y-41504819D02*
X29610714Y-41552438D01*
X29610714Y-41552438D02*
X29563095Y-41600057D01*
X29563095Y-41600057D02*
X29515476Y-41695295D01*
X29515476Y-41695295D02*
X29515476Y-41790533D01*
X29515476Y-41790533D02*
X29563095Y-41933390D01*
X29563095Y-41933390D02*
X30134523Y-42504819D01*
X30134523Y-42504819D02*
X29515476Y-42504819D01*
X52234580Y-49058333D02*
X52282200Y-49010714D01*
X52282200Y-49010714D02*
X52329819Y-48867857D01*
X52329819Y-48867857D02*
X52329819Y-48772619D01*
X52329819Y-48772619D02*
X52282200Y-48629762D01*
X52282200Y-48629762D02*
X52186961Y-48534524D01*
X52186961Y-48534524D02*
X52091723Y-48486905D01*
X52091723Y-48486905D02*
X51901247Y-48439286D01*
X51901247Y-48439286D02*
X51758390Y-48439286D01*
X51758390Y-48439286D02*
X51567914Y-48486905D01*
X51567914Y-48486905D02*
X51472676Y-48534524D01*
X51472676Y-48534524D02*
X51377438Y-48629762D01*
X51377438Y-48629762D02*
X51329819Y-48772619D01*
X51329819Y-48772619D02*
X51329819Y-48867857D01*
X51329819Y-48867857D02*
X51377438Y-49010714D01*
X51377438Y-49010714D02*
X51425057Y-49058333D01*
X52329819Y-50010714D02*
X52329819Y-49439286D01*
X52329819Y-49725000D02*
X51329819Y-49725000D01*
X51329819Y-49725000D02*
X51472676Y-49629762D01*
X51472676Y-49629762D02*
X51567914Y-49534524D01*
X51567914Y-49534524D02*
X51615533Y-49439286D01*
X48386904Y-48854819D02*
X48386904Y-49664342D01*
X48386904Y-49664342D02*
X48339285Y-49759580D01*
X48339285Y-49759580D02*
X48291666Y-49807200D01*
X48291666Y-49807200D02*
X48196428Y-49854819D01*
X48196428Y-49854819D02*
X48005952Y-49854819D01*
X48005952Y-49854819D02*
X47910714Y-49807200D01*
X47910714Y-49807200D02*
X47863095Y-49759580D01*
X47863095Y-49759580D02*
X47815476Y-49664342D01*
X47815476Y-49664342D02*
X47815476Y-48854819D01*
X46910714Y-49188152D02*
X46910714Y-49854819D01*
X47148809Y-48807200D02*
X47386904Y-49521485D01*
X47386904Y-49521485D02*
X46767857Y-49521485D01*
D12*
X46415000Y-34801248D02*
X46415000Y-35323752D01*
X47885000Y-34801248D02*
X47885000Y-35323752D01*
X31860000Y-34551248D02*
X31860000Y-35073752D01*
X30390000Y-34551248D02*
X30390000Y-35073752D01*
X29035000Y-34561248D02*
X29035000Y-35083752D01*
X27565000Y-34561248D02*
X27565000Y-35083752D01*
X33165000Y-34476248D02*
X33165000Y-34998752D01*
X34635000Y-34476248D02*
X34635000Y-34998752D01*
X29250000Y-56993000D02*
G75*
G02*
X28550000Y-57693000I-699999J-1D01*
G01*
X28550000Y-55693000D02*
G75*
G02*
X29250000Y-56393000I1J-699999D01*
G01*
X27150000Y-57693000D02*
G75*
G02*
X26450000Y-56993000I0J700000D01*
G01*
X26450000Y-56393000D02*
G75*
G02*
X27150000Y-55693000I700000J0D01*
G01*
X29250000Y-56993000D02*
X29250000Y-56393000D01*
X28550000Y-55693000D02*
X27150000Y-55693000D01*
X27150000Y-57693000D02*
X28550000Y-57693000D01*
X26450000Y-56393000D02*
X26450000Y-56993000D01*
X29250000Y-62200000D02*
G75*
G02*
X28550000Y-62900000I-699999J-1D01*
G01*
X28550000Y-60900000D02*
G75*
G02*
X29250000Y-61600000I1J-699999D01*
G01*
X27150000Y-62900000D02*
G75*
G02*
X26450000Y-62200000I0J700000D01*
G01*
X26450000Y-61600000D02*
G75*
G02*
X27150000Y-60900000I700000J0D01*
G01*
X29250000Y-62200000D02*
X29250000Y-61600000D01*
X28550000Y-60900000D02*
X27150000Y-60900000D01*
X27150000Y-62900000D02*
X28550000Y-62900000D01*
X26450000Y-61600000D02*
X26450000Y-62200000D01*
X32827064Y-56585000D02*
X32372936Y-56585000D01*
X32827064Y-55115000D02*
X32372936Y-55115000D01*
X37172936Y-62685000D02*
X37627064Y-62685000D01*
X37172936Y-61215000D02*
X37627064Y-61215000D01*
X32777064Y-62710000D02*
X32322936Y-62710000D01*
X32777064Y-61240000D02*
X32322936Y-61240000D01*
X43290000Y-63937500D02*
X42610000Y-63937500D01*
X42950000Y-63467500D01*
X43290000Y-63937500D01*
G36*
X43290000Y-63937500D02*
G01*
X42610000Y-63937500D01*
X42950000Y-63467500D01*
X43290000Y-63937500D01*
G37*
X49210000Y-63637500D02*
X49210000Y-63462500D01*
X49210000Y-55392500D02*
X49210000Y-55217500D01*
X49210000Y-55217500D02*
X43690000Y-55217500D01*
X43690000Y-63637500D02*
X49210000Y-63637500D01*
X43690000Y-63462500D02*
X43690000Y-63637500D01*
X43690000Y-55217500D02*
X43690000Y-55392500D01*
X44605000Y-35865000D02*
X44275000Y-35625000D01*
X44605000Y-35385000D01*
X44605000Y-35865000D01*
G36*
X44605000Y-35865000D02*
G01*
X44275000Y-35625000D01*
X44605000Y-35385000D01*
X44605000Y-35865000D01*
G37*
D11*
X42975000Y-40625000D02*
X38475000Y-40625000D01*
X42975000Y-35175000D02*
X38475000Y-35175000D01*
D12*
X42455000Y-49465000D02*
X42125000Y-49225000D01*
X42455000Y-48985000D01*
X42455000Y-49465000D01*
G36*
X42455000Y-49465000D02*
G01*
X42125000Y-49225000D01*
X42455000Y-48985000D01*
X42455000Y-49465000D01*
G37*
D11*
X40825000Y-54225000D02*
X36325000Y-54225000D01*
X40825000Y-48775000D02*
X36325000Y-48775000D01*
D12*
X34205000Y-43565000D02*
X33875000Y-43325000D01*
X34205000Y-43085000D01*
X34205000Y-43565000D01*
G36*
X34205000Y-43565000D02*
G01*
X33875000Y-43325000D01*
X34205000Y-43085000D01*
X34205000Y-43565000D01*
G37*
D11*
X32575000Y-48325000D02*
X28075000Y-48325000D01*
X32575000Y-42875000D02*
X28075000Y-42875000D01*
D12*
X25760000Y-27620000D02*
X25760000Y-29000000D01*
X27140000Y-27620000D02*
X25760000Y-27620000D01*
X28410000Y-30380000D02*
X38680000Y-30380000D01*
X28410000Y-27620000D02*
X28410000Y-30380000D01*
X28410000Y-27620000D02*
X38680000Y-27620000D01*
X38680000Y-27620000D02*
X38680000Y-30380000D01*
X50490000Y-52223752D02*
X50490000Y-51701248D01*
X51960000Y-52223752D02*
X51960000Y-51701248D01*
X26450000Y-58996500D02*
X26450000Y-59596500D01*
X27150000Y-60296500D02*
X28550000Y-60296500D01*
X28550000Y-58296500D02*
X27150000Y-58296500D01*
X29250000Y-59596500D02*
X29250000Y-58996500D01*
X26450000Y-58996500D02*
G75*
G02*
X27150000Y-58296500I700000J0D01*
G01*
X27150000Y-60296500D02*
G75*
G02*
X26450000Y-59596500I0J700000D01*
G01*
X28550000Y-58296500D02*
G75*
G02*
X29250000Y-58996500I1J-699999D01*
G01*
X29250000Y-59596500D02*
G75*
G02*
X28550000Y-60296500I-699999J-1D01*
G01*
D11*
X45375000Y-43125000D02*
X49875000Y-43125000D01*
X45375000Y-48575000D02*
X49875000Y-48575000D01*
D12*
X44075000Y-48125000D02*
X43745000Y-48365000D01*
X43745000Y-47885000D01*
X44075000Y-48125000D01*
G36*
X44075000Y-48125000D02*
G01*
X43745000Y-48365000D01*
X43745000Y-47885000D01*
X44075000Y-48125000D01*
G37*
M02*
