M48
; DRILL file KiCad 10.0.0 date 2026-04-04T23:40:13
; FORMAT={-:-/ absolute / metric / decimal}
; #@! TF.CreationDate,2026-04-04T23:40:13+02:00
; #@! TF.GenerationSoftware,Kicad,Pcbnew,10.0.0
; #@! TF.FileFunction,Plated,1,2,PTH
FMAT,2
METRIC
; #@! TA.AperFunction,Plated,PTH,ViaDrill
T1C0.400
; #@! TA.AperFunction,Plated,PTH,ComponentDrill
T2C1.000
; #@! TA.AperFunction,Plated,PTH,ComponentDrill
T3C1.500
%
G90
G05
T1
X26.204Y-55.758
X26.638Y-42.619
X27.273Y-36.887
X27.686Y-42.499
X29.025Y-48.02
X29.179Y-55.098
X31.541Y-53.966
X31.785Y-32.586
X31.855Y-41.681
X31.916Y-43.203
X32.213Y-58.7
X33.549Y-48.728
X34.662Y-49.173
X34.663Y-52.606
X36.521Y-54.823
X36.795Y-37.713
X37.367Y-34.785
X37.954Y-56.036
X38.338Y-54.107
X38.811Y-55.249
X39.754Y-49.095
X39.785Y-41.696
X40.075Y-35.499
X40.134Y-40.493
X40.376Y-61.017
X42.834Y-50.588
X43.382Y-46.825
X44.266Y-54.019
X44.505Y-59.885
X44.515Y-61.045
X44.675Y-58.394
X45.645Y-54.171
X46.228Y-60.486
X46.736Y-55.985
X46.84Y-54.041
X47.182Y-56.965
X47.281Y-41.418
X47.291Y-61.201
X47.535Y-58.555
X48.062Y-61.978
X49.033Y-53.995
X52.044Y-47.985
T2
X27.14Y-29.0
X29.68Y-29.0
X32.22Y-29.0
X34.76Y-29.0
X37.3Y-29.0
T3
X28.962Y-51.754
X30.614Y-39.962
X32.535Y-51.777
X34.174Y-39.995
X34.773Y-59.078
X37.108Y-45.828
X38.33Y-59.056
X39.8Y-32.525
X40.687Y-45.849
X43.366Y-32.506
X44.169Y-51.766
X46.229Y-39.957
X47.739Y-51.775
X49.807Y-39.948
M30
